<?xml version="1.0" encoding="utf-8"?>
<!-- Generator: Adobe Illustrator 16.0.0, SVG Export Plug-In . SVG Version: 6.00 Build 0)  -->
<!DOCTYPE svg PUBLIC "-//W3C//DTD SVG 1.0//EN" "http://www.w3.org/TR/2001/REC-SVG-20010904/DTD/svg10.dtd">
<svg version="1.0" id="Layer_1" xmlns="http://www.w3.org/2000/svg" xmlns:xlink="http://www.w3.org/1999/xlink" x="0px" y="0px"
	 width="850px" height="650px" viewBox="0 0 850 650" enable-background="new 0 0 850 650" xml:space="preserve">
<title>Layer 1</title>
<path fill="none" stroke="#000000" stroke-width="0.2835" stroke-miterlimit="10" d="M19.225,616.555c0,9.192,10.5,14,18.5,14
	s17.5-7.036,17.5-14"/>
<path fill="none" stroke="#000000" stroke-width="0.2835" stroke-miterlimit="10" d="M60.302,616.555c0,9.192,10.5,14,18.5,14
	s17.5-7.036,17.5-14"/>
<path fill="none" stroke="#000000" stroke-width="0.2835" stroke-miterlimit="10" d="M101.353,616.555c0,9.192,10.5,14,18.5,14
	s17.5-7.036,17.5-14"/>
<path fill="none" stroke="#000000" stroke-width="0.2835" stroke-miterlimit="10" d="M19.225,598.531c0,9.192,10.5,14,18.5,14
	s17.5-7.036,17.5-14"/>
<path fill="none" stroke="#000000" stroke-width="0.2835" stroke-miterlimit="10" d="M60.302,598.531c0,9.192,10.5,14,18.5,14
	s17.5-7.036,17.5-14"/>
<path fill="none" stroke="#000000" stroke-width="0.2835" stroke-miterlimit="10" d="M101.353,598.531c0,9.192,10.5,14,18.5,14
	s17.5-7.036,17.5-14"/>
<path fill="none" stroke="#000000" stroke-width="0.2835" stroke-miterlimit="10" d="M101.353,581.188c0,9.192,10.5,14,18.5,14
	s17.5-7.036,17.5-14"/>
<path fill="none" stroke="#000000" stroke-width="0.2835" stroke-miterlimit="10" d="M60.302,581.188c0,9.192,10.5,14,18.5,14
	s17.5-7.036,17.5-14"/>
<path fill="none" stroke="#000000" stroke-width="0.2835" stroke-miterlimit="10" d="M19.225,581.188c0,9.192,10.5,14,18.5,14
	s17.5-7.036,17.5-14"/>
<path fill="none" stroke="#ED1C24" stroke-width="0.2835" stroke-miterlimit="10" d="M143.302,630.055c0,6.627-5.373,12-12,12h-106
	c-6.627,0-12-5.373-12-12v-106c0-6.627,5.373-12,12-12h106c6.627,0,12,5.373,12,12V630.055z"/>
<path fill="none" stroke="#000000" stroke-width="0.2835" stroke-miterlimit="10" d="M19.238,562.055c0,9.192,10.5,14,18.5,14
	s17.5-7.036,17.5-14"/>
<path fill="none" stroke="#000000" stroke-width="0.2835" stroke-miterlimit="10" d="M60.315,562.055c0,9.192,10.5,14,18.5,14
	s17.5-7.036,17.5-14"/>
<path fill="none" stroke="#000000" stroke-width="0.2835" stroke-miterlimit="10" d="M101.366,562.055c0,9.192,10.5,14,18.5,14
	s17.5-7.036,17.5-14"/>
<path fill="none" stroke="#000000" stroke-width="0.2835" stroke-miterlimit="10" d="M19.238,544.031c0,9.192,10.5,14,18.5,14
	s17.5-7.036,17.5-14"/>
<path fill="none" stroke="#000000" stroke-width="0.2835" stroke-miterlimit="10" d="M60.315,544.031c0,9.192,10.5,14,18.5,14
	s17.5-7.036,17.5-14"/>
<path fill="none" stroke="#000000" stroke-width="0.2835" stroke-miterlimit="10" d="M101.366,544.031c0,9.192,10.5,14,18.5,14
	s17.5-7.036,17.5-14"/>
<path fill="none" stroke="#000000" stroke-width="0.2835" stroke-miterlimit="10" d="M101.366,526.688c0,9.192,10.5,14,18.5,14
	s17.5-7.036,17.5-14"/>
<path fill="none" stroke="#000000" stroke-width="0.2835" stroke-miterlimit="10" d="M60.315,526.688c0,9.192,10.5,14,18.5,14
	s17.5-7.036,17.5-14"/>
<path fill="none" stroke="#000000" stroke-width="0.2835" stroke-miterlimit="10" d="M19.238,526.688c0,9.192,10.5,14,18.5,14
	s17.5-7.036,17.5-14"/>
<g>
</g>
<g>
</g>
<g>
</g>
<g>
</g>
<g>
</g>
<g>
</g>
</svg>
