<?xml version="1.0" encoding="UTF-8" standalone="no"?>
<!-- Created with Inkscape (http://www.inkscape.org/) -->

<svg
   xmlns:dc="http://purl.org/dc/elements/1.1/"
   xmlns:cc="http://creativecommons.org/ns#"
   xmlns:rdf="http://www.w3.org/1999/02/22-rdf-syntax-ns#"
   xmlns:svg="http://www.w3.org/2000/svg"
   xmlns="http://www.w3.org/2000/svg"
   xmlns:sodipodi="http://sodipodi.sourceforge.net/DTD/sodipodi-0.dtd"
   xmlns:inkscape="http://www.inkscape.org/namespaces/inkscape"
   width="5314.9604"
   height="223228.34"
   id="svg2"
   version="1.1"
   inkscape:version="0.48.2 r9819"
   sodipodi:docname="Fake Gecko Black.svg">
  <defs
     id="defs4" />
  <sodipodi:namedview
     id="base"
     pagecolor="#ffffff"
     bordercolor="#666666"
     borderopacity="1.0"
     inkscape:pageopacity="0.0"
     inkscape:pageshadow="2"
     inkscape:zoom="0.028284271"
     inkscape:cx="-242.01471"
     inkscape:cy="202961"
     inkscape:document-units="m"
     inkscape:current-layer="layer1"
     showgrid="false"
     units="m"
     inkscape:window-width="1920"
     inkscape:window-height="1068"
     inkscape:window-x="1981"
     inkscape:window-y="31"
     inkscape:window-maximized="0" />
  <metadata
     id="metadata7">
    <rdf:RDF>
      <cc:Work
         rdf:about="">
        <dc:format>image/svg+xml</dc:format>
        <dc:type
           rdf:resource="http://purl.org/dc/dcmitype/StillImage" />
        <dc:title></dc:title>
      </cc:Work>
    </rdf:RDF>
  </metadata>
  <g
     inkscape:label="Layer 1"
     inkscape:groupmode="layer"
     id="layer1"
     transform="translate(0,222176)">
    <path
       style="fill:none;stroke:#000000;stroke-width:10.62992096;stroke-linecap:butt;stroke-linejoin:miter;stroke-miterlimit:3.38095236;stroke-opacity:1;stroke-dasharray:none"
       d="m 5252.6361,-18390.461 107.3928,1069.221 c 0,0 -448.2225,105.711 -989.6756,1327.402 -792.8515,1788.927 -1021.4413,4605.755 -721.1313,6643.6029 271.8428,1844.6699 1318.28,3496.2316 1588.4958,5288.8251 196.5604,1303.972 289.0636,2596.6853 -252.3314,3861.56682 C 4642.4693,279.53121 3750.1293,641.8872 2400.704,1024.066 l -214.1969,-2172.0472 c 0,0 893.9997,-156.6686 1212.1575,-592.3447 781.4685,-1070.1159 225.3859,-1704.3444 -93.3447,-2354.8299 C 2694.7544,-5341.2399 1772.2253,-6965.0869 1039.6284,-8143.5694 520.81434,-8978.1548 4.4535764,-9403.7908 25.508204,-10228.735 c 43.423623,-1701.419 887.676076,-3101.43 1584.607396,-4594.685 693.2691,-1199.367 1255.5797,-1999.033 2348.3988,-3093.787 305.0915,-305.631 1294.1217,-473.254 1294.1217,-473.254 z"
       id="path3038"
       inkscape:connector-curvature="0"
       sodipodi:nodetypes="ccssscccsssscsc" />
    <path
       style="fill:none;stroke:#000000;stroke-width:10.62992096;stroke-linecap:butt;stroke-linejoin:miter;stroke-miterlimit:3.38095236;stroke-opacity:1;stroke-dasharray:none"
       d="m 116.66219,-14831.201 -101.462457,-1069.8 c 0,0 448.802547,-103.227 997.020767,-1321.894 802.76,-1784.502 1046.9671,-4600.02 757.9623,-6639.503 -261.6084,-1846.148 -1298.87096,-3503.487 -1559.14175,-5297.552 -189.326637,-1305.042 -274.658687,-2598.247 273.74218,-3860.108 345.56891,-477.465 1239.90577,-834.867 2591.42897,-1209.557 l 202.1484,2173.201 c 0,0 -894.854,151.709 -1215.4227,585.615 -787.3918,1065.765 -234.8341,1703.068 80.2835,2355.311 603.647,1249.451 1517.1559,2878.389 2243.2064,4060.916 514.1787,837.448 1028.171,1265.941 1002.542,2090.756 -52.8577,1701.152 -904.8608,3096.461 -1610.0637,4585.828 -699.9087,1195.504 -1266.6448,1992.04 -2365.5188,3080.716 -306.7819,303.936 -1296.72511,466.071 -1296.72511,466.071 z"
       id="path3038-6"
       inkscape:connector-curvature="0"
       sodipodi:nodetypes="ccssscccsssscsc" />
    <path
       style="fill:none;stroke:#000000;stroke-width:10.62992096;stroke-linecap:butt;stroke-linejoin:miter;stroke-miterlimit:3.38095236;stroke-opacity:1;stroke-dasharray:none"
       d="m 228.09173,-53801.945 -108.813,1069.077 c 0,0 448.082,106.309 987.91007,1328.716 790.474,1789.979 1015.322,4607.109 712.305,6644.556 -274.293,1844.307 -1322.92407,3494.477 -1595.52107,5286.71 -198.293003,1303.71 -292.512003,2596.298 247.201,3861.898 342.27903,479.83 1234.13807,843.371 2583.05407,1227.343 l 217.082,-2171.761 c 0,0 -893.79,-157.857 -1211.368,-593.956 -780.048,-1071.152 -223.122,-1704.641 96.472,-2354.703 612.221,-1245.271 1536.906,-2867.892 2271.068,-4045.4 519.923,-833.894 1036.848,-1258.844 1016.89,-2083.815 -41.163,-1701.476 -883.554,-3102.608 -1578.503,-4596.787 -691.674,-1200.288 -1252.921,-2000.701 -2344.286,-3096.904 -304.685,-306.038 -1293.49107,-474.974 -1293.49107,-474.974 z"
       id="path3038-6-3"
       inkscape:connector-curvature="0"
       sodipodi:nodetypes="ccssscccsssscsc" />
    <path
       style="fill:none;stroke:#000000;stroke-width:10.62992096;stroke-linecap:butt;stroke-linejoin:miter;stroke-miterlimit:3.38095236;stroke-opacity:1;stroke-dasharray:none"
       d="m 5251.0967,-50416.388 103.6254,-1069.593 c 0,0 -448.5925,-104.133 -994.3445,-1323.907 -799.1483,-1786.124 -1037.6604,-4602.13 -744.5312,-6641.022 265.3426,-1845.617 1305.9557,-3500.854 1569.8549,-5294.388 191.9661,-1304.658 279.9132,-2597.687 -265.9332,-3860.654 -344.6027,-478.164 -1238.2149,-837.374 -2588.9778,-1214.797 l -206.5436,2172.788 c 0,0 894.5452,153.519 1214.2352,588.072 785.2352,1067.356 231.389,1703.539 -85.0476,2355.144 -606.1726,1248.226 -1522.9749,2875.314 -2251.4159,4056.37 -515.87137,836.406 -1030.728738,1263.859 -1006.7688284,2088.724 49.4168504,1701.255 898.5951884,3098.285 1600.7847284,4589.075 697.4888,1196.918 1262.6122,1994.599 2359.2823,3085.494 306.1662,304.557 1295.7801,468.694 1295.7801,468.694 z"
       id="path3038-6-3-4"
       inkscape:connector-curvature="0"
       sodipodi:nodetypes="ccssscccsssscsc" />
    <path
       style="fill:none;stroke:#000000;stroke-width:10.62992096;stroke-linecap:butt;stroke-linejoin:miter;stroke-miterlimit:3.38095236;stroke-opacity:1;stroke-dasharray:none"
       d="m 5193.7672,-86380.679 -139.047,2192.767 c 0,0 -276.072,140.187 -262.355,510.67 34.572,934.071 486.069,2196.801 492.725,3186.215 15.954,2367.969 20.788,3552.465 -38.943,5776.768 -34.216,1274.523 -600.559,2438.896 -487.172,3301.892 45.54,346.618 222.845,374.949 222.845,374.949 l 117.597,2194.486 c 0,0 -626.69,-196.563 -1232.907,-678.498 -606.218,-481.934 -1158.079,-1206.786 -1493.369,-2104.123 -438.502,-1173.554 -393.577,-3432.917 -413.521,-5642.106 -14.766,-1636.823 63.621,-4394.297 264.645,-5612.165 160.896,-974.788 1216.875,-2384.273 1693.939,-2793.115 563.094,-482.575 1275.563,-707.74 1275.563,-707.74 z"
       id="path3764"
       inkscape:connector-curvature="0"
       sodipodi:nodetypes="ccssssccsssssc" />
    <path
       style="fill:none;stroke:#000000;stroke-width:10.62992096;stroke-linecap:butt;stroke-linejoin:miter;stroke-miterlimit:3.38095236;stroke-opacity:1;stroke-dasharray:none"
       d="m 100.71338,-81930.715 156.6343,-2191.581 c 0,0 277.1871,-137.967 266.4433,-508.55 -27.078,-934.318 -468.430502,-2200.629 -467.148202,-3190.064 3.0437,-2368.022 7.7125,-3552.518 85.285902,-5776.27 44.4394,-1274.207 620.1056,-2434.004 513.6447,-3297.874 -42.7571,-346.98 -219.8298,-376.73 -219.8298,-376.73 l -99.988,-2195.36 c 0,0 625.0929,201.59 1227.42492,688.37 602.332,486.78 1148.3595,1216.04 1476.4407,2116.04 429.0725,1177.03 366.0231,3435.959 368.2433,5645.238 1.6349,1636.888 -98.8711,4393.645 -309.6591,5609.861 -168.7111,973.467 -1235.9642,2374.434 -1716.2924,2779.436 -566.94712,478.042 -1281.19962,697.484 -1281.19962,697.484 z"
       id="path3764-9"
       inkscape:connector-curvature="0"
       sodipodi:nodetypes="ccssssccsssssc" />
    <path
       style="fill:none;stroke:#000000;stroke-width:10.62992096;stroke-linecap:butt;stroke-linejoin:miter;stroke-miterlimit:3.38095236;stroke-opacity:1;stroke-dasharray:none"
       d="m 5033.6864,-113074.35 -113.7516,2194.22 c 0,0 -274.4364,143.36 -256.4485,513.66 45.3419,933.61 511.3706,2191.05 529.4353,3180.32 43.2597,2367.63 61.7527,3551.99 27.6759,5776.84 -19.5159,1274.83 -572.3941,2445.664 -449.0619,3307.294 49.5334,346.07 227.1539,372.35 227.1539,372.35 l 142.8956,2192.99 c 0,0 -628.9151,-189.33 -1240.6501,-664.24 -611.7351,-474.91 -1171.9176,-1193.35 -1517.5341,-2086.76 -452.0053,-1168.42 -433.1377,-3428.154 -478.5563,-5636.964 -33.6413,-1636.55 12.9417,-4394.74 199.9083,-5614.85 149.6443,-976.58 1189.2997,-2398.14 1661.617,-2812.46 557.4913,-489.04 1267.3165,-722.4 1267.3165,-722.4 z"
       id="path3764-7"
       inkscape:connector-curvature="0"
       sodipodi:nodetypes="ccssssccsssssc" />
    <path
       style="fill:none;stroke:#000000;stroke-width:10.62992096;stroke-linecap:butt;stroke-linejoin:miter;stroke-miterlimit:3.38095236;stroke-opacity:1;stroke-dasharray:none"
       d="m 135.71796,-108718.31 147.8664,-2192.19 c 0,0 276.6329,-139.07 264.4068,-509.61 -30.8152,-934.2 -477.229597,-2198.74 -479.905197,-3188.17 -6.4288,-2368.01 -6.4983,-3552.52 62.179097,-5776.56 39.342,-1274.38 610.3641,-2436.46 500.4485,-3299.91 -44.1447,-346.8 -221.335,-375.84 -221.335,-375.84 l -108.769,-2194.94 c 0,0 625.8943,199.08 1230.16864,683.45 604.2744,484.37 1153.2147,1211.43 1484.8935,2110.11 433.7769,1175.31 379.7649,3434.47 390.8219,5643.73 8.183,1636.86 -81.295,4394 -287.2159,5611.05 -164.8157,974.13 -1226.4561,2379.36 -1705.1604,2786.28 -565.03034,480.31 -1278.39934,702.6 -1278.39934,702.6 z"
       id="path3764-3"
       inkscape:connector-curvature="0"
       sodipodi:nodetypes="ccssssccsssssc" />
    <path
       style="fill:none;stroke:#000000;stroke-width:10.62992096;stroke-linecap:butt;stroke-linejoin:miter;stroke-miterlimit:3.38095236;stroke-opacity:1;stroke-dasharray:none"
       d="m 2882.9071,-126774.47 2232.6336,-13.16 c 0,0 -322.519,1046.02 -368.5698,1705.54 -83.4353,1194.83 110.2435,2481.24 309.2427,3413.02 121.893,570.79 339.2809,1376.41 339.2809,1376.41 l -1098.9488,24.82 c 0,0 -11.3236,-427.59 -173.0815,-877.55 -432.4257,-1202.89 -1194.1824,-3062.98 -1421.0397,-4313.54 -87.8631,-484.36 180.4826,-1315.54 180.4826,-1315.54 z"
       id="path3000"
       inkscape:connector-curvature="0"
       sodipodi:nodetypes="ccssccssc" />
    <path
       style="fill:none;stroke:#000000;stroke-width:10.62992096;stroke-linecap:butt;stroke-linejoin:miter;stroke-miterlimit:3.38095236;stroke-opacity:1;stroke-dasharray:none"
       d="m 2359.215,-126339.76 -2229.87501,-111.73 c 0,0 380.5157,-1026.34 463.3799,-1682.26 150.1288,-1188.29 28.6991,-2483.52 -117.8763,-3424.97 -89.7793,-576.71 -261.7704,-1393.23 -261.7704,-1393.23 l 1098.61681,36.68 c 0,0 -12.6082,427.56 123.7313,885.86 364.474,1225.19 1021.0077,3124.97 1177.569,4386.26 60.6364,488.52 -253.7753,1303.39 -253.7753,1303.39 z"
       id="path3000-1"
       inkscape:connector-curvature="0"
       sodipodi:nodetypes="ccssccssc" />
    <path
       style="fill:none;stroke:#000000;stroke-width:10.62992096;stroke-linecap:butt;stroke-linejoin:miter;stroke-miterlimit:3.38095236;stroke-opacity:1;stroke-dasharray:none"
       d="m 1760.9498,-133541.35 2232.6336,-13.16 c 0,0 -322.519,1046.02 -368.5698,1705.54 -83.4353,1194.83 110.2435,2481.24 309.2427,3413.02 121.893,570.79 339.2809,1376.41 339.2809,1376.41 l -1098.9488,24.82 c 0,0 -11.3236,-427.59 -173.0815,-877.55 -432.4257,-1202.89 -1194.1824,-3062.98 -1421.0397,-4313.54 -87.8631,-484.36 180.4826,-1315.54 180.4826,-1315.54 z"
       id="path3000-8"
       inkscape:connector-curvature="0"
       sodipodi:nodetypes="ccssccssc" />
    <path
       style="fill:none;stroke:#000000;stroke-width:10.62992096;stroke-linecap:butt;stroke-linejoin:miter;stroke-miterlimit:3.38095236;stroke-opacity:1;stroke-dasharray:none"
       d="m 3055.2109,-139209.99 2232.1621,47.71 c 0,0 -350.9192,1036.83 -414.9326,1694.86 -115.9811,1192.11 42.5522,2483.32 216.0745,3420.18 106.2852,573.9 301.6285,1385.15 301.6285,1385.15 l -1099.2173,-5.15 c 0,0 0.3388,-427.74 -149.0916,-881.95 -399.4698,-1214.23 -1110.2284,-3094.39 -1302.9069,-4350.68 -74.6257,-486.58 216.2833,-1310.12 216.2833,-1310.12 z"
       id="path3000-7"
       inkscape:connector-curvature="0"
       sodipodi:nodetypes="ccssccssc" />
    <path
       style="fill:none;stroke:#000000;stroke-width:10.62992096;stroke-linecap:butt;stroke-linejoin:miter;stroke-miterlimit:3.38095236;stroke-opacity:1;stroke-dasharray:none"
       d="m 3087.9791,-133882.98 -2225.03288,184.54 c 0,0 241.25978,-1067.68 236.53498,-1728.8 -8.5437,-1197.7 -300.418,-2465.46 -570.37135,-3379.19 -165.35504,-559.76 -443.957134,-1346.31 -443.957134,-1346.31 l 1093.799884,-109.13 c 0,0 44.121,425.48 239.9468,861.69 523.5055,1166.13 1425.8237,2962.24 1748.0292,4191.71 124.7908,476.17 -78.9495,1325.49 -78.9495,1325.49 z"
       id="path3000-7-1"
       inkscape:connector-curvature="0"
       sodipodi:nodetypes="ccssccssc" />
    <path
       style="fill:none;stroke:#000000;stroke-width:10.62992096;stroke-linecap:butt;stroke-linejoin:miter;stroke-miterlimit:3.38095236;stroke-opacity:1;stroke-dasharray:none"
       d="m 4340.5614,-139614.45 -2121.9921,-694.24 c 0,0 637.044,-890.13 889.4955,-1501.17 457.3615,-1106.97 680.8553,-2388.55 787.0296,-3335.39 65.062,-580.03 113.865,-1413.04 113.865,-1413.04 l 1050.299,324.32 c 0,0 -124.617,409.2 -113.61,887.23 29.425,1277.9 163.207,3283.47 -17.463,4541.55 -69.972,487.25 -587.624,1190.74 -587.624,1190.74 z"
       id="path3000-7-1-4"
       inkscape:connector-curvature="0"
       sodipodi:nodetypes="ccssccssc" />
    <path
       style="fill:none;stroke:#000000;stroke-width:10.62992096;stroke-linecap:butt;stroke-linejoin:miter;stroke-miterlimit:3.38095236;stroke-opacity:1;stroke-dasharray:none"
       d="m 1695.1071,-147077.19 2113.0779,720.92 c 0,0 -648.209,882.03 -908.3394,1489.85 -471.2734,1101.12 -710.896,2379.78 -828.9927,3325.21 -72.3646,579.17 -131.6595,1411.49 -131.6595,1411.49 l -1046.12933,-337.52 c 0,0 129.76273,-407.6 124.78003,-885.73 -13.3215,-1278.18 -121.82473,-3285.27 74.6841,-4540.98 76.1056,-486.33 602.5789,-1183.24 602.5789,-1183.24 z"
       id="path3000-7-1-45"
       inkscape:connector-curvature="0"
       sodipodi:nodetypes="ccssccssc" />
    <path
       style="fill:none;stroke:#000000;stroke-width:10.62992096;stroke-linecap:butt;stroke-linejoin:miter;stroke-miterlimit:3.38095236;stroke-opacity:1;stroke-dasharray:none"
       d="m 730.05985,-153360.4 2139.89565,636.93 c 0,0 -612.8744,906.93 -848.801,1524.54 -427.4251,1118.86 -616.3711,2405.99 -697.0427,3355.35 -49.4394,581.57 -75.8219,1415.59 -75.8219,1415.59 l -1058.6409,-295.95 c 0,0 113.56656,-412.41 89.7077,-889.96 -63.78303,-1276.66 -251.454637,-3277.9 -104.68366,-4540.39 56.84232,-488.96 555.38681,-1206.11 555.38681,-1206.11 z"
       id="path3000-7-1-9"
       inkscape:connector-curvature="0"
       sodipodi:nodetypes="ccssccssc" />
    <path
       style="fill:none;stroke:#000000;stroke-width:10.62992096;stroke-linecap:butt;stroke-linejoin:miter;stroke-miterlimit:3.38095236;stroke-opacity:1;stroke-dasharray:none"
       d="m 5157.0727,-146329.78 -1919.1486,-1118.87 c 0,0 245.5686,-885.22 316.7888,-1656.82 123.955,-1343 79.1258,-3518.33 274.0053,-4308.95 95.4805,-387.34 519.724,-856.12 519.724,-856.12 l 933.0709,520.51 c 0,0 -341.1398,650.96 -353.1467,1350.65 -25.3533,1476.61 134.2118,3415.5 302.803,5088.91 31.1685,309.42 -74.0967,980.69 -74.0967,980.69 z"
       id="path3000-9"
       inkscape:connector-curvature="0"
       sodipodi:nodetypes="ccssccssc" />
    <path
       style="fill:none;stroke:#000000;stroke-width:10.62992096;stroke-linecap:butt;stroke-linejoin:miter;stroke-miterlimit:3.38095236;stroke-opacity:1;stroke-dasharray:none"
       d="m 2127.2037,-152997.42 -2024.14078,-915.32 c 0,0 153.1282,-905.81 144.53182,-1680.63 -14.96996,-1348.64 -283.516767,-3507.79 -171.069549,-4314.28 55.095929,-395.11 428.822969,-905.07 428.822969,-905.07 l 981.70084,421.68 c 0,0 -272.309,682.63 -212.217,1379.84 126.8017,1471.36 485.1326,3383.53 825.1103,5030.68 62.8587,304.58 27.2614,983.1 27.2614,983.1 z"
       id="path3000-6"
       inkscape:connector-curvature="0"
       sodipodi:nodetypes="ccssccssc" />
    <path
       style="fill:none;stroke:#000000;stroke-width:10.62992096;stroke-linecap:butt;stroke-linejoin:miter;stroke-miterlimit:3.38095236;stroke-opacity:1;stroke-dasharray:none"
       d="m 1537.2548,-160442.15 2023.7971,916.1 c 0,0 -153.4692,905.74 -145.164,1680.58 14.4625,1348.63 282.1972,3507.88 169.4466,4314.33 -55.2446,395.09 -429.1635,904.91 -429.1635,904.91 l -981.5415,-422.04 c 0,0 272.5651,-682.54 212.7358,-1379.76 -126.2484,-1471.42 -483.8603,-3383.72 -823.2185,-5031 -62.7438,-304.59 -26.892,-983.12 -26.892,-983.12 z"
       id="path3000-5"
       inkscape:connector-curvature="0"
       sodipodi:nodetypes="ccssccssc" />
    <path
       style="fill:none;stroke:#000000;stroke-width:10.62992096;stroke-linecap:butt;stroke-linejoin:miter;stroke-miterlimit:3.38095236;stroke-opacity:1;stroke-dasharray:none"
       d="m 3295.8473,-162058.5 2011.9676,941.8 c 0,0 -164.9905,903.71 -166.5526,1678.59 -2.7116,1348.71 237.506,3511.2 114.495,4316.13 -60.271,394.36 -440.6514,899.38 -440.6514,899.38 l -976.0875,-434.51 c 0,0 281.2343,-679 230.2876,-1376.94 -107.5012,-1472.9 -440.7329,-3389.59 -759.0876,-5041.06 -58.8605,-305.37 -14.3711,-983.39 -14.3711,-983.39 z"
       id="path3000-0"
       inkscape:connector-curvature="0"
       sodipodi:nodetypes="ccssccssc" />
    <path
       style="fill:none;stroke:#000000;stroke-width:10.62992096;stroke-linecap:butt;stroke-linejoin:miter;stroke-miterlimit:3.38095236;stroke-opacity:1;stroke-dasharray:none"
       d="m 2028.8384,-168626.47 -1970.838103,1025.09 c 0,0 202.624923,896.01 236.577473,1670.16 59.09014,1347.42 -90.51805,3518.05 66.03431,4317.14 76.7036,391.5 477.86365,880.17 477.86365,880.17 l 957.07027,-474.93 c 0,0 -309.373,-666.66 -287.6466,-1366.12 45.8344,-1476.1 298.6501,-3405.04 547.6894,-5068.37 46.0437,-307.57 -26.7504,-983.14 -26.7504,-983.14 z"
       id="path3000-0-4"
       inkscape:connector-curvature="0"
       sodipodi:nodetypes="ccssccssc" />
    <path
       style="fill:none;stroke:#000000;stroke-width:10.62992096;stroke-linecap:butt;stroke-linejoin:miter;stroke-miterlimit:3.38095236;stroke-opacity:1;stroke-dasharray:none"
       d="m 4010.1616,-167887.84 -2028.6316,905.35 c 0,0 148.6601,906.53 136.2405,1681.33 -21.622,1348.53 -300.8158,3506.34 -192.3472,4313.35 53.1457,395.39 424.354,907.19 424.354,907.19 l 983.7677,-416.83 c 0,0 -268.9379,-683.97 -205.4065,-1380.88 134.0562,-1470.71 501.8135,-3381.08 849.9121,-5026.53 64.3604,-304.26 32.111,-982.98 32.111,-982.98 z"
       id="path3000-0-4-8"
       inkscape:connector-curvature="0"
       sodipodi:nodetypes="ccssccssc" />
    <path
       style="fill:none;stroke:#000000;stroke-width:10.62992096;stroke-linecap:butt;stroke-linejoin:miter;stroke-miterlimit:3.38095236;stroke-opacity:1;stroke-dasharray:none"
       d="m 3337.9367,-162047.37 2014.208,-936.99 c 0,0 -162.8351,-904.1 -162.5476,-1678.99 0.5056,-1348.71 245.881,-3510.62 124.7904,-4315.84 -59.3296,-394.51 -438.5052,-900.43 -438.5052,-900.43 l -977.1211,432.18 c 0,0 279.6135,679.67 227.0014,1377.5 -111.0133,1472.62 -448.8155,3388.5 -771.1091,5039.22 -59.5889,305.23 -16.7168,983.35 -16.7168,983.35 z"
       id="path3000-0-4-0"
       inkscape:connector-curvature="0"
       sodipodi:nodetypes="ccssccssc" />
    <path
       style="fill:none;stroke:#000000;stroke-width:10.62992096;stroke-linecap:butt;stroke-linejoin:miter;stroke-miterlimit:3.38095236;stroke-opacity:1;stroke-dasharray:none"
       d="m 121.8481,-167701.85 1927.2554,-1104.84 c 0,0 -239.1093,-886.98 -304.7018,-1659.1 -114.1596,-1343.87 -53.4717,-3518.81 -242.5812,-4310.82 -92.6548,-388.03 -513.46946,-859.89 -513.46946,-859.89 l -936.840826,513.69 c 0,0 336.384736,653.44 343.290566,1353.21 14.58639,1476.73 -159.11055,3414.39 -339.897941,5086.53 -33.423418,309.19 66.945261,981.22 66.945261,981.22 z"
       id="path3000-0-4-0-8"
       inkscape:connector-curvature="0"
       sodipodi:nodetypes="ccssccssc" />
    <path
       style="fill:none;stroke:#000000;stroke-width:10.62992096;stroke-linecap:butt;stroke-linejoin:miter;stroke-miterlimit:3.38095236;stroke-opacity:1;stroke-dasharray:none"
       d="m 3633.3173,-170633.59 35.7873,-2.37 c 0,0 27.1903,989.83 43.7859,1414.32 12.8989,330.13 309.7538,457.7 309.7538,457.7 l -290.6659,1000.98 c 0,0 -341.8438,-142.71 -645.2408,-159.29 -388.0178,-21.21 -532.0052,116.34 -532.0052,116.34 l -519.4415,-881.47 c 0,0 172.0496,-108.34 212.3652,-223.58 66.1386,-188.99 35.1336,-440.45 35.1336,-440.45 l -81.9629,-1198.99 54.4346,-5.82 c 0,0 76.1187,658.05 722.9235,611.91 646.8055,-46.13 655.1324,-689.28 655.1324,-689.28 z"
       id="path3787"
       inkscape:connector-curvature="0"
       sodipodi:nodetypes="ccsccsccsccczc" />
    <path
       style="fill:none;stroke:#000000;stroke-width:10.62992096;stroke-linecap:butt;stroke-linejoin:miter;stroke-miterlimit:3.38095236;stroke-opacity:1;stroke-dasharray:none"
       d="m 3904.569,-169640.7 -35.3435,6.1 c 0,0 -130.5236,-981.56 -191.4068,-1401.99 -47.3419,-326.97 -355.9069,-422.81 -355.9069,-422.81 l 184.425,-1025.88 c 0,0 354.8902,106.19 658.358,90.96 388.1089,-19.47 516.927,-171.32 516.927,-171.32 l 608.7488,822.33 c 0,0 -159.7803,125.73 -187.8271,244.56 -46.0181,194.87 11.106,441.71 11.106,441.71 l 206.8629,1183.85 -53.5279,11.48 c 0,0 -144.4978,-646.49 -782.9344,-532.98 -638.4384,113.5 -579.4811,753.99 -579.4811,753.99 z"
       id="path3787-1"
       inkscape:connector-curvature="0"
       sodipodi:nodetypes="ccsccsccsccczc" />
    <path
       style="fill:none;stroke:#000000;stroke-width:10.62992096;stroke-linecap:butt;stroke-linejoin:miter;stroke-miterlimit:3.38095236;stroke-opacity:1;stroke-dasharray:none"
       d="m 1863.567,-170874.31 -35.8465,-1.2 c 0,0 71.4099,-987.63 97.1233,-1411.66 20.0062,-329.78 -262.6859,-486.25 -262.6859,-486.25 l 388.7977,-967.1 c 0,0 325.9526,176 626.1957,222.68 383.9823,59.71 540.9392,-62.84 540.9392,-62.84 l 429.179,928.77 c 0,0 -181.9738,90.7 -233.5526,201.35 -84.6102,181.47 -78.775,434.78 -78.775,434.78 l -37.7142,1201.19 -54.7431,0.37 c 0,0 -10.2805,-662.36 -658.467,-680.79 -648.1877,-18.43 -720.4506,620.7 -720.4506,620.7 z"
       id="path3787-5"
       inkscape:connector-curvature="0"
       sodipodi:nodetypes="ccsccsccsccczc" />
    <path
       style="fill:none;stroke:#000000;stroke-width:10.62992096;stroke-linecap:butt;stroke-linejoin:miter;stroke-miterlimit:3.38095236;stroke-opacity:1;stroke-dasharray:none"
       d="m 4900.7638,-175512.5 35.7873,-2.37 c 0,0 27.1903,989.83 43.7859,1414.32 12.8989,330.13 309.7538,457.7 309.7538,457.7 l -290.6659,1000.98 c 0,0 -341.8438,-142.71 -645.2408,-159.29 -388.0179,-21.21 -532.0053,116.34 -532.0053,116.34 l -519.4415,-881.47 c 0,0 172.0496,-108.34 212.3652,-223.58 66.1386,-188.99 35.1336,-440.45 35.1336,-440.45 l -81.9629,-1198.99 54.4346,-5.82 c 0,0 76.1187,658.05 722.9235,611.91 646.8056,-46.13 655.1325,-689.28 655.1325,-689.28 z"
       id="path3787-7"
       inkscape:connector-curvature="0"
       sodipodi:nodetypes="ccsccsccsccczc" />
    <path
       style="fill:none;stroke:#000000;stroke-width:10.62992096;stroke-linecap:butt;stroke-linejoin:miter;stroke-miterlimit:3.38095236;stroke-opacity:1;stroke-dasharray:none"
       d="m 3241.9249,-176604.77 35.8646,0.28 c 0,0 -45.9202,989.14 -60.6917,1413.69 -11.4955,330.19 275.1372,479.31 275.1372,479.31 l -363.7327,976.81 c 0,0 -330.3818,-167.55 -631.7284,-206.47 -385.395,-49.78 -539.1393,76.77 -539.1393,76.77 l -452.9846,-917.4 c 0,0 179.5746,-95.35 228.2835,-207.3 79.9033,-183.59 67.5373,-436.65 67.5373,-436.65 l 6.7302,-1201.77 54.7156,-1.79 c 0,0 27.3558,661.87 675.802,663.58 648.4461,1.72 704.2063,-639.06 704.2063,-639.06 z"
       id="path3787-2"
       inkscape:connector-curvature="0"
       sodipodi:nodetypes="ccsccsccsccczc" />
    <path
       style="fill:none;stroke:#000000;stroke-width:10.62992096;stroke-linecap:butt;stroke-linejoin:miter;stroke-miterlimit:3.38095236;stroke-opacity:1;stroke-dasharray:none"
       d="m 3784.8438,-175176.36 -35.6133,4.24 c 0,0 -79.1678,-987.03 -118.0471,-1410.06 -30.2291,-329 -333.3778,-440.8 -333.3778,-440.8 l 237.6635,-1014.87 c 0,0 348.8714,124.56 652.7204,125.17 388.5964,0.79 525.156,-144.14 525.156,-144.14 l 565.0446,852.96 c 0,0 -166.1183,117.23 -200.323,234.43 -56.1159,192.2 -11.9391,441.69 -11.9391,441.69 l 144.8557,1193.03 -54.054,8.66 c 0,0 -110.5931,-653.13 -754.0797,-573.07 -643.4878,80.06 -618.0062,722.76 -618.0062,722.76 z"
       id="path3787-15"
       inkscape:connector-curvature="0"
       sodipodi:nodetypes="ccsccsccsccczc" />
    <path
       style="fill:none;stroke:#000000;stroke-width:10.62992096;stroke-linecap:butt;stroke-linejoin:miter;stroke-miterlimit:3.38095236;stroke-opacity:1;stroke-dasharray:none"
       d="m 109.47306,-175384.51 -35.626536,-4.14 c 0,0 152.095476,-978.45 212.468056,-1398.95 46.95987,-327.03 -221.960786,-506.14 -221.960786,-506.14 l 466.735156,-931.99 c 0,0 310.43371,202.13 605.84205,273.25 377.8,90.97 544.2697,-18.3 544.2697,-18.3 l 351.6326,960.81 c 0,0 -188.7925,75.47 -249.2657,181.53 -99.1961,173.93 -114.134,426.86 -114.134,426.86 l -136.0145,1194.06 -54.5903,-4.11 c 0,0 44.0277,-660.97 -600.46884,-732.45 -644.49542,-71.49 -768.8869,559.57 -768.8869,559.57 z"
       id="path3787-3"
       inkscape:connector-curvature="0"
       sodipodi:nodetypes="ccsccsccsccczc" />
    <path
       style="fill:none;stroke:#000000;stroke-width:10.62992096;stroke-linecap:butt;stroke-linejoin:miter;stroke-miterlimit:3.38095236;stroke-opacity:1;stroke-dasharray:none"
       d="m 1536.6154,-181088.4 35.575,-4.56 c 0,0 87.7086,986.31 130.2489,1409 33.0761,328.72 337.1807,437.88 337.1807,437.88 l -228.8694,1016.89 c 0,0 -349.9357,-121.52 -653.7787,-119.5 -388.58825,2.57 -523.88946,148.67 -523.88946,148.67 l -572.406483,-848.03 c 0,0 165.097843,-118.66 198.285853,-236.16 54.4496,-192.69 8.11541,-441.78 8.11541,-441.78 l -155.17709,-1191.72 53.97644,-9.14 c 0,0 116.24288,652.16 759.01266,566.53 642.77017,-85.63 611.72617,-728.08 611.72617,-728.08 z"
       id="path3787-54"
       inkscape:connector-curvature="0"
       sodipodi:nodetypes="ccsccsccsccczc" />
    <path
       style="fill:none;stroke:#000000;stroke-width:10.62992096;stroke-linecap:butt;stroke-linejoin:miter;stroke-miterlimit:3.38095236;stroke-opacity:1;stroke-dasharray:none"
       d="m 4970.0523,-178249.78 2.1106,35.81 c 0,0 -990.0012,20.03 -1414.5984,33.54 -330.2155,10.52 -459.9311,306.44 -459.9311,306.44 l -998.8494,-297.9 c 0,0 145.1794,-340.79 163.9545,-644.07 24.0181,-387.86 -112.4883,-532.83 -112.4883,-532.83 l 885.2075,-513.05 c 0,0 107.093,172.82 222.0384,213.97 188.5064,67.5 440.1816,38.33 440.1816,38.33 l 1199.5524,-73.28 5.4271,54.47 c 0,0 -658.5856,71.35 -617.1253,718.47 41.4478,647.13 684.5206,660.1 684.5206,660.1 z"
       id="path3787-17"
       inkscape:connector-curvature="0"
       sodipodi:nodetypes="ccsccsccsccczc" />
    <path
       style="fill:none;stroke:#000000;stroke-width:10.62992096;stroke-linecap:butt;stroke-linejoin:miter;stroke-miterlimit:3.38095236;stroke-opacity:1;stroke-dasharray:none"
       d="m 2301.7175,-181208.45 -5.1011,-35.5 c 0,0 984.8486,-102.84 1406.8247,-151.86 328.1756,-38.12 432.6601,-343.86 432.6601,-343.86 l 1020.2842,213.23 c 0,0 -116.1381,351.76 -109.4575,655.53 8.5384,388.51 156.7013,521.55 156.7013,521.55 l -839.1453,585.36 c 0,0 -121.1855,-163.26 -239.1722,-194.64 -193.4961,-51.49 -441.847,-1.33 -441.847,-1.33 l -1189.205,173.45 -9.9676,-53.83 c 0,0 650.2976,-126.24 554.8075,-767.62 -95.4801,-641.38 -737.3821,-600.48 -737.3821,-600.48 z"
       id="path3787-6"
       inkscape:connector-curvature="0"
       sodipodi:nodetypes="ccsccsccsccczc" />
    <path
       style="fill:none;stroke:#000000;stroke-width:10.62992096;stroke-linecap:butt;stroke-linejoin:miter;stroke-miterlimit:3.38095236;stroke-opacity:1;stroke-dasharray:none"
       d="m 619.15265,-180513.32 -35.49718,5.13 c 0,0 -103.57634,-984.77 -152.9157,-1406.72 -38.36425,-328.15 -344.186692,-432.4 -344.186692,-432.4 l 212.468672,-1020.44 c 0,0 351.84669,115.87 655.61808,108.97 388.49627,-8.84 521.42787,-157.09 521.42787,-157.09 l 585.9849,838.7 c 0,0 -163.166,121.31 -194.4584,239.32 -51.3409,193.53 -1.0026,441.84 -1.0026,441.84 l 174.3436,1189.08 -53.8221,10.01 c 0,0 -126.7273,-650.2 -768.035,-554.23 -641.30853,95.96 -599.92545,737.83 -599.92545,737.83 z"
       id="path3787-71"
       inkscape:connector-curvature="0"
       sodipodi:nodetypes="ccsccsccsccczc" />
    <path
       style="fill:none;stroke:#000000;stroke-width:10.62992096;stroke-linecap:butt;stroke-linejoin:miter;stroke-miterlimit:3.38095236;stroke-opacity:1;stroke-dasharray:none"
       d="m 5276.1261,-181963.68 4.569,35.57 c 0,0 -986.2787,88.07 -1408.9419,130.77 -328.7097,33.2 -437.7628,337.34 -437.7628,337.34 l -1016.9754,-228.49 c 0,0 121.3947,-349.98 119.2655,-653.82 -2.7174,-388.59 -148.8706,-523.84 -148.8706,-523.84 l 847.8201,-572.72 c 0,0 118.7263,165.06 236.2296,198.2 192.7032,54.38 441.7775,7.95 441.7775,7.95 l 1191.67,-155.62 9.16,53.98 c 0,0 -652.1158,116.48 -566.245,759.22 85.862,642.74 728.304,611.46 728.304,611.46 z"
       id="path3787-39"
       inkscape:connector-curvature="0"
       sodipodi:nodetypes="ccsccsccsccczc" />
    <path
       style="fill:none;stroke:#000000;stroke-width:10.62992096;stroke-linecap:butt;stroke-linejoin:miter;stroke-miterlimit:3.38095236;stroke-opacity:1;stroke-dasharray:none"
       d="m 2391.616,-184872.83 -3.7998,-35.66 c 0,0 987.9512,-66.75 1411.4376,-100.31 329.3507,-26.09 444.947,-327.81 444.947,-327.81 l 1011.8026,250.4 c 0,0 -128.9251,347.28 -133.3589,651.1 -5.6759,388.56 137.5221,526.93 137.5221,526.93 l -859.9927,554.27 c 0,0 -115.1338,-167.58 -231.8933,-203.25 -191.4845,-58.53 -441.5028,-17.49 -441.5028,-17.49 l -1194.7536,129.84 -7.9919,-54.16 c 0,0 654.4793,-102.37 582.5108,-746.81 -71.9595,-644.45 -714.9272,-627.05 -714.9272,-627.05 z"
       id="path3787-35"
       inkscape:connector-curvature="0"
       sodipodi:nodetypes="ccsccsccsccczc" />
    <path
       style="fill:none;stroke:#000000;stroke-width:10.62992096;stroke-linecap:butt;stroke-linejoin:miter;stroke-miterlimit:3.38095236;stroke-opacity:1;stroke-dasharray:none"
       d="m 5271.6243,-185578.5 4.1383,35.63 c 0,0 -987.2706,76.16 -1410.4189,113.75 -329.0864,29.22 -441.8052,332.03 -441.8052,332.03 l -1014.1412,-240.76 c 0,0 125.6127,-348.49 127.1541,-652.34 1.9761,-388.59 -142.5329,-525.59 -142.5329,-525.59 l 854.6758,-562.44 c 0,0 116.7241,166.48 233.8186,201.04 192.0321,56.7 441.6495,13.28 441.6495,13.28 l 1193.4625,-141.21 8.5072,54.08 c 0,0 -653.4748,108.6 -575.3739,752.33 78.0919,643.73 720.8661,620.2 720.8661,620.2 z"
       id="path3787-0"
       inkscape:connector-curvature="0"
       sodipodi:nodetypes="ccsccsccsccczc" />
    <path
       style="fill:none;stroke:#000000;stroke-width:10.62992096;stroke-linecap:butt;stroke-linejoin:miter;stroke-miterlimit:3.38095236;stroke-opacity:1;stroke-dasharray:none"
       d="m 2433.7794,-188432.67 -4.1611,-35.62 c 0,0 987.2224,-76.78 1410.3467,-114.63 329.0683,-29.43 441.5961,-332.31 441.5961,-332.31 l 1014.2929,240.12 c 0,0 -125.3935,348.57 -126.743,652.41 -1.7314,388.6 142.8639,525.51 142.8639,525.51 l -854.3214,562.98 c 0,0 -116.8289,-166.41 -233.945,-200.89 -192.068,-56.58 -441.6575,-13.01 -441.6575,-13.01 l -1193.3735,141.96 -8.5416,-54.07 c 0,0 653.4067,-109.01 574.8995,-752.69 -78.4972,-643.68 -721.256,-619.76 -721.256,-619.76 z"
       id="path3787-06"
       inkscape:connector-curvature="0"
       sodipodi:nodetypes="ccsccsccsccczc" />
    <path
       style="fill:none;stroke:#000000;stroke-width:10.62992096;stroke-linecap:butt;stroke-linejoin:miter;stroke-miterlimit:3.38095236;stroke-opacity:1;stroke-dasharray:none"
       d="m 432.30184,-183447.33 -35.59731,-4.44 c 0,0 160.35505,-977.13 224.27801,-1397.11 49.72374,-326.62 -217.67393,-507.99 -217.67393,-507.99 l 474.59565,-928.01 c 0,0 308.70704,204.74 603.51094,278.35 377.0165,94.16 544.404,-13.7 544.404,-13.7 l 343.4995,963.75 c 0,0 -189.4263,73.87 -250.7873,179.42 -100.6665,173.08 -117.7421,425.87 -117.7421,425.87 l -146.0896,1192.88 -54.5645,-4.58 c 0,0 49.6126,-660.57 -594.2557,-737.5 -643.8669,-76.93 -773.57766,553.06 -773.57766,553.06 z"
       id="path3787-14"
       inkscape:connector-curvature="0"
       sodipodi:nodetypes="ccsccsccsccczc" />
    <path
       style="fill:none;stroke:#000000;stroke-width:10.62992096;stroke-linecap:butt;stroke-linejoin:miter;stroke-miterlimit:3.38095236;stroke-opacity:1;stroke-dasharray:none"
       d="m 1641.4152,-189053.61 35.7873,-2.37 c 0,0 27.1903,989.83 43.7859,1414.32 12.8989,330.13 309.7538,457.7 309.7538,457.7 l -290.6659,1000.98 c 0,0 -341.8438,-142.71 -645.2408,-159.29 -388.01783,-21.21 -532.00523,116.34 -532.00523,116.34 l -519.441536,-881.47 c 0,0 172.049596,-108.34 212.365196,-223.58 66.1386,-188.99 35.1336,-440.45 35.1336,-440.45 l -81.9629,-1198.99 54.4346,-5.82 c 0,0 76.1187,658.05 722.92354,611.91 646.80553,-46.13 655.13243,-689.28 655.13243,-689.28 z"
       id="path3787-51"
       inkscape:connector-curvature="0"
       sodipodi:nodetypes="ccsccsccsccczc" />
    <path
       style="fill:none;stroke:#000000;stroke-width:10.62992096;stroke-linecap:butt;stroke-linejoin:miter;stroke-miterlimit:3.38095236;stroke-opacity:1;stroke-dasharray:none"
       d="m 5298.9886,-189055.11 2.257,35.8 c 0,0 -989.9106,24.06 -1414.4509,39.32 -330.169,11.86 -458.6751,308.31 -458.6751,308.31 l -1000.0579,-293.83 c 0,0 143.7879,-341.39 161.3251,-644.73 22.4342,-387.95 -114.6608,-532.37 -114.6608,-532.37 l 883.1046,-516.66 c 0,0 107.7966,172.39 222.9088,213.07 188.7804,66.74 440.337,36.53 440.337,36.53 l 1199.2422,-78.18 5.649,54.45 c 0,0 -658.2873,74.04 -614.1883,720.99 44.0889,646.95 687.2093,657.3 687.2093,657.3 z"
       id="path3787-9"
       inkscape:connector-curvature="0"
       sodipodi:nodetypes="ccsccsccsccczc" />
    <path
       style="fill:none;stroke:#000000;stroke-width:10.62992096;stroke-linecap:butt;stroke-linejoin:miter;stroke-miterlimit:3.38095236;stroke-opacity:1;stroke-dasharray:none"
       d="m 2381.1038,-192117.93 -2.7959,-35.76 c 0,0 989.4361,-38.97 1413.6985,-60.62 329.953,-16.83 453.9798,-315.18 453.9798,-315.18 l 1004.3695,278.73 c 0,0 -138.6301,343.52 -151.597,647.09 -16.5891,388.24 122.6654,530.58 122.6654,530.58 l -875.2235,529.9 c 0,0 -110.3806,-170.75 -226.0924,-209.69 -189.764,-63.88 -440.8371,-29.89 -440.8371,-29.89 l -1197.9292,96.24 -6.4676,-54.37 c 0,0 657.0971,-83.94 603.2601,-730.15 -53.8271,-646.21 -697.0306,-646.88 -697.0306,-646.88 z"
       id="path3787-03"
       inkscape:connector-curvature="0"
       sodipodi:nodetypes="ccsccsccsccczc" />
    <path
       style="fill:none;stroke:#000000;stroke-width:10.62992096;stroke-linecap:butt;stroke-linejoin:miter;stroke-miterlimit:3.38095236;stroke-opacity:1;stroke-dasharray:none"
       d="m 1774.7522,-191987.03 35.7873,-2.37 c 0,0 27.1903,989.83 43.7859,1414.32 12.8989,330.13 309.7538,457.7 309.7538,457.7 l -290.6659,1000.98 c 0,0 -341.8438,-142.71 -645.2408,-159.29 -388.01789,-21.21 -532.00529,116.34 -532.00529,116.34 l -519.4415,-881.47 c 0,0 172.0496,-108.34 212.3652,-223.58 66.1386,-188.99 35.1336,-440.45 35.1336,-440.45 l -81.9629,-1198.99 54.4346,-5.82 c 0,0 76.1187,658.05 722.92349,611.91 646.8056,-46.13 655.1325,-689.28 655.1325,-689.28 z"
       id="path3787-64"
       inkscape:connector-curvature="0"
       sodipodi:nodetypes="ccsccsccsccczc" />
    <path
       style="fill:none;stroke:#000000;stroke-width:10.62992096;stroke-linecap:butt;stroke-linejoin:miter;stroke-miterlimit:3.38095236;stroke-opacity:1;stroke-dasharray:none"
       d="m 4983.7502,-194421.27 c -105.2113,397.03 32.4628,594.51 32.4628,594.51 l -945.6532,384.65 c 0,0 -72.9419,-307.59 -620.2896,-341.33 -486.6703,-30.01 -1259.2116,-96.64 -1259.2116,-96.64 0,0 -708.1711,-51.62 -643.4305,-791.02 64.7403,-739.4 808.3376,-674.93 808.3376,-674.93 l 1391.913,159.76 c 0,0 150.6358,27.16 301.7183,-34.54 149.2612,-60.97 227.8938,-207.43 227.8938,-207.43 l 952.3328,454.34 c 0,0 -178.9823,299.44 -246.0734,552.63 z"
       id="path2996"
       inkscape:connector-curvature="0"
       sodipodi:nodetypes="sccsczccsccs" />
    <path
       style="fill:none;stroke:#000000;stroke-width:10.62992096;stroke-linecap:butt;stroke-linejoin:miter;stroke-miterlimit:3.38095236;stroke-opacity:1;stroke-dasharray:none"
       d="m 189.41197,-192699.28 c 29.53125,-409.67 -142.466857,-578.09 -142.466857,-578.09 l 857.608597,-553.81 c 0,0 128.87739,288.63 672.94989,219.99 483.7588,-61.04 1255.2113,-139.27 1255.2113,-139.27 0,0 705.417,-80.98 779.3292,657.55 73.9156,738.56 -668.6997,813.5 -668.6997,813.5 l -1397.3357,101.94 c 0,0 -153.0624,1.31 -290.0288,90.05 -135.3186,87.66 -185.3417,246.18 -185.3417,246.18 l -1020.218317,-269.28 c 0,0 120.165787,-327.51 138.992087,-588.76 z"
       id="path2996-8"
       inkscape:connector-curvature="0"
       sodipodi:nodetypes="sccsczccsccs" />
    <path
       style="fill:none;stroke:#000000;stroke-width:10.62992096;stroke-linecap:butt;stroke-linejoin:miter;stroke-miterlimit:3.38095236;stroke-opacity:1;stroke-dasharray:none"
       d="m 1088.2175,-99544.899 c -407.08122,-54.698 -585.78363,106.608 -585.78363,106.608 L 2.4802625,-100328.37 c 0,0 296.0209375,-110.86 261.0085075,-658.13 -31.12501,-486.6 -61.70719,-1261.4 -61.70719,-1261.4 0,0 -37.39945,-709.07 704.28161,-737.37 741.69141,-28.3 770.77881,717.52 770.77881,717.52 l 15.7064,1400.96 c 0,0 -8.1086,152.84 72.0218,295.02 79.1616,140.46 234.3151,200.15 234.3151,200.15 l -331.6009,1001.694 c 0,0 -319.4821,-140.101 -579.0669,-174.973 z"
       id="path2996-60-81-6"
       inkscape:connector-curvature="0"
       sodipodi:nodetypes="sccsczccsccs" />
    <path
       style="fill:none;stroke:#000000;stroke-width:10.62992096;stroke-linecap:butt;stroke-linejoin:miter;stroke-miterlimit:3.38095236;stroke-opacity:1;stroke-dasharray:none"
       d="m 998.27609,-108568.89 c 396.31901,107.88 594.72441,-28.46 594.72441,-28.46 l 378.2698,948.21 c 0,0 -308.0518,70.88 -345.48,617.98 -33.2863,486.46 -105.0974,1258.53 -105.0974,1258.53 0,0 -56.3906,707.82 -795.33055,638.11 -738.950381,-69.71 -669.476561,-812.86 -669.476561,-812.86 l 169.090781,-1390.79 c 0,0 28.18585,-150.46 -32.50608,-301.95 -59.95757,-149.66 -205.888781,-229.28 -205.888781,-229.28 l 460.742061,-949.26 c 0,0 298.22954,180.98 550.95232,249.77 z"
       id="path2996-60-81-65"
       inkscape:connector-curvature="0"
       sodipodi:nodetypes="sccsczccsccs" />
    <path
       style="fill:none;stroke:#000000;stroke-width:10.62992096;stroke-linecap:butt;stroke-linejoin:miter;stroke-miterlimit:3.38095236;stroke-opacity:1;stroke-dasharray:none"
       d="m 4200.4423,-95490.454 c 409.1565,36.031 580.2973,-133.271 580.2973,-133.271 l 540.1256,866.291 c 0,0 -290.6427,124.279 -230.6455,669.376 53.34,484.668 119.3144,1257.259 119.3144,1257.259 0,0 69.7794,706.619 -669.8322,768.799 -739.622,62.181 -802.7782,-681.529 -802.7782,-681.529 l -79.7425,-1398.777 c 0,0 1.1122,-153.051 -85.435,-291.419 -85.5007,-136.694 -243.221,-189.227 -243.221,-189.227 l 285.456,-1015.814 c 0,0 325.5534,125.347 586.4611,148.312 z"
       id="path2996-60-81-6-0"
       inkscape:connector-curvature="0"
       sodipodi:nodetypes="sccsczccsccs" />
    <path
       style="fill:none;stroke:#000000;stroke-width:10.62992096;stroke-linecap:butt;stroke-linejoin:miter;stroke-miterlimit:3.38095236;stroke-opacity:1;stroke-dasharray:none"
       d="m 4332.4905,-86494.818 c -400.837,-89.647 -592.8014,55.622 -592.8014,55.622 l -421.2268,-929.924 c 0,0 304.489,-84.89 316.8644,-633.13 11.0103,-487.473 47.447,-1262.019 47.447,-1262.019 0,0 23.9697,-709.658 765.3242,-673.805 741.3648,35.852 705.9408,781.401 705.9408,781.401 l -105.3264,1397.067 c 0,0 -21.2773,151.591 46.2774,300.148 66.7374,146.762 216.1562,219.627 216.1562,219.627 l -416.8597,969.332 c 0,0 -306.1921,-167.155 -561.7957,-224.319 z"
       id="path2996-60-81-65-1"
       inkscape:connector-curvature="0"
       sodipodi:nodetypes="sccsczccsccs" />
    <path
       style="fill:none;stroke:#000000;stroke-width:10.62992096;stroke-linecap:butt;stroke-linejoin:miter;stroke-miterlimit:3.38095236;stroke-opacity:1;stroke-dasharray:none"
       d="m 1117.7343,-72785.589 c -407.08134,-54.7 -585.78373,106.6 -585.78373,106.6 l -499.953603,-890.08 c 0,0 296.020903,-110.86 261.008503,-658.13 -31.125,-486.6 -61.7072,-1261.4 -61.7072,-1261.4 0,0 -37.3994,-709.07 704.28159,-737.37 741.69154,-28.3 770.77894,717.52 770.77894,717.52 l 15.7064,1400.96 c 0,0 -8.1086,152.84 72.0218,295.02 79.1616,140.46 234.3151,200.15 234.3151,200.15 l -331.6009,1001.7 c 0,0 -319.4821,-140.1 -579.0669,-174.97 z"
       id="path2996-60-81-6-1"
       inkscape:connector-curvature="0"
       sodipodi:nodetypes="sccsczccsccs" />
    <path
       style="fill:none;stroke:#000000;stroke-width:10.62992096;stroke-linecap:butt;stroke-linejoin:miter;stroke-miterlimit:3.38095236;stroke-opacity:1;stroke-dasharray:none"
       d="m 1087.0536,-81824.404 c 396.3191,107.88 594.7245,-28.46 594.7245,-28.46 l 378.2698,948.21 c 0,0 -308.0518,70.88 -345.48,617.98 -33.2863,486.46 -105.0974,1258.53 -105.0974,1258.53 0,0 -56.3906,707.82 -795.33056,638.11 -738.95039,-69.71 -669.47659,-812.86 -669.47659,-812.86 l 169.0908,-1390.79 c 0,0 28.1859,-150.46 -32.5061,-301.95 -59.9575,-149.66 -205.8888,-229.28 -205.8888,-229.28 l 460.7421,-949.26 c 0,0 298.22949,180.98 550.95225,249.77 z"
       id="path2996-60-81-65-19"
       inkscape:connector-curvature="0"
       sodipodi:nodetypes="sccsczccsccs" />
    <path
       style="fill:none;stroke:#000000;stroke-width:10.62992096;stroke-linecap:butt;stroke-linejoin:miter;stroke-miterlimit:3.38095236;stroke-opacity:1;stroke-dasharray:none"
       d="m 583.6714,-61860.141 c -305.76098,-274.258 -544.248103,-241.454 -544.248103,-241.454 l 87.472843,-1017.126 c 0,0 307.09592,74.903 586.06299,-397.229 248.04576,-419.788 658.69087,-1077.526 658.69087,-1077.526 0,0 368.0275,-607.236 997.1031,-213.338 629.0839,393.904 233.5081,1026.845 233.5081,1026.845 l -775.2412,1167.02 c 0,0 -92.6961,121.792 -106.4468,284.417 -13.5839,160.658 81.099,297.299 81.099,297.299 l -837.72582,641.542 c 0,0 -185.29343,-295.572 -380.27498,-470.45 z"
       id="path2996-60-81-6-9"
       inkscape:connector-curvature="0"
       sodipodi:nodetypes="sccsczccsccs" />
    <path
       style="fill:none;stroke:#000000;stroke-width:10.62992096;stroke-linecap:butt;stroke-linejoin:miter;stroke-miterlimit:3.38095236;stroke-opacity:1;stroke-dasharray:none"
       d="m 1294.4667,-72401.923 c 396.3191,107.88 594.7245,-28.46 594.7245,-28.46 l 378.2698,948.21 c 0,0 -308.0518,70.88 -345.48,617.98 -33.2863,486.46 -105.0974,1258.53 -105.0974,1258.53 0,0 -56.3906,707.82 -795.3306,638.11 -738.95032,-69.71 -669.47652,-812.86 -669.47652,-812.86 l 169.0908,-1390.79 c 0,0 28.1858,-150.46 -32.5061,-301.95 -59.9576,-149.66 -205.8888,-229.28 -205.8888,-229.28 l 460.7421,-949.26 c 0,0 298.22952,180.98 550.95222,249.77 z"
       id="path2996-60-81-65-3"
       inkscape:connector-curvature="0"
       sodipodi:nodetypes="sccsczccsccs" />
    <path
       style="fill:none;stroke:#000000;stroke-width:10.62992096;stroke-linecap:butt;stroke-linejoin:miter;stroke-miterlimit:3.38095236;stroke-opacity:1;stroke-dasharray:none"
       d="m 1101.8689,-68742.564 c 396.319,107.88 594.724,-28.46 594.724,-28.46 l 378.27,948.21 c 0,0 -308.052,70.88 -345.48,617.98 -33.286,486.46 -105.097,1258.53 -105.097,1258.53 0,0 -56.391,707.82 -795.33074,638.11 -738.950398,-69.71 -669.4766,-812.86 -669.4766,-812.86 l 169.0908,-1390.79 c 0,0 28.1859,-150.46 -32.5061,-301.95 -59.9575,-149.66 -205.888698,-229.28 -205.888698,-229.28 l 460.741998,-949.26 c 0,0 298.2296,180.98 550.95234,249.77 z"
       id="path2996-60-81-65-2"
       inkscape:connector-curvature="0"
       sodipodi:nodetypes="sccsczccsccs" />
    <path
       style="fill:none;stroke:#000000;stroke-width:10.62992096;stroke-linecap:butt;stroke-linejoin:miter;stroke-miterlimit:3.38095236;stroke-opacity:1;stroke-dasharray:none"
       d="m 5129.215,-38430.705 c -36.8159,409.086 132.1572,580.552 132.1572,580.552 l -867.3259,538.462 c 0,0 -123.7202,-290.88 -668.931,-231.929 -484.7694,52.409 -1257.4867,116.901 -1257.4867,116.901 0,0 -706.7506,68.423 -767.5117,-671.306 -60.7613,-739.74 683.0684,-801.469 683.0684,-801.469 l 1398.9276,-77.058 c 0,0 153.048,1.406 291.5821,-84.876 136.8569,-85.238 189.6934,-242.858 189.6934,-242.858 l 1015.2638,287.406 c 0,0 -125.971,325.311 -149.4372,586.175 z"
       id="path2996-60-81-6-18"
       inkscape:connector-curvature="0"
       sodipodi:nodetypes="sccsczccsccs" />
    <path
       style="fill:none;stroke:#000000;stroke-width:10.62992096;stroke-linecap:butt;stroke-linejoin:miter;stroke-miterlimit:3.38095236;stroke-opacity:1;stroke-dasharray:none"
       d="m 4227.8174,-39541.129 c -391.4804,-124.297 -595.3939,3.658 -595.3939,3.658 l -338.4358,-963.147 c 0,0 310.7374,-57.984 370.9269,-603.049 53.525,-484.651 157.4407,-1253.059 157.4407,-1253.059 0,0 85.8317,-704.856 821.2258,-604.42 735.4044,100.437 635.0288,840.047 635.0288,840.047 l -226.8887,1382.537 c 0,0 -34.4301,149.155 19.8977,303.042 53.6701,152.028 196.1574,237.659 196.1574,237.659 l -499.8912,929.24 c 0,0 -290.4306,-193.248 -540.0677,-272.508 z"
       id="path2996-60-81-65-4"
       inkscape:connector-curvature="0"
       sodipodi:nodetypes="sccsczccsccs" />
    <path
       style="fill:none;stroke:#000000;stroke-width:10.62992096;stroke-linecap:butt;stroke-linejoin:miter;stroke-miterlimit:3.38095236;stroke-opacity:1;stroke-dasharray:none"
       d="m 5137.0169,-31281.692 c 22.0646,410.147 213.8215,555.686 213.8215,555.686 l -781.4078,656.961 c 0,0 -164.0465,-270.198 -695.2234,-133.884 -472.292,121.196 -1227.8438,295.528 -1227.8438,295.528 0,0 -689.702,168.791 -855.6247,-554.647 -165.9246,-723.447 561.4325,-890.914 561.4325,-890.914 l 1373.5289,-276.322 c 0,0 151.6765,-20.496 276.4473,-125.701 123.2614,-103.934 153.0142,-267.489 153.0142,-267.489 l 1045.9294,139.261 c 0,0 -78.1546,339.984 -64.0741,601.521 z"
       id="path2996-60-81-6-6"
       inkscape:connector-curvature="0"
       sodipodi:nodetypes="sccsczccsccs" />
    <path
       style="fill:none;stroke:#000000;stroke-width:10.62992096;stroke-linecap:butt;stroke-linejoin:miter;stroke-miterlimit:3.38095236;stroke-opacity:1;stroke-dasharray:none"
       d="m 4376.0326,-36445.383 c 396.3191,107.88 594.7245,-28.46 594.7245,-28.46 l 378.2698,948.21 c 0,0 -308.0518,70.88 -345.48,617.98 -33.2863,486.46 -105.0974,1258.53 -105.0974,1258.53 0,0 -56.3906,707.82 -795.3306,638.11 -738.9504,-69.71 -669.4765,-812.86 -669.4765,-812.86 l 169.0907,-1390.79 c 0,0 28.1859,-150.46 -32.506,-301.95 -59.9576,-149.66 -205.8888,-229.28 -205.8888,-229.28 l 460.742,-949.26 c 0,0 298.2296,180.98 550.9523,249.77 z"
       id="path2996-60-81-65-0"
       inkscape:connector-curvature="0"
       sodipodi:nodetypes="sccsczccsccs" />
    <path
       style="fill:none;stroke:#000000;stroke-width:10.62992096;stroke-linecap:butt;stroke-linejoin:miter;stroke-miterlimit:3.38095236;stroke-opacity:1;stroke-dasharray:none"
       d="m 3651.7852,-29659.392 c 409.3182,-34.141 549.1437,-230.106 549.1437,-230.106 l 679.7001,761.708 c 0,0 -265.2461,171.943 -113.3424,698.863 135.0608,468.518 331.5807,1218.604 331.5807,1218.604 0,0 189.0411,684.436 -529.1934,871.602 -718.2442,187.169 -907.0716,-534.94 -907.0716,-534.94 l -316.6697,-1364.775 c 0,0 -24.9615,-151.028 -133.7957,-272.633 -107.5183,-120.137 -271.8783,-145.058 -271.8783,-145.058 l 108.3783,-1049.587 c 0,0 342.1372,68.094 603.1483,46.322 z"
       id="path2996-60-81-65-9"
       inkscape:connector-curvature="0"
       sodipodi:nodetypes="sccsczccsccs" />
    <path
       style="fill:none;stroke:#000000;stroke-width:10.62992096;stroke-linecap:butt;stroke-linejoin:miter;stroke-miterlimit:3.38095236;stroke-opacity:1;stroke-dasharray:none"
       d="m 310.08365,-3463.4955 c 146.33837,-383.7868 30.17628,-594.639 30.17628,-594.639 l 980.82107,-283.1712 c 0,0 40.2313,313.5279 581.007,404.588 480.8243,80.971 1242.0883,228.3735 1242.0883,228.3735 0,0 698.8345,125.735 556.7837,854.2358 -142.0532,728.5108 -874.7632,586.2801 -874.7632,586.2801 l -1367.4315,-305.0686 c 0,0 -146.936,-42.8438 -303.6723,2.6509 -154.8403,44.945 -248.42785,182.3381 -248.42785,182.3381 L 7.3339647,-2939.7823 c 0,0 209.4440753,-278.9802 302.7496853,-523.7132 z"
       id="path2996-60-81-6-2"
       inkscape:connector-curvature="0"
       sodipodi:nodetypes="sccsczccsccs" />
    <path
       style="fill:none;stroke:#000000;stroke-width:10.62992096;stroke-linecap:butt;stroke-linejoin:miter;stroke-miterlimit:3.38095236;stroke-opacity:1;stroke-dasharray:none"
       d="m 1785.4016,-4631.3919 c -402.0165,84.2 -516.6912,295.8672 -516.6912,295.8672 l -768.18287,-672.3728 c 0,0 242.09691,-203.246 26.56981,-707.4954 C 335.46498,-6163.7547 48.226,-6883.9927 48.226,-6883.9927 c 0,0 -271.74657,-656.0052 418.03142,-930.0455 689.78718,-274.0451 965.95298,419.3747 965.95298,419.3747 l 482.0426,1315.4936 c 0,0 43.3385,146.8143 166.2964,254.118 121.4714,106.0081 287.6484,110.5347 287.6484,110.5347 l 21.4717,1054.9487 c 0,0 -347.9131,-25.5177 -604.2679,28.1766 z"
       id="path2996-60-81-65-8"
       inkscape:connector-curvature="0"
       sodipodi:nodetypes="sccsczccsccs" />
    <path
       style="fill:none;stroke:#000000;stroke-width:10.62992096;stroke-linecap:butt;stroke-linejoin:miter;stroke-miterlimit:3.38095236;stroke-opacity:1;stroke-dasharray:none"
       d="m 4390.1681,-113421.91 c -405.3733,-66.18 -588.5617,90.01 -588.5617,90.01 l -474.6061,-903.85 c 0,0 299.0349,-102.45 279.4987,-650.49 -17.3644,-487.29 -26.0437,-1262.64 -26.0437,-1262.64 0,0 -17.3508,-709.85 724.8337,-717.18 742.195,-7.34 750.1988,739.01 750.1988,739.01 l -23.8818,1400.84 c 0,0 -12.4236,152.55 63.6577,296.94 75.1615,142.64 228.5666,206.69 228.5666,206.69 l -359.77,991.93 c 0,0 -315.3962,-149.07 -573.8922,-191.26 z"
       id="path2996-60-81-6-3"
       inkscape:connector-curvature="0"
       sodipodi:nodetypes="sccsczccsccs" />
    <path
       style="fill:none;stroke:#000000;stroke-width:10.62992126;stroke-linecap:butt;stroke-linejoin:miter;stroke-miterlimit:4;stroke-opacity:1;stroke-dasharray:none"
       d="m 595.9109,-195695.22 c 0,-24800 100,-24700 100,-24700"
       id="path4528-4"
       inkscape:connector-curvature="0" />
    <path
       style="fill:none;stroke:#000000;stroke-width:10.62992126;stroke-linecap:butt;stroke-linejoin:miter;stroke-miterlimit:4;stroke-opacity:1;stroke-dasharray:none"
       d="m 1401.1289,-195703.18 c 642.583,-24812.46 739.959,-24709.73 739.959,-24709.73"
       id="path4528-31"
       inkscape:connector-curvature="0"
       inkscape:transform-center-x="428.91521"
       inkscape:transform-center-y="-13.025295" />
    <path
       style="fill:none;stroke:#000000;stroke-width:10.62992126;stroke-linecap:butt;stroke-linejoin:miter;stroke-miterlimit:4;stroke-opacity:1;stroke-dasharray:none"
       d="m 2070.9109,-195720.22 c 0,-24800 100,-24700 100,-24700"
       id="path4528-4-9"
       inkscape:connector-curvature="0" />
    <path
       style="fill:none;stroke:#000000;stroke-width:10.62992126;stroke-linecap:butt;stroke-linejoin:miter;stroke-miterlimit:4;stroke-opacity:1;stroke-dasharray:none"
       d="m 2881.4999,-195755.31 c 642.583,-24812.46 739.959,-24709.73 739.959,-24709.73"
       id="path4528-31-0"
       inkscape:connector-curvature="0"
       inkscape:transform-center-x="428.91521"
       inkscape:transform-center-y="-13.025295" />
    <path
       style="fill:none;stroke:#000000;stroke-width:10.62992126;stroke-linecap:butt;stroke-linejoin:miter;stroke-miterlimit:4;stroke-opacity:1;stroke-dasharray:none"
       d="m 3551.2819,-195772.35 c 0,-24800 100,-24700 100,-24700"
       id="path4528-4-9-6"
       inkscape:connector-curvature="0" />
    <path
       style="fill:none;stroke:#000000;stroke-width:10.62992126;stroke-linecap:butt;stroke-linejoin:miter;stroke-miterlimit:4;stroke-opacity:1;stroke-dasharray:none"
       d="m 4401.7799,-195755.31 c 642.583,-24812.46 739.959,-24709.73 739.959,-24709.73"
       id="path4528-31-2"
       inkscape:connector-curvature="0"
       inkscape:transform-center-x="428.91521"
       inkscape:transform-center-y="-13.025295" />
    <path
       style="fill:none;stroke:#000000;stroke-width:10.62992126;stroke-linecap:butt;stroke-linejoin:miter;stroke-miterlimit:4;stroke-opacity:1;stroke-dasharray:none"
       d="m 5071.5619,-195772.35 c 0,-24800 100,-24700 100,-24700"
       id="path4528-4-9-1"
       inkscape:connector-curvature="0" />
    <path
       style="fill:none;stroke:#000000;stroke-width:10.62992126;stroke-linecap:butt;stroke-linejoin:miter;stroke-miterlimit:4;stroke-opacity:1;stroke-dasharray:none"
       d="M 35.355339,1637.3701 C 5161.8795,1672.7255 5161.8795,1672.7255 5161.8795,1672.7255"
       id="path4633"
       inkscape:connector-curvature="0"
       transform="translate(0,-197372.85)" />
    <path
       style="fill:none;stroke:#000000;stroke-width:10.62992126;stroke-linecap:butt;stroke-linejoin:miter;stroke-miterlimit:4;stroke-opacity:1;stroke-dasharray:none"
       d="m 194.45438,-220395.83 c 5126.52412,35.36 5126.52412,35.36 5126.52412,35.36"
       id="path4633-2"
       inkscape:connector-curvature="0" />
  </g>
</svg>
