<?xml version="1.0" encoding="UTF-8" standalone="no"?>
<!-- Created with Inkscape (http://www.inkscape.org/) -->

<svg
   xmlns:dc="http://purl.org/dc/elements/1.1/"
   xmlns:cc="http://creativecommons.org/ns#"
   xmlns:rdf="http://www.w3.org/1999/02/22-rdf-syntax-ns#"
   xmlns:svg="http://www.w3.org/2000/svg"
   xmlns="http://www.w3.org/2000/svg"
   xmlns:sodipodi="http://sodipodi.sourceforge.net/DTD/sodipodi-0.dtd"
   xmlns:inkscape="http://www.inkscape.org/namespaces/inkscape"
   width="5314.9604"
   height="128267.71"
   id="svg2"
   version="1.1"
   inkscape:version="0.48.2 r9819"
   sodipodi:docname="Fake Gecko White.svg">
  <defs
     id="defs4" />
  <sodipodi:namedview
     id="base"
     pagecolor="#ffffff"
     bordercolor="#666666"
     borderopacity="1.0"
     inkscape:pageopacity="0.0"
     inkscape:pageshadow="2"
     inkscape:zoom="0.09460089"
     inkscape:cx="1126.7869"
     inkscape:cy="127186.96"
     inkscape:document-units="m"
     inkscape:current-layer="layer1"
     showgrid="false"
     units="m"
     inkscape:window-width="1536"
     inkscape:window-height="1056"
     inkscape:window-x="1920"
     inkscape:window-y="22"
     inkscape:window-maximized="0" />
  <metadata
     id="metadata7">
    <rdf:RDF>
      <cc:Work
         rdf:about="">
        <dc:format>image/svg+xml</dc:format>
        <dc:type
           rdf:resource="http://purl.org/dc/dcmitype/StillImage" />
        <dc:title></dc:title>
      </cc:Work>
    </rdf:RDF>
  </metadata>
  <g
     inkscape:label="Layer 1"
     inkscape:groupmode="layer"
     id="layer1"
     transform="translate(0,127215.37)">
    <path
       style="fill:none;stroke:#0000ff;stroke-width:8.98923492;stroke-linecap:butt;stroke-linejoin:miter;stroke-miterlimit:3;stroke-opacity:1;stroke-dasharray:none"
       d="m 5314.4523,-32887.55 c 0.018,-34.884 -0.5268,-69.336 -1.6567,-103.292 -40.3509,-1211.768 -482.9925,-2961.122 -1069.8691,-4308.4 -366.4534,-1053.793 -1091.9844,-2017.857 -1515.4978,-2015.98 -297.0053,1.315 -941.8804,78.806 -1753.03481,2281.359 -660.3402,1861.527 -923.914463,2830.355 -964.264443,4042.122 -28.94533,869.272 330.504513,2053.121 519.465423,2999.905 280.42552,1405.064 235.14942,3637.835 168.82952,4162.24 -66.31988,524.406 -409.58011,1631.722 -687.957843,1768.098 l -0.3371,4621.366 c 0,0 527.917103,451.076 720.768543,2012.942 62.6541,2202.942 99.7167,6250.114 -77.92587,7649.1655 -227.3809,1790.776 -642.842673,2012.942 -642.842673,2012.942 l 0,4688.1957 c 0,0 392.611133,227.6577 636.354243,1402.5741 145.2957,1198.84389 88.3624,2436.26869 84.8979,2702.4418 252.3692,11.5619 3044.86611,10.8923 3854.15611,6.2107 0,0 -57.1796,-1723.55371 90.9036,-2707.7257 151.9127,-1009.6214 636.3543,-1402.5742 636.3543,-1402.5733 l 0,-4688.1953 c 0,0 -415.4627,-222.167 -642.8427,-2012.943 -177.6426,-1399.0505 -140.58,-5446.2235 -77.9259,-7649.1655 192.8515,-1561.864 720.7686,-2012.942 720.7686,-2012.942 l -0.3371,-4621.366 c -278.3778,-136.376 -621.638,-1243.692 -687.9579,-1768.098 -66.3198,-524.406 -111.5959,-2757.177 168.8295,-4162.241 181.579,-909.8 520.599,-2038.515 521.1222,-2896.64 z"
       id="path3768"
       inkscape:connector-curvature="0"
       sodipodi:nodetypes="sscscssscccscccccsccscccsss" />
    <path
       style="fill:none;stroke:#0000ff;stroke-width:8.98923492;stroke-linecap:butt;stroke-linejoin:miter;stroke-miterlimit:3;stroke-opacity:1;stroke-dasharray:none"
       d="m 5316.8079,-73319.449 c 0.02,-34.88 -0.527,-69.34 -1.657,-103.29 -40.351,-1211.77 -482.992,-2961.12 -1069.869,-4308.4 -366.453,-1053.8 -1091.984,-2017.86 -1515.498,-2015.98 -297.005,1.31 -941.88,78.8 -1753.0344,2281.36 -660.34023,1861.52 -923.914427,2830.35 -964.264427,4042.12 -28.9453,869.27 330.504497,2053.12 519.465397,2999.9 280.4255,1405.07 235.1494,3637.84 168.8295,4162.24 -66.3198,524.41 -409.5801,1631.73 -687.957797,1768.1 l -0.3371,4621.37 c 0,0 527.917097,451.07 720.768497,2012.94 62.6541,2202.94 99.7167,6250.11 -77.9258,7649.17 -227.3809,1790.77 -642.842697,2012.94 -642.842697,2012.94 l 0,4688.19 c 0,0 392.611097,227.66 636.354197,1402.58 145.2957,1198.84 88.3624,2436.27 84.8979,2702.44 252.36923,11.56 3044.86573,10.89 3854.15573,6.21 0,0 -57.179,-1723.55 90.904,-2707.73 151.913,-1009.62 636.354,-1402.57 636.354,-1402.57 l 0,-4688.19 c 0,0 -415.462,-222.17 -642.842,-2012.95 -177.643,-1399.05 -140.58,-5446.22 -77.926,-7649.16 192.851,-1561.87 720.768,-2012.95 720.768,-2012.95 l -0.337,-4621.36 c -278.378,-136.38 -621.638,-1243.69 -687.958,-1768.1 -66.319,-524.41 -111.596,-2757.18 168.83,-4162.24 181.579,-909.8 520.599,-2038.52 521.122,-2896.64 z"
       id="path3768-8"
       inkscape:connector-curvature="0"
       sodipodi:nodetypes="sscscssscccscccccsccscccsss" />
    <path
       style="fill:none;stroke:#000000;stroke-width:10.62992096;stroke-linecap:butt;stroke-linejoin:miter;stroke-miterlimit:3;stroke-opacity:1;stroke-dasharray:none"
       d="m 75.915587,-82641.968 c 0,0 245.030003,160.698 560.620003,230.113 435.91001,95.881 1164.09991,266.209 1164.09991,266.209 l 618.14,175.968 0,2161.255 c 0,0 -543.08,182.085 -834.73,412.85 -367.6299,290.89 -689.99991,645.35 -956.53991,1030.995 -233.77,338.211 -549.340003,1104.316 -549.340003,1104.316 z"
       id="path3764"
       inkscape:connector-curvature="0"
       sodipodi:nodetypes="cscccsscc" />
    <path
       style="fill:none;stroke:#000000;stroke-width:10.62992096;stroke-linecap:butt;stroke-linejoin:miter;stroke-miterlimit:3;stroke-opacity:1;stroke-dasharray:none"
       d="m 5272.8713,-82631.399 c 0,0 -245.03,160.7 -560.62,230.12 -435.91,95.88 -1164.0999,266.21 -1164.0999,266.21 l -618.14,175.96 0,2161.26 c 0,0 543.08,182.09 834.73,412.85 367.6299,290.89 689.9999,645.35 956.5399,1030.99 233.77,338.22 549.34,1104.32 549.34,1104.32 z"
       id="path3764-2"
       inkscape:connector-curvature="0"
       sodipodi:nodetypes="cscccsscc" />
    <path
       style="fill:none;stroke:#000000;stroke-width:10.62992096;stroke-linecap:butt;stroke-linejoin:miter;stroke-miterlimit:3;stroke-opacity:1;stroke-dasharray:none"
       d="m 2418.7756,-82096.366 c 0,0 -245.03,-160.7 -560.62,-230.12 -435.91,-95.88 -1164.10005,-266.21 -1164.10005,-266.21 l -618.139996,-175.96 0,-2161.26 c 0,0 543.079996,-182.09 834.729996,-412.85 367.63005,-290.89 690.00005,-645.35 956.54005,-1030.99 233.77,-338.22 549.34,-1104.32 549.34,-1104.32 z"
       id="path3764-9"
       inkscape:connector-curvature="0"
       sodipodi:nodetypes="cscccsscc" />
    <path
       style="fill:none;stroke:#000000;stroke-width:10.62992096;stroke-linecap:butt;stroke-linejoin:miter;stroke-miterlimit:3;stroke-opacity:1;stroke-dasharray:none"
       d="m 2930.0115,-82085.796 c 0,0 245.03,-160.7 560.62,-230.12 435.91,-95.88 1164.1,-266.21 1164.1,-266.21 l 618.14,-175.96 0,-2161.26 c 0,0 -543.08,-182.09 -834.73,-412.85 -367.63,-290.89 -690,-645.35 -956.54,-1030.99 -233.77,-338.22 -549.34,-1104.32 -549.34,-1104.32 z"
       id="path3764-2-9"
       inkscape:connector-curvature="0"
       sodipodi:nodetypes="cscccsscc" />
    <path
       style="fill:none;stroke:#000000;stroke-width:10.62992096;stroke-linecap:butt;stroke-linejoin:miter;stroke-miterlimit:3;stroke-opacity:1;stroke-dasharray:none"
       d="m 86.486221,-90398.237 c 0,0 245.029999,160.7 560.619999,230.12 435.90998,95.88 1164.09988,266.2 1164.09988,266.2 l 618.14,175.97 0,2161.26 c 0,0 -543.08,182.08 -834.73,412.85 -367.6299,290.89 -689.99988,645.35 -956.53988,1030.99 -233.77,338.21 -549.339999,1104.32 -549.339999,1104.32 z"
       id="path3764-3"
       inkscape:connector-curvature="0"
       sodipodi:nodetypes="cscccsscc" />
    <path
       style="fill:none;stroke:#000000;stroke-width:10.62992096;stroke-linecap:butt;stroke-linejoin:miter;stroke-miterlimit:3;stroke-opacity:1;stroke-dasharray:none"
       d="m 5283.4419,-90387.667 c 0,0 -245.03,160.7 -560.62,230.12 -435.91,95.88 -1164.0999,266.21 -1164.0999,266.21 l -618.14,175.96 0,2161.26 c 0,0 543.08,182.09 834.73,412.85 367.6299,290.89 689.9999,645.35 956.5399,1030.99 233.77,338.22 549.34,1104.32 549.34,1104.32 z"
       id="path3764-2-95"
       inkscape:connector-curvature="0"
       sodipodi:nodetypes="cscccsscc" />
    <path
       style="fill:none;stroke:#000000;stroke-width:10.62992096;stroke-linecap:butt;stroke-linejoin:miter;stroke-miterlimit:3;stroke-opacity:1;stroke-dasharray:none"
       d="m 2429.3462,-89852.637 c 0,0 -245.03,-160.69 -560.62,-230.11 -435.91,-95.89 -1164.09998,-266.21 -1164.09998,-266.21 l -618.140029,-175.97 0,-2161.25 c 0,0 543.080029,-182.09 834.730029,-412.85 367.62998,-290.9 689.99998,-645.36 956.53998,-1030.99 233.77,-338.23 549.34,-1104.33 549.34,-1104.33 z"
       id="path3764-9-1"
       inkscape:connector-curvature="0"
       sodipodi:nodetypes="cscccsscc" />
    <path
       style="fill:none;stroke:#000000;stroke-width:10.62992096;stroke-linecap:butt;stroke-linejoin:miter;stroke-miterlimit:3;stroke-opacity:1;stroke-dasharray:none"
       d="m 2940.5821,-89842.057 c 0,0 245.03,-160.71 560.62,-230.12 435.91,-95.88 1164.1,-266.21 1164.1,-266.21 l 618.14,-175.97 0,-2161.25 c 0,0 -543.08,-182.1 -834.73,-412.85 -367.63,-290.9 -690,-645.35 -956.54,-1031 -233.77,-338.22 -549.34,-1104.32 -549.34,-1104.32 z"
       id="path3764-2-9-7"
       inkscape:connector-curvature="0"
       sodipodi:nodetypes="cscccsscc" />
    <path
       style="fill:none;stroke:#ff0000;stroke-width:3.54330707;stroke-linecap:butt;stroke-linejoin:miter;stroke-miterlimit:3;stroke-opacity:1;stroke-dasharray:none"
       d="m 1022.3658,-101453.48 c 0,0 94.4703,464.77 171.3542,1194.25 117.7281,1116.984 19.7879,2796.01 182.5036,3673.586 254.5515,1372.834 756.046,1717.352 756.046,1717.352 l -2018.02159,757.575 c 0,0 -226.77192,-1618.121 116.01298,-3805.933 196.18608,-1252.154 273.01404,-1750.768 78.78252,-2506.18 -122.5685,-476.72 -304.9182159,-644.16 -304.9182159,-644.16 z"
       id="path3008"
       inkscape:connector-curvature="0"
       sodipodi:nodetypes="cssccsscc" />
    <path
       style="fill:none;stroke:#ff0000;stroke-width:3.54330707;stroke-linecap:butt;stroke-linejoin:miter;stroke-miterlimit:3;stroke-opacity:1;stroke-dasharray:none"
       d="m 1946.9018,-95159.139 c 0,0 -94.2971,-464.805 -170.909,-1194.315 -117.3117,-1117.032 -18.7458,-2796.016 -181.1345,-3673.656 -254.0399,-1372.92 -755.40585,-1717.63 -755.40585,-1717.63 l 2018.30395,-756.83 c 0,0 226.1688,1618.22 -117.4314,3805.897 -196.6528,1252.076 -273.6667,1750.668 -79.7166,2506.149 122.3908,476.766 304.678,644.274 304.678,644.274 z"
       id="path3008-9"
       inkscape:connector-curvature="0"
       sodipodi:nodetypes="cssccsscc" />
    <path
       style="fill:none;stroke:#ff0000;stroke-width:3.54330707;stroke-linecap:butt;stroke-linejoin:miter;stroke-miterlimit:3;stroke-opacity:1;stroke-dasharray:none"
       d="m 4193.0291,-101962.71 c 0,0 94.4703,464.77 171.3542,1194.25 117.7281,1116.993 19.7879,2796.014 182.5036,3673.594 254.5515,1372.83 756.046,1717.35 756.046,1717.35 l -2018.0216,757.58 c 0,0 -226.772,-1618.13 116.0129,-3805.94 196.1861,-1252.151 273.0141,-1750.774 78.7826,-2506.184 -122.5685,-476.72 -304.9182,-644.16 -304.9182,-644.16 z"
       id="path3008-6"
       inkscape:connector-curvature="0"
       sodipodi:nodetypes="cssccsscc" />
    <path
       style="fill:none;stroke:#ff0000;stroke-width:3.54330707;stroke-linecap:butt;stroke-linejoin:miter;stroke-miterlimit:3;stroke-opacity:1;stroke-dasharray:none"
       d="m 5238.6557,-108941.71 c 0,0 10.1971,474.16 -44.049,1205.67 -83.0602,1120.11 -478.4243,2754.85 -474.5832,3647.38 6.018,1396.22 438.1473,1824.53 438.1473,1824.53 l -2120.6731,386.12 c 0,0 64.999,-1632.65 791.8967,-3724.45 416.0255,-1197.21 580.4167,-1674.17 523.8082,-2452.1 -35.7182,-490.93 -185.3368,-688.16 -185.3368,-688.16 z"
       id="path3008-3"
       inkscape:connector-curvature="0"
       sodipodi:nodetypes="cssccsscc" />
    <path
       style="fill:none;stroke:#ff0000;stroke-width:3.54330707;stroke-linecap:butt;stroke-linejoin:miter;stroke-miterlimit:3;stroke-opacity:1;stroke-dasharray:none"
       d="m 73.651431,-109389.96 c 0,0 -18.753285,473.9 22.281326,1206.27 62.830483,1121.42 428.625613,2763.03 408.676263,3655.35 -31.21658,1395.88 -471.005884,1816.32 -471.005884,1816.32 l 2113.358864,424.34 c 0,0 -35.5216,-1633.56 -724.5471,-3738.14 -394.35,-1204.53 -550.10598,-1684.38 -479.46648,-2461.15 44.57296,-490.21 197.72708,-684.71 197.72708,-684.71 z"
       id="path3008-3-1"
       inkscape:connector-curvature="0"
       sodipodi:nodetypes="cssccsscc" />
    <path
       style="fill:none;stroke:#ff0000;stroke-width:3.54330707;stroke-linecap:butt;stroke-linejoin:miter;stroke-miterlimit:3;stroke-opacity:1;stroke-dasharray:none"
       d="m 2208.1937,-103035.77 c 0,0 -107.62,-461.9 -205.173,-1188.9 -149.3785,-1113.2 -99.1218,-2794.32 -286.675,-3666.93 -293.406,-1365.06 -804.47325,-1695.2 -804.47325,-1695.2 l 1995.71025,-814.55 c 0,0 272.5978,1611.04 -7.9669,3807.7 -160.5736,1257.21 -223.2233,1757.81 -7.6329,2507.4 136.0478,473.06 323.0743,635.25 323.0743,635.25 z"
       id="path3008-3-0"
       inkscape:connector-curvature="0"
       sodipodi:nodetypes="cssccsscc" />
    <path
       style="fill:none;stroke:#ff0000;stroke-width:3.54330707;stroke-linecap:butt;stroke-linejoin:miter;stroke-miterlimit:3;stroke-opacity:1;stroke-dasharray:none"
       d="m 1047.4854,-116799.37 c 0,0 92.9254,465.09 167.3856,1194.81 114.0186,1117.38 10.5013,2796.06 170.3013,3674.18 249.9904,1373.67 750.337,1719.85 750.337,1719.85 l -2020.52638,750.88 c 0,0 -221.39585,-1618.87 128.65429,-3805.54 200.34286,-1251.49 278.8282,-1749.85 87.10603,-2505.9 -120.98527,-477.14 -302.776671,-645.17 -302.776671,-645.17 z"
       id="path3008-3-9"
       inkscape:connector-curvature="0"
       sodipodi:nodetypes="cssccsscc" />
    <path
       style="fill:none;stroke:#ff0000;stroke-width:3.54330707;stroke-linecap:butt;stroke-linejoin:miter;stroke-miterlimit:3;stroke-opacity:1;stroke-dasharray:none"
       d="m 5218.3098,-115739.01 c 0,0 16.0622,474 -29.1309,1206.12 -69.1962,1121.05 -444.3067,2760.56 -429.4256,3652.98 23.2902,1396.04 460.6864,1818.96 460.6864,1818.96 l -2115.7351,412.33 c 0,0 44.7959,-1633.33 745.7613,-3733.96 401.182,-1202.26 559.6615,-1681.23 493.4338,-2458.4 -41.789,-490.45 -193.8365,-685.81 -193.8365,-685.81 z"
       id="path3008-3-2"
       inkscape:connector-curvature="0"
       sodipodi:nodetypes="cssccsscc" />
    <path
       style="fill:none;stroke:#000000;stroke-width:10.62992096;stroke-linecap:butt;stroke-linejoin:miter;stroke-miterlimit:3;stroke-opacity:1;stroke-dasharray:none"
       d="m 2140.1614,-111392.99 c 0,0 -61.1418,-367.88 -318.097,-974.59 -228.5442,-539.63 -435.3242,-690.28 -455.7135,-927.22 -24.1802,-281 73.166,-505.83 218.8328,-744.48 128.7754,-210.99 259.9567,-363.03 489.5536,-454.59 206.8774,-82.5 376.5038,-61.39 598.9699,-50.76 268.1413,12.81 545.2882,49.78 777.1946,184.99 144.1914,84.08 247.873,300.4 371.1131,515.5 148.8182,259.75 278.8213,421.39 242.5209,718.54 -26.9031,220.22 -230.7179,442.46 -394.8013,668.9 -150.2298,207.33 -267.3182,400.1 -394.8013,663.27 -61.3963,126.75 -73.3202,400.44 -73.3202,400.44 z"
       id="path3764-38"
       inkscape:connector-curvature="0"
       sodipodi:nodetypes="csssssssssscc" />
    <path
       style="fill:none;stroke:#000000;stroke-width:10.62992096;stroke-linecap:butt;stroke-linejoin:miter;stroke-miterlimit:3;stroke-opacity:1;stroke-dasharray:none"
       d="m 1838.0498,-117820.08 c 0,0 274.6949,252.23 850.7257,572.08 512.3422,284.5 768.0358,275.89 929.9909,450.03 192.0701,206.53 253.8017,443.62 285.9601,721.36 28.4443,245.54 18.685,446.12 -105.8488,659.63 -112.2175,192.39 -258.8779,280.2 -440.7139,408.8 -219.1725,155 -460.3203,296.52 -726.3088,332.77 -165.3864,22.53 -380.2751,-84.09 -609.8252,-177.7 -277.1981,-113.04 -479.1585,-160.37 -633.5163,-416.86 -114.3974,-190.09 -90.6316,-490.7 -100.7657,-770.16 -9.2809,-255.87 -35.7102,-479.86 -97.2992,-765.72 -29.6613,-137.68 -188.7849,-360.67 -188.7849,-360.67 z"
       id="path3764-38-6"
       inkscape:connector-curvature="0"
       sodipodi:nodetypes="csssssssssscc" />
    <path
       style="fill:none;stroke:#000000;stroke-width:10.62992096;stroke-linecap:butt;stroke-linejoin:miter;stroke-miterlimit:3;stroke-opacity:1;stroke-dasharray:none"
       d="m 4328.6676,-116179.71 c 0,0 -221.4781,-300.03 -725.8479,-723.98 -448.6037,-377.08 -701.2379,-417.45 -826.9641,-619.31 -149.1049,-239.4 -164.428,-483.93 -142.9696,-762.7 18.9633,-246.45 66.8314,-441.48 229.8449,-627.28 146.8824,-167.42 307.6072,-225.61 510.6559,-317.13 244.7366,-110.31 508.4647,-203.18 776.4778,-187.97 166.647,9.45 357.2284,155.14 564.6832,290.85 250.5143,163.89 439.7269,248.9 542.2735,530.15 75.9969,208.44 -4.7215,498.97 -48.1324,775.23 -39.7418,252.94 -56.563,477.85 -50.688,770.21 2.8323,140.81 116.4493,390.08 116.4493,390.08 z"
       id="path3764-38-0"
       inkscape:connector-curvature="0"
       sodipodi:nodetypes="csssssssssscc" />
    <path
       style="fill:none;stroke:#000000;stroke-width:10.62992096;stroke-linecap:butt;stroke-linejoin:miter;stroke-miterlimit:3;stroke-opacity:1;stroke-dasharray:none"
       d="m 65.189227,-117745.27 c 0,0 100.722893,-359.07 125.464333,-1017.48 22.00728,-585.62 -101.3177,-809.77 -19.24946,-1032.98 97.32986,-264.71 280.87274,-427 514.03462,-581.29 206.1306,-136.42 389.42808,-218.44 636.18228,-203.94 222.3369,13.07 366.9813,104.16 563.9198,208.18 237.3738,125.37 472.6513,276.44 625.2801,497.27 94.8948,137.31 96.9989,377.18 117.3309,624.26 24.5491,298.35 73.6879,499.88 -85.2607,753.55 -117.7988,188 -396.6527,302.77 -641.3109,438.19 -224.0056,124.01 -411.8225,248.89 -638.9225,433.11 -109.375,88.73 -236.2961,331.49 -236.2961,331.49 z"
       id="path3764-38-8"
       inkscape:connector-curvature="0"
       sodipodi:nodetypes="csssssssssscc" />
    <path
       style="fill:none;stroke:#000000;stroke-width:10.62992096;stroke-linecap:butt;stroke-linejoin:miter;stroke-miterlimit:3;stroke-opacity:1;stroke-dasharray:none"
       d="m 2075.8351,-120386.57 c 0,0 365.1267,75.89 961.0082,357.03 530.0048,250.06 672.2159,462.73 908.1475,492.64 279.7984,35.46 508.3643,-52.77 752.6711,-188.73 215.9989,-120.18 373.1936,-245.14 473.9175,-470.87 90.7526,-203.39 76.4778,-373.73 74.7987,-596.45 -2.0173,-268.44 -27.8143,-546.85 -153.5878,-784 -78.2086,-147.45 -290.1802,-259.75 -500.1609,-391.54 -253.5533,-159.15 -409.8363,-295.54 -708.201,-271.22 -221.1235,18.03 -451.382,212.74 -684.2297,367.59 -213.2111,141.76 -410.5346,251 -678.6205,367.8 -129.1205,56.25 -403.0557,57.16 -403.0557,57.16 z"
       id="path3764-38-8-1"
       inkscape:connector-curvature="0"
       sodipodi:nodetypes="csssssssssscc" />
    <path
       style="fill:none;stroke:#000000;stroke-width:10.62992096;stroke-linecap:butt;stroke-linejoin:miter;stroke-miterlimit:3;stroke-opacity:1;stroke-dasharray:none"
       d="m 79.27367,-121125.09 c 0,0 100.7229,-359.07 125.4643,-1017.48 22.0073,-585.62 -101.3177,-809.77 -19.2494,-1032.98 97.3298,-264.71 280.8727,-427 514.0346,-581.29 206.1306,-136.42 389.42803,-218.44 636.18223,-203.94 222.3369,13.07 366.9813,104.16 563.9198,208.18 237.3738,125.37 472.6513,276.44 625.2801,497.27 94.8948,137.31 96.9989,377.18 117.3309,624.26 24.5491,298.35 73.6879,499.88 -85.2607,753.55 -117.7988,188 -396.6527,302.77 -641.3109,438.19 -224.0056,124.01 -411.8225,248.89 -638.9225,433.11 -109.375,88.73 -236.296,331.49 -236.296,331.49 z"
       id="path3764-38-8-7"
       inkscape:connector-curvature="0"
       sodipodi:nodetypes="csssssssssscc" />
    <path
       style="fill:none;stroke:#000000;stroke-width:10.62992096;stroke-linecap:butt;stroke-linejoin:miter;stroke-miterlimit:3;stroke-opacity:1;stroke-dasharray:none"
       d="m 2386.1122,-124905.91 c 0,0 362.691,86.78 1021.5652,86.07 586.033,-0.63 805.2554,-132.53 1031.4685,-59.14 268.2715,87.03 437.5296,264.17 600.7123,491.19 144.2812,200.71 233.3182,380.71 228.364,627.83 -4.4751,222.68 -89.9069,370.73 -186.2411,571.54 -116.1074,242.04 -257.9775,482.98 -472.7457,644.03 -133.5408,100.12 -373.1512,111.49 -619.2654,141.36 -297.1757,36.05 -496.6574,92.94 -756.2784,-56.09 -192.4123,-110.45 -317.8681,-384.66 -462.6384,-623.9 -132.5676,-219.06 -264.6098,-401.91 -457.4662,-621.72 -92.8876,-105.87 -340.3705,-223.32 -340.3705,-223.32 z"
       id="path3764-38-8-6"
       inkscape:connector-curvature="0"
       sodipodi:nodetypes="csssssssssscc" />
    <path
       style="fill:none;stroke:#000000;stroke-width:10.62992096;stroke-linecap:butt;stroke-linejoin:miter;stroke-miterlimit:3;stroke-opacity:1;stroke-dasharray:none"
       d="m 3297.3433,-125941.09 c 0,0 -304.6624,215.08 -739.184,710.36 -386.4772,440.53 -432.1819,692.25 -636.6605,813.68 -242.5073,144.01 -487.2923,154.16 -765.5367,126.8 -246.00395,-24.17 -439.97365,-76.15 -622.29285,-243.05 -164.28218,-150.39 -219.05314,-312.32 -306.25748,-517.26 -105.10709,-247.02 -192.372422,-512.65 -171.505182,-780.28 12.97962,-166.4 162.662122,-353.86 302.737682,-558.41 169.15328,-246.98 258.15178,-434.36 541.49558,-530.93 210.00235,-71.57 498.76645,15.28 774.03425,64.53 252.0401,45.07 476.5505,66.65 768.9772,66.96 140.8412,0.14 392.4597,-108.17 392.4597,-108.17 z"
       id="path3764-38-8-71"
       inkscape:connector-curvature="0"
       sodipodi:nodetypes="csssssssssscc" />
  </g>
</svg>
