  0
SECTION
  2
BLOCKS
  0
ENDSEC
  0
SECTION
  2
ENTITIES
  0
LINE
  8
0
 10
0
 11
0
 20
0
 21
1200
  0
LINE
  8
0
 10
0
 11
0.029
 20
1200
 21
1200
  0
LINE
  8
0
 10
0.029
 11
0.029
 20
1200
 21
1219.24
  0
LINE
  8
0
 10
0.029
 11
0.251
 20
1219.24
 21
1219.66
  0
LINE
  8
0
 10
0.251
 11
0.645
 20
1219.66
 21
1219.93
  0
LINE
  8
0
 10
0.645
 11
1.121
 20
1219.93
 21
1219.99
  0
LINE
  8
0
 10
1.121
 11
2439.12
 20
1219.99
 21
1219.99
  0
LINE
  8
0
 10
2439.12
 11
2439.57
 20
1219.99
 21
1219.82
  0
LINE
  8
0
 10
2439.57
 11
2439.89
 20
1219.82
 21
1219.46
  0
LINE
  8
0
 10
2439.89
 11
2440
 20
1219.46
 21
1219
  0
LINE
  8
0
 10
2440
 11
2440
 20
1219
 21
1
  0
LINE
  8
0
 10
2440
 11
2439.89
 20
1
 21
0.535
  0
LINE
  8
0
 10
2439.89
 11
2439.57
 20
0.535
 21
0.177
  0
LINE
  8
0
 10
2439.57
 11
2439.12
 20
0.177
 21
0.007
  0
LINE
  8
0
 10
2439.12
 11
1920
 20
0.007
 21
0.007
  0
LINE
  8
0
 10
1920
 11
1920
 20
0.007
 21
0
  0
LINE
  8
0
 10
1920
 11
1815
 20
0
 21
0
  0
LINE
  8
0
 10
1815
 11
1815
 20
0
 21
0.007
  0
LINE
  8
0
 10
1815
 11
1810
 20
0.007
 21
0.007
  0
LINE
  8
0
 10
1810
 11
1810
 20
0.007
 21
0
  0
LINE
  8
0
 10
1810
 11
1705
 20
0
 21
0
  0
LINE
  8
0
 10
1705
 11
1705
 20
0
 21
0.007
  0
LINE
  8
0
 10
1705
 11
1700
 20
0.007
 21
0.007
  0
LINE
  8
0
 10
1700
 11
1700
 20
0.007
 21
0
  0
LINE
  8
0
 10
1700
 11
1310
 20
0
 21
0
  0
LINE
  8
0
 10
1310
 11
1310
 20
0
 21
0.007
  0
LINE
  8
0
 10
1310
 11
1305
 20
0.007
 21
0.007
  0
LINE
  8
0
 10
1305
 11
1305
 20
0.007
 21
0
  0
LINE
  8
0
 10
1305
 11
915
 20
0
 21
0
  0
LINE
  8
0
 10
915
 11
915
 20
0
 21
0.007
  0
LINE
  8
0
 10
915
 11
910
 20
0.007
 21
0.007
  0
LINE
  8
0
 10
910
 11
910
 20
0.007
 21
0
  0
LINE
  8
0
 10
910
 11
0
 20
0
 21
0
  0
LINE
  8
0
 10
5.029
 11
5.029
 20
1200
 21
1214.24
  0
LINE
  8
0
 10
5.029
 11
5.251
 20
1214.24
 21
1214.66
  0
LINE
  8
0
 10
5.251
 11
5.645
 20
1214.66
 21
1214.93
  0
LINE
  8
0
 10
5.645
 11
6.121
 20
1214.93
 21
1214.99
  0
LINE
  8
0
 10
6.121
 11
2434.12
 20
1214.99
 21
1214.99
  0
LINE
  8
0
 10
2434.12
 11
2434.57
 20
1214.99
 21
1214.82
  0
LINE
  8
0
 10
2434.57
 11
2434.89
 20
1214.82
 21
1214.46
  0
LINE
  8
0
 10
2434.89
 11
2435
 20
1214.46
 21
1214
  0
LINE
  8
0
 10
2435
 11
2435
 20
1214
 21
6
  0
LINE
  8
0
 10
2435
 11
2434.89
 20
6
 21
5.535
  0
LINE
  8
0
 10
2434.89
 11
2434.57
 20
5.535
 21
5.177
  0
LINE
  8
0
 10
2434.57
 11
2434.12
 20
5.177
 21
5.007
  0
LINE
  8
0
 10
2434.12
 11
1920
 20
5.007
 21
5.007
  0
LINE
  8
0
 10
1920
 11
1920
 20
5.007
 21
910
  0
LINE
  8
0
 10
1920
 11
1815
 20
910
 21
910
  0
LINE
  8
0
 10
1815
 11
1815
 20
910
 21
5.007
  0
LINE
  8
0
 10
1815
 11
1810
 20
5.007
 21
5.007
  0
LINE
  8
0
 10
1810
 11
1810
 20
5.007
 21
910
  0
LINE
  8
0
 10
1810
 11
1705
 20
910
 21
910
  0
LINE
  8
0
 10
1705
 11
1705
 20
910
 21
5.007
  0
LINE
  8
0
 10
1705
 11
1700
 20
5.007
 21
5.007
  0
LINE
  8
0
 10
1700
 11
1700
 20
5.007
 21
910
  0
LINE
  8
0
 10
1700
 11
1310
 20
910
 21
910
  0
LINE
  8
0
 10
1310
 11
1310
 20
910
 21
5.007
  0
LINE
  8
0
 10
1310
 11
1305
 20
5.007
 21
5.007
  0
LINE
  8
0
 10
1305
 11
1305
 20
5.007
 21
910
  0
LINE
  8
0
 10
1305
 11
915
 20
910
 21
910
  0
LINE
  8
0
 10
915
 11
915
 20
910
 21
5.007
  0
LINE
  8
0
 10
915
 11
910
 20
5.007
 21
5.007
  0
LINE
  8
0
 10
910
 11
910
 20
5.007
 21
1200
  0
LINE
  8
0
 10
910
 11
5.029
 20
1200
 21
1200
  0
LINE
  8
0
 10
5.029
 11
5.029
 20
1305.76
 21
1320
  0
LINE
  8
0
 10
5.029
 11
37
 20
1320
 21
1320
  0
LINE
  8
0
 10
37
 11
37.494
 20
1320
 21
1319.96
  0
LINE
  8
0
 10
37.494
 11
37.974
 20
1319.96
 21
1319.84
  0
LINE
  8
0
 10
37.974
 11
38.428
 20
1319.84
 21
1319.64
  0
LINE
  8
0
 10
38.428
 11
38.843
 20
1319.64
 21
1319.37
  0
LINE
  8
0
 10
38.843
 11
39.207
 20
1319.37
 21
1319.03
  0
LINE
  8
0
 10
39.207
 11
39.511
 20
1319.03
 21
1318.64
  0
LINE
  8
0
 10
39.511
 11
39.747
 20
1318.64
 21
1318.2
  0
LINE
  8
0
 10
39.747
 11
39.908
 20
1318.2
 21
1317.74
  0
LINE
  8
0
 10
39.908
 11
39.99
 20
1317.74
 21
1317.25
  0
LINE
  8
0
 10
39.99
 11
39.99
 20
1317.25
 21
1305.01
  0
LINE
  8
0
 10
39.99
 11
6.121
 20
1305.01
 21
1305.01
  0
LINE
  8
0
 10
6.121
 11
5.645
 20
1305.01
 21
1305.07
  0
LINE
  8
0
 10
5.645
 11
5.251
 20
1305.07
 21
1305.34
  0
LINE
  8
0
 10
5.251
 11
5.029
 20
1305.34
 21
1305.76
  0
LINE
  8
0
 10
5.029
 11
5.029
 20
2312
 21
2335
  0
LINE
  8
0
 10
5.029
 11
990
 20
2335
 21
2335
  0
LINE
  8
0
 10
990
 11
990
 20
2335
 21
2440
  0
LINE
  8
0
 10
990
 11
5.029
 20
2440
 21
2440
  0
LINE
  8
0
 10
5.029
 11
5.029
 20
2440
 21
2514.24
  0
LINE
  8
0
 10
5.029
 11
5.251
 20
2514.24
 21
2514.66
  0
LINE
  8
0
 10
5.251
 11
5.645
 20
2514.66
 21
2514.93
  0
LINE
  8
0
 10
5.645
 11
6.121
 20
2514.93
 21
2514.99
  0
LINE
  8
0
 10
6.121
 11
2434.12
 20
2514.99
 21
2514.99
  0
LINE
  8
0
 10
2434.12
 11
2434.57
 20
2514.99
 21
2514.82
  0
LINE
  8
0
 10
2434.57
 11
2434.89
 20
2514.82
 21
2514.47
  0
LINE
  8
0
 10
2434.89
 11
2435
 20
2514.47
 21
2514
  0
LINE
  8
0
 10
2435
 11
2435
 20
2514
 21
1306
  0
LINE
  8
0
 10
2435
 11
2434.89
 20
1306
 21
1305.54
  0
LINE
  8
0
 10
2434.89
 11
2434.57
 20
1305.54
 21
1305.18
  0
LINE
  8
0
 10
2434.57
 11
2434.12
 20
1305.18
 21
1305.01
  0
LINE
  8
0
 10
2434.12
 11
2184
 20
1305.01
 21
1305.01
  0
LINE
  8
0
 10
2184
 11
2184
 20
1305.01
 21
2102
  0
LINE
  8
0
 10
2184
 11
2128
 20
2102
 21
2102
  0
LINE
  8
0
 10
2128
 11
2128
 20
2102
 21
1370
  0
LINE
  8
0
 10
2128
 11
2090
 20
1370
 21
1370
  0
LINE
  8
0
 10
2090
 11
2090
 20
1370
 21
1305.01
  0
LINE
  8
0
 10
2090
 11
2085
 20
1305.01
 21
1305.01
  0
LINE
  8
0
 10
2085
 11
2085
 20
1305.01
 21
2102
  0
LINE
  8
0
 10
2085
 11
2029
 20
2102
 21
2102
  0
LINE
  8
0
 10
2029
 11
2029
 20
2102
 21
1370
  0
LINE
  8
0
 10
2029
 11
1991
 20
1370
 21
1370
  0
LINE
  8
0
 10
1991
 11
1991
 20
1370
 21
1305.01
  0
LINE
  8
0
 10
1991
 11
1986
 20
1305.01
 21
1305.01
  0
LINE
  8
0
 10
1986
 11
1986
 20
1305.01
 21
2210
  0
LINE
  8
0
 10
1986
 11
1733
 20
2210
 21
2210
  0
LINE
  8
0
 10
1733
 11
1733
 20
2210
 21
2055
  0
LINE
  8
0
 10
1733
 11
1923
 20
2055
 21
2055
  0
LINE
  8
0
 10
1923
 11
1923
 20
2055
 21
2025
  0
LINE
  8
0
 10
1923
 11
1733
 20
2025
 21
2025
  0
LINE
  8
0
 10
1733
 11
1733
 20
2025
 21
1362
  0
LINE
  8
0
 10
1733
 11
1923
 20
1362
 21
1362
  0
LINE
  8
0
 10
1923
 11
1923
 20
1362
 21
1338
  0
LINE
  8
0
 10
1923
 11
1733
 20
1338
 21
1338
  0
LINE
  8
0
 10
1733
 11
1733
 20
1338
 21
1305.01
  0
LINE
  8
0
 10
1733
 11
1728
 20
1305.01
 21
1305.01
  0
LINE
  8
0
 10
1728
 11
1728
 20
1305.01
 21
2210
  0
LINE
  8
0
 10
1728
 11
1475
 20
2210
 21
2210
  0
LINE
  8
0
 10
1475
 11
1475
 20
2210
 21
2055
  0
LINE
  8
0
 10
1475
 11
1665
 20
2055
 21
2055
  0
LINE
  8
0
 10
1665
 11
1665
 20
2055
 21
2025
  0
LINE
  8
0
 10
1665
 11
1475
 20
2025
 21
2025
  0
LINE
  8
0
 10
1475
 11
1475
 20
2025
 21
1362
  0
LINE
  8
0
 10
1475
 11
1665
 20
1362
 21
1362
  0
LINE
  8
0
 10
1665
 11
1665
 20
1362
 21
1338
  0
LINE
  8
0
 10
1665
 11
1475
 20
1338
 21
1338
  0
LINE
  8
0
 10
1475
 11
1475
 20
1338
 21
1305.01
  0
LINE
  8
0
 10
1475
 11
1470
 20
1305.01
 21
1305.01
  0
LINE
  8
0
 10
1470
 11
1470
 20
1305.01
 21
2290
  0
LINE
  8
0
 10
1470
 11
1315
 20
2290
 21
2290
  0
LINE
  8
0
 10
1315
 11
1315
 20
2290
 21
1305.01
  0
LINE
  8
0
 10
1315
 11
1310
 20
1305.01
 21
1305.01
  0
LINE
  8
0
 10
1310
 11
1310
 20
1305.01
 21
2290
  0
LINE
  8
0
 10
1310
 11
1155
 20
2290
 21
2290
  0
LINE
  8
0
 10
1155
 11
1155
 20
2290
 21
1305.01
  0
LINE
  8
0
 10
1155
 11
1150
 20
1305.01
 21
1305.01
  0
LINE
  8
0
 10
1150
 11
1150
 20
1305.01
 21
2290
  0
LINE
  8
0
 10
1150
 11
915
 20
2290
 21
2290
  0
LINE
  8
0
 10
915
 11
915
 20
2290
 21
1305.01
  0
LINE
  8
0
 10
915
 11
870.01
 20
1305.01
 21
1305.01
  0
LINE
  8
0
 10
870.01
 11
870.01
 20
1305.01
 21
1317.25
  0
LINE
  8
0
 10
870.01
 11
870.092
 20
1317.25
 21
1317.74
  0
LINE
  8
0
 10
870.092
 11
870.253
 20
1317.74
 21
1318.2
  0
LINE
  8
0
 10
870.253
 11
870.489
 20
1318.2
 21
1318.64
  0
LINE
  8
0
 10
870.489
 11
870.793
 20
1318.64
 21
1319.03
  0
LINE
  8
0
 10
870.793
 11
871.157
 20
1319.03
 21
1319.37
  0
LINE
  8
0
 10
871.157
 11
871.572
 20
1319.37
 21
1319.64
  0
LINE
  8
0
 10
871.572
 11
872.026
 20
1319.64
 21
1319.84
  0
LINE
  8
0
 10
872.026
 11
872.506
 20
1319.84
 21
1319.96
  0
LINE
  8
0
 10
872.506
 11
873
 20
1319.96
 21
1320
  0
LINE
  8
0
 10
873
 11
909
 20
1320
 21
1320
  0
LINE
  8
0
 10
909
 11
909.494
 20
1320
 21
1319.96
  0
LINE
  8
0
 10
909.494
 11
909.974
 20
1319.96
 21
1319.84
  0
LINE
  8
0
 10
909.974
 11
910
 20
1319.84
 21
1319.83
  0
LINE
  8
0
 10
910
 11
910
 20
1319.83
 21
2312.17
  0
LINE
  8
0
 10
910
 11
909.974
 20
2312.17
 21
2312.16
  0
LINE
  8
0
 10
909.974
 11
909.494
 20
2312.16
 21
2312.04
  0
LINE
  8
0
 10
909.494
 11
909
 20
2312.04
 21
2312
  0
LINE
  8
0
 10
909
 11
873
 20
2312
 21
2312
  0
LINE
  8
0
 10
873
 11
872.506
 20
2312
 21
2312.04
  0
LINE
  8
0
 10
872.506
 11
872.026
 20
2312.04
 21
2312.16
  0
LINE
  8
0
 10
872.026
 11
871.572
 20
2312.16
 21
2312.36
  0
LINE
  8
0
 10
871.572
 11
871.157
 20
2312.36
 21
2312.63
  0
LINE
  8
0
 10
871.157
 11
870.793
 20
2312.63
 21
2312.97
  0
LINE
  8
0
 10
870.793
 11
870.489
 20
2312.97
 21
2313.36
  0
LINE
  8
0
 10
870.489
 11
870.253
 20
2313.36
 21
2313.8
  0
LINE
  8
0
 10
870.253
 11
870.092
 20
2313.8
 21
2314.26
  0
LINE
  8
0
 10
870.092
 11
870.01
 20
2314.26
 21
2314.75
  0
LINE
  8
0
 10
870.01
 11
870.01
 20
2314.75
 21
2330
  0
LINE
  8
0
 10
870.01
 11
39.99
 20
2330
 21
2330
  0
LINE
  8
0
 10
39.99
 11
39.99
 20
2330
 21
2314.75
  0
LINE
  8
0
 10
39.99
 11
39.908
 20
2314.75
 21
2314.26
  0
LINE
  8
0
 10
39.908
 11
39.747
 20
2314.26
 21
2313.8
  0
LINE
  8
0
 10
39.747
 11
39.511
 20
2313.8
 21
2313.36
  0
LINE
  8
0
 10
39.511
 11
39.207
 20
2313.36
 21
2312.97
  0
LINE
  8
0
 10
39.207
 11
38.843
 20
2312.97
 21
2312.63
  0
LINE
  8
0
 10
38.843
 11
38.428
 20
2312.63
 21
2312.36
  0
LINE
  8
0
 10
38.428
 11
37.974
 20
2312.36
 21
2312.16
  0
LINE
  8
0
 10
37.974
 11
37.494
 20
2312.16
 21
2312.04
  0
LINE
  8
0
 10
37.494
 11
37
 20
2312.04
 21
2312
  0
LINE
  8
0
 10
37
 11
5.029
 20
2312
 21
2312
  0
LINE
  8
0
 10
0
 11
0
 20
1319.83
 21
2312.17
  0
LINE
  8
0
 10
0
 11
0.026
 20
2312.17
 21
2312.16
  0
LINE
  8
0
 10
0.026
 11
0.029
 20
2312.16
 21
2312.16
  0
LINE
  8
0
 10
0.029
 11
0.029
 20
2312.16
 21
2335
  0
LINE
  8
0
 10
0.029
 11
0
 20
2335
 21
2335
  0
LINE
  8
0
 10
0
 11
0
 20
2335
 21
2440
  0
LINE
  8
0
 10
0
 11
0.029
 20
2440
 21
2440
  0
LINE
  8
0
 10
0.029
 11
0.029
 20
2440
 21
2519.24
  0
LINE
  8
0
 10
0.029
 11
0.251
 20
2519.24
 21
2519.66
  0
LINE
  8
0
 10
0.251
 11
0.645
 20
2519.66
 21
2519.93
  0
LINE
  8
0
 10
0.645
 11
1.121
 20
2519.93
 21
2519.99
  0
LINE
  8
0
 10
1.121
 11
2439.12
 20
2519.99
 21
2519.99
  0
LINE
  8
0
 10
2439.12
 11
2439.57
 20
2519.99
 21
2519.82
  0
LINE
  8
0
 10
2439.57
 11
2439.89
 20
2519.82
 21
2519.47
  0
LINE
  8
0
 10
2439.89
 11
2440
 20
2519.47
 21
2519
  0
LINE
  8
0
 10
2440
 11
2440
 20
2519
 21
1301
  0
LINE
  8
0
 10
2440
 11
2439.89
 20
1301
 21
1300.54
  0
LINE
  8
0
 10
2439.89
 11
2439.57
 20
1300.54
 21
1300.18
  0
LINE
  8
0
 10
2439.57
 11
2439.12
 20
1300.18
 21
1300.01
  0
LINE
  8
0
 10
2439.12
 11
2184
 20
1300.01
 21
1300.01
  0
LINE
  8
0
 10
2184
 11
2184
 20
1300.01
 21
1300
  0
LINE
  8
0
 10
2184
 11
2090
 20
1300
 21
1300
  0
LINE
  8
0
 10
2090
 11
2090
 20
1300
 21
1300.01
  0
LINE
  8
0
 10
2090
 11
2085
 20
1300.01
 21
1300.01
  0
LINE
  8
0
 10
2085
 11
2085
 20
1300.01
 21
1300
  0
LINE
  8
0
 10
2085
 11
1991
 20
1300
 21
1300
  0
LINE
  8
0
 10
1991
 11
1991
 20
1300
 21
1300.01
  0
LINE
  8
0
 10
1991
 11
1986
 20
1300.01
 21
1300.01
  0
LINE
  8
0
 10
1986
 11
1986
 20
1300.01
 21
1300
  0
LINE
  8
0
 10
1986
 11
1733
 20
1300
 21
1300
  0
LINE
  8
0
 10
1733
 11
1733
 20
1300
 21
1300.01
  0
LINE
  8
0
 10
1733
 11
1728
 20
1300.01
 21
1300.01
  0
LINE
  8
0
 10
1728
 11
1728
 20
1300.01
 21
1300
  0
LINE
  8
0
 10
1728
 11
1475
 20
1300
 21
1300
  0
LINE
  8
0
 10
1475
 11
1475
 20
1300
 21
1300.01
  0
LINE
  8
0
 10
1475
 11
1470
 20
1300.01
 21
1300.01
  0
LINE
  8
0
 10
1470
 11
1470
 20
1300.01
 21
1300
  0
LINE
  8
0
 10
1470
 11
1315
 20
1300
 21
1300
  0
LINE
  8
0
 10
1315
 11
1315
 20
1300
 21
1300.01
  0
LINE
  8
0
 10
1315
 11
1310
 20
1300.01
 21
1300.01
  0
LINE
  8
0
 10
1310
 11
1310
 20
1300.01
 21
1300
  0
LINE
  8
0
 10
1310
 11
1155
 20
1300
 21
1300
  0
LINE
  8
0
 10
1155
 11
1155
 20
1300
 21
1300.01
  0
LINE
  8
0
 10
1155
 11
1150
 20
1300.01
 21
1300.01
  0
LINE
  8
0
 10
1150
 11
1150
 20
1300.01
 21
1300
  0
LINE
  8
0
 10
1150
 11
915
 20
1300
 21
1300
  0
LINE
  8
0
 10
915
 11
915
 20
1300
 21
1300.01
  0
LINE
  8
0
 10
915
 11
870.181
 20
1300.01
 21
1300.01
  0
LINE
  8
0
 10
870.181
 11
870.183
 20
1300.01
 21
1300
  0
LINE
  8
0
 10
870.183
 11
39.817
 20
1300
 21
1300
  0
LINE
  8
0
 10
39.817
 11
39.819
 20
1300
 21
1300.01
  0
LINE
  8
0
 10
39.819
 11
1.121
 20
1300.01
 21
1300.01
  0
LINE
  8
0
 10
1.121
 11
0.645
 20
1300.01
 21
1300.07
  0
LINE
  8
0
 10
0.645
 11
0.251
 20
1300.07
 21
1300.34
  0
LINE
  8
0
 10
0.251
 11
0.029
 20
1300.34
 21
1300.76
  0
LINE
  8
0
 10
0.029
 11
0.029
 20
1300.76
 21
1319.84
  0
LINE
  8
0
 10
0.029
 11
0.026
 20
1319.84
 21
1319.84
  0
LINE
  8
0
 10
0.026
 11
0
 20
1319.84
 21
1319.83
  0
LINE
  8
0
 10
915
 11
915
 20
915
 21
1020
  0
LINE
  8
0
 10
915
 11
1305
 20
1020
 21
1020
  0
LINE
  8
0
 10
1305
 11
1305
 20
1020
 21
915
  0
LINE
  8
0
 10
1305
 11
915
 20
915
 21
915
  0
LINE
  8
0
 10
915
 11
915
 20
1025
 21
1130
  0
LINE
  8
0
 10
915
 11
1305
 20
1130
 21
1130
  0
LINE
  8
0
 10
1305
 11
1305
 20
1130
 21
1025
  0
LINE
  8
0
 10
1305
 11
915
 20
1025
 21
1025
  0
LINE
  8
0
 10
995
 11
995
 20
2335
 21
2440
  0
LINE
  8
0
 10
995
 11
1985
 20
2440
 21
2440
  0
LINE
  8
0
 10
1985
 11
1985
 20
2440
 21
2335
  0
LINE
  8
0
 10
1985
 11
995
 20
2335
 21
2335
  0
LINE
  8
0
 10
1310
 11
1310
 20
915
 21
1020
  0
LINE
  8
0
 10
1310
 11
1700
 20
1020
 21
1020
  0
LINE
  8
0
 10
1700
 11
1700
 20
1020
 21
915
  0
LINE
  8
0
 10
1700
 11
1310
 20
915
 21
915
  0
LINE
  8
0
 10
1310
 11
1310
 20
1025
 21
1130
  0
LINE
  8
0
 10
1310
 11
1700
 20
1130
 21
1130
  0
LINE
  8
0
 10
1700
 11
1700
 20
1130
 21
1025
  0
LINE
  8
0
 10
1700
 11
1310
 20
1025
 21
1025
  0
ENDSEC
  0
SECTION
  2
OBJECTS
  0
DICTIONARY
  0
ENDSEC
  0
EOF
