solid OpenSCAD_Model
  facet normal -0.984808 0 -0.173648
    outer loop
      vertex -3.04768 4.5 6.40091
      vertex -3.04768 -4.5 6.40091
      vertex -3.39497 4.5 8.37052
    endloop
  endfacet
  facet normal -0.984808 0 -0.173648
    outer loop
      vertex -3.39497 4.5 8.37052
      vertex -3.04768 -4.5 6.40091
      vertex -3.39497 -4.5 8.37052
    endloop
  endfacet
  facet normal -0.173648 0 0.984808
    outer loop
      vertex -2.11472 -4.5 8.59626
      vertex -2.11472 4.5 8.59626
      vertex -3.39497 4.5 8.37052
    endloop
  endfacet
  facet normal -0.173648 0 0.984808
    outer loop
      vertex -3.39497 -4.5 8.37052
      vertex -2.11472 -4.5 8.59626
      vertex -3.39497 4.5 8.37052
    endloop
  endfacet
  facet normal 0 -1 0
    outer loop
      vertex -2.11472 -4.5 8.59626
      vertex -3.39497 -4.5 8.37052
      vertex -3.04768 -4.5 6.40091
    endloop
  endfacet
  facet normal 0 -1 0
    outer loop
      vertex -1.76743 -4.5 6.62665
      vertex -2.11472 -4.5 8.59626
      vertex -3.03783 -4.5 6.40264
    endloop
  endfacet
  facet normal 0 -1 0
    outer loop
      vertex -3.03783 -4.5 6.40264
      vertex -2.11472 -4.5 8.59626
      vertex -3.04768 -4.5 6.40091
    endloop
  endfacet
  facet normal 0 -1 0
    outer loop
      vertex -0.35 -4.5 4.84573
      vertex -2.11472 -4.5 8.59626
      vertex -1.76743 -4.5 6.62665
    endloop
  endfacet
  facet normal 0 -1 0
    outer loop
      vertex -0.35 -4.5 4.84573
      vertex -1.76743 -4.5 6.62665
      vertex -1.52314 -4.5 5.24123
    endloop
  endfacet
  facet normal 0 -1 0
    outer loop
      vertex -1.51127 -4.5 5.17392
      vertex -1.52314 -4.5 5.24123
      vertex -1.53429 -4.5 5.17798
    endloop
  endfacet
  facet normal 0 -1 0
    outer loop
      vertex -0.35 -4.5 4.84573
      vertex -1.52314 -4.5 5.24123
      vertex -1.51127 -4.5 5.17392
    endloop
  endfacet
  facet normal 0 -1 0
    outer loop
      vertex -0.35 -4.5 4.84573
      vertex -1.51127 -4.5 5.17392
      vertex -1.42013 -4.5 4.65703
    endloop
  endfacet
  facet normal 0 -1 0
    outer loop
      vertex -0.35 -4.5 9
      vertex -2.11472 -4.5 8.59626
      vertex -0.35 -4.5 4.84573
    endloop
  endfacet
  facet normal 0 -1 0
    outer loop
      vertex -2.18591 -4.5 9
      vertex -2.11472 -4.5 8.59626
      vertex -0.35 -4.5 9
    endloop
  endfacet
  facet normal 0 1 0
    outer loop
      vertex -3.39497 4.5 8.37052
      vertex -2.11472 4.5 8.59626
      vertex -3.04768 4.5 6.40091
    endloop
  endfacet
  facet normal 0 1 0
    outer loop
      vertex -3.04768 4.5 6.40091
      vertex -2.11472 4.5 8.59626
      vertex -0.35 4.5 10
    endloop
  endfacet
  facet normal 0 1 0
    outer loop
      vertex -0.35 4.5 10
      vertex -2.18591 4.5 9
      vertex -2.9 4.5 10
    endloop
  endfacet
  facet normal 0 1 0
    outer loop
      vertex -2.18591 4.5 9
      vertex -2.9 4.5 9
      vertex -2.9 4.5 10
    endloop
  endfacet
  facet normal 0 1 0
    outer loop
      vertex -2.11472 4.5 8.59626
      vertex -2.18591 4.5 9
      vertex -0.35 4.5 10
    endloop
  endfacet
  facet normal 0 1 0
    outer loop
      vertex -1.75758 4.5 6.62839
      vertex -0.35 4.5 10
      vertex -0.35 4.5 4.84573
    endloop
  endfacet
  facet normal 0 1 0
    outer loop
      vertex -3.03783 4.5 6.40264
      vertex -0.35 4.5 10
      vertex -1.75758 4.5 6.62839
    endloop
  endfacet
  facet normal 0 1 0
    outer loop
      vertex -3.04768 4.5 6.40091
      vertex -0.35 4.5 10
      vertex -3.03783 4.5 6.40264
    endloop
  endfacet
  facet normal 0 1 0
    outer loop
      vertex -1.75758 4.5 6.62839
      vertex -0.35 4.5 4.84573
      vertex -1.41028 4.5 4.65877
    endloop
  endfacet
  facet normal 0.173648 0 -0.984808
    outer loop
      vertex -3.03783 4.5 6.40264
      vertex -3.03783 -4.5 6.40264
      vertex -3.04768 4.5 6.40091
    endloop
  endfacet
  facet normal 0.173648 0 -0.984808
    outer loop
      vertex -3.04768 4.5 6.40091
      vertex -3.03783 -4.5 6.40264
      vertex -3.04768 -4.5 6.40091
    endloop
  endfacet
  facet normal -0.984808 0 -0.173648
    outer loop
      vertex -2.11472 4.5 8.59626
      vertex -2.11472 -4.5 8.59626
      vertex -2.18591 4.5 9
    endloop
  endfacet
  facet normal -0.984808 0 -0.173648
    outer loop
      vertex -2.18591 4.5 9
      vertex -2.11472 -4.5 8.59626
      vertex -2.18591 -4.5 9
    endloop
  endfacet
  facet normal 0 0 -1
    outer loop
      vertex -2.9 -6.5 9
      vertex -2.9 4.5 9
      vertex -2.18591 -4.5 9
    endloop
  endfacet
  facet normal 0 0 -1
    outer loop
      vertex -2.9 -6.5 9
      vertex -2.18591 -4.5 9
      vertex 2.9 -6.5 9
    endloop
  endfacet
  facet normal 0 0 -1
    outer loop
      vertex 0.35 -4.51 9
      vertex 2.9 -6.5 9
      vertex -0.35 -4.51 9
    endloop
  endfacet
  facet normal 0 0 -1
    outer loop
      vertex -2.18591 -4.5 9
      vertex -0.35 -4.5 9
      vertex -0.35 -4.51 9
    endloop
  endfacet
  facet normal 0 0 -1
    outer loop
      vertex -2.18591 -4.5 9
      vertex -0.35 -4.51 9
      vertex 2.9 -6.5 9
    endloop
  endfacet
  facet normal 0 0 -1
    outer loop
      vertex 2.18591 -4.5 9
      vertex 2.9 -6.5 9
      vertex 0.35 -4.5 9
    endloop
  endfacet
  facet normal 0 0 -1
    outer loop
      vertex 0.35 -4.51 9
      vertex 0.35 -4.5 9
      vertex 2.9 -6.5 9
    endloop
  endfacet
  facet normal 0 0 -1
    outer loop
      vertex 2.9 -6.5 9
      vertex 2.18591 -4.5 9
      vertex 2.18591 4.5 9
    endloop
  endfacet
  facet normal 0 0 -1
    outer loop
      vertex 2.9 -6.5 9
      vertex 2.18591 4.5 9
      vertex 2.9 4.5 9
    endloop
  endfacet
  facet normal 0 0 -1
    outer loop
      vertex -2.18591 -4.5 9
      vertex -2.9 4.5 9
      vertex -2.18591 4.5 9
    endloop
  endfacet
  facet normal 1 0 0
    outer loop
      vertex -0.35 0 5.11364
      vertex -0.35 -4.5 4.84573
      vertex -0.35 4.5 4.84573
    endloop
  endfacet
  facet normal 1 0 0
    outer loop
      vertex -0.35 -0.726783 6.56667
      vertex -0.35 -1.53345 9.00464
      vertex -0.35 -4.5 9
    endloop
  endfacet
  facet normal 1 0 0
    outer loop
      vertex -0.35 0 5.11364
      vertex -0.35 -0.0798852 5.14228
      vertex -0.35 -4.5 4.84573
    endloop
  endfacet
  facet normal 1 0 0
    outer loop
      vertex -0.35 4.5 10
      vertex -0.35 1.53345 9.00464
      vertex -0.35 4.5 4.84573
    endloop
  endfacet
  facet normal 1 0 0
    outer loop
      vertex -0.35 0.726783 6.56667
      vertex -0.35 0.438886 5.78613
      vertex -0.35 4.5 4.84573
    endloop
  endfacet
  facet normal 1 0 0
    outer loop
      vertex -0.35 0.438886 5.78613
      vertex -0.35 0.279116 5.42439
      vertex -0.35 4.5 4.84573
    endloop
  endfacet
  facet normal 1 0 0
    outer loop
      vertex -0.35 0.279116 5.42439
      vertex -0.35 0.168551 5.23604
      vertex -0.35 4.5 4.84573
    endloop
  endfacet
  facet normal 1 0 0
    outer loop
      vertex -0.35 0.168551 5.23604
      vertex -0.35 0.0798852 5.14228
      vertex -0.35 4.5 4.84573
    endloop
  endfacet
  facet normal 1 0 0
    outer loop
      vertex -0.35 0.0798852 5.14228
      vertex -0.35 0 5.11364
      vertex -0.35 4.5 4.84573
    endloop
  endfacet
  facet normal 1 0 0
    outer loop
      vertex -0.35 -0.0798852 5.14228
      vertex -0.35 -0.168551 5.23604
      vertex -0.35 -4.5 4.84573
    endloop
  endfacet
  facet normal 1 0 0
    outer loop
      vertex -0.35 -0.168551 5.23604
      vertex -0.35 -0.279116 5.42439
      vertex -0.35 -4.5 4.84573
    endloop
  endfacet
  facet normal 1 0 0
    outer loop
      vertex -0.35 -0.279116 5.42439
      vertex -0.35 -0.438886 5.78613
      vertex -0.35 -4.5 4.84573
    endloop
  endfacet
  facet normal 1 0 0
    outer loop
      vertex -0.35 -0.438886 5.78613
      vertex -0.35 -0.726783 6.56667
      vertex -0.35 -4.5 4.84573
    endloop
  endfacet
  facet normal 1 0 0
    outer loop
      vertex -0.35 -4.5 9
      vertex -0.35 -4.5 4.84573
      vertex -0.35 -0.726783 6.56667
    endloop
  endfacet
  facet normal 1 0 0
    outer loop
      vertex -0.35 -1.53345 9.00464
      vertex -0.35 -1.84628 10
      vertex -0.35 -4.5 9
    endloop
  endfacet
  facet normal 1 0 0
    outer loop
      vertex -0.35 1.53345 9.00464
      vertex -0.35 0.726783 6.56667
      vertex -0.35 4.5 4.84573
    endloop
  endfacet
  facet normal 1 0 0
    outer loop
      vertex -0.35 -4.51 10
      vertex -0.35 -4.5 9
      vertex -0.35 -1.84628 10
    endloop
  endfacet
  facet normal 1 0 0
    outer loop
      vertex -0.35 -4.51 9
      vertex -0.35 -4.5 9
      vertex -0.35 -4.51 10
    endloop
  endfacet
  facet normal 1 0 0
    outer loop
      vertex -0.35 1.84628 10
      vertex -0.35 1.53345 9.00464
      vertex -0.35 4.5 10
    endloop
  endfacet
  facet normal 0.173648 0 -0.984808
    outer loop
      vertex -1.41665 4.5 4.65765
      vertex -1.41665 -4.5 4.65765
      vertex -1.42013 4.5 4.65703
    endloop
  endfacet
  facet normal 0.173648 0 -0.984808
    outer loop
      vertex -1.42013 -4.5 4.65703
      vertex -1.41665 -4.5 4.65765
      vertex -0.35 -4.5 4.84573
    endloop
  endfacet
  facet normal 0.173648 0 -0.984808
    outer loop
      vertex -0.35 4.5 4.84573
      vertex -1.41028 -4.5 4.65877
      vertex -1.41028 4.5 4.65877
    endloop
  endfacet
  facet normal 0.173648 0 -0.984808
    outer loop
      vertex -0.35 -4.5 4.84573
      vertex -1.41028 -4.5 4.65877
      vertex -0.35 4.5 4.84573
    endloop
  endfacet
  facet normal 0.173648 0 -0.984808
    outer loop
      vertex -1.41665 -4.5 4.65765
      vertex -1.41028 -4.5 4.65877
      vertex -0.35 -4.5 4.84573
    endloop
  endfacet
  facet normal 0.173648 0 -0.984808
    outer loop
      vertex -1.42013 4.5 4.65703
      vertex -1.41665 -4.5 4.65765
      vertex -1.42013 -4.5 4.65703
    endloop
  endfacet
  facet normal -0.984808 0 -0.173648
    outer loop
      vertex -1.42108 -4.5 4.66241
      vertex -1.42108 4.5 4.66241
      vertex -1.42013 4.5 4.65703
    endloop
  endfacet
  facet normal -0.984808 0 -0.173648
    outer loop
      vertex -1.42108 -4.5 4.66241
      vertex -1.42013 4.5 4.65703
      vertex -1.42013 -4.5 4.65703
    endloop
  endfacet
  facet normal -0.984808 0 -0.173648
    outer loop
      vertex -1.42108 -4.5 4.66241
      vertex -1.42013 -4.5 4.65703
      vertex -1.51127 -4.5 5.17392
    endloop
  endfacet
  facet normal 3.85576e-17 -1 -2.18671e-16
    outer loop
      vertex -1.42108 -4.5 4.66241
      vertex -1.51127 -4.5 5.17392
      vertex -1.53429 -4.5 5.17798
    endloop
  endfacet
  facet normal 3.85576e-17 -1 -2.18671e-16
    outer loop
      vertex -3.03783 -4.5 6.40264
      vertex -1.42108 -4.5 4.66241
      vertex -1.53429 -4.5 5.17798
    endloop
  endfacet
  facet normal 3.85576e-17 -1 -2.18671e-16
    outer loop
      vertex -1.52314 -4.5 5.24123
      vertex -1.76743 -4.5 6.62665
      vertex -1.53429 -4.5 5.17798
    endloop
  endfacet
  facet normal 3.85576e-17 -1 -2.18671e-16
    outer loop
      vertex -1.76743 -4.5 6.62665
      vertex -3.03783 -4.5 6.40264
      vertex -1.53429 -4.5 5.17798
    endloop
  endfacet
  facet normal -0.732621 1.20588e-16 -0.680637
    outer loop
      vertex -1.40855 -4.5 4.64892
      vertex -1.41665 -4.5 4.65765
      vertex -1.40855 4.5 4.64892
    endloop
  endfacet
  facet normal -0.732621 1.20588e-16 -0.680637
    outer loop
      vertex -1.40855 4.5 4.64892
      vertex -1.41665 -4.5 4.65765
      vertex -1.41665 4.5 4.65765
    endloop
  endfacet
  facet normal -0.732621 1.20588e-16 -0.680637
    outer loop
      vertex -1.40855 4.5 4.64892
      vertex -1.41665 4.5 4.65765
      vertex -1.42108 4.5 4.66241
    endloop
  endfacet
  facet normal -0.732621 1.20588e-16 -0.680637
    outer loop
      vertex -1.42108 4.5 4.66241
      vertex -1.42108 -4.5 4.66241
      vertex -3.03783 -4.5 6.40264
    endloop
  endfacet
  facet normal -0.732621 1.20588e-16 -0.680637
    outer loop
      vertex -1.42108 4.5 4.66241
      vertex -3.03783 -4.5 6.40264
      vertex -3.03783 4.5 6.40264
    endloop
  endfacet
  facet normal -0.732621 1.20588e-16 -0.680637
    outer loop
      vertex -1.42108 4.5 4.66241
      vertex -3.03783 4.5 6.40264
      vertex -1.40855 4.5 4.64892
    endloop
  endfacet
  facet normal -3.85576e-17 1 2.18671e-16
    outer loop
      vertex -1.75758 4.5 6.62839
      vertex -1.40855 4.5 4.64892
      vertex -3.03783 4.5 6.40264
    endloop
  endfacet
  facet normal 0.984808 0 0.173648
    outer loop
      vertex -1.41028 4.5 4.65877
      vertex -1.41028 -4.5 4.65877
      vertex -1.40855 -4.5 4.64892
    endloop
  endfacet
  facet normal 0.984808 0 0.173648
    outer loop
      vertex -1.75758 4.5 6.62839
      vertex -1.41028 4.5 4.65877
      vertex -1.40855 4.5 4.64892
    endloop
  endfacet
  facet normal 0.984808 0 0.173648
    outer loop
      vertex -1.40855 4.5 4.64892
      vertex -1.41028 4.5 4.65877
      vertex -1.40855 -4.5 4.64892
    endloop
  endfacet
  facet normal 0 0 1
    outer loop
      vertex 0.35 -4.51 10
      vertex -2.9 -6.5 10
      vertex 2.9 -6.5 10
    endloop
  endfacet
  facet normal 0 0 1
    outer loop
      vertex 0.818181 -1.69897 10
      vertex 0.419611 -1.83844 10
      vertex 2.9 -6.5 10
    endloop
  endfacet
  facet normal 0 0 1
    outer loop
      vertex 0.35 4.5 10
      vertex 0.35 1.84628 10
      vertex 0.419611 1.83844 10
    endloop
  endfacet
  facet normal 0 0 1
    outer loop
      vertex 1.88571 0 10
      vertex 1.83844 -0.419611 10
      vertex 2.9 -6.5 10
    endloop
  endfacet
  facet normal 0 0 1
    outer loop
      vertex 0.35 4.5 10
      vertex 0.419611 1.83844 10
      vertex 0.818181 1.69897 10
    endloop
  endfacet
  facet normal 0 0 1
    outer loop
      vertex 1.47431 -1.17572 10
      vertex 1.17572 -1.47431 10
      vertex 2.9 -6.5 10
    endloop
  endfacet
  facet normal 0 0 1
    outer loop
      vertex 2.9 4.5 10
      vertex 0.35 4.5 10
      vertex 1.17572 1.47431 10
    endloop
  endfacet
  facet normal 0 0 1
    outer loop
      vertex 2.9 4.5 10
      vertex 1.17572 1.47431 10
      vertex 1.47431 1.17572 10
    endloop
  endfacet
  facet normal 0 0 1
    outer loop
      vertex 1.83844 -0.419611 10
      vertex 1.69897 -0.818181 10
      vertex 2.9 -6.5 10
    endloop
  endfacet
  facet normal 0 0 1
    outer loop
      vertex 2.9 4.5 10
      vertex 1.47431 1.17572 10
      vertex 1.69897 0.818181 10
    endloop
  endfacet
  facet normal 0 0 1
    outer loop
      vertex 2.9 4.5 10
      vertex 1.83844 0.419611 10
      vertex 2.9 -6.5 10
    endloop
  endfacet
  facet normal 0 0 1
    outer loop
      vertex 2.9 4.5 10
      vertex 1.69897 0.818181 10
      vertex 1.83844 0.419611 10
    endloop
  endfacet
  facet normal 0 0 1
    outer loop
      vertex 1.83844 0.419611 10
      vertex 1.88571 0 10
      vertex 2.9 -6.5 10
    endloop
  endfacet
  facet normal 0 0 1
    outer loop
      vertex 1.17572 -1.47431 10
      vertex 0.818181 -1.69897 10
      vertex 2.9 -6.5 10
    endloop
  endfacet
  facet normal 0 0 1
    outer loop
      vertex -0.35 1.84628 10
      vertex -0.35 4.5 10
      vertex -2.9 4.5 10
    endloop
  endfacet
  facet normal 0 0 1
    outer loop
      vertex -1.88571 0 10
      vertex -1.83844 0.419611 10
      vertex -2.9 4.5 10
    endloop
  endfacet
  facet normal 0 0 1
    outer loop
      vertex 0.419611 -1.83844 10
      vertex 0.35 -4.51 10
      vertex 2.9 -6.5 10
    endloop
  endfacet
  facet normal 0 0 1
    outer loop
      vertex -0.35 -4.51 10
      vertex -2.9 -6.5 10
      vertex 0.35 -4.51 10
    endloop
  endfacet
  facet normal 0 0 1
    outer loop
      vertex -0.35 -4.51 10
      vertex -0.35 -1.84628 10
      vertex -2.9 -6.5 10
    endloop
  endfacet
  facet normal 0 0 1
    outer loop
      vertex -0.419611 -1.83844 10
      vertex -2.9 -6.5 10
      vertex -0.35 -1.84628 10
    endloop
  endfacet
  facet normal 0 0 1
    outer loop
      vertex -0.818181 -1.69897 10
      vertex -2.9 -6.5 10
      vertex -0.419611 -1.83844 10
    endloop
  endfacet
  facet normal 0 0 1
    outer loop
      vertex -1.47431 1.17572 10
      vertex -1.17572 1.47431 10
      vertex -2.9 4.5 10
    endloop
  endfacet
  facet normal 0 0 1
    outer loop
      vertex -1.17572 -1.47431 10
      vertex -2.9 -6.5 10
      vertex -0.818181 -1.69897 10
    endloop
  endfacet
  facet normal 0 0 1
    outer loop
      vertex -1.47431 -1.17572 10
      vertex -2.9 -6.5 10
      vertex -1.17572 -1.47431 10
    endloop
  endfacet
  facet normal 0 0 1
    outer loop
      vertex -1.69897 -0.818181 10
      vertex -2.9 -6.5 10
      vertex -1.47431 -1.17572 10
    endloop
  endfacet
  facet normal 0 0 1
    outer loop
      vertex -1.83844 0.419611 10
      vertex -1.69897 0.818181 10
      vertex -2.9 4.5 10
    endloop
  endfacet
  facet normal 0 0 1
    outer loop
      vertex -1.83844 -0.419611 10
      vertex -2.9 -6.5 10
      vertex -1.69897 -0.818181 10
    endloop
  endfacet
  facet normal 0 0 1
    outer loop
      vertex -2.9 4.5 10
      vertex -2.9 -6.5 10
      vertex -1.83844 -0.419611 10
    endloop
  endfacet
  facet normal 0 0 1
    outer loop
      vertex -2.9 4.5 10
      vertex -1.83844 -0.419611 10
      vertex -1.88571 0 10
    endloop
  endfacet
  facet normal 0 0 1
    outer loop
      vertex -1.17572 1.47431 10
      vertex -0.818181 1.69897 10
      vertex -2.9 4.5 10
    endloop
  endfacet
  facet normal 0 0 1
    outer loop
      vertex 0.35 -1.84628 10
      vertex 0.35 -4.51 10
      vertex 0.419611 -1.83844 10
    endloop
  endfacet
  facet normal 0 0 1
    outer loop
      vertex -0.419611 1.83844 10
      vertex -2.9 4.5 10
      vertex -0.818181 1.69897 10
    endloop
  endfacet
  facet normal 0 0 1
    outer loop
      vertex -0.35 1.84628 10
      vertex -2.9 4.5 10
      vertex -0.419611 1.83844 10
    endloop
  endfacet
  facet normal 0 0 1
    outer loop
      vertex 0.818181 1.69897 10
      vertex 1.17572 1.47431 10
      vertex 0.35 4.5 10
    endloop
  endfacet
  facet normal 0 0 1
    outer loop
      vertex 1.69897 -0.818181 10
      vertex 1.47431 -1.17572 10
      vertex 2.9 -6.5 10
    endloop
  endfacet
  facet normal 0 0 1
    outer loop
      vertex -1.69897 0.818181 10
      vertex -1.47431 1.17572 10
      vertex -2.9 4.5 10
    endloop
  endfacet
  facet normal -1 0 0
    outer loop
      vertex -2.9 -6.5 9
      vertex -2.9 -6.5 10
      vertex -2.9 4.5 9
    endloop
  endfacet
  facet normal -1 0 0
    outer loop
      vertex -2.9 4.5 9
      vertex -2.9 -6.5 10
      vertex -2.9 4.5 10
    endloop
  endfacet
  facet normal 1 0 0
    outer loop
      vertex 2.9 -6.5 10
      vertex 2.9 -6.5 9
      vertex 2.9 4.5 9
    endloop
  endfacet
  facet normal 1 0 0
    outer loop
      vertex 2.9 4.5 10
      vertex 2.9 -6.5 10
      vertex 2.9 4.5 9
    endloop
  endfacet
  facet normal 0 -1 0
    outer loop
      vertex -2.9 -6.5 10
      vertex -2.9 -6.5 9
      vertex 2.9 -6.5 9
    endloop
  endfacet
  facet normal 0 -1 0
    outer loop
      vertex 2.9 -6.5 10
      vertex -2.9 -6.5 10
      vertex 2.9 -6.5 9
    endloop
  endfacet
  facet normal 0 1 0
    outer loop
      vertex 0.35 4.5 4.84573
      vertex 0.35 4.5 10
      vertex 1.41028 4.5 4.65877
    endloop
  endfacet
  facet normal 0 1 0
    outer loop
      vertex 2.18591 4.5 9
      vertex 0.35 4.5 10
      vertex 2.9 4.5 10
    endloop
  endfacet
  facet normal 0 1 0
    outer loop
      vertex 1.75758 4.5 6.62839
      vertex 3.39497 4.5 8.37052
      vertex 3.03783 4.5 6.40264
    endloop
  endfacet
  facet normal 0 1 0
    outer loop
      vertex 1.75758 4.5 6.62839
      vertex 0.35 4.5 10
      vertex 2.18591 4.5 9
    endloop
  endfacet
  facet normal 0 1 0
    outer loop
      vertex 1.75758 4.5 6.62839
      vertex 2.18591 4.5 9
      vertex 2.11472 4.5 8.59626
    endloop
  endfacet
  facet normal 0 1 0
    outer loop
      vertex 3.03783 4.5 6.40264
      vertex 3.39497 4.5 8.37052
      vertex 3.04768 4.5 6.40091
    endloop
  endfacet
  facet normal 0 1 0
    outer loop
      vertex 1.41028 4.5 4.65877
      vertex 0.35 4.5 10
      vertex 1.75758 4.5 6.62839
    endloop
  endfacet
  facet normal 0 1 0
    outer loop
      vertex 2.18591 4.5 9
      vertex 2.9 4.5 10
      vertex 2.9 4.5 9
    endloop
  endfacet
  facet normal 0 1 0
    outer loop
      vertex 1.75758 4.5 6.62839
      vertex 2.11472 4.5 8.59626
      vertex 3.39497 4.5 8.37052
    endloop
  endfacet
  facet normal 0.984808 0 -0.173648
    outer loop
      vertex 2.18591 -4.5 9
      vertex 2.11472 -4.5 8.59626
      vertex 2.11472 4.5 8.59626
    endloop
  endfacet
  facet normal 0.984808 0 -0.173648
    outer loop
      vertex 2.18591 4.5 9
      vertex 2.18591 -4.5 9
      vertex 2.11472 4.5 8.59626
    endloop
  endfacet
  facet normal 0 -1 0
    outer loop
      vertex 0.35 -4.5 9
      vertex 0.35 -4.5 4.84573
      vertex 1.42013 -4.5 4.65703
    endloop
  endfacet
  facet normal 0 -1 0
    outer loop
      vertex 1.53429 -4.5 5.17798
      vertex 0.35 -4.5 9
      vertex 1.51127 -4.5 5.17392
    endloop
  endfacet
  facet normal 0 -1 0
    outer loop
      vertex 1.51127 -4.5 5.17392
      vertex 0.35 -4.5 9
      vertex 1.42013 -4.5 4.65703
    endloop
  endfacet
  facet normal 0 -1 0
    outer loop
      vertex 1.52314 -4.5 5.24123
      vertex 0.35 -4.5 9
      vertex 1.53429 -4.5 5.17798
    endloop
  endfacet
  facet normal 0 -1 0
    outer loop
      vertex 1.76743 -4.5 6.62665
      vertex 0.35 -4.5 9
      vertex 1.52314 -4.5 5.24123
    endloop
  endfacet
  facet normal 0 -1 0
    outer loop
      vertex 3.03783 -4.5 6.40264
      vertex 0.35 -4.5 9
      vertex 1.76743 -4.5 6.62665
    endloop
  endfacet
  facet normal 0 -1 0
    outer loop
      vertex 3.04768 -4.5 6.40091
      vertex 0.35 -4.5 9
      vertex 3.03783 -4.5 6.40264
    endloop
  endfacet
  facet normal 0 -1 0
    outer loop
      vertex 2.11472 -4.5 8.59626
      vertex 0.35 -4.5 9
      vertex 3.04768 -4.5 6.40091
    endloop
  endfacet
  facet normal 0 -1 0
    outer loop
      vertex 3.39497 -4.5 8.37052
      vertex 2.11472 -4.5 8.59626
      vertex 3.04768 -4.5 6.40091
    endloop
  endfacet
  facet normal 0 -1 0
    outer loop
      vertex 2.11472 -4.5 8.59626
      vertex 2.18591 -4.5 9
      vertex 0.35 -4.5 9
    endloop
  endfacet
  facet normal -1 0 0
    outer loop
      vertex 0.35 -1.84628 10
      vertex 0.35 -1.53345 9.00464
      vertex 0.35 -4.51 10
    endloop
  endfacet
  facet normal -1 0 0
    outer loop
      vertex 0.35 -4.51 10
      vertex 0.35 -1.53345 9.00464
      vertex 0.35 -0.726783 6.56667
    endloop
  endfacet
  facet normal -1 0 0
    outer loop
      vertex 0.35 -0.726783 6.56667
      vertex 0.35 -0.438886 5.78613
      vertex 0.35 -4.51 10
    endloop
  endfacet
  facet normal -1 0 0
    outer loop
      vertex 0.35 -0.438886 5.78613
      vertex 0.35 -0.279116 5.42439
      vertex 0.35 -4.51 10
    endloop
  endfacet
  facet normal -1 0 0
    outer loop
      vertex 0.35 -0.279116 5.42439
      vertex 0.35 -0.168551 5.23604
      vertex 0.35 -4.51 10
    endloop
  endfacet
  facet normal -1 0 0
    outer loop
      vertex 0.35 -0.0798852 5.14228
      vertex 0.35 -4.5 4.84573
      vertex 0.35 -0.168551 5.23604
    endloop
  endfacet
  facet normal -1 0 0
    outer loop
      vertex 0.35 0.0798852 5.14228
      vertex 0.35 4.5 4.84573
      vertex 0.35 0 5.11364
    endloop
  endfacet
  facet normal -1 0 0
    outer loop
      vertex 0.35 0.279116 5.42439
      vertex 0.35 4.5 10
      vertex 0.35 0.168551 5.23604
    endloop
  endfacet
  facet normal -1 0 0
    outer loop
      vertex 0.35 0.438886 5.78613
      vertex 0.35 4.5 10
      vertex 0.35 0.279116 5.42439
    endloop
  endfacet
  facet normal -1 0 0
    outer loop
      vertex 0.35 0.726783 6.56667
      vertex 0.35 4.5 10
      vertex 0.35 0.438886 5.78613
    endloop
  endfacet
  facet normal -1 0 0
    outer loop
      vertex 0.35 1.53345 9.00464
      vertex 0.35 1.84628 10
      vertex 0.35 4.5 10
    endloop
  endfacet
  facet normal -1 0 0
    outer loop
      vertex 0.35 1.53345 9.00464
      vertex 0.35 4.5 10
      vertex 0.35 0.726783 6.56667
    endloop
  endfacet
  facet normal -1 0 0
    outer loop
      vertex 0.35 0.168551 5.23604
      vertex 0.35 4.5 10
      vertex 0.35 4.5 4.84573
    endloop
  endfacet
  facet normal -1 0 0
    outer loop
      vertex 0.35 0.168551 5.23604
      vertex 0.35 4.5 4.84573
      vertex 0.35 0.0798852 5.14228
    endloop
  endfacet
  facet normal -1 0 0
    outer loop
      vertex 0.35 0 5.11364
      vertex 0.35 4.5 4.84573
      vertex 0.35 -4.5 4.84573
    endloop
  endfacet
  facet normal -1 0 0
    outer loop
      vertex 0.35 0 5.11364
      vertex 0.35 -4.5 4.84573
      vertex 0.35 -0.0798852 5.14228
    endloop
  endfacet
  facet normal -1 0 0
    outer loop
      vertex 0.35 -0.168551 5.23604
      vertex 0.35 -4.5 4.84573
      vertex 0.35 -4.5 9
    endloop
  endfacet
  facet normal -1 0 0
    outer loop
      vertex 0.35 -0.168551 5.23604
      vertex 0.35 -4.5 9
      vertex 0.35 -4.51 10
    endloop
  endfacet
  facet normal -1 0 0
    outer loop
      vertex 0.35 -4.51 9
      vertex 0.35 -4.51 10
      vertex 0.35 -4.5 9
    endloop
  endfacet
  facet normal 0 1 0
    outer loop
      vertex 0.35 -4.51 10
      vertex 0.35 -4.51 9
      vertex -0.35 -4.51 10
    endloop
  endfacet
  facet normal 0 1 0
    outer loop
      vertex -0.35 -4.51 10
      vertex 0.35 -4.51 9
      vertex -0.35 -4.51 9
    endloop
  endfacet
  facet normal 0.106874 0.94853 0.298109
    outer loop
      vertex -0.35 -1.53345 9.00464
      vertex -0.419611 -1.83844 10
      vertex -0.35 -1.84628 10
    endloop
  endfacet
  facet normal 0.31526 0.900967 0.298109
    outer loop
      vertex -0.818181 -1.69897 10
      vertex -0.419611 -1.83844 10
      vertex -0.35 -0.726783 6.56667
    endloop
  endfacet
  facet normal 0.31526 0.900967 0.298109
    outer loop
      vertex -0.35 -0.726783 6.56667
      vertex -0.419611 -1.83844 10
      vertex -0.35 -1.53345 9.00464
    endloop
  endfacet
  facet normal 0.507842 0.808225 0.298109
    outer loop
      vertex -1.17572 -1.47431 10
      vertex -0.818181 -1.69897 10
      vertex -0.35 -0.438886 5.78613
    endloop
  endfacet
  facet normal 0.507842 0.808225 0.298109
    outer loop
      vertex -0.35 -0.438886 5.78613
      vertex -0.818181 -1.69897 10
      vertex -0.35 -0.726783 6.56667
    endloop
  endfacet
  facet normal 0.674956 0.674956 0.298109
    outer loop
      vertex -1.47431 -1.17572 10
      vertex -1.17572 -1.47431 10
      vertex -0.35 -0.279116 5.42439
    endloop
  endfacet
  facet normal 0.674956 0.674956 0.298109
    outer loop
      vertex -0.35 -0.279116 5.42439
      vertex -1.17572 -1.47431 10
      vertex -0.35 -0.438886 5.78613
    endloop
  endfacet
  facet normal 0.808225 0.507842 0.298109
    outer loop
      vertex -0.35 -0.168551 5.23604
      vertex -1.69897 -0.818181 10
      vertex -1.47431 -1.17572 10
    endloop
  endfacet
  facet normal 0.808225 0.507842 0.298109
    outer loop
      vertex -0.35 -0.279116 5.42439
      vertex -0.35 -0.168551 5.23604
      vertex -1.47431 -1.17572 10
    endloop
  endfacet
  facet normal 0.900967 0.31526 0.298109
    outer loop
      vertex -0.35 -0.0798852 5.14228
      vertex -1.83844 -0.419611 10
      vertex -1.69897 -0.818181 10
    endloop
  endfacet
  facet normal 0.900967 0.31526 0.298109
    outer loop
      vertex -0.35 -0.168551 5.23604
      vertex -0.35 -0.0798852 5.14228
      vertex -1.69897 -0.818181 10
    endloop
  endfacet
  facet normal 0.94853 0.106874 0.298109
    outer loop
      vertex -0.35 0 5.11364
      vertex -1.88571 0 10
      vertex -1.83844 -0.419611 10
    endloop
  endfacet
  facet normal 0.94853 0.106874 0.298109
    outer loop
      vertex -0.35 -0.0798852 5.14228
      vertex -0.35 0 5.11364
      vertex -1.83844 -0.419611 10
    endloop
  endfacet
  facet normal 0.94853 -0.106874 0.298109
    outer loop
      vertex -1.83844 0.419611 10
      vertex -1.88571 0 10
      vertex -0.35 0 5.11364
    endloop
  endfacet
  facet normal 0.94853 -0.106874 0.298109
    outer loop
      vertex -0.35 0.0798852 5.14228
      vertex -1.83844 0.419611 10
      vertex -0.35 0 5.11364
    endloop
  endfacet
  facet normal 0.900967 -0.31526 0.298109
    outer loop
      vertex -1.69897 0.818181 10
      vertex -1.83844 0.419611 10
      vertex -0.35 0.0798852 5.14228
    endloop
  endfacet
  facet normal 0.900967 -0.31526 0.298109
    outer loop
      vertex -0.35 0.168551 5.23604
      vertex -1.69897 0.818181 10
      vertex -0.35 0.0798852 5.14228
    endloop
  endfacet
  facet normal 0.808225 -0.507842 0.298109
    outer loop
      vertex -1.47431 1.17572 10
      vertex -1.69897 0.818181 10
      vertex -0.35 0.168551 5.23604
    endloop
  endfacet
  facet normal 0.808225 -0.507842 0.298109
    outer loop
      vertex -0.35 0.279116 5.42439
      vertex -1.47431 1.17572 10
      vertex -0.35 0.168551 5.23604
    endloop
  endfacet
  facet normal 0.674956 -0.674956 0.298109
    outer loop
      vertex -1.17572 1.47431 10
      vertex -1.47431 1.17572 10
      vertex -0.35 0.279116 5.42439
    endloop
  endfacet
  facet normal 0.674956 -0.674956 0.298109
    outer loop
      vertex -0.35 0.438886 5.78613
      vertex -1.17572 1.47431 10
      vertex -0.35 0.279116 5.42439
    endloop
  endfacet
  facet normal 0.507842 -0.808225 0.298109
    outer loop
      vertex -0.818181 1.69897 10
      vertex -1.17572 1.47431 10
      vertex -0.35 0.438886 5.78613
    endloop
  endfacet
  facet normal 0.507842 -0.808225 0.298109
    outer loop
      vertex -0.35 0.726783 6.56667
      vertex -0.818181 1.69897 10
      vertex -0.35 0.438886 5.78613
    endloop
  endfacet
  facet normal 0.31526 -0.900967 0.298109
    outer loop
      vertex -0.419611 1.83844 10
      vertex -0.818181 1.69897 10
      vertex -0.35 0.726783 6.56667
    endloop
  endfacet
  facet normal 0.31526 -0.900967 0.298109
    outer loop
      vertex -0.35 1.53345 9.00464
      vertex -0.419611 1.83844 10
      vertex -0.35 0.726783 6.56667
    endloop
  endfacet
  facet normal 0.106874 -0.94853 0.298109
    outer loop
      vertex -0.35 1.84628 10
      vertex -0.419611 1.83844 10
      vertex -0.35 1.53345 9.00464
    endloop
  endfacet
  facet normal 0 1 0
    outer loop
      vertex -1.41665 4.5 4.65765
      vertex -1.42013 4.5 4.65703
      vertex -1.42108 4.5 4.66241
    endloop
  endfacet
  facet normal 3.85576e-17 -1 -2.18671e-16
    outer loop
      vertex -1.40855 -4.5 4.64892
      vertex -1.41028 -4.5 4.65877
      vertex -1.41665 -4.5 4.65765
    endloop
  endfacet
  facet normal -0.106874 0.94853 0.298109
    outer loop
      vertex 0.35 -1.53345 9.00464
      vertex 0.35 -1.84628 10
      vertex 0.419611 -1.83844 10
    endloop
  endfacet
  facet normal -0.31526 0.900967 0.298109
    outer loop
      vertex 0.35 -1.53345 9.00464
      vertex 0.419611 -1.83844 10
      vertex 0.35 -0.726783 6.56667
    endloop
  endfacet
  facet normal -0.31526 0.900967 0.298109
    outer loop
      vertex 0.35 -0.726783 6.56667
      vertex 0.419611 -1.83844 10
      vertex 0.818181 -1.69897 10
    endloop
  endfacet
  facet normal -0.507842 0.808225 0.298109
    outer loop
      vertex 0.35 -0.726783 6.56667
      vertex 0.818181 -1.69897 10
      vertex 0.35 -0.438886 5.78613
    endloop
  endfacet
  facet normal -0.507842 0.808225 0.298109
    outer loop
      vertex 0.35 -0.438886 5.78613
      vertex 0.818181 -1.69897 10
      vertex 1.17572 -1.47431 10
    endloop
  endfacet
  facet normal -0.674956 0.674956 0.298109
    outer loop
      vertex 0.35 -0.438886 5.78613
      vertex 1.17572 -1.47431 10
      vertex 0.35 -0.279116 5.42439
    endloop
  endfacet
  facet normal -0.674956 0.674956 0.298109
    outer loop
      vertex 0.35 -0.279116 5.42439
      vertex 1.17572 -1.47431 10
      vertex 1.47431 -1.17572 10
    endloop
  endfacet
  facet normal -0.808225 0.507842 0.298109
    outer loop
      vertex 0.35 -0.279116 5.42439
      vertex 1.47431 -1.17572 10
      vertex 0.35 -0.168551 5.23604
    endloop
  endfacet
  facet normal -0.808225 0.507842 0.298109
    outer loop
      vertex 0.35 -0.168551 5.23604
      vertex 1.47431 -1.17572 10
      vertex 1.69897 -0.818181 10
    endloop
  endfacet
  facet normal -0.900967 0.31526 0.298109
    outer loop
      vertex 0.35 -0.168551 5.23604
      vertex 1.69897 -0.818181 10
      vertex 0.35 -0.0798852 5.14228
    endloop
  endfacet
  facet normal -0.900967 0.31526 0.298109
    outer loop
      vertex 0.35 -0.0798852 5.14228
      vertex 1.69897 -0.818181 10
      vertex 1.83844 -0.419611 10
    endloop
  endfacet
  facet normal -0.94853 0.106874 0.298109
    outer loop
      vertex 0.35 -0.0798852 5.14228
      vertex 1.83844 -0.419611 10
      vertex 0.35 0 5.11364
    endloop
  endfacet
  facet normal -0.94853 0.106874 0.298109
    outer loop
      vertex 0.35 0 5.11364
      vertex 1.83844 -0.419611 10
      vertex 1.88571 0 10
    endloop
  endfacet
  facet normal -0.94853 -0.106874 0.298109
    outer loop
      vertex 0.35 0 5.11364
      vertex 1.88571 0 10
      vertex 0.35 0.0798852 5.14228
    endloop
  endfacet
  facet normal -0.94853 -0.106874 0.298109
    outer loop
      vertex 0.35 0.0798852 5.14228
      vertex 1.88571 0 10
      vertex 1.83844 0.419611 10
    endloop
  endfacet
  facet normal -0.900967 -0.31526 0.298109
    outer loop
      vertex 0.35 0.0798852 5.14228
      vertex 1.83844 0.419611 10
      vertex 0.35 0.168551 5.23604
    endloop
  endfacet
  facet normal -0.900967 -0.31526 0.298109
    outer loop
      vertex 0.35 0.168551 5.23604
      vertex 1.83844 0.419611 10
      vertex 1.69897 0.818181 10
    endloop
  endfacet
  facet normal -0.808225 -0.507842 0.298109
    outer loop
      vertex 0.35 0.168551 5.23604
      vertex 1.69897 0.818181 10
      vertex 0.35 0.279116 5.42439
    endloop
  endfacet
  facet normal -0.808225 -0.507842 0.298109
    outer loop
      vertex 0.35 0.279116 5.42439
      vertex 1.69897 0.818181 10
      vertex 1.47431 1.17572 10
    endloop
  endfacet
  facet normal -0.674956 -0.674956 0.298109
    outer loop
      vertex 0.35 0.438886 5.78613
      vertex 0.35 0.279116 5.42439
      vertex 1.47431 1.17572 10
    endloop
  endfacet
  facet normal -0.674956 -0.674956 0.298109
    outer loop
      vertex 1.17572 1.47431 10
      vertex 0.35 0.438886 5.78613
      vertex 1.47431 1.17572 10
    endloop
  endfacet
  facet normal -0.507842 -0.808225 0.298109
    outer loop
      vertex 0.35 0.726783 6.56667
      vertex 0.35 0.438886 5.78613
      vertex 1.17572 1.47431 10
    endloop
  endfacet
  facet normal -0.507842 -0.808225 0.298109
    outer loop
      vertex 0.818181 1.69897 10
      vertex 0.35 0.726783 6.56667
      vertex 1.17572 1.47431 10
    endloop
  endfacet
  facet normal -0.31526 -0.900967 0.298109
    outer loop
      vertex 0.35 1.53345 9.00464
      vertex 0.35 0.726783 6.56667
      vertex 0.818181 1.69897 10
    endloop
  endfacet
  facet normal -0.31526 -0.900967 0.298109
    outer loop
      vertex 0.419611 1.83844 10
      vertex 0.35 1.53345 9.00464
      vertex 0.818181 1.69897 10
    endloop
  endfacet
  facet normal -0.106874 -0.94853 0.298109
    outer loop
      vertex 0.35 1.84628 10
      vertex 0.35 1.53345 9.00464
      vertex 0.419611 1.83844 10
    endloop
  endfacet
  facet normal -0.173648 0 -0.984808
    outer loop
      vertex 0.35 -4.5 4.84573
      vertex 0.35 4.5 4.84573
      vertex 1.41028 -4.5 4.65877
    endloop
  endfacet
  facet normal -0.173648 0 -0.984808
    outer loop
      vertex 0.35 -4.5 4.84573
      vertex 1.41028 -4.5 4.65877
      vertex 1.42013 -4.5 4.65703
    endloop
  endfacet
  facet normal -0.173648 0 -0.984808
    outer loop
      vertex 1.41665 4.5 4.65765
      vertex 1.42013 -4.5 4.65703
      vertex 1.41665 -4.5 4.65765
    endloop
  endfacet
  facet normal -0.173648 0 -0.984808
    outer loop
      vertex 1.41028 -4.5 4.65877
      vertex 1.41665 -4.5 4.65765
      vertex 1.42013 -4.5 4.65703
    endloop
  endfacet
  facet normal -0.173648 0 -0.984808
    outer loop
      vertex 1.42013 -4.5 4.65703
      vertex 1.41665 4.5 4.65765
      vertex 1.42013 4.5 4.65703
    endloop
  endfacet
  facet normal -0.173648 0 -0.984808
    outer loop
      vertex 1.41028 -4.5 4.65877
      vertex 0.35 4.5 4.84573
      vertex 1.41028 4.5 4.65877
    endloop
  endfacet
  facet normal -0.984808 0 0.173648
    outer loop
      vertex 1.40855 -4.5 4.64892
      vertex 1.41028 -4.5 4.65877
      vertex 1.40855 4.5 4.64892
    endloop
  endfacet
  facet normal -0.984808 0 0.173648
    outer loop
      vertex 1.40855 4.5 4.64892
      vertex 1.41028 -4.5 4.65877
      vertex 1.41028 4.5 4.65877
    endloop
  endfacet
  facet normal -0.984808 0 0.173648
    outer loop
      vertex 1.40855 4.5 4.64892
      vertex 1.41028 4.5 4.65877
      vertex 1.75758 4.5 6.62839
    endloop
  endfacet
  facet normal 3.85576e-17 1 2.18671e-16
    outer loop
      vertex 3.03783 4.5 6.40264
      vertex 1.40855 4.5 4.64892
      vertex 1.75758 4.5 6.62839
    endloop
  endfacet
  facet normal 0.732621 1.20588e-16 -0.680637
    outer loop
      vertex 1.41665 -4.5 4.65765
      vertex 1.40855 -4.5 4.64892
      vertex 1.40855 4.5 4.64892
    endloop
  endfacet
  facet normal 0.732621 1.20588e-16 -0.680637
    outer loop
      vertex 1.42108 -4.5 4.66241
      vertex 1.42108 4.5 4.66241
      vertex 3.03783 4.5 6.40264
    endloop
  endfacet
  facet normal 0.732621 1.20588e-16 -0.680637
    outer loop
      vertex 1.41665 4.5 4.65765
      vertex 1.41665 -4.5 4.65765
      vertex 1.40855 4.5 4.64892
    endloop
  endfacet
  facet normal 0.732621 1.20588e-16 -0.680637
    outer loop
      vertex 3.03783 4.5 6.40264
      vertex 1.42108 4.5 4.66241
      vertex 1.40855 4.5 4.64892
    endloop
  endfacet
  facet normal 0.732621 1.20588e-16 -0.680637
    outer loop
      vertex 1.42108 4.5 4.66241
      vertex 1.41665 4.5 4.65765
      vertex 1.40855 4.5 4.64892
    endloop
  endfacet
  facet normal 0.732621 1.20588e-16 -0.680637
    outer loop
      vertex 3.03783 4.5 6.40264
      vertex 3.03783 -4.5 6.40264
      vertex 1.42108 -4.5 4.66241
    endloop
  endfacet
  facet normal -0.173648 0 -0.984808
    outer loop
      vertex 3.03783 4.5 6.40264
      vertex 3.04768 4.5 6.40091
      vertex 3.03783 -4.5 6.40264
    endloop
  endfacet
  facet normal -0.173648 0 -0.984808
    outer loop
      vertex 3.03783 -4.5 6.40264
      vertex 3.04768 4.5 6.40091
      vertex 3.04768 -4.5 6.40091
    endloop
  endfacet
  facet normal 0.984808 0 -0.173648
    outer loop
      vertex 3.39497 -4.5 8.37052
      vertex 3.04768 -4.5 6.40091
      vertex 3.04768 4.5 6.40091
    endloop
  endfacet
  facet normal 0.984808 0 -0.173648
    outer loop
      vertex 3.39497 4.5 8.37052
      vertex 3.39497 -4.5 8.37052
      vertex 3.04768 4.5 6.40091
    endloop
  endfacet
  facet normal 0.173648 0 0.984808
    outer loop
      vertex 2.11472 4.5 8.59626
      vertex 2.11472 -4.5 8.59626
      vertex 3.39497 -4.5 8.37052
    endloop
  endfacet
  facet normal 0.173648 0 0.984808
    outer loop
      vertex 3.39497 4.5 8.37052
      vertex 2.11472 4.5 8.59626
      vertex 3.39497 -4.5 8.37052
    endloop
  endfacet
  facet normal -3.85576e-17 -1 -2.18671e-16
    outer loop
      vertex 1.53429 -4.5 5.17798
      vertex 1.42108 -4.5 4.66241
      vertex 3.03783 -4.5 6.40264
    endloop
  endfacet
  facet normal -3.85576e-17 -1 -2.18671e-16
    outer loop
      vertex 1.76743 -4.5 6.62665
      vertex 1.52314 -4.5 5.24123
      vertex 3.03783 -4.5 6.40264
    endloop
  endfacet
  facet normal -3.85576e-17 -1 -2.18671e-16
    outer loop
      vertex 1.51127 -4.5 5.17392
      vertex 1.42108 -4.5 4.66241
      vertex 1.53429 -4.5 5.17798
    endloop
  endfacet
  facet normal -3.85576e-17 -1 -2.18671e-16
    outer loop
      vertex 1.52314 -4.5 5.24123
      vertex 1.53429 -4.5 5.17798
      vertex 3.03783 -4.5 6.40264
    endloop
  endfacet
  facet normal 0.984808 0 -0.173648
    outer loop
      vertex 1.42108 -4.5 4.66241
      vertex 1.42013 -4.5 4.65703
      vertex 1.42013 4.5 4.65703
    endloop
  endfacet
  facet normal 0.984808 0 -0.173648
    outer loop
      vertex 1.51127 -4.5 5.17392
      vertex 1.42013 -4.5 4.65703
      vertex 1.42108 -4.5 4.66241
    endloop
  endfacet
  facet normal 0.984808 0 -0.173648
    outer loop
      vertex 1.42108 4.5 4.66241
      vertex 1.42108 -4.5 4.66241
      vertex 1.42013 4.5 4.65703
    endloop
  endfacet
  facet normal 0 1 0
    outer loop
      vertex 1.42013 4.5 4.65703
      vertex 1.41665 4.5 4.65765
      vertex 1.42108 4.5 4.66241
    endloop
  endfacet
  facet normal -3.85576e-17 -1 -2.18671e-16
    outer loop
      vertex 1.41028 -4.5 4.65877
      vertex 1.40855 -4.5 4.64892
      vertex 1.41665 -4.5 4.65765
    endloop
  endfacet
endsolid OpenSCAD_Model
