solid OpenSCAD_Model
  facet normal 1 0 0
    outer loop
      vertex 0 25 0
      vertex 0 27.1 0
      vertex 0 27.1 10
    endloop
  endfacet
  facet normal 1 0 0
    outer loop
      vertex 0 25 10
      vertex 0 25 0
      vertex 0 27.1 10
    endloop
  endfacet
  facet normal -0.0435657 0.999051 0
    outer loop
      vertex -2.362 26.997 10
      vertex 0 27.1 10
      vertex -2.362 26.997 0
    endloop
  endfacet
  facet normal -0.0435657 0.999051 0
    outer loop
      vertex -2.362 26.997 0
      vertex 0 27.1 10
      vertex 0 27.1 0
    endloop
  endfacet
  facet normal 0 0 -1
    outer loop
      vertex -26.997 2.362 0
      vertex -26.688 4.706 0
      vertex -27.1 0 0
    endloop
  endfacet
  facet normal 0 0 -1
    outer loop
      vertex -27.1 0 0
      vertex -26.688 4.706 0
      vertex -26.177 7.014 0
    endloop
  endfacet
  facet normal 0 0 -1
    outer loop
      vertex -27.1 0 0
      vertex -26.177 7.014 0
      vertex -25.466 9.269 0
    endloop
  endfacet
  facet normal 0 0 -1
    outer loop
      vertex -27.1 0 0
      vertex -25.466 9.269 0
      vertex -24.561 11.453 0
    endloop
  endfacet
  facet normal 0 0 -1
    outer loop
      vertex -27.1 0 0
      vertex -24.561 11.453 0
      vertex -23.469 13.55 0
    endloop
  endfacet
  facet normal 0 0 -1
    outer loop
      vertex -27.1 0 0
      vertex -23.469 13.55 0
      vertex -22.199 15.544 0
    endloop
  endfacet
  facet normal 0 0 -1
    outer loop
      vertex -27.1 0 0
      vertex -22.199 15.544 0
      vertex -20.76 17.42 0
    endloop
  endfacet
  facet normal 0 0 -1
    outer loop
      vertex -27.1 0 0
      vertex -20.76 17.42 0
      vertex -19.163 19.163 0
    endloop
  endfacet
  facet normal 0 0 -1
    outer loop
      vertex -20.479 14.339 0
      vertex -19.163 19.163 0
      vertex -17.42 20.76 0
    endloop
  endfacet
  facet normal 0 0 -1
    outer loop
      vertex -19.151 16.07 0
      vertex -17.42 20.76 0
      vertex -15.544 22.199 0
    endloop
  endfacet
  facet normal 0 0 -1
    outer loop
      vertex -16.07 19.151 0
      vertex -15.544 22.199 0
      vertex -13.55 23.469 0
    endloop
  endfacet
  facet normal 0 0 -1
    outer loop
      vertex -14.339 20.479 0
      vertex -13.55 23.469 0
      vertex -11.453 24.561 0
    endloop
  endfacet
  facet normal 0 0 -1
    outer loop
      vertex -12.5 21.651 0
      vertex -11.453 24.561 0
      vertex -9.269 25.466 0
    endloop
  endfacet
  facet normal 0 0 -1
    outer loop
      vertex -10.565 22.658 0
      vertex -9.269 25.466 0
      vertex -7.014 26.177 0
    endloop
  endfacet
  facet normal 0 0 -1
    outer loop
      vertex -8.551 23.492 0
      vertex -7.014 26.177 0
      vertex -4.706 26.688 0
    endloop
  endfacet
  facet normal 0 0 -1
    outer loop
      vertex -6.47 24.148 0
      vertex -4.706 26.688 0
      vertex -2.362 26.997 0
    endloop
  endfacet
  facet normal 0 0 -1
    outer loop
      vertex -4.341 24.62 0
      vertex -2.362 26.997 0
      vertex 0 27.1 0
    endloop
  endfacet
  facet normal 0 0 -1
    outer loop
      vertex -2.179 24.905 0
      vertex 0 27.1 0
      vertex 0 25 0
    endloop
  endfacet
  facet normal 0 0 -1
    outer loop
      vertex -6.47 24.148 0
      vertex -2.362 26.997 0
      vertex -4.341 24.62 0
    endloop
  endfacet
  facet normal 0 0 -1
    outer loop
      vertex -8.551 23.492 0
      vertex -4.706 26.688 0
      vertex -6.47 24.148 0
    endloop
  endfacet
  facet normal 0 0 -1
    outer loop
      vertex -10.565 22.658 0
      vertex -7.014 26.177 0
      vertex -8.551 23.492 0
    endloop
  endfacet
  facet normal 0 0 -1
    outer loop
      vertex -12.5 21.651 0
      vertex -9.269 25.466 0
      vertex -10.565 22.658 0
    endloop
  endfacet
  facet normal 0 0 -1
    outer loop
      vertex -14.339 20.479 0
      vertex -11.453 24.561 0
      vertex -12.5 21.651 0
    endloop
  endfacet
  facet normal 0 0 -1
    outer loop
      vertex -16.07 19.151 0
      vertex -13.55 23.469 0
      vertex -14.339 20.479 0
    endloop
  endfacet
  facet normal 0 0 -1
    outer loop
      vertex -17.678 17.678 0
      vertex -15.544 22.199 0
      vertex -16.07 19.151 0
    endloop
  endfacet
  facet normal 0 0 -1
    outer loop
      vertex -19.151 16.07 0
      vertex -15.544 22.199 0
      vertex -17.678 17.678 0
    endloop
  endfacet
  facet normal 0 0 -1
    outer loop
      vertex -20.479 14.339 0
      vertex -17.42 20.76 0
      vertex -19.151 16.07 0
    endloop
  endfacet
  facet normal 0 0 -1
    outer loop
      vertex -21.651 12.5 0
      vertex -19.163 19.163 0
      vertex -20.479 14.339 0
    endloop
  endfacet
  facet normal 0 0 -1
    outer loop
      vertex -24.148 6.47 0
      vertex -27.1 0 0
      vertex -23.492 8.551 0
    endloop
  endfacet
  facet normal 0 0 -1
    outer loop
      vertex -22.658 10.565 0
      vertex -19.163 19.163 0
      vertex -21.651 12.5 0
    endloop
  endfacet
  facet normal 0 0 -1
    outer loop
      vertex -27.1 0 0
      vertex -19.163 19.163 0
      vertex -22.658 10.565 0
    endloop
  endfacet
  facet normal 0 0 -1
    outer loop
      vertex -27.1 0 0
      vertex -22.658 10.565 0
      vertex -23.492 8.551 0
    endloop
  endfacet
  facet normal 0 0 -1
    outer loop
      vertex -24.62 4.341 0
      vertex -27.1 0 0
      vertex -24.148 6.47 0
    endloop
  endfacet
  facet normal 0 0 -1
    outer loop
      vertex -24.905 2.179 0
      vertex -27.1 0 0
      vertex -24.62 4.341 0
    endloop
  endfacet
  facet normal 0 0 -1
    outer loop
      vertex -25 0 0
      vertex -27.1 0 0
      vertex -24.905 2.179 0
    endloop
  endfacet
  facet normal 0 0 -1
    outer loop
      vertex -27.1 0 0
      vertex -25 0 0
      vertex -24.905 -2.179 0
    endloop
  endfacet
  facet normal 0 0 -1
    outer loop
      vertex -24.905 -2.179 0
      vertex -24.62 -4.341 0
      vertex -27.1 0 0
    endloop
  endfacet
  facet normal 0 0 -1
    outer loop
      vertex -24.62 -4.341 0
      vertex -24.148 -6.47 0
      vertex -27.1 0 0
    endloop
  endfacet
  facet normal 0 0 -1
    outer loop
      vertex -24.148 -6.47 0
      vertex -23.492 -8.551 0
      vertex -27.1 0 0
    endloop
  endfacet
  facet normal 0 0 -1
    outer loop
      vertex -23.492 -8.551 0
      vertex -22.658 -10.565 0
      vertex -27.1 0 0
    endloop
  endfacet
  facet normal 0 0 -1
    outer loop
      vertex 1 27.056 0
      vertex 10.565 22.658 0
      vertex 8.551 23.492 0
    endloop
  endfacet
  facet normal 0 0 -1
    outer loop
      vertex 1 27.056 0
      vertex 8.551 23.492 0
      vertex 6.47 24.148 0
    endloop
  endfacet
  facet normal 0 0 -1
    outer loop
      vertex 1 27.056 0
      vertex 6.47 24.148 0
      vertex 4.341 24.62 0
    endloop
  endfacet
  facet normal 0 0 -1
    outer loop
      vertex 1 27.056 0
      vertex 4.341 24.62 0
      vertex 2.179 24.905 0
    endloop
  endfacet
  facet normal 0 0 -1
    outer loop
      vertex 1 27.056 0
      vertex 2.179 24.905 0
      vertex 1 24.956 0
    endloop
  endfacet
  facet normal 0 0 -1
    outer loop
      vertex 10.565 22.658 0
      vertex 1 27.056 0
      vertex 2.362 26.997 0
    endloop
  endfacet
  facet normal 0 0 -1
    outer loop
      vertex 10.565 22.658 0
      vertex 2.362 26.997 0
      vertex 12.5 21.651 0
    endloop
  endfacet
  facet normal 0 0 -1
    outer loop
      vertex 12.5 21.651 0
      vertex 2.362 26.997 0
      vertex 4.706 26.688 0
    endloop
  endfacet
  facet normal 0 0 -1
    outer loop
      vertex 12.5 21.651 0
      vertex 4.706 26.688 0
      vertex 14.339 20.479 0
    endloop
  endfacet
  facet normal 0 0 -1
    outer loop
      vertex 14.339 20.479 0
      vertex 4.706 26.688 0
      vertex 7.014 26.177 0
    endloop
  endfacet
  facet normal 0 0 -1
    outer loop
      vertex 14.339 20.479 0
      vertex 7.014 26.177 0
      vertex 16.07 19.151 0
    endloop
  endfacet
  facet normal 0 0 -1
    outer loop
      vertex 16.07 19.151 0
      vertex 7.014 26.177 0
      vertex 9.269 25.466 0
    endloop
  endfacet
  facet normal 0 0 -1
    outer loop
      vertex 16.07 19.151 0
      vertex 9.269 25.466 0
      vertex 17.678 17.678 0
    endloop
  endfacet
  facet normal 0 0 -1
    outer loop
      vertex 17.678 17.678 0
      vertex 9.269 25.466 0
      vertex 11.453 24.561 0
    endloop
  endfacet
  facet normal 0 0 -1
    outer loop
      vertex 17.678 17.678 0
      vertex 11.453 24.561 0
      vertex 19.151 16.07 0
    endloop
  endfacet
  facet normal 0 0 -1
    outer loop
      vertex 19.151 16.07 0
      vertex 11.453 24.561 0
      vertex 13.55 23.469 0
    endloop
  endfacet
  facet normal 0 0 -1
    outer loop
      vertex 19.151 16.07 0
      vertex 13.55 23.469 0
      vertex 20.479 14.339 0
    endloop
  endfacet
  facet normal 0 0 -1
    outer loop
      vertex 20.479 14.339 0
      vertex 13.55 23.469 0
      vertex 15.544 22.199 0
    endloop
  endfacet
  facet normal 0 0 -1
    outer loop
      vertex 20.479 14.339 0
      vertex 15.544 22.199 0
      vertex 21.651 12.5 0
    endloop
  endfacet
  facet normal 0 0 -1
    outer loop
      vertex 21.651 12.5 0
      vertex 15.544 22.199 0
      vertex 17.42 20.76 0
    endloop
  endfacet
  facet normal 0 0 -1
    outer loop
      vertex 21.651 12.5 0
      vertex 17.42 20.76 0
      vertex 22.658 10.565 0
    endloop
  endfacet
  facet normal 0 0 -1
    outer loop
      vertex 22.658 10.565 0
      vertex 17.42 20.76 0
      vertex 19.163 19.163 0
    endloop
  endfacet
  facet normal 0 0 -1
    outer loop
      vertex 22.658 10.565 0
      vertex 19.163 19.163 0
      vertex 23.492 8.551 0
    endloop
  endfacet
  facet normal 0 0 -1
    outer loop
      vertex 23.492 8.551 0
      vertex 19.163 19.163 0
      vertex 20.76 17.42 0
    endloop
  endfacet
  facet normal 0 0 -1
    outer loop
      vertex 23.492 8.551 0
      vertex 20.76 17.42 0
      vertex 24.148 6.47 0
    endloop
  endfacet
  facet normal 0 0 -1
    outer loop
      vertex 24.148 6.47 0
      vertex 20.76 17.42 0
      vertex 22.199 15.544 0
    endloop
  endfacet
  facet normal 0 0 -1
    outer loop
      vertex 24.148 6.47 0
      vertex 22.199 15.544 0
      vertex 24.62 4.341 0
    endloop
  endfacet
  facet normal 0 0 -1
    outer loop
      vertex 24.62 4.341 0
      vertex 22.199 15.544 0
      vertex 23.469 13.55 0
    endloop
  endfacet
  facet normal 0 0 -1
    outer loop
      vertex 24.62 4.341 0
      vertex 23.469 13.55 0
      vertex 24.905 2.179 0
    endloop
  endfacet
  facet normal 0 0 -1
    outer loop
      vertex 24.905 2.179 0
      vertex 23.469 13.55 0
      vertex 24.561 11.453 0
    endloop
  endfacet
  facet normal 0 0 -1
    outer loop
      vertex 24.905 2.179 0
      vertex 24.561 11.453 0
      vertex 25 0 0
    endloop
  endfacet
  facet normal 0 0 -1
    outer loop
      vertex 25 0 0
      vertex 24.561 11.453 0
      vertex 25.466 9.269 0
    endloop
  endfacet
  facet normal 0 0 -1
    outer loop
      vertex 25 0 0
      vertex 25.466 9.269 0
      vertex 24.905 -2.179 0
    endloop
  endfacet
  facet normal 0 0 -1
    outer loop
      vertex 24.905 -2.179 0
      vertex 25.466 9.269 0
      vertex 26.177 7.014 0
    endloop
  endfacet
  facet normal 0 0 -1
    outer loop
      vertex 24.905 -2.179 0
      vertex 26.177 7.014 0
      vertex 24.62 -4.341 0
    endloop
  endfacet
  facet normal 0 0 -1
    outer loop
      vertex 24.62 -4.341 0
      vertex 26.177 7.014 0
      vertex 26.688 4.706 0
    endloop
  endfacet
  facet normal 0 0 -1
    outer loop
      vertex 24.62 -4.341 0
      vertex 26.688 4.706 0
      vertex 24.148 -6.47 0
    endloop
  endfacet
  facet normal 0 0 -1
    outer loop
      vertex 24.148 -6.47 0
      vertex 26.688 4.706 0
      vertex 26.997 2.362 0
    endloop
  endfacet
  facet normal 0 0 -1
    outer loop
      vertex 24.148 -6.47 0
      vertex 26.997 2.362 0
      vertex 23.492 -8.551 0
    endloop
  endfacet
  facet normal 0 0 -1
    outer loop
      vertex 23.492 -8.551 0
      vertex 26.997 2.362 0
      vertex 27.1 0 0
    endloop
  endfacet
  facet normal 0 0 -1
    outer loop
      vertex 23.492 -8.551 0
      vertex 27.1 0 0
      vertex 22.658 -10.565 0
    endloop
  endfacet
  facet normal 0 0 -1
    outer loop
      vertex 22.658 -10.565 0
      vertex 27.1 0 0
      vertex 26.997 -2.362 0
    endloop
  endfacet
  facet normal 0 0 -1
    outer loop
      vertex 22.658 -10.565 0
      vertex 26.997 -2.362 0
      vertex 21.651 -12.5 0
    endloop
  endfacet
  facet normal 0 0 -1
    outer loop
      vertex 21.651 -12.5 0
      vertex 26.997 -2.362 0
      vertex 26.688 -4.706 0
    endloop
  endfacet
  facet normal 0 0 -1
    outer loop
      vertex 21.651 -12.5 0
      vertex 26.688 -4.706 0
      vertex 20.479 -14.339 0
    endloop
  endfacet
  facet normal 0 0 -1
    outer loop
      vertex 20.479 -14.339 0
      vertex 26.688 -4.706 0
      vertex 26.177 -7.014 0
    endloop
  endfacet
  facet normal 0 0 -1
    outer loop
      vertex 20.479 -14.339 0
      vertex 26.177 -7.014 0
      vertex 19.151 -16.07 0
    endloop
  endfacet
  facet normal 0 0 -1
    outer loop
      vertex 19.151 -16.07 0
      vertex 26.177 -7.014 0
      vertex 25.466 -9.269 0
    endloop
  endfacet
  facet normal 0 0 -1
    outer loop
      vertex 19.151 -16.07 0
      vertex 25.466 -9.269 0
      vertex 17.678 -17.678 0
    endloop
  endfacet
  facet normal 0 0 -1
    outer loop
      vertex 17.678 -17.678 0
      vertex 25.466 -9.269 0
      vertex 24.561 -11.453 0
    endloop
  endfacet
  facet normal 0 0 -1
    outer loop
      vertex 17.678 -17.678 0
      vertex 24.561 -11.453 0
      vertex 16.07 -19.151 0
    endloop
  endfacet
  facet normal 0 0 -1
    outer loop
      vertex 16.07 -19.151 0
      vertex 24.561 -11.453 0
      vertex 23.469 -13.55 0
    endloop
  endfacet
  facet normal 0 0 -1
    outer loop
      vertex 16.07 -19.151 0
      vertex 23.469 -13.55 0
      vertex 14.339 -20.479 0
    endloop
  endfacet
  facet normal 0 0 -1
    outer loop
      vertex 14.339 -20.479 0
      vertex 23.469 -13.55 0
      vertex 22.199 -15.544 0
    endloop
  endfacet
  facet normal 0 0 -1
    outer loop
      vertex 14.339 -20.479 0
      vertex 22.199 -15.544 0
      vertex 12.5 -21.651 0
    endloop
  endfacet
  facet normal 0 0 -1
    outer loop
      vertex 12.5 -21.651 0
      vertex 22.199 -15.544 0
      vertex 20.76 -17.42 0
    endloop
  endfacet
  facet normal 0 0 -1
    outer loop
      vertex 12.5 -21.651 0
      vertex 20.76 -17.42 0
      vertex 10.565 -22.658 0
    endloop
  endfacet
  facet normal 0 0 -1
    outer loop
      vertex 10.565 -22.658 0
      vertex 20.76 -17.42 0
      vertex 19.163 -19.163 0
    endloop
  endfacet
  facet normal 0 0 -1
    outer loop
      vertex 10.565 -22.658 0
      vertex 19.163 -19.163 0
      vertex 8.551 -23.492 0
    endloop
  endfacet
  facet normal 0 0 -1
    outer loop
      vertex 8.551 -23.492 0
      vertex 19.163 -19.163 0
      vertex 17.42 -20.76 0
    endloop
  endfacet
  facet normal 0 0 -1
    outer loop
      vertex 8.551 -23.492 0
      vertex 17.42 -20.76 0
      vertex 6.47 -24.148 0
    endloop
  endfacet
  facet normal 0 0 -1
    outer loop
      vertex 6.47 -24.148 0
      vertex 17.42 -20.76 0
      vertex 15.544 -22.199 0
    endloop
  endfacet
  facet normal 0 0 -1
    outer loop
      vertex 6.47 -24.148 0
      vertex 15.544 -22.199 0
      vertex 4.341 -24.62 0
    endloop
  endfacet
  facet normal 0 0 -1
    outer loop
      vertex 4.341 -24.62 0
      vertex 15.544 -22.199 0
      vertex 13.55 -23.469 0
    endloop
  endfacet
  facet normal 0 0 -1
    outer loop
      vertex 4.341 -24.62 0
      vertex 13.55 -23.469 0
      vertex 2.179 -24.905 0
    endloop
  endfacet
  facet normal 0 0 -1
    outer loop
      vertex 2.179 -24.905 0
      vertex 13.55 -23.469 0
      vertex 11.453 -24.561 0
    endloop
  endfacet
  facet normal 0 0 -1
    outer loop
      vertex 2.179 -24.905 0
      vertex 11.453 -24.561 0
      vertex 0 -25 0
    endloop
  endfacet
  facet normal 0 0 -1
    outer loop
      vertex 0 -25 0
      vertex 11.453 -24.561 0
      vertex 9.269 -25.466 0
    endloop
  endfacet
  facet normal 0 0 -1
    outer loop
      vertex 0 -25 0
      vertex 9.269 -25.466 0
      vertex -2.179 -24.905 0
    endloop
  endfacet
  facet normal 0 0 -1
    outer loop
      vertex -2.179 -24.905 0
      vertex 9.269 -25.466 0
      vertex 7.014 -26.177 0
    endloop
  endfacet
  facet normal 0 0 -1
    outer loop
      vertex -2.179 -24.905 0
      vertex 7.014 -26.177 0
      vertex -4.341 -24.62 0
    endloop
  endfacet
  facet normal 0 0 -1
    outer loop
      vertex -4.341 -24.62 0
      vertex 7.014 -26.177 0
      vertex 4.706 -26.688 0
    endloop
  endfacet
  facet normal 0 0 -1
    outer loop
      vertex -4.341 -24.62 0
      vertex 4.706 -26.688 0
      vertex -6.47 -24.148 0
    endloop
  endfacet
  facet normal 0 0 -1
    outer loop
      vertex -6.47 -24.148 0
      vertex 4.706 -26.688 0
      vertex 2.362 -26.997 0
    endloop
  endfacet
  facet normal 0 0 -1
    outer loop
      vertex -6.47 -24.148 0
      vertex 2.362 -26.997 0
      vertex -8.551 -23.492 0
    endloop
  endfacet
  facet normal 0 0 -1
    outer loop
      vertex -8.551 -23.492 0
      vertex 2.362 -26.997 0
      vertex 0 -27.1 0
    endloop
  endfacet
  facet normal 0 0 -1
    outer loop
      vertex -8.551 -23.492 0
      vertex 0 -27.1 0
      vertex -10.565 -22.658 0
    endloop
  endfacet
  facet normal 0 0 -1
    outer loop
      vertex -10.565 -22.658 0
      vertex 0 -27.1 0
      vertex -2.362 -26.997 0
    endloop
  endfacet
  facet normal 0 0 -1
    outer loop
      vertex -10.565 -22.658 0
      vertex -2.362 -26.997 0
      vertex -12.5 -21.651 0
    endloop
  endfacet
  facet normal 0 0 -1
    outer loop
      vertex -12.5 -21.651 0
      vertex -2.362 -26.997 0
      vertex -4.706 -26.688 0
    endloop
  endfacet
  facet normal 0 0 -1
    outer loop
      vertex -12.5 -21.651 0
      vertex -4.706 -26.688 0
      vertex -14.339 -20.479 0
    endloop
  endfacet
  facet normal 0 0 -1
    outer loop
      vertex -14.339 -20.479 0
      vertex -4.706 -26.688 0
      vertex -7.014 -26.177 0
    endloop
  endfacet
  facet normal 0 0 -1
    outer loop
      vertex -14.339 -20.479 0
      vertex -7.014 -26.177 0
      vertex -16.07 -19.151 0
    endloop
  endfacet
  facet normal 0 0 -1
    outer loop
      vertex -16.07 -19.151 0
      vertex -7.014 -26.177 0
      vertex -9.269 -25.466 0
    endloop
  endfacet
  facet normal 0 0 -1
    outer loop
      vertex -16.07 -19.151 0
      vertex -9.269 -25.466 0
      vertex -17.678 -17.678 0
    endloop
  endfacet
  facet normal 0 0 -1
    outer loop
      vertex -17.678 -17.678 0
      vertex -9.269 -25.466 0
      vertex -11.453 -24.561 0
    endloop
  endfacet
  facet normal 0 0 -1
    outer loop
      vertex -17.678 -17.678 0
      vertex -11.453 -24.561 0
      vertex -19.151 -16.07 0
    endloop
  endfacet
  facet normal 0 0 -1
    outer loop
      vertex -19.151 -16.07 0
      vertex -11.453 -24.561 0
      vertex -13.55 -23.469 0
    endloop
  endfacet
  facet normal 0 0 -1
    outer loop
      vertex -19.151 -16.07 0
      vertex -13.55 -23.469 0
      vertex -20.479 -14.339 0
    endloop
  endfacet
  facet normal 0 0 -1
    outer loop
      vertex -20.479 -14.339 0
      vertex -13.55 -23.469 0
      vertex -15.544 -22.199 0
    endloop
  endfacet
  facet normal 0 0 -1
    outer loop
      vertex -20.479 -14.339 0
      vertex -15.544 -22.199 0
      vertex -21.651 -12.5 0
    endloop
  endfacet
  facet normal 0 0 -1
    outer loop
      vertex -21.651 -12.5 0
      vertex -15.544 -22.199 0
      vertex -17.42 -20.76 0
    endloop
  endfacet
  facet normal 0 0 -1
    outer loop
      vertex -21.651 -12.5 0
      vertex -17.42 -20.76 0
      vertex -22.658 -10.565 0
    endloop
  endfacet
  facet normal 0 0 -1
    outer loop
      vertex -22.658 -10.565 0
      vertex -17.42 -20.76 0
      vertex -19.163 -19.163 0
    endloop
  endfacet
  facet normal 0 0 -1
    outer loop
      vertex -22.658 -10.565 0
      vertex -19.163 -19.163 0
      vertex -27.1 0 0
    endloop
  endfacet
  facet normal 0 0 -1
    outer loop
      vertex -27.1 0 0
      vertex -19.163 -19.163 0
      vertex -20.76 -17.42 0
    endloop
  endfacet
  facet normal 0 0 -1
    outer loop
      vertex -27.1 0 0
      vertex -20.76 -17.42 0
      vertex -22.199 -15.544 0
    endloop
  endfacet
  facet normal 0 0 -1
    outer loop
      vertex -27.1 0 0
      vertex -22.199 -15.544 0
      vertex -23.469 -13.55 0
    endloop
  endfacet
  facet normal 0 0 -1
    outer loop
      vertex -27.1 0 0
      vertex -23.469 -13.55 0
      vertex -24.561 -11.453 0
    endloop
  endfacet
  facet normal 0 0 -1
    outer loop
      vertex -27.1 0 0
      vertex -24.561 -11.453 0
      vertex -25.466 -9.269 0
    endloop
  endfacet
  facet normal 0 0 -1
    outer loop
      vertex -27.1 0 0
      vertex -25.466 -9.269 0
      vertex -26.177 -7.014 0
    endloop
  endfacet
  facet normal 0 0 -1
    outer loop
      vertex -27.1 0 0
      vertex -26.177 -7.014 0
      vertex -26.688 -4.706 0
    endloop
  endfacet
  facet normal 0 0 -1
    outer loop
      vertex -27.1 0 0
      vertex -26.688 -4.706 0
      vertex -26.997 -2.362 0
    endloop
  endfacet
  facet normal 0 0 -1
    outer loop
      vertex -4.341 24.62 0
      vertex 0 27.1 0
      vertex -2.179 24.905 0
    endloop
  endfacet
  facet normal 0.0435566 -0.999051 0
    outer loop
      vertex -2.179 24.905 0
      vertex 0 25 0
      vertex 0 25 10
    endloop
  endfacet
  facet normal 0.0435566 -0.999051 0
    outer loop
      vertex -2.179 24.905 10
      vertex -2.179 24.905 0
      vertex 0 25 10
    endloop
  endfacet
  facet normal 0 0 1
    outer loop
      vertex -27.1 0 10
      vertex -26.997 -2.362 10
      vertex -26.688 -4.706 10
    endloop
  endfacet
  facet normal 0 0 1
    outer loop
      vertex -25.466 -9.269 10
      vertex -27.1 0 10
      vertex -26.177 -7.014 10
    endloop
  endfacet
  facet normal 0 0 1
    outer loop
      vertex -26.177 -7.014 10
      vertex -27.1 0 10
      vertex -26.688 -4.706 10
    endloop
  endfacet
  facet normal 0 0 1
    outer loop
      vertex -24.561 -11.453 10
      vertex -27.1 0 10
      vertex -25.466 -9.269 10
    endloop
  endfacet
  facet normal 0 0 1
    outer loop
      vertex -23.469 -13.55 10
      vertex -27.1 0 10
      vertex -24.561 -11.453 10
    endloop
  endfacet
  facet normal 0 0 1
    outer loop
      vertex -22.199 -15.544 10
      vertex -27.1 0 10
      vertex -23.469 -13.55 10
    endloop
  endfacet
  facet normal 0 0 1
    outer loop
      vertex -20.76 -17.42 10
      vertex -27.1 0 10
      vertex -22.199 -15.544 10
    endloop
  endfacet
  facet normal 0 0 1
    outer loop
      vertex -19.163 -19.163 10
      vertex -27.1 0 10
      vertex -20.76 -17.42 10
    endloop
  endfacet
  facet normal 0 0 1
    outer loop
      vertex -22.658 -10.565 10
      vertex -27.1 0 10
      vertex -19.163 -19.163 10
    endloop
  endfacet
  facet normal 0 0 1
    outer loop
      vertex -23.492 -8.551 10
      vertex -24.148 -6.47 10
      vertex -27.1 0 10
    endloop
  endfacet
  facet normal 0 0 1
    outer loop
      vertex -19.151 -16.07 10
      vertex -20.479 -14.339 10
      vertex -17.42 -20.76 10
    endloop
  endfacet
  facet normal 0 0 1
    outer loop
      vertex -17.678 -17.678 10
      vertex -19.151 -16.07 10
      vertex -15.544 -22.199 10
    endloop
  endfacet
  facet normal 0 0 1
    outer loop
      vertex -14.339 -20.479 10
      vertex -16.07 -19.151 10
      vertex -13.55 -23.469 10
    endloop
  endfacet
  facet normal 0 0 1
    outer loop
      vertex -12.5 -21.651 10
      vertex -14.339 -20.479 10
      vertex -11.453 -24.561 10
    endloop
  endfacet
  facet normal 0 0 1
    outer loop
      vertex -10.565 -22.658 10
      vertex -12.5 -21.651 10
      vertex -9.269 -25.466 10
    endloop
  endfacet
  facet normal 0 0 1
    outer loop
      vertex -8.551 -23.492 10
      vertex -10.565 -22.658 10
      vertex -7.014 -26.177 10
    endloop
  endfacet
  facet normal 0 0 1
    outer loop
      vertex -6.47 -24.148 10
      vertex -8.551 -23.492 10
      vertex -4.706 -26.688 10
    endloop
  endfacet
  facet normal 0 0 1
    outer loop
      vertex -4.341 -24.62 10
      vertex -6.47 -24.148 10
      vertex -2.362 -26.997 10
    endloop
  endfacet
  facet normal 0 0 1
    outer loop
      vertex -2.179 -24.905 10
      vertex -4.341 -24.62 10
      vertex 0 -27.1 10
    endloop
  endfacet
  facet normal 0 0 1
    outer loop
      vertex 2.179 -24.905 10
      vertex 0 -25 10
      vertex 2.362 -26.997 10
    endloop
  endfacet
  facet normal 0 0 1
    outer loop
      vertex 4.341 -24.62 10
      vertex 2.179 -24.905 10
      vertex 4.706 -26.688 10
    endloop
  endfacet
  facet normal 0 0 1
    outer loop
      vertex 6.47 -24.148 10
      vertex 4.341 -24.62 10
      vertex 7.014 -26.177 10
    endloop
  endfacet
  facet normal 0 0 1
    outer loop
      vertex 8.551 -23.492 10
      vertex 6.47 -24.148 10
      vertex 9.269 -25.466 10
    endloop
  endfacet
  facet normal 0 0 1
    outer loop
      vertex 10.565 -22.658 10
      vertex 8.551 -23.492 10
      vertex 11.453 -24.561 10
    endloop
  endfacet
  facet normal 0 0 1
    outer loop
      vertex 12.5 -21.651 10
      vertex 10.565 -22.658 10
      vertex 13.55 -23.469 10
    endloop
  endfacet
  facet normal 0 0 1
    outer loop
      vertex 14.339 -20.479 10
      vertex 12.5 -21.651 10
      vertex 15.544 -22.199 10
    endloop
  endfacet
  facet normal 0 0 1
    outer loop
      vertex 16.07 -19.151 10
      vertex 14.339 -20.479 10
      vertex 17.42 -20.76 10
    endloop
  endfacet
  facet normal 0 0 1
    outer loop
      vertex 17.678 -17.678 10
      vertex 16.07 -19.151 10
      vertex 19.163 -19.163 10
    endloop
  endfacet
  facet normal 0 0 1
    outer loop
      vertex 19.151 -16.07 10
      vertex 17.678 -17.678 10
      vertex 20.76 -17.42 10
    endloop
  endfacet
  facet normal 0 0 1
    outer loop
      vertex 20.479 -14.339 10
      vertex 19.151 -16.07 10
      vertex 22.199 -15.544 10
    endloop
  endfacet
  facet normal 0 0 1
    outer loop
      vertex 21.651 -12.5 10
      vertex 20.479 -14.339 10
      vertex 23.469 -13.55 10
    endloop
  endfacet
  facet normal 0 0 1
    outer loop
      vertex 22.658 -10.565 10
      vertex 21.651 -12.5 10
      vertex 24.561 -11.453 10
    endloop
  endfacet
  facet normal 0 0 1
    outer loop
      vertex 23.492 -8.551 10
      vertex 22.658 -10.565 10
      vertex 25.466 -9.269 10
    endloop
  endfacet
  facet normal 0 0 1
    outer loop
      vertex 24.148 -6.47 10
      vertex 23.492 -8.551 10
      vertex 26.177 -7.014 10
    endloop
  endfacet
  facet normal 0 0 1
    outer loop
      vertex 27.1 0 10
      vertex 25 0 10
      vertex 26.997 -2.362 10
    endloop
  endfacet
  facet normal 0 0 1
    outer loop
      vertex 24.62 -4.341 10
      vertex 24.148 -6.47 10
      vertex 26.688 -4.706 10
    endloop
  endfacet
  facet normal 0 0 1
    outer loop
      vertex 24.905 -2.179 10
      vertex 24.62 -4.341 10
      vertex 26.997 -2.362 10
    endloop
  endfacet
  facet normal 0 0 1
    outer loop
      vertex 24.62 4.341 10
      vertex 24.905 2.179 10
      vertex 26.997 2.362 10
    endloop
  endfacet
  facet normal 0 0 1
    outer loop
      vertex 24.148 6.47 10
      vertex 24.62 4.341 10
      vertex 26.688 4.706 10
    endloop
  endfacet
  facet normal 0 0 1
    outer loop
      vertex 23.492 8.551 10
      vertex 24.148 6.47 10
      vertex 26.177 7.014 10
    endloop
  endfacet
  facet normal 0 0 1
    outer loop
      vertex 22.658 10.565 10
      vertex 23.492 8.551 10
      vertex 25.466 9.269 10
    endloop
  endfacet
  facet normal 0 0 1
    outer loop
      vertex 21.651 12.5 10
      vertex 22.658 10.565 10
      vertex 24.561 11.453 10
    endloop
  endfacet
  facet normal 0 0 1
    outer loop
      vertex 20.479 14.339 10
      vertex 21.651 12.5 10
      vertex 23.469 13.55 10
    endloop
  endfacet
  facet normal 0 0 1
    outer loop
      vertex 19.151 16.07 10
      vertex 20.479 14.339 10
      vertex 22.199 15.544 10
    endloop
  endfacet
  facet normal 0 0 1
    outer loop
      vertex 17.678 17.678 10
      vertex 19.151 16.07 10
      vertex 20.76 17.42 10
    endloop
  endfacet
  facet normal 0 0 1
    outer loop
      vertex 16.07 19.151 10
      vertex 17.678 17.678 10
      vertex 19.163 19.163 10
    endloop
  endfacet
  facet normal 0 0 1
    outer loop
      vertex 14.339 20.479 10
      vertex 16.07 19.151 10
      vertex 17.42 20.76 10
    endloop
  endfacet
  facet normal 0 0 1
    outer loop
      vertex 12.5 21.651 10
      vertex 14.339 20.479 10
      vertex 15.544 22.199 10
    endloop
  endfacet
  facet normal 0 0 1
    outer loop
      vertex 10.565 22.658 10
      vertex 12.5 21.651 10
      vertex 13.55 23.469 10
    endloop
  endfacet
  facet normal 0 0 1
    outer loop
      vertex 8.551 23.492 10
      vertex 10.565 22.658 10
      vertex 11.453 24.561 10
    endloop
  endfacet
  facet normal 0 0 1
    outer loop
      vertex 6.47 24.148 10
      vertex 8.551 23.492 10
      vertex 9.269 25.466 10
    endloop
  endfacet
  facet normal 0 0 1
    outer loop
      vertex 4.341 24.62 10
      vertex 6.47 24.148 10
      vertex 7.014 26.177 10
    endloop
  endfacet
  facet normal 0 0 1
    outer loop
      vertex 2.179 24.905 10
      vertex 4.341 24.62 10
      vertex 4.706 26.688 10
    endloop
  endfacet
  facet normal 0 0 1
    outer loop
      vertex 2.362 26.997 10
      vertex 1 24.956 10
      vertex 4.706 26.688 10
    endloop
  endfacet
  facet normal 0 0 1
    outer loop
      vertex 1 24.956 10
      vertex 2.179 24.905 10
      vertex 4.706 26.688 10
    endloop
  endfacet
  facet normal 0 0 1
    outer loop
      vertex 4.706 26.688 10
      vertex 4.341 24.62 10
      vertex 7.014 26.177 10
    endloop
  endfacet
  facet normal 0 0 1
    outer loop
      vertex 7.014 26.177 10
      vertex 6.47 24.148 10
      vertex 9.269 25.466 10
    endloop
  endfacet
  facet normal 0 0 1
    outer loop
      vertex 9.269 25.466 10
      vertex 8.551 23.492 10
      vertex 11.453 24.561 10
    endloop
  endfacet
  facet normal 0 0 1
    outer loop
      vertex 11.453 24.561 10
      vertex 10.565 22.658 10
      vertex 13.55 23.469 10
    endloop
  endfacet
  facet normal 0 0 1
    outer loop
      vertex 13.55 23.469 10
      vertex 12.5 21.651 10
      vertex 15.544 22.199 10
    endloop
  endfacet
  facet normal 0 0 1
    outer loop
      vertex 15.544 22.199 10
      vertex 14.339 20.479 10
      vertex 17.42 20.76 10
    endloop
  endfacet
  facet normal 0 0 1
    outer loop
      vertex 17.42 20.76 10
      vertex 16.07 19.151 10
      vertex 19.163 19.163 10
    endloop
  endfacet
  facet normal 0 0 1
    outer loop
      vertex 19.163 19.163 10
      vertex 17.678 17.678 10
      vertex 20.76 17.42 10
    endloop
  endfacet
  facet normal 0 0 1
    outer loop
      vertex 20.76 17.42 10
      vertex 19.151 16.07 10
      vertex 22.199 15.544 10
    endloop
  endfacet
  facet normal 0 0 1
    outer loop
      vertex 22.199 15.544 10
      vertex 20.479 14.339 10
      vertex 23.469 13.55 10
    endloop
  endfacet
  facet normal 0 0 1
    outer loop
      vertex 23.469 13.55 10
      vertex 21.651 12.5 10
      vertex 24.561 11.453 10
    endloop
  endfacet
  facet normal 0 0 1
    outer loop
      vertex 24.561 11.453 10
      vertex 22.658 10.565 10
      vertex 25.466 9.269 10
    endloop
  endfacet
  facet normal 0 0 1
    outer loop
      vertex 25.466 9.269 10
      vertex 23.492 8.551 10
      vertex 26.177 7.014 10
    endloop
  endfacet
  facet normal 0 0 1
    outer loop
      vertex 26.177 7.014 10
      vertex 24.148 6.47 10
      vertex 26.688 4.706 10
    endloop
  endfacet
  facet normal 0 0 1
    outer loop
      vertex 26.688 4.706 10
      vertex 24.62 4.341 10
      vertex 26.997 2.362 10
    endloop
  endfacet
  facet normal 0 0 1
    outer loop
      vertex 26.997 2.362 10
      vertex 24.905 2.179 10
      vertex 27.1 0 10
    endloop
  endfacet
  facet normal 0 0 1
    outer loop
      vertex 24.905 2.179 10
      vertex 25 0 10
      vertex 27.1 0 10
    endloop
  endfacet
  facet normal 0 0 1
    outer loop
      vertex 25 0 10
      vertex 24.905 -2.179 10
      vertex 26.997 -2.362 10
    endloop
  endfacet
  facet normal 0 0 1
    outer loop
      vertex 26.997 -2.362 10
      vertex 24.62 -4.341 10
      vertex 26.688 -4.706 10
    endloop
  endfacet
  facet normal 0 0 1
    outer loop
      vertex 26.688 -4.706 10
      vertex 24.148 -6.47 10
      vertex 26.177 -7.014 10
    endloop
  endfacet
  facet normal 0 0 1
    outer loop
      vertex 26.177 -7.014 10
      vertex 23.492 -8.551 10
      vertex 25.466 -9.269 10
    endloop
  endfacet
  facet normal 0 0 1
    outer loop
      vertex 25.466 -9.269 10
      vertex 22.658 -10.565 10
      vertex 24.561 -11.453 10
    endloop
  endfacet
  facet normal 0 0 1
    outer loop
      vertex 24.561 -11.453 10
      vertex 21.651 -12.5 10
      vertex 23.469 -13.55 10
    endloop
  endfacet
  facet normal 0 0 1
    outer loop
      vertex 23.469 -13.55 10
      vertex 20.479 -14.339 10
      vertex 22.199 -15.544 10
    endloop
  endfacet
  facet normal 0 0 1
    outer loop
      vertex 22.199 -15.544 10
      vertex 19.151 -16.07 10
      vertex 20.76 -17.42 10
    endloop
  endfacet
  facet normal 0 0 1
    outer loop
      vertex 20.76 -17.42 10
      vertex 17.678 -17.678 10
      vertex 19.163 -19.163 10
    endloop
  endfacet
  facet normal 0 0 1
    outer loop
      vertex 19.163 -19.163 10
      vertex 16.07 -19.151 10
      vertex 17.42 -20.76 10
    endloop
  endfacet
  facet normal 0 0 1
    outer loop
      vertex 17.42 -20.76 10
      vertex 14.339 -20.479 10
      vertex 15.544 -22.199 10
    endloop
  endfacet
  facet normal 0 0 1
    outer loop
      vertex 15.544 -22.199 10
      vertex 12.5 -21.651 10
      vertex 13.55 -23.469 10
    endloop
  endfacet
  facet normal 0 0 1
    outer loop
      vertex 13.55 -23.469 10
      vertex 10.565 -22.658 10
      vertex 11.453 -24.561 10
    endloop
  endfacet
  facet normal 0 0 1
    outer loop
      vertex 11.453 -24.561 10
      vertex 8.551 -23.492 10
      vertex 9.269 -25.466 10
    endloop
  endfacet
  facet normal 0 0 1
    outer loop
      vertex 9.269 -25.466 10
      vertex 6.47 -24.148 10
      vertex 7.014 -26.177 10
    endloop
  endfacet
  facet normal 0 0 1
    outer loop
      vertex 7.014 -26.177 10
      vertex 4.341 -24.62 10
      vertex 4.706 -26.688 10
    endloop
  endfacet
  facet normal 0 0 1
    outer loop
      vertex 4.706 -26.688 10
      vertex 2.179 -24.905 10
      vertex 2.362 -26.997 10
    endloop
  endfacet
  facet normal 0 0 1
    outer loop
      vertex 2.362 -26.997 10
      vertex 0 -25 10
      vertex 0 -27.1 10
    endloop
  endfacet
  facet normal 0 0 1
    outer loop
      vertex 0 -25 10
      vertex -2.179 -24.905 10
      vertex 0 -27.1 10
    endloop
  endfacet
  facet normal 0 0 1
    outer loop
      vertex 0 -27.1 10
      vertex -4.341 -24.62 10
      vertex -2.362 -26.997 10
    endloop
  endfacet
  facet normal 0 0 1
    outer loop
      vertex -2.362 -26.997 10
      vertex -6.47 -24.148 10
      vertex -4.706 -26.688 10
    endloop
  endfacet
  facet normal 0 0 1
    outer loop
      vertex -4.706 -26.688 10
      vertex -8.551 -23.492 10
      vertex -7.014 -26.177 10
    endloop
  endfacet
  facet normal 0 0 1
    outer loop
      vertex -7.014 -26.177 10
      vertex -10.565 -22.658 10
      vertex -9.269 -25.466 10
    endloop
  endfacet
  facet normal 0 0 1
    outer loop
      vertex -9.269 -25.466 10
      vertex -12.5 -21.651 10
      vertex -11.453 -24.561 10
    endloop
  endfacet
  facet normal 0 0 1
    outer loop
      vertex -11.453 -24.561 10
      vertex -14.339 -20.479 10
      vertex -13.55 -23.469 10
    endloop
  endfacet
  facet normal 0 0 1
    outer loop
      vertex -13.55 -23.469 10
      vertex -16.07 -19.151 10
      vertex -15.544 -22.199 10
    endloop
  endfacet
  facet normal 0 0 1
    outer loop
      vertex -16.07 -19.151 10
      vertex -17.678 -17.678 10
      vertex -15.544 -22.199 10
    endloop
  endfacet
  facet normal 0 0 1
    outer loop
      vertex -15.544 -22.199 10
      vertex -19.151 -16.07 10
      vertex -17.42 -20.76 10
    endloop
  endfacet
  facet normal 0 0 1
    outer loop
      vertex -17.42 -20.76 10
      vertex -20.479 -14.339 10
      vertex -19.163 -19.163 10
    endloop
  endfacet
  facet normal 0 0 1
    outer loop
      vertex -20.479 -14.339 10
      vertex -21.651 -12.5 10
      vertex -19.163 -19.163 10
    endloop
  endfacet
  facet normal 0 0 1
    outer loop
      vertex -21.651 -12.5 10
      vertex -22.658 -10.565 10
      vertex -19.163 -19.163 10
    endloop
  endfacet
  facet normal 0 0 1
    outer loop
      vertex -23.492 -8.551 10
      vertex -27.1 0 10
      vertex -22.658 -10.565 10
    endloop
  endfacet
  facet normal 0 0 1
    outer loop
      vertex -4.341 24.62 10
      vertex 0 27.1 10
      vertex -6.47 24.148 10
    endloop
  endfacet
  facet normal 0 0 1
    outer loop
      vertex -24.62 4.341 10
      vertex -27.1 0 10
      vertex -24.905 2.179 10
    endloop
  endfacet
  facet normal 0 0 1
    outer loop
      vertex -6.47 24.148 10
      vertex 0 27.1 10
      vertex -8.551 23.492 10
    endloop
  endfacet
  facet normal 0 0 1
    outer loop
      vertex -24.148 6.47 10
      vertex -27.1 0 10
      vertex -24.62 4.341 10
    endloop
  endfacet
  facet normal 0 0 1
    outer loop
      vertex -2.179 24.905 10
      vertex 0 27.1 10
      vertex -4.341 24.62 10
    endloop
  endfacet
  facet normal 0 0 1
    outer loop
      vertex -23.492 8.551 10
      vertex -27.1 0 10
      vertex -24.148 6.47 10
    endloop
  endfacet
  facet normal 0 0 1
    outer loop
      vertex 0 25 10
      vertex 0 27.1 10
      vertex -2.179 24.905 10
    endloop
  endfacet
  facet normal 0 0 1
    outer loop
      vertex -22.658 10.565 10
      vertex -27.1 0 10
      vertex -23.492 8.551 10
    endloop
  endfacet
  facet normal 0 0 1
    outer loop
      vertex -19.163 19.163 10
      vertex -27.1 0 10
      vertex -22.658 10.565 10
    endloop
  endfacet
  facet normal 0 0 1
    outer loop
      vertex -17.42 20.76 10
      vertex -22.658 10.565 10
      vertex -21.651 12.5 10
    endloop
  endfacet
  facet normal 0 0 1
    outer loop
      vertex -15.544 22.199 10
      vertex -21.651 12.5 10
      vertex -20.479 14.339 10
    endloop
  endfacet
  facet normal 0 0 1
    outer loop
      vertex -13.55 23.469 10
      vertex -20.479 14.339 10
      vertex -19.151 16.07 10
    endloop
  endfacet
  facet normal 0 0 1
    outer loop
      vertex -11.453 24.561 10
      vertex -19.151 16.07 10
      vertex -17.678 17.678 10
    endloop
  endfacet
  facet normal 0 0 1
    outer loop
      vertex -9.269 25.466 10
      vertex -17.678 17.678 10
      vertex -16.07 19.151 10
    endloop
  endfacet
  facet normal 0 0 1
    outer loop
      vertex -7.014 26.177 10
      vertex -16.07 19.151 10
      vertex -14.339 20.479 10
    endloop
  endfacet
  facet normal 0 0 1
    outer loop
      vertex -4.706 26.688 10
      vertex -14.339 20.479 10
      vertex -12.5 21.651 10
    endloop
  endfacet
  facet normal 0 0 1
    outer loop
      vertex -2.362 26.997 10
      vertex -12.5 21.651 10
      vertex -10.565 22.658 10
    endloop
  endfacet
  facet normal 0 0 1
    outer loop
      vertex 0 27.1 10
      vertex -10.565 22.658 10
      vertex -8.551 23.492 10
    endloop
  endfacet
  facet normal 0 0 1
    outer loop
      vertex -2.362 26.997 10
      vertex -10.565 22.658 10
      vertex 0 27.1 10
    endloop
  endfacet
  facet normal 0 0 1
    outer loop
      vertex -4.706 26.688 10
      vertex -12.5 21.651 10
      vertex -2.362 26.997 10
    endloop
  endfacet
  facet normal 0 0 1
    outer loop
      vertex -7.014 26.177 10
      vertex -14.339 20.479 10
      vertex -4.706 26.688 10
    endloop
  endfacet
  facet normal 0 0 1
    outer loop
      vertex -9.269 25.466 10
      vertex -16.07 19.151 10
      vertex -7.014 26.177 10
    endloop
  endfacet
  facet normal 0 0 1
    outer loop
      vertex -11.453 24.561 10
      vertex -17.678 17.678 10
      vertex -9.269 25.466 10
    endloop
  endfacet
  facet normal 0 0 1
    outer loop
      vertex -13.55 23.469 10
      vertex -19.151 16.07 10
      vertex -11.453 24.561 10
    endloop
  endfacet
  facet normal 0 0 1
    outer loop
      vertex -15.544 22.199 10
      vertex -20.479 14.339 10
      vertex -13.55 23.469 10
    endloop
  endfacet
  facet normal 0 0 1
    outer loop
      vertex -17.42 20.76 10
      vertex -21.651 12.5 10
      vertex -15.544 22.199 10
    endloop
  endfacet
  facet normal 0 0 1
    outer loop
      vertex -19.163 19.163 10
      vertex -22.658 10.565 10
      vertex -17.42 20.76 10
    endloop
  endfacet
  facet normal 0 0 1
    outer loop
      vertex -20.76 17.42 10
      vertex -27.1 0 10
      vertex -19.163 19.163 10
    endloop
  endfacet
  facet normal 0 0 1
    outer loop
      vertex -22.199 15.544 10
      vertex -27.1 0 10
      vertex -20.76 17.42 10
    endloop
  endfacet
  facet normal 0 0 1
    outer loop
      vertex -23.469 13.55 10
      vertex -27.1 0 10
      vertex -22.199 15.544 10
    endloop
  endfacet
  facet normal 0 0 1
    outer loop
      vertex -24.561 11.453 10
      vertex -27.1 0 10
      vertex -23.469 13.55 10
    endloop
  endfacet
  facet normal 0 0 1
    outer loop
      vertex -25.466 9.269 10
      vertex -27.1 0 10
      vertex -24.561 11.453 10
    endloop
  endfacet
  facet normal 0 0 1
    outer loop
      vertex -26.177 7.014 10
      vertex -27.1 0 10
      vertex -25.466 9.269 10
    endloop
  endfacet
  facet normal 0 0 1
    outer loop
      vertex -26.688 4.706 10
      vertex -27.1 0 10
      vertex -26.177 7.014 10
    endloop
  endfacet
  facet normal 0 0 1
    outer loop
      vertex -26.997 2.362 10
      vertex -27.1 0 10
      vertex -26.688 4.706 10
    endloop
  endfacet
  facet normal 0 0 1
    outer loop
      vertex 1 27.056 10
      vertex 1 24.956 10
      vertex 2.362 26.997 10
    endloop
  endfacet
  facet normal 0 0 1
    outer loop
      vertex -24.148 -6.47 10
      vertex -24.62 -4.341 10
      vertex -27.1 0 10
    endloop
  endfacet
  facet normal 0 0 1
    outer loop
      vertex -24.62 -4.341 10
      vertex -24.905 -2.179 10
      vertex -27.1 0 10
    endloop
  endfacet
  facet normal 0 0 1
    outer loop
      vertex -24.905 -2.179 10
      vertex -25 0 10
      vertex -27.1 0 10
    endloop
  endfacet
  facet normal 0 0 1
    outer loop
      vertex -25 0 10
      vertex -24.905 2.179 10
      vertex -27.1 0 10
    endloop
  endfacet
  facet normal -0.130695 0.991423 0
    outer loop
      vertex -4.706 26.688 10
      vertex -2.362 26.997 10
      vertex -4.706 26.688 0
    endloop
  endfacet
  facet normal -0.130695 0.991423 0
    outer loop
      vertex -4.706 26.688 0
      vertex -2.362 26.997 10
      vertex -2.362 26.997 0
    endloop
  endfacet
  facet normal -0.999051 -0.0435657 0
    outer loop
      vertex -26.997 -2.362 0
      vertex -26.997 -2.362 10
      vertex -27.1 0 0
    endloop
  endfacet
  facet normal -0.999051 -0.0435657 0
    outer loop
      vertex -27.1 0 0
      vertex -26.997 -2.362 10
      vertex -27.1 0 10
    endloop
  endfacet
  facet normal -0.999051 0.0435657 0
    outer loop
      vertex -27.1 0 10
      vertex -26.997 2.362 10
      vertex -27.1 0 0
    endloop
  endfacet
  facet normal -0.999051 0.0435657 0
    outer loop
      vertex -27.1 0 0
      vertex -26.997 2.362 10
      vertex -26.997 2.362 0
    endloop
  endfacet
  facet normal -0.991423 -0.130695 0
    outer loop
      vertex -26.688 -4.706 0
      vertex -26.688 -4.706 10
      vertex -26.997 -2.362 0
    endloop
  endfacet
  facet normal -0.991423 -0.130695 0
    outer loop
      vertex -26.997 -2.362 0
      vertex -26.688 -4.706 10
      vertex -26.997 -2.362 10
    endloop
  endfacet
  facet normal -0.976356 -0.216169 0
    outer loop
      vertex -26.177 -7.014 0
      vertex -26.177 -7.014 10
      vertex -26.688 -4.706 0
    endloop
  endfacet
  facet normal -0.976356 -0.216169 0
    outer loop
      vertex -26.688 -4.706 0
      vertex -26.177 -7.014 10
      vertex -26.688 -4.706 10
    endloop
  endfacet
  facet normal -0.953717 -0.300706 0
    outer loop
      vertex -25.466 -9.269 0
      vertex -25.466 -9.269 10
      vertex -26.177 -7.014 0
    endloop
  endfacet
  facet normal -0.953717 -0.300706 0
    outer loop
      vertex -26.177 -7.014 0
      vertex -25.466 -9.269 10
      vertex -26.177 -7.014 10
    endloop
  endfacet
  facet normal -0.923826 -0.382813 0
    outer loop
      vertex -24.561 -11.453 0
      vertex -24.561 -11.453 10
      vertex -25.466 -9.269 0
    endloop
  endfacet
  facet normal -0.923826 -0.382813 0
    outer loop
      vertex -25.466 -9.269 0
      vertex -24.561 -11.453 10
      vertex -25.466 -9.269 10
    endloop
  endfacet
  facet normal -0.886947 -0.461872 0
    outer loop
      vertex -23.469 -13.55 0
      vertex -23.469 -13.55 10
      vertex -24.561 -11.453 0
    endloop
  endfacet
  facet normal -0.886947 -0.461872 0
    outer loop
      vertex -24.561 -11.453 0
      vertex -23.469 -13.55 10
      vertex -24.561 -11.453 10
    endloop
  endfacet
  facet normal -0.843452 -0.537204 0
    outer loop
      vertex -22.199 -15.544 0
      vertex -22.199 -15.544 10
      vertex -23.469 -13.55 0
    endloop
  endfacet
  facet normal -0.843452 -0.537204 0
    outer loop
      vertex -23.469 -13.55 0
      vertex -22.199 -15.544 10
      vertex -23.469 -13.55 10
    endloop
  endfacet
  facet normal -0.793457 -0.608627 0
    outer loop
      vertex -20.76 -17.42 0
      vertex -20.76 -17.42 10
      vertex -22.199 -15.544 0
    endloop
  endfacet
  facet normal -0.793457 -0.608627 0
    outer loop
      vertex -22.199 -15.544 0
      vertex -20.76 -17.42 10
      vertex -22.199 -15.544 10
    endloop
  endfacet
  facet normal -0.737312 -0.675552 0
    outer loop
      vertex -19.163 -19.163 0
      vertex -19.163 -19.163 10
      vertex -20.76 -17.42 0
    endloop
  endfacet
  facet normal -0.737312 -0.675552 0
    outer loop
      vertex -20.76 -17.42 0
      vertex -19.163 -19.163 10
      vertex -20.76 -17.42 10
    endloop
  endfacet
  facet normal -0.675552 -0.737312 0
    outer loop
      vertex -19.163 -19.163 0
      vertex -17.42 -20.76 0
      vertex -17.42 -20.76 10
    endloop
  endfacet
  facet normal -0.675552 -0.737312 0
    outer loop
      vertex -19.163 -19.163 10
      vertex -19.163 -19.163 0
      vertex -17.42 -20.76 10
    endloop
  endfacet
  facet normal -0.608627 -0.793457 0
    outer loop
      vertex -17.42 -20.76 0
      vertex -15.544 -22.199 0
      vertex -15.544 -22.199 10
    endloop
  endfacet
  facet normal -0.608627 -0.793457 0
    outer loop
      vertex -17.42 -20.76 10
      vertex -17.42 -20.76 0
      vertex -15.544 -22.199 10
    endloop
  endfacet
  facet normal -0.537204 -0.843452 0
    outer loop
      vertex -15.544 -22.199 0
      vertex -13.55 -23.469 0
      vertex -13.55 -23.469 10
    endloop
  endfacet
  facet normal -0.537204 -0.843452 0
    outer loop
      vertex -15.544 -22.199 10
      vertex -15.544 -22.199 0
      vertex -13.55 -23.469 10
    endloop
  endfacet
  facet normal -0.461872 -0.886947 0
    outer loop
      vertex -13.55 -23.469 0
      vertex -11.453 -24.561 0
      vertex -11.453 -24.561 10
    endloop
  endfacet
  facet normal -0.461872 -0.886947 0
    outer loop
      vertex -13.55 -23.469 10
      vertex -13.55 -23.469 0
      vertex -11.453 -24.561 10
    endloop
  endfacet
  facet normal -0.382813 -0.923826 0
    outer loop
      vertex -11.453 -24.561 0
      vertex -9.269 -25.466 0
      vertex -9.269 -25.466 10
    endloop
  endfacet
  facet normal -0.382813 -0.923826 0
    outer loop
      vertex -11.453 -24.561 10
      vertex -11.453 -24.561 0
      vertex -9.269 -25.466 10
    endloop
  endfacet
  facet normal -0.300706 -0.953717 0
    outer loop
      vertex -9.269 -25.466 0
      vertex -7.014 -26.177 0
      vertex -7.014 -26.177 10
    endloop
  endfacet
  facet normal -0.300706 -0.953717 0
    outer loop
      vertex -9.269 -25.466 10
      vertex -9.269 -25.466 0
      vertex -7.014 -26.177 10
    endloop
  endfacet
  facet normal -0.216169 -0.976356 0
    outer loop
      vertex -7.014 -26.177 0
      vertex -4.706 -26.688 0
      vertex -4.706 -26.688 10
    endloop
  endfacet
  facet normal -0.216169 -0.976356 0
    outer loop
      vertex -7.014 -26.177 10
      vertex -7.014 -26.177 0
      vertex -4.706 -26.688 10
    endloop
  endfacet
  facet normal -0.130695 -0.991423 0
    outer loop
      vertex -4.706 -26.688 0
      vertex -2.362 -26.997 0
      vertex -2.362 -26.997 10
    endloop
  endfacet
  facet normal -0.130695 -0.991423 0
    outer loop
      vertex -4.706 -26.688 10
      vertex -4.706 -26.688 0
      vertex -2.362 -26.997 10
    endloop
  endfacet
  facet normal -0.0435657 -0.999051 0
    outer loop
      vertex -2.362 -26.997 0
      vertex 0 -27.1 0
      vertex 0 -27.1 10
    endloop
  endfacet
  facet normal -0.0435657 -0.999051 0
    outer loop
      vertex -2.362 -26.997 10
      vertex -2.362 -26.997 0
      vertex 0 -27.1 10
    endloop
  endfacet
  facet normal 0.0435657 -0.999051 0
    outer loop
      vertex 0 -27.1 0
      vertex 2.362 -26.997 0
      vertex 2.362 -26.997 10
    endloop
  endfacet
  facet normal 0.0435657 -0.999051 0
    outer loop
      vertex 0 -27.1 10
      vertex 0 -27.1 0
      vertex 2.362 -26.997 10
    endloop
  endfacet
  facet normal 0.130695 -0.991423 0
    outer loop
      vertex 2.362 -26.997 0
      vertex 4.706 -26.688 0
      vertex 4.706 -26.688 10
    endloop
  endfacet
  facet normal 0.130695 -0.991423 0
    outer loop
      vertex 2.362 -26.997 10
      vertex 2.362 -26.997 0
      vertex 4.706 -26.688 10
    endloop
  endfacet
  facet normal 0.216169 -0.976356 0
    outer loop
      vertex 4.706 -26.688 0
      vertex 7.014 -26.177 0
      vertex 7.014 -26.177 10
    endloop
  endfacet
  facet normal 0.216169 -0.976356 0
    outer loop
      vertex 4.706 -26.688 10
      vertex 4.706 -26.688 0
      vertex 7.014 -26.177 10
    endloop
  endfacet
  facet normal 0.300706 -0.953717 0
    outer loop
      vertex 7.014 -26.177 0
      vertex 9.269 -25.466 0
      vertex 9.269 -25.466 10
    endloop
  endfacet
  facet normal 0.300706 -0.953717 0
    outer loop
      vertex 7.014 -26.177 10
      vertex 7.014 -26.177 0
      vertex 9.269 -25.466 10
    endloop
  endfacet
  facet normal 0.382813 -0.923826 0
    outer loop
      vertex 9.269 -25.466 0
      vertex 11.453 -24.561 0
      vertex 11.453 -24.561 10
    endloop
  endfacet
  facet normal 0.382813 -0.923826 0
    outer loop
      vertex 9.269 -25.466 10
      vertex 9.269 -25.466 0
      vertex 11.453 -24.561 10
    endloop
  endfacet
  facet normal 0.461872 -0.886947 0
    outer loop
      vertex 11.453 -24.561 0
      vertex 13.55 -23.469 0
      vertex 13.55 -23.469 10
    endloop
  endfacet
  facet normal 0.461872 -0.886947 0
    outer loop
      vertex 11.453 -24.561 10
      vertex 11.453 -24.561 0
      vertex 13.55 -23.469 10
    endloop
  endfacet
  facet normal 0.537204 -0.843452 0
    outer loop
      vertex 13.55 -23.469 0
      vertex 15.544 -22.199 0
      vertex 15.544 -22.199 10
    endloop
  endfacet
  facet normal 0.537204 -0.843452 0
    outer loop
      vertex 13.55 -23.469 10
      vertex 13.55 -23.469 0
      vertex 15.544 -22.199 10
    endloop
  endfacet
  facet normal 0.608627 -0.793457 0
    outer loop
      vertex 15.544 -22.199 0
      vertex 17.42 -20.76 0
      vertex 17.42 -20.76 10
    endloop
  endfacet
  facet normal 0.608627 -0.793457 0
    outer loop
      vertex 15.544 -22.199 10
      vertex 15.544 -22.199 0
      vertex 17.42 -20.76 10
    endloop
  endfacet
  facet normal 0.675552 -0.737312 0
    outer loop
      vertex 17.42 -20.76 0
      vertex 19.163 -19.163 0
      vertex 19.163 -19.163 10
    endloop
  endfacet
  facet normal 0.675552 -0.737312 0
    outer loop
      vertex 17.42 -20.76 10
      vertex 17.42 -20.76 0
      vertex 19.163 -19.163 10
    endloop
  endfacet
  facet normal 0.737312 -0.675552 0
    outer loop
      vertex 19.163 -19.163 0
      vertex 20.76 -17.42 0
      vertex 20.76 -17.42 10
    endloop
  endfacet
  facet normal 0.737312 -0.675552 0
    outer loop
      vertex 19.163 -19.163 10
      vertex 19.163 -19.163 0
      vertex 20.76 -17.42 10
    endloop
  endfacet
  facet normal 0.793457 -0.608627 0
    outer loop
      vertex 20.76 -17.42 0
      vertex 22.199 -15.544 0
      vertex 22.199 -15.544 10
    endloop
  endfacet
  facet normal 0.793457 -0.608627 0
    outer loop
      vertex 20.76 -17.42 10
      vertex 20.76 -17.42 0
      vertex 22.199 -15.544 10
    endloop
  endfacet
  facet normal 0.843452 -0.537204 0
    outer loop
      vertex 22.199 -15.544 0
      vertex 23.469 -13.55 0
      vertex 23.469 -13.55 10
    endloop
  endfacet
  facet normal 0.843452 -0.537204 0
    outer loop
      vertex 22.199 -15.544 10
      vertex 22.199 -15.544 0
      vertex 23.469 -13.55 10
    endloop
  endfacet
  facet normal 0.886947 -0.461872 0
    outer loop
      vertex 23.469 -13.55 0
      vertex 24.561 -11.453 0
      vertex 24.561 -11.453 10
    endloop
  endfacet
  facet normal 0.886947 -0.461872 0
    outer loop
      vertex 23.469 -13.55 10
      vertex 23.469 -13.55 0
      vertex 24.561 -11.453 10
    endloop
  endfacet
  facet normal 0.923826 -0.382813 0
    outer loop
      vertex 24.561 -11.453 0
      vertex 25.466 -9.269 0
      vertex 25.466 -9.269 10
    endloop
  endfacet
  facet normal 0.923826 -0.382813 0
    outer loop
      vertex 24.561 -11.453 10
      vertex 24.561 -11.453 0
      vertex 25.466 -9.269 10
    endloop
  endfacet
  facet normal 0.953717 -0.300706 0
    outer loop
      vertex 25.466 -9.269 0
      vertex 26.177 -7.014 0
      vertex 26.177 -7.014 10
    endloop
  endfacet
  facet normal 0.953717 -0.300706 0
    outer loop
      vertex 25.466 -9.269 10
      vertex 25.466 -9.269 0
      vertex 26.177 -7.014 10
    endloop
  endfacet
  facet normal 0.976356 -0.216169 0
    outer loop
      vertex 26.177 -7.014 0
      vertex 26.688 -4.706 0
      vertex 26.688 -4.706 10
    endloop
  endfacet
  facet normal 0.976356 -0.216169 0
    outer loop
      vertex 26.177 -7.014 10
      vertex 26.177 -7.014 0
      vertex 26.688 -4.706 10
    endloop
  endfacet
  facet normal 0.991423 -0.130695 0
    outer loop
      vertex 26.688 -4.706 0
      vertex 26.997 -2.362 0
      vertex 26.997 -2.362 10
    endloop
  endfacet
  facet normal 0.991423 -0.130695 0
    outer loop
      vertex 26.688 -4.706 10
      vertex 26.688 -4.706 0
      vertex 26.997 -2.362 10
    endloop
  endfacet
  facet normal 0.999051 -0.0435657 0
    outer loop
      vertex 26.997 -2.362 0
      vertex 27.1 0 0
      vertex 27.1 0 10
    endloop
  endfacet
  facet normal 0.999051 -0.0435657 0
    outer loop
      vertex 26.997 -2.362 10
      vertex 26.997 -2.362 0
      vertex 27.1 0 10
    endloop
  endfacet
  facet normal 0.999051 0.0435657 0
    outer loop
      vertex 26.997 2.362 0
      vertex 26.997 2.362 10
      vertex 27.1 0 10
    endloop
  endfacet
  facet normal 0.999051 0.0435657 0
    outer loop
      vertex 27.1 0 0
      vertex 26.997 2.362 0
      vertex 27.1 0 10
    endloop
  endfacet
  facet normal 0.991423 0.130695 0
    outer loop
      vertex 26.688 4.706 0
      vertex 26.688 4.706 10
      vertex 26.997 2.362 10
    endloop
  endfacet
  facet normal 0.991423 0.130695 0
    outer loop
      vertex 26.997 2.362 0
      vertex 26.688 4.706 0
      vertex 26.997 2.362 10
    endloop
  endfacet
  facet normal 0.976356 0.216169 0
    outer loop
      vertex 26.177 7.014 0
      vertex 26.177 7.014 10
      vertex 26.688 4.706 10
    endloop
  endfacet
  facet normal 0.976356 0.216169 0
    outer loop
      vertex 26.688 4.706 0
      vertex 26.177 7.014 0
      vertex 26.688 4.706 10
    endloop
  endfacet
  facet normal 0.953717 0.300706 0
    outer loop
      vertex 25.466 9.269 0
      vertex 25.466 9.269 10
      vertex 26.177 7.014 10
    endloop
  endfacet
  facet normal 0.953717 0.300706 0
    outer loop
      vertex 26.177 7.014 0
      vertex 25.466 9.269 0
      vertex 26.177 7.014 10
    endloop
  endfacet
  facet normal 0.923826 0.382813 0
    outer loop
      vertex 24.561 11.453 0
      vertex 24.561 11.453 10
      vertex 25.466 9.269 10
    endloop
  endfacet
  facet normal 0.923826 0.382813 0
    outer loop
      vertex 25.466 9.269 0
      vertex 24.561 11.453 0
      vertex 25.466 9.269 10
    endloop
  endfacet
  facet normal 0.886947 0.461872 0
    outer loop
      vertex 23.469 13.55 0
      vertex 23.469 13.55 10
      vertex 24.561 11.453 10
    endloop
  endfacet
  facet normal 0.886947 0.461872 0
    outer loop
      vertex 24.561 11.453 0
      vertex 23.469 13.55 0
      vertex 24.561 11.453 10
    endloop
  endfacet
  facet normal 0.843452 0.537204 0
    outer loop
      vertex 22.199 15.544 0
      vertex 22.199 15.544 10
      vertex 23.469 13.55 10
    endloop
  endfacet
  facet normal 0.843452 0.537204 0
    outer loop
      vertex 23.469 13.55 0
      vertex 22.199 15.544 0
      vertex 23.469 13.55 10
    endloop
  endfacet
  facet normal 0.793457 0.608627 0
    outer loop
      vertex 20.76 17.42 0
      vertex 20.76 17.42 10
      vertex 22.199 15.544 10
    endloop
  endfacet
  facet normal 0.793457 0.608627 0
    outer loop
      vertex 22.199 15.544 0
      vertex 20.76 17.42 0
      vertex 22.199 15.544 10
    endloop
  endfacet
  facet normal 0.737312 0.675552 0
    outer loop
      vertex 19.163 19.163 0
      vertex 19.163 19.163 10
      vertex 20.76 17.42 10
    endloop
  endfacet
  facet normal 0.737312 0.675552 0
    outer loop
      vertex 20.76 17.42 0
      vertex 19.163 19.163 0
      vertex 20.76 17.42 10
    endloop
  endfacet
  facet normal 0.675552 0.737312 0
    outer loop
      vertex 17.42 20.76 10
      vertex 19.163 19.163 10
      vertex 17.42 20.76 0
    endloop
  endfacet
  facet normal 0.675552 0.737312 0
    outer loop
      vertex 17.42 20.76 0
      vertex 19.163 19.163 10
      vertex 19.163 19.163 0
    endloop
  endfacet
  facet normal 0.608627 0.793457 0
    outer loop
      vertex 15.544 22.199 10
      vertex 17.42 20.76 10
      vertex 15.544 22.199 0
    endloop
  endfacet
  facet normal 0.608627 0.793457 0
    outer loop
      vertex 15.544 22.199 0
      vertex 17.42 20.76 10
      vertex 17.42 20.76 0
    endloop
  endfacet
  facet normal 0.537204 0.843452 0
    outer loop
      vertex 13.55 23.469 10
      vertex 15.544 22.199 10
      vertex 13.55 23.469 0
    endloop
  endfacet
  facet normal 0.537204 0.843452 0
    outer loop
      vertex 13.55 23.469 0
      vertex 15.544 22.199 10
      vertex 15.544 22.199 0
    endloop
  endfacet
  facet normal 0.461872 0.886947 0
    outer loop
      vertex 11.453 24.561 10
      vertex 13.55 23.469 10
      vertex 11.453 24.561 0
    endloop
  endfacet
  facet normal 0.461872 0.886947 0
    outer loop
      vertex 11.453 24.561 0
      vertex 13.55 23.469 10
      vertex 13.55 23.469 0
    endloop
  endfacet
  facet normal 0.382813 0.923826 0
    outer loop
      vertex 9.269 25.466 10
      vertex 11.453 24.561 10
      vertex 9.269 25.466 0
    endloop
  endfacet
  facet normal 0.382813 0.923826 0
    outer loop
      vertex 9.269 25.466 0
      vertex 11.453 24.561 10
      vertex 11.453 24.561 0
    endloop
  endfacet
  facet normal 0.300706 0.953717 0
    outer loop
      vertex 7.014 26.177 10
      vertex 9.269 25.466 10
      vertex 7.014 26.177 0
    endloop
  endfacet
  facet normal 0.300706 0.953717 0
    outer loop
      vertex 7.014 26.177 0
      vertex 9.269 25.466 10
      vertex 9.269 25.466 0
    endloop
  endfacet
  facet normal 0.216169 0.976356 0
    outer loop
      vertex 4.706 26.688 10
      vertex 7.014 26.177 10
      vertex 4.706 26.688 0
    endloop
  endfacet
  facet normal 0.216169 0.976356 0
    outer loop
      vertex 4.706 26.688 0
      vertex 7.014 26.177 10
      vertex 7.014 26.177 0
    endloop
  endfacet
  facet normal 0.130695 0.991423 0
    outer loop
      vertex 2.362 26.997 10
      vertex 4.706 26.688 10
      vertex 2.362 26.997 0
    endloop
  endfacet
  facet normal 0.130695 0.991423 0
    outer loop
      vertex 2.362 26.997 0
      vertex 4.706 26.688 10
      vertex 4.706 26.688 0
    endloop
  endfacet
  facet normal 0.0432781 0.999063 0
    outer loop
      vertex 1 27.056 10
      vertex 2.362 26.997 10
      vertex 1 27.056 0
    endloop
  endfacet
  facet normal 0.0432781 0.999063 0
    outer loop
      vertex 1 27.056 0
      vertex 2.362 26.997 10
      vertex 2.362 26.997 0
    endloop
  endfacet
  facet normal -1 0 0
    outer loop
      vertex 1 24.956 10
      vertex 1 27.056 10
      vertex 1 24.956 0
    endloop
  endfacet
  facet normal -1 0 0
    outer loop
      vertex 1 24.956 0
      vertex 1 27.056 10
      vertex 1 27.056 0
    endloop
  endfacet
  facet normal -0.0432166 -0.999066 0
    outer loop
      vertex 1 24.956 0
      vertex 2.179 24.905 0
      vertex 2.179 24.905 10
    endloop
  endfacet
  facet normal -0.0432166 -0.999066 0
    outer loop
      vertex 1 24.956 10
      vertex 1 24.956 0
      vertex 2.179 24.905 10
    endloop
  endfacet
  facet normal -0.130692 -0.991423 0
    outer loop
      vertex 2.179 24.905 0
      vertex 4.341 24.62 0
      vertex 4.341 24.62 10
    endloop
  endfacet
  facet normal -0.130692 -0.991423 0
    outer loop
      vertex 2.179 24.905 10
      vertex 2.179 24.905 0
      vertex 4.341 24.62 10
    endloop
  endfacet
  facet normal -0.216445 -0.976295 0
    outer loop
      vertex 4.341 24.62 0
      vertex 6.47 24.148 0
      vertex 6.47 24.148 10
    endloop
  endfacet
  facet normal -0.216445 -0.976295 0
    outer loop
      vertex 4.341 24.62 10
      vertex 4.341 24.62 0
      vertex 6.47 24.148 10
    endloop
  endfacet
  facet normal -0.300649 -0.953735 0
    outer loop
      vertex 6.47 24.148 0
      vertex 8.551 23.492 0
      vertex 8.551 23.492 10
    endloop
  endfacet
  facet normal -0.300649 -0.953735 0
    outer loop
      vertex 6.47 24.148 10
      vertex 6.47 24.148 0
      vertex 8.551 23.492 10
    endloop
  endfacet
  facet normal -0.382595 -0.923916 0
    outer loop
      vertex 8.551 23.492 0
      vertex 10.565 22.658 0
      vertex 10.565 22.658 10
    endloop
  endfacet
  facet normal -0.382595 -0.923916 0
    outer loop
      vertex 8.551 23.492 10
      vertex 8.551 23.492 0
      vertex 10.565 22.658 10
    endloop
  endfacet
  facet normal -0.461641 -0.887067 0
    outer loop
      vertex 10.565 22.658 0
      vertex 12.5 21.651 0
      vertex 12.5 21.651 10
    endloop
  endfacet
  facet normal -0.461641 -0.887067 0
    outer loop
      vertex 10.565 22.658 10
      vertex 10.565 22.658 0
      vertex 12.5 21.651 10
    endloop
  endfacet
  facet normal -0.537439 -0.843303 0
    outer loop
      vertex 12.5 21.651 0
      vertex 14.339 20.479 0
      vertex 14.339 20.479 10
    endloop
  endfacet
  facet normal -0.537439 -0.843303 0
    outer loop
      vertex 12.5 21.651 10
      vertex 12.5 21.651 0
      vertex 14.339 20.479 10
    endloop
  endfacet
  facet normal -0.608691 -0.793407 0
    outer loop
      vertex 14.339 20.479 0
      vertex 16.07 19.151 0
      vertex 16.07 19.151 10
    endloop
  endfacet
  facet normal -0.608691 -0.793407 0
    outer loop
      vertex 14.339 20.479 10
      vertex 14.339 20.479 0
      vertex 16.07 19.151 10
    endloop
  endfacet
  facet normal -0.675475 -0.737383 0
    outer loop
      vertex 16.07 19.151 0
      vertex 17.678 17.678 0
      vertex 17.678 17.678 10
    endloop
  endfacet
  facet normal -0.675475 -0.737383 0
    outer loop
      vertex 16.07 19.151 10
      vertex 16.07 19.151 0
      vertex 17.678 17.678 10
    endloop
  endfacet
  facet normal -0.737383 -0.675475 0
    outer loop
      vertex 19.151 16.07 0
      vertex 19.151 16.07 10
      vertex 17.678 17.678 0
    endloop
  endfacet
  facet normal -0.737383 -0.675475 0
    outer loop
      vertex 17.678 17.678 0
      vertex 19.151 16.07 10
      vertex 17.678 17.678 10
    endloop
  endfacet
  facet normal -0.793407 -0.608691 0
    outer loop
      vertex 20.479 14.339 0
      vertex 20.479 14.339 10
      vertex 19.151 16.07 0
    endloop
  endfacet
  facet normal -0.793407 -0.608691 0
    outer loop
      vertex 19.151 16.07 0
      vertex 20.479 14.339 10
      vertex 19.151 16.07 10
    endloop
  endfacet
  facet normal -0.843303 -0.537439 0
    outer loop
      vertex 21.651 12.5 0
      vertex 21.651 12.5 10
      vertex 20.479 14.339 0
    endloop
  endfacet
  facet normal -0.843303 -0.537439 0
    outer loop
      vertex 20.479 14.339 0
      vertex 21.651 12.5 10
      vertex 20.479 14.339 10
    endloop
  endfacet
  facet normal -0.887067 -0.461641 0
    outer loop
      vertex 22.658 10.565 0
      vertex 22.658 10.565 10
      vertex 21.651 12.5 0
    endloop
  endfacet
  facet normal -0.887067 -0.461641 0
    outer loop
      vertex 21.651 12.5 0
      vertex 22.658 10.565 10
      vertex 21.651 12.5 10
    endloop
  endfacet
  facet normal -0.923916 -0.382595 0
    outer loop
      vertex 23.492 8.551 0
      vertex 23.492 8.551 10
      vertex 22.658 10.565 0
    endloop
  endfacet
  facet normal -0.923916 -0.382595 0
    outer loop
      vertex 22.658 10.565 0
      vertex 23.492 8.551 10
      vertex 22.658 10.565 10
    endloop
  endfacet
  facet normal -0.953735 -0.300649 0
    outer loop
      vertex 24.148 6.47 0
      vertex 24.148 6.47 10
      vertex 23.492 8.551 0
    endloop
  endfacet
  facet normal -0.953735 -0.300649 0
    outer loop
      vertex 23.492 8.551 0
      vertex 24.148 6.47 10
      vertex 23.492 8.551 10
    endloop
  endfacet
  facet normal -0.976295 -0.216445 0
    outer loop
      vertex 24.62 4.341 0
      vertex 24.62 4.341 10
      vertex 24.148 6.47 0
    endloop
  endfacet
  facet normal -0.976295 -0.216445 0
    outer loop
      vertex 24.148 6.47 0
      vertex 24.62 4.341 10
      vertex 24.148 6.47 10
    endloop
  endfacet
  facet normal -0.991423 -0.130692 0
    outer loop
      vertex 24.905 2.179 0
      vertex 24.905 2.179 10
      vertex 24.62 4.341 0
    endloop
  endfacet
  facet normal -0.991423 -0.130692 0
    outer loop
      vertex 24.62 4.341 0
      vertex 24.905 2.179 10
      vertex 24.62 4.341 10
    endloop
  endfacet
  facet normal -0.999051 -0.0435566 0
    outer loop
      vertex 25 0 0
      vertex 25 0 10
      vertex 24.905 2.179 0
    endloop
  endfacet
  facet normal -0.999051 -0.0435566 0
    outer loop
      vertex 24.905 2.179 0
      vertex 25 0 10
      vertex 24.905 2.179 10
    endloop
  endfacet
  facet normal -0.999051 0.0435566 0
    outer loop
      vertex 24.905 -2.179 10
      vertex 25 0 10
      vertex 24.905 -2.179 0
    endloop
  endfacet
  facet normal -0.999051 0.0435566 0
    outer loop
      vertex 24.905 -2.179 0
      vertex 25 0 10
      vertex 25 0 0
    endloop
  endfacet
  facet normal -0.991423 0.130692 0
    outer loop
      vertex 24.62 -4.341 10
      vertex 24.905 -2.179 10
      vertex 24.62 -4.341 0
    endloop
  endfacet
  facet normal -0.991423 0.130692 0
    outer loop
      vertex 24.62 -4.341 0
      vertex 24.905 -2.179 10
      vertex 24.905 -2.179 0
    endloop
  endfacet
  facet normal -0.976295 0.216445 0
    outer loop
      vertex 24.148 -6.47 10
      vertex 24.62 -4.341 10
      vertex 24.148 -6.47 0
    endloop
  endfacet
  facet normal -0.976295 0.216445 0
    outer loop
      vertex 24.148 -6.47 0
      vertex 24.62 -4.341 10
      vertex 24.62 -4.341 0
    endloop
  endfacet
  facet normal -0.953735 0.300649 0
    outer loop
      vertex 23.492 -8.551 10
      vertex 24.148 -6.47 10
      vertex 23.492 -8.551 0
    endloop
  endfacet
  facet normal -0.953735 0.300649 0
    outer loop
      vertex 23.492 -8.551 0
      vertex 24.148 -6.47 10
      vertex 24.148 -6.47 0
    endloop
  endfacet
  facet normal -0.923916 0.382595 0
    outer loop
      vertex 22.658 -10.565 10
      vertex 23.492 -8.551 10
      vertex 22.658 -10.565 0
    endloop
  endfacet
  facet normal -0.923916 0.382595 0
    outer loop
      vertex 22.658 -10.565 0
      vertex 23.492 -8.551 10
      vertex 23.492 -8.551 0
    endloop
  endfacet
  facet normal -0.887067 0.461641 0
    outer loop
      vertex 21.651 -12.5 10
      vertex 22.658 -10.565 10
      vertex 21.651 -12.5 0
    endloop
  endfacet
  facet normal -0.887067 0.461641 0
    outer loop
      vertex 21.651 -12.5 0
      vertex 22.658 -10.565 10
      vertex 22.658 -10.565 0
    endloop
  endfacet
  facet normal -0.843303 0.537439 0
    outer loop
      vertex 20.479 -14.339 10
      vertex 21.651 -12.5 10
      vertex 20.479 -14.339 0
    endloop
  endfacet
  facet normal -0.843303 0.537439 0
    outer loop
      vertex 20.479 -14.339 0
      vertex 21.651 -12.5 10
      vertex 21.651 -12.5 0
    endloop
  endfacet
  facet normal -0.793407 0.608691 0
    outer loop
      vertex 19.151 -16.07 10
      vertex 20.479 -14.339 10
      vertex 19.151 -16.07 0
    endloop
  endfacet
  facet normal -0.793407 0.608691 0
    outer loop
      vertex 19.151 -16.07 0
      vertex 20.479 -14.339 10
      vertex 20.479 -14.339 0
    endloop
  endfacet
  facet normal -0.737383 0.675475 0
    outer loop
      vertex 17.678 -17.678 10
      vertex 19.151 -16.07 10
      vertex 17.678 -17.678 0
    endloop
  endfacet
  facet normal -0.737383 0.675475 0
    outer loop
      vertex 17.678 -17.678 0
      vertex 19.151 -16.07 10
      vertex 19.151 -16.07 0
    endloop
  endfacet
  facet normal -0.675475 0.737383 0
    outer loop
      vertex 16.07 -19.151 10
      vertex 17.678 -17.678 10
      vertex 16.07 -19.151 0
    endloop
  endfacet
  facet normal -0.675475 0.737383 0
    outer loop
      vertex 16.07 -19.151 0
      vertex 17.678 -17.678 10
      vertex 17.678 -17.678 0
    endloop
  endfacet
  facet normal -0.608691 0.793407 0
    outer loop
      vertex 14.339 -20.479 10
      vertex 16.07 -19.151 10
      vertex 14.339 -20.479 0
    endloop
  endfacet
  facet normal -0.608691 0.793407 0
    outer loop
      vertex 14.339 -20.479 0
      vertex 16.07 -19.151 10
      vertex 16.07 -19.151 0
    endloop
  endfacet
  facet normal -0.537439 0.843303 0
    outer loop
      vertex 12.5 -21.651 10
      vertex 14.339 -20.479 10
      vertex 12.5 -21.651 0
    endloop
  endfacet
  facet normal -0.537439 0.843303 0
    outer loop
      vertex 12.5 -21.651 0
      vertex 14.339 -20.479 10
      vertex 14.339 -20.479 0
    endloop
  endfacet
  facet normal -0.461641 0.887067 0
    outer loop
      vertex 10.565 -22.658 10
      vertex 12.5 -21.651 10
      vertex 10.565 -22.658 0
    endloop
  endfacet
  facet normal -0.461641 0.887067 0
    outer loop
      vertex 10.565 -22.658 0
      vertex 12.5 -21.651 10
      vertex 12.5 -21.651 0
    endloop
  endfacet
  facet normal -0.382595 0.923916 0
    outer loop
      vertex 8.551 -23.492 10
      vertex 10.565 -22.658 10
      vertex 8.551 -23.492 0
    endloop
  endfacet
  facet normal -0.382595 0.923916 0
    outer loop
      vertex 8.551 -23.492 0
      vertex 10.565 -22.658 10
      vertex 10.565 -22.658 0
    endloop
  endfacet
  facet normal -0.300649 0.953735 0
    outer loop
      vertex 6.47 -24.148 10
      vertex 8.551 -23.492 10
      vertex 6.47 -24.148 0
    endloop
  endfacet
  facet normal -0.300649 0.953735 0
    outer loop
      vertex 6.47 -24.148 0
      vertex 8.551 -23.492 10
      vertex 8.551 -23.492 0
    endloop
  endfacet
  facet normal -0.216445 0.976295 0
    outer loop
      vertex 4.341 -24.62 10
      vertex 6.47 -24.148 10
      vertex 4.341 -24.62 0
    endloop
  endfacet
  facet normal -0.216445 0.976295 0
    outer loop
      vertex 4.341 -24.62 0
      vertex 6.47 -24.148 10
      vertex 6.47 -24.148 0
    endloop
  endfacet
  facet normal -0.130692 0.991423 0
    outer loop
      vertex 2.179 -24.905 10
      vertex 4.341 -24.62 10
      vertex 2.179 -24.905 0
    endloop
  endfacet
  facet normal -0.130692 0.991423 0
    outer loop
      vertex 2.179 -24.905 0
      vertex 4.341 -24.62 10
      vertex 4.341 -24.62 0
    endloop
  endfacet
  facet normal -0.0435566 0.999051 0
    outer loop
      vertex 0 -25 10
      vertex 2.179 -24.905 10
      vertex 0 -25 0
    endloop
  endfacet
  facet normal -0.0435566 0.999051 0
    outer loop
      vertex 0 -25 0
      vertex 2.179 -24.905 10
      vertex 2.179 -24.905 0
    endloop
  endfacet
  facet normal 0.0435566 0.999051 0
    outer loop
      vertex -2.179 -24.905 10
      vertex 0 -25 10
      vertex -2.179 -24.905 0
    endloop
  endfacet
  facet normal 0.0435566 0.999051 0
    outer loop
      vertex -2.179 -24.905 0
      vertex 0 -25 10
      vertex 0 -25 0
    endloop
  endfacet
  facet normal 0.130692 0.991423 0
    outer loop
      vertex -4.341 -24.62 10
      vertex -2.179 -24.905 10
      vertex -4.341 -24.62 0
    endloop
  endfacet
  facet normal 0.130692 0.991423 0
    outer loop
      vertex -4.341 -24.62 0
      vertex -2.179 -24.905 10
      vertex -2.179 -24.905 0
    endloop
  endfacet
  facet normal 0.216445 0.976295 0
    outer loop
      vertex -6.47 -24.148 10
      vertex -4.341 -24.62 10
      vertex -6.47 -24.148 0
    endloop
  endfacet
  facet normal 0.216445 0.976295 0
    outer loop
      vertex -6.47 -24.148 0
      vertex -4.341 -24.62 10
      vertex -4.341 -24.62 0
    endloop
  endfacet
  facet normal 0.300649 0.953735 0
    outer loop
      vertex -8.551 -23.492 10
      vertex -6.47 -24.148 10
      vertex -8.551 -23.492 0
    endloop
  endfacet
  facet normal 0.300649 0.953735 0
    outer loop
      vertex -8.551 -23.492 0
      vertex -6.47 -24.148 10
      vertex -6.47 -24.148 0
    endloop
  endfacet
  facet normal 0.382595 0.923916 0
    outer loop
      vertex -10.565 -22.658 10
      vertex -8.551 -23.492 10
      vertex -10.565 -22.658 0
    endloop
  endfacet
  facet normal 0.382595 0.923916 0
    outer loop
      vertex -10.565 -22.658 0
      vertex -8.551 -23.492 10
      vertex -8.551 -23.492 0
    endloop
  endfacet
  facet normal 0.461641 0.887067 0
    outer loop
      vertex -12.5 -21.651 10
      vertex -10.565 -22.658 10
      vertex -12.5 -21.651 0
    endloop
  endfacet
  facet normal 0.461641 0.887067 0
    outer loop
      vertex -12.5 -21.651 0
      vertex -10.565 -22.658 10
      vertex -10.565 -22.658 0
    endloop
  endfacet
  facet normal 0.537439 0.843303 0
    outer loop
      vertex -14.339 -20.479 10
      vertex -12.5 -21.651 10
      vertex -14.339 -20.479 0
    endloop
  endfacet
  facet normal 0.537439 0.843303 0
    outer loop
      vertex -14.339 -20.479 0
      vertex -12.5 -21.651 10
      vertex -12.5 -21.651 0
    endloop
  endfacet
  facet normal 0.608691 0.793407 0
    outer loop
      vertex -16.07 -19.151 10
      vertex -14.339 -20.479 10
      vertex -16.07 -19.151 0
    endloop
  endfacet
  facet normal 0.608691 0.793407 0
    outer loop
      vertex -16.07 -19.151 0
      vertex -14.339 -20.479 10
      vertex -14.339 -20.479 0
    endloop
  endfacet
  facet normal 0.675475 0.737383 0
    outer loop
      vertex -17.678 -17.678 10
      vertex -16.07 -19.151 10
      vertex -17.678 -17.678 0
    endloop
  endfacet
  facet normal 0.675475 0.737383 0
    outer loop
      vertex -17.678 -17.678 0
      vertex -16.07 -19.151 10
      vertex -16.07 -19.151 0
    endloop
  endfacet
  facet normal 0.737383 0.675475 0
    outer loop
      vertex -19.151 -16.07 0
      vertex -19.151 -16.07 10
      vertex -17.678 -17.678 10
    endloop
  endfacet
  facet normal 0.737383 0.675475 0
    outer loop
      vertex -17.678 -17.678 0
      vertex -19.151 -16.07 0
      vertex -17.678 -17.678 10
    endloop
  endfacet
  facet normal 0.793407 0.608691 0
    outer loop
      vertex -20.479 -14.339 0
      vertex -20.479 -14.339 10
      vertex -19.151 -16.07 10
    endloop
  endfacet
  facet normal 0.793407 0.608691 0
    outer loop
      vertex -19.151 -16.07 0
      vertex -20.479 -14.339 0
      vertex -19.151 -16.07 10
    endloop
  endfacet
  facet normal 0.843303 0.537439 0
    outer loop
      vertex -21.651 -12.5 0
      vertex -21.651 -12.5 10
      vertex -20.479 -14.339 10
    endloop
  endfacet
  facet normal 0.843303 0.537439 0
    outer loop
      vertex -20.479 -14.339 0
      vertex -21.651 -12.5 0
      vertex -20.479 -14.339 10
    endloop
  endfacet
  facet normal 0.887067 0.461641 0
    outer loop
      vertex -22.658 -10.565 0
      vertex -22.658 -10.565 10
      vertex -21.651 -12.5 10
    endloop
  endfacet
  facet normal 0.887067 0.461641 0
    outer loop
      vertex -21.651 -12.5 0
      vertex -22.658 -10.565 0
      vertex -21.651 -12.5 10
    endloop
  endfacet
  facet normal 0.923916 0.382595 0
    outer loop
      vertex -23.492 -8.551 0
      vertex -23.492 -8.551 10
      vertex -22.658 -10.565 10
    endloop
  endfacet
  facet normal 0.923916 0.382595 0
    outer loop
      vertex -22.658 -10.565 0
      vertex -23.492 -8.551 0
      vertex -22.658 -10.565 10
    endloop
  endfacet
  facet normal 0.953735 0.300649 0
    outer loop
      vertex -24.148 -6.47 0
      vertex -24.148 -6.47 10
      vertex -23.492 -8.551 10
    endloop
  endfacet
  facet normal 0.953735 0.300649 0
    outer loop
      vertex -23.492 -8.551 0
      vertex -24.148 -6.47 0
      vertex -23.492 -8.551 10
    endloop
  endfacet
  facet normal 0.976295 0.216445 0
    outer loop
      vertex -24.62 -4.341 0
      vertex -24.62 -4.341 10
      vertex -24.148 -6.47 10
    endloop
  endfacet
  facet normal 0.976295 0.216445 0
    outer loop
      vertex -24.148 -6.47 0
      vertex -24.62 -4.341 0
      vertex -24.148 -6.47 10
    endloop
  endfacet
  facet normal 0.991423 0.130692 0
    outer loop
      vertex -24.905 -2.179 0
      vertex -24.905 -2.179 10
      vertex -24.62 -4.341 10
    endloop
  endfacet
  facet normal 0.991423 0.130692 0
    outer loop
      vertex -24.62 -4.341 0
      vertex -24.905 -2.179 0
      vertex -24.62 -4.341 10
    endloop
  endfacet
  facet normal 0.999051 0.0435566 0
    outer loop
      vertex -25 0 0
      vertex -25 0 10
      vertex -24.905 -2.179 10
    endloop
  endfacet
  facet normal 0.999051 0.0435566 0
    outer loop
      vertex -24.905 -2.179 0
      vertex -25 0 0
      vertex -24.905 -2.179 10
    endloop
  endfacet
  facet normal 0.999051 -0.0435566 0
    outer loop
      vertex -25 0 0
      vertex -24.905 2.179 0
      vertex -24.905 2.179 10
    endloop
  endfacet
  facet normal 0.999051 -0.0435566 0
    outer loop
      vertex -25 0 10
      vertex -25 0 0
      vertex -24.905 2.179 10
    endloop
  endfacet
  facet normal 0.991423 -0.130692 0
    outer loop
      vertex -24.905 2.179 0
      vertex -24.62 4.341 0
      vertex -24.62 4.341 10
    endloop
  endfacet
  facet normal 0.991423 -0.130692 0
    outer loop
      vertex -24.905 2.179 10
      vertex -24.905 2.179 0
      vertex -24.62 4.341 10
    endloop
  endfacet
  facet normal 0.976295 -0.216445 0
    outer loop
      vertex -24.62 4.341 0
      vertex -24.148 6.47 0
      vertex -24.148 6.47 10
    endloop
  endfacet
  facet normal 0.976295 -0.216445 0
    outer loop
      vertex -24.62 4.341 10
      vertex -24.62 4.341 0
      vertex -24.148 6.47 10
    endloop
  endfacet
  facet normal 0.953735 -0.300649 0
    outer loop
      vertex -24.148 6.47 0
      vertex -23.492 8.551 0
      vertex -23.492 8.551 10
    endloop
  endfacet
  facet normal 0.953735 -0.300649 0
    outer loop
      vertex -24.148 6.47 10
      vertex -24.148 6.47 0
      vertex -23.492 8.551 10
    endloop
  endfacet
  facet normal 0.923916 -0.382595 0
    outer loop
      vertex -23.492 8.551 0
      vertex -22.658 10.565 0
      vertex -22.658 10.565 10
    endloop
  endfacet
  facet normal 0.923916 -0.382595 0
    outer loop
      vertex -23.492 8.551 10
      vertex -23.492 8.551 0
      vertex -22.658 10.565 10
    endloop
  endfacet
  facet normal 0.887067 -0.461641 0
    outer loop
      vertex -22.658 10.565 0
      vertex -21.651 12.5 0
      vertex -21.651 12.5 10
    endloop
  endfacet
  facet normal 0.887067 -0.461641 0
    outer loop
      vertex -22.658 10.565 10
      vertex -22.658 10.565 0
      vertex -21.651 12.5 10
    endloop
  endfacet
  facet normal 0.843303 -0.537439 0
    outer loop
      vertex -21.651 12.5 0
      vertex -20.479 14.339 0
      vertex -20.479 14.339 10
    endloop
  endfacet
  facet normal 0.843303 -0.537439 0
    outer loop
      vertex -21.651 12.5 10
      vertex -21.651 12.5 0
      vertex -20.479 14.339 10
    endloop
  endfacet
  facet normal 0.793407 -0.608691 0
    outer loop
      vertex -20.479 14.339 0
      vertex -19.151 16.07 0
      vertex -19.151 16.07 10
    endloop
  endfacet
  facet normal 0.793407 -0.608691 0
    outer loop
      vertex -20.479 14.339 10
      vertex -20.479 14.339 0
      vertex -19.151 16.07 10
    endloop
  endfacet
  facet normal 0.737383 -0.675475 0
    outer loop
      vertex -19.151 16.07 0
      vertex -17.678 17.678 0
      vertex -17.678 17.678 10
    endloop
  endfacet
  facet normal 0.737383 -0.675475 0
    outer loop
      vertex -19.151 16.07 10
      vertex -19.151 16.07 0
      vertex -17.678 17.678 10
    endloop
  endfacet
  facet normal 0.675475 -0.737383 0
    outer loop
      vertex -17.678 17.678 0
      vertex -16.07 19.151 0
      vertex -16.07 19.151 10
    endloop
  endfacet
  facet normal 0.675475 -0.737383 0
    outer loop
      vertex -17.678 17.678 10
      vertex -17.678 17.678 0
      vertex -16.07 19.151 10
    endloop
  endfacet
  facet normal 0.608691 -0.793407 0
    outer loop
      vertex -16.07 19.151 0
      vertex -14.339 20.479 0
      vertex -14.339 20.479 10
    endloop
  endfacet
  facet normal 0.608691 -0.793407 0
    outer loop
      vertex -16.07 19.151 10
      vertex -16.07 19.151 0
      vertex -14.339 20.479 10
    endloop
  endfacet
  facet normal 0.537439 -0.843303 0
    outer loop
      vertex -14.339 20.479 0
      vertex -12.5 21.651 0
      vertex -12.5 21.651 10
    endloop
  endfacet
  facet normal 0.537439 -0.843303 0
    outer loop
      vertex -14.339 20.479 10
      vertex -14.339 20.479 0
      vertex -12.5 21.651 10
    endloop
  endfacet
  facet normal 0.461641 -0.887067 0
    outer loop
      vertex -12.5 21.651 0
      vertex -10.565 22.658 0
      vertex -10.565 22.658 10
    endloop
  endfacet
  facet normal 0.461641 -0.887067 0
    outer loop
      vertex -12.5 21.651 10
      vertex -12.5 21.651 0
      vertex -10.565 22.658 10
    endloop
  endfacet
  facet normal 0.382595 -0.923916 0
    outer loop
      vertex -10.565 22.658 0
      vertex -8.551 23.492 0
      vertex -8.551 23.492 10
    endloop
  endfacet
  facet normal 0.382595 -0.923916 0
    outer loop
      vertex -10.565 22.658 10
      vertex -10.565 22.658 0
      vertex -8.551 23.492 10
    endloop
  endfacet
  facet normal 0.300649 -0.953735 0
    outer loop
      vertex -8.551 23.492 0
      vertex -6.47 24.148 0
      vertex -6.47 24.148 10
    endloop
  endfacet
  facet normal 0.300649 -0.953735 0
    outer loop
      vertex -8.551 23.492 10
      vertex -8.551 23.492 0
      vertex -6.47 24.148 10
    endloop
  endfacet
  facet normal 0.216445 -0.976295 0
    outer loop
      vertex -6.47 24.148 0
      vertex -4.341 24.62 0
      vertex -4.341 24.62 10
    endloop
  endfacet
  facet normal 0.216445 -0.976295 0
    outer loop
      vertex -6.47 24.148 10
      vertex -6.47 24.148 0
      vertex -4.341 24.62 10
    endloop
  endfacet
  facet normal 0.130692 -0.991423 0
    outer loop
      vertex -4.341 24.62 0
      vertex -2.179 24.905 0
      vertex -2.179 24.905 10
    endloop
  endfacet
  facet normal 0.130692 -0.991423 0
    outer loop
      vertex -4.341 24.62 10
      vertex -4.341 24.62 0
      vertex -2.179 24.905 10
    endloop
  endfacet
  facet normal -0.216169 0.976356 0
    outer loop
      vertex -7.014 26.177 10
      vertex -4.706 26.688 10
      vertex -7.014 26.177 0
    endloop
  endfacet
  facet normal -0.216169 0.976356 0
    outer loop
      vertex -7.014 26.177 0
      vertex -4.706 26.688 10
      vertex -4.706 26.688 0
    endloop
  endfacet
  facet normal -0.300706 0.953717 0
    outer loop
      vertex -9.269 25.466 10
      vertex -7.014 26.177 10
      vertex -9.269 25.466 0
    endloop
  endfacet
  facet normal -0.300706 0.953717 0
    outer loop
      vertex -9.269 25.466 0
      vertex -7.014 26.177 10
      vertex -7.014 26.177 0
    endloop
  endfacet
  facet normal -0.382813 0.923826 0
    outer loop
      vertex -11.453 24.561 10
      vertex -9.269 25.466 10
      vertex -11.453 24.561 0
    endloop
  endfacet
  facet normal -0.382813 0.923826 0
    outer loop
      vertex -11.453 24.561 0
      vertex -9.269 25.466 10
      vertex -9.269 25.466 0
    endloop
  endfacet
  facet normal -0.461872 0.886947 0
    outer loop
      vertex -13.55 23.469 10
      vertex -11.453 24.561 10
      vertex -13.55 23.469 0
    endloop
  endfacet
  facet normal -0.461872 0.886947 0
    outer loop
      vertex -13.55 23.469 0
      vertex -11.453 24.561 10
      vertex -11.453 24.561 0
    endloop
  endfacet
  facet normal -0.537204 0.843452 0
    outer loop
      vertex -15.544 22.199 10
      vertex -13.55 23.469 10
      vertex -15.544 22.199 0
    endloop
  endfacet
  facet normal -0.537204 0.843452 0
    outer loop
      vertex -15.544 22.199 0
      vertex -13.55 23.469 10
      vertex -13.55 23.469 0
    endloop
  endfacet
  facet normal -0.608627 0.793457 0
    outer loop
      vertex -17.42 20.76 10
      vertex -15.544 22.199 10
      vertex -17.42 20.76 0
    endloop
  endfacet
  facet normal -0.608627 0.793457 0
    outer loop
      vertex -17.42 20.76 0
      vertex -15.544 22.199 10
      vertex -15.544 22.199 0
    endloop
  endfacet
  facet normal -0.675552 0.737312 0
    outer loop
      vertex -19.163 19.163 10
      vertex -17.42 20.76 10
      vertex -19.163 19.163 0
    endloop
  endfacet
  facet normal -0.675552 0.737312 0
    outer loop
      vertex -19.163 19.163 0
      vertex -17.42 20.76 10
      vertex -17.42 20.76 0
    endloop
  endfacet
  facet normal -0.737312 0.675552 0
    outer loop
      vertex -20.76 17.42 10
      vertex -19.163 19.163 10
      vertex -20.76 17.42 0
    endloop
  endfacet
  facet normal -0.737312 0.675552 0
    outer loop
      vertex -20.76 17.42 0
      vertex -19.163 19.163 10
      vertex -19.163 19.163 0
    endloop
  endfacet
  facet normal -0.793457 0.608627 0
    outer loop
      vertex -22.199 15.544 10
      vertex -20.76 17.42 10
      vertex -22.199 15.544 0
    endloop
  endfacet
  facet normal -0.793457 0.608627 0
    outer loop
      vertex -22.199 15.544 0
      vertex -20.76 17.42 10
      vertex -20.76 17.42 0
    endloop
  endfacet
  facet normal -0.843452 0.537204 0
    outer loop
      vertex -23.469 13.55 10
      vertex -22.199 15.544 10
      vertex -23.469 13.55 0
    endloop
  endfacet
  facet normal -0.843452 0.537204 0
    outer loop
      vertex -23.469 13.55 0
      vertex -22.199 15.544 10
      vertex -22.199 15.544 0
    endloop
  endfacet
  facet normal -0.886947 0.461872 0
    outer loop
      vertex -24.561 11.453 10
      vertex -23.469 13.55 10
      vertex -24.561 11.453 0
    endloop
  endfacet
  facet normal -0.886947 0.461872 0
    outer loop
      vertex -24.561 11.453 0
      vertex -23.469 13.55 10
      vertex -23.469 13.55 0
    endloop
  endfacet
  facet normal -0.923826 0.382813 0
    outer loop
      vertex -25.466 9.269 10
      vertex -24.561 11.453 10
      vertex -25.466 9.269 0
    endloop
  endfacet
  facet normal -0.923826 0.382813 0
    outer loop
      vertex -25.466 9.269 0
      vertex -24.561 11.453 10
      vertex -24.561 11.453 0
    endloop
  endfacet
  facet normal -0.953717 0.300706 0
    outer loop
      vertex -26.177 7.014 10
      vertex -25.466 9.269 10
      vertex -26.177 7.014 0
    endloop
  endfacet
  facet normal -0.953717 0.300706 0
    outer loop
      vertex -26.177 7.014 0
      vertex -25.466 9.269 10
      vertex -25.466 9.269 0
    endloop
  endfacet
  facet normal -0.976356 0.216169 0
    outer loop
      vertex -26.688 4.706 10
      vertex -26.177 7.014 10
      vertex -26.688 4.706 0
    endloop
  endfacet
  facet normal -0.976356 0.216169 0
    outer loop
      vertex -26.688 4.706 0
      vertex -26.177 7.014 10
      vertex -26.177 7.014 0
    endloop
  endfacet
  facet normal -0.991423 0.130695 0
    outer loop
      vertex -26.997 2.362 10
      vertex -26.688 4.706 10
      vertex -26.997 2.362 0
    endloop
  endfacet
  facet normal -0.991423 0.130695 0
    outer loop
      vertex -26.997 2.362 0
      vertex -26.688 4.706 10
      vertex -26.688 4.706 0
    endloop
  endfacet
endsolid OpenSCAD_Model
