solid model
facet normal -5.50774703622636e-17 -6.13906681825029e-17 1.0
outer loop
vertex 14.9504891233011 3.81594394792444 3.8
vertex 11.7504891233011 7.26594394792444 3.8
vertex 11.7504891233011 1.96842308651764 3.8
endloop
endfacet
facet normal -5.50774703622636e-17 -6.13906681825029e-17 1.0
outer loop
vertex 11.7504891233011 7.26594394792444 3.8
vertex 14.9504891233011 3.81594394792444 3.8
vertex 18.1504891233012 7.26594394792444 3.8
endloop
endfacet
facet normal -5.50774703622636e-17 -6.13906681825029e-17 1.0
outer loop
vertex 18.1504891233012 7.26594394792444 3.8
vertex 14.9504891233011 3.81594394792444 3.8
vertex 18.1504891233012 1.96842308651763 3.8
endloop
endfacet
facet normal 0.707106781186548 2.60639154929661e-17 0.707106781186548
outer loop
vertex 20.9504891233012 7.26594394792444 1.0
vertex 18.1504891233012 -7.73405605207556 3.8
vertex 20.9504891233012 -7.73405605207556 1.0
endloop
endfacet
facet normal 0.707106781186548 2.60639154929661e-17 0.707106781186548
outer loop
vertex 18.1504891233012 -7.73405605207556 3.8
vertex 20.9504891233012 7.26594394792444 1.0
vertex 18.4578920086281 -2.25905605207555 3.49259711467303
endloop
endfacet
facet normal 0.707106781186548 2.60639154929661e-17 0.707106781186548
outer loop
vertex 18.1504891233012 -7.73405605207556 3.8
vertex 18.4578920086281 -2.25905605207555 3.49259711467303
vertex 18.1504891233012 -2.43653519066875 3.8
endloop
endfacet
facet normal 0.707106781186548 2.60639154929661e-17 0.707106781186548
outer loop
vertex 18.4578920086281 -2.25905605207555 3.49259711467303
vertex 20.9504891233012 7.26594394792444 1.0
vertex 18.4578920086281 -0.23405605207555 3.49259711467303
endloop
endfacet
facet normal 0.707106781186548 2.60639154929661e-17 0.707106781186548
outer loop
vertex 18.4578920086281 -0.23405605207555 3.49259711467303
vertex 20.9504891233012 7.26594394792444 1.0
vertex 18.4578920086281 1.79094394792444 3.49259711467302
endloop
endfacet
facet normal 0.707106781186548 2.60639154929661e-17 0.707106781186548
outer loop
vertex 18.4578920086281 1.79094394792444 3.49259711467302
vertex 20.9504891233012 7.26594394792444 1.0
vertex 18.1504891233012 1.96842308651763 3.8
endloop
endfacet
facet normal 0.707106781186548 2.60639154929661e-17 0.707106781186548
outer loop
vertex 18.1504891233012 1.96842308651763 3.8
vertex 20.9504891233012 7.26594394792444 1.0
vertex 18.1504891233012 7.26594394792444 3.8
endloop
endfacet
facet normal 0.0 0.0 -1.0
outer loop
vertex 8.95048912330115 7.26594394792444 0.0
vertex 10.4151139070372 0.534300406671643 0.0
vertex 8.95048912330115 -7.73405605207556 0.0
endloop
endfacet
facet normal 0.0 0.0 -1.0
outer loop
vertex 10.4151139070372 0.534300406671643 0.0
vertex 8.95048912330115 7.26594394792444 0.0
vertex 10.6335224175467 1.35459068694705 0.0
endloop
endfacet
facet normal 0.0 0.0 -1.0
outer loop
vertex 10.6335224175467 1.35459068694705 0.0
vertex 8.95048912330115 7.26594394792444 0.0
vertex 10.9989400515897 2.1207815078968 0.0
endloop
endfacet
facet normal 0.0 0.0 -1.0
outer loop
vertex 10.9989400515897 2.1207815078968 0.0
vertex 8.95048912330115 7.26594394792444 0.0
vertex 11.4989229499092 2.80678116005804 0.0
endloop
endfacet
facet normal 0.0 0.0 -1.0
outer loop
vertex 11.4989229499092 2.80678116005804 0.0
vertex 8.95048912330115 7.26594394792444 0.0
vertex 12.1164447945662 3.38922874804231 0.0
endloop
endfacet
facet normal 0.0 0.0 -1.0
outer loop
vertex 12.1164447945662 3.38922874804231 0.0
vertex 8.95048912330115 7.26594394792444 0.0
vertex 12.8304766197767 3.84828971780971 0.0
endloop
endfacet
facet normal 0.0 0.0 -1.0
outer loop
vertex 12.8304766197767 3.84828971780971 0.0
vertex 8.95048912330115 7.26594394792444 0.0
vertex 20.9504891233012 7.26594394792444 0.0
endloop
endfacet
facet normal 0.0 0.0 -1.0
outer loop
vertex 8.95048912330115 -7.73405605207556 0.0
vertex 10.4151139070372 0.534300406671643 0.0
vertex 10.3511521599346 -0.312155331264404 0.0
endloop
endfacet
facet normal 0.0 0.0 -1.0
outer loop
vertex 12.8304766197767 3.84828971780971 0.0
vertex 20.9504891233012 7.26594394792444 0.0
vertex 13.6167029281201 4.16833129861774 0.0
endloop
endfacet
facet normal 0.0 0.0 -1.0
outer loop
vertex 13.6167029281201 4.16833129861774 0.0
vertex 20.9504891233012 7.26594394792444 0.0
vertex 14.44834972564 4.33845485827956 0.0
endloop
endfacet
facet normal 0.0 0.0 -1.0
outer loop
vertex 14.44834972564 4.33845485827956 0.0
vertex 20.9504891233012 7.26594394792444 0.0
vertex 15.2970962780976 4.3528670430116 0.0
endloop
endfacet
facet normal 0.0 0.0 -1.0
outer loop
vertex 15.2970962780976 4.3528670430116 0.0
vertex 20.9504891233012 7.26594394792444 0.0
vertex 16.134039539608 4.21107706314833 0.0
endloop
endfacet
facet normal 0.0 0.0 -1.0
outer loop
vertex 16.134039539608 4.21107706314833 0.0
vertex 20.9504891233012 7.26594394792444 0.0
vertex 16.9306784112033 3.91791340639565 0.0
endloop
endfacet
facet normal 0.0 0.0 -1.0
outer loop
vertex 16.9306784112033 3.91791340639565 0.0
vertex 20.9504891233012 7.26594394792444 0.0
vertex 17.6598843115744 3.48335940947321 0.0
endloop
endfacet
facet normal 0.0 0.0 -1.0
outer loop
vertex 17.6598843115744 3.48335940947321 0.0
vertex 20.9504891233012 7.26594394792444 0.0
vertex 18.2968250083702 2.92221328755616 0.0
endloop
endfacet
facet normal 0.0 0.0 -1.0
outer loop
vertex 18.2968250083702 2.92221328755616 0.0
vertex 20.9504891233012 7.26594394792444 0.0
vertex 18.8198102500875 2.25358419880577 0.0
endloop
endfacet
facet normal 0.0 0.0 -1.0
outer loop
vertex 18.8198102500875 2.25358419880577 0.0
vertex 20.9504891233012 7.26594394792444 0.0
vertex 19.2110304015713 1.50024150490725 0.0
endloop
endfacet
facet normal 0.0 0.0 -1.0
outer loop
vertex 19.2110304015713 1.50024150490725 0.0
vertex 20.9504891233012 7.26594394792444 0.0
vertex 19.4571629297796 0.68783938776632 0.0
endloop
endfacet
facet normal 0.0 0.0 -1.0
outer loop
vertex 19.4571629297796 0.68783938776632 0.0
vertex 20.9504891233012 7.26594394792444 0.0
vertex 19.5498260866677 -0.155956772886711 0.0
endloop
endfacet
facet normal 0.0 0.0 -1.0
outer loop
vertex 8.95048912330115 -7.73405605207556 0.0
vertex 12.970299835399 -4.38602551054676 0.0
vertex 20.9504891233012 -7.73405605207556 0.0
endloop
endfacet
facet normal 0.0 0.0 -1.0
outer loop
vertex 12.970299835399 -4.38602551054676 0.0
vertex 8.95048912330115 -7.73405605207556 0.0
vertex 12.2410939350279 -3.95147151362433 0.0
endloop
endfacet
facet normal 0.0 0.0 -1.0
outer loop
vertex 12.2410939350279 -3.95147151362433 0.0
vertex 8.95048912330115 -7.73405605207556 0.0
vertex 11.6041532382321 -3.39032539170728 0.0
endloop
endfacet
facet normal 0.0 0.0 -1.0
outer loop
vertex 11.6041532382321 -3.39032539170728 0.0
vertex 8.95048912330115 -7.73405605207556 0.0
vertex 11.0811679965148 -2.72169630295689 0.0
endloop
endfacet
facet normal 0.0 0.0 -1.0
outer loop
vertex 11.0811679965148 -2.72169630295689 0.0
vertex 8.95048912330115 -7.73405605207556 0.0
vertex 10.689947845031 -1.96835360905836 0.0
endloop
endfacet
facet normal 0.0 0.0 -1.0
outer loop
vertex 10.689947845031 -1.96835360905836 0.0
vertex 8.95048912330115 -7.73405605207556 0.0
vertex 10.4438153168227 -1.15595149191743 0.0
endloop
endfacet
facet normal 0.0 0.0 -1.0
outer loop
vertex 10.4438153168227 -1.15595149191743 0.0
vertex 8.95048912330115 -7.73405605207556 0.0
vertex 10.3511521599346 -0.312155331264404 0.0
endloop
endfacet
facet normal 0.0 0.0 -1.0
outer loop
vertex 20.9504891233012 -7.73405605207556 0.0
vertex 12.970299835399 -4.38602551054676 0.0
vertex 13.7669387069943 -4.67918916729944 0.0
endloop
endfacet
facet normal 0.0 0.0 -1.0
outer loop
vertex 20.9504891233012 -7.73405605207556 0.0
vertex 13.7669387069943 -4.67918916729944 0.0
vertex 14.6038819685047 -4.82097914716271 0.0
endloop
endfacet
facet normal 0.0 0.0 -1.0
outer loop
vertex 20.9504891233012 -7.73405605207556 0.0
vertex 14.6038819685047 -4.82097914716271 0.0
vertex 15.4526285209623 -4.80656696243067 0.0
endloop
endfacet
facet normal 0.0 0.0 -1.0
outer loop
vertex 20.9504891233012 -7.73405605207556 0.0
vertex 15.4526285209623 -4.80656696243067 0.0
vertex 16.2842753184823 -4.63644340276885 0.0
endloop
endfacet
facet normal 0.0 0.0 -1.0
outer loop
vertex 20.9504891233012 -7.73405605207556 0.0
vertex 16.2842753184823 -4.63644340276885 0.0
vertex 17.0705016268256 -4.31640182196082 0.0
endloop
endfacet
facet normal 0.0 0.0 -1.0
outer loop
vertex 20.9504891233012 -7.73405605207556 0.0
vertex 17.0705016268256 -4.31640182196082 0.0
vertex 17.7845334520361 -3.85734085219343 0.0
endloop
endfacet
facet normal 0.0 0.0 -1.0
outer loop
vertex 20.9504891233012 -7.73405605207556 0.0
vertex 17.7845334520361 -3.85734085219343 0.0
vertex 18.4020552966931 -3.27489326420915 0.0
endloop
endfacet
facet normal 0.0 0.0 -1.0
outer loop
vertex 20.9504891233012 -7.73405605207556 0.0
vertex 18.4020552966931 -3.27489326420915 0.0
vertex 18.9020381950126 -2.58889361204791 0.0
endloop
endfacet
facet normal 0.0 0.0 -1.0
outer loop
vertex 20.9504891233012 -7.73405605207556 0.0
vertex 18.9020381950126 -2.58889361204791 0.0
vertex 19.2674558290556 -1.82270279109817 0.0
endloop
endfacet
facet normal 0.0 0.0 -1.0
outer loop
vertex 20.9504891233012 -7.73405605207556 0.0
vertex 19.2674558290556 -1.82270279109817 0.0
vertex 19.4858643395651 -1.00241251082276 0.0
endloop
endfacet
facet normal 0.0 0.0 -1.0
outer loop
vertex 20.9504891233012 -7.73405605207556 0.0
vertex 19.4858643395651 -1.00241251082276 0.0
vertex 19.5498260866677 -0.155956772886711 0.0
endloop
endfacet
facet normal 0.0 0.0 -1.0
outer loop
vertex 20.9504891233012 -7.73405605207556 0.0
vertex 19.5498260866677 -0.155956772886711 0.0
vertex 20.9504891233012 7.26594394792444 0.0
endloop
endfacet
facet normal -1.0 0.0 0.0
outer loop
vertex 8.95048912330115 7.26594394792444 1.0
vertex 8.95048912330115 -7.73405605207556 0.0
vertex 8.95048912330115 -7.73405605207556 1.0
endloop
endfacet
facet normal -1.0 0.0 0.0
outer loop
vertex 8.95048912330115 -7.73405605207556 0.0
vertex 8.95048912330115 7.26594394792444 1.0
vertex 8.95048912330115 7.26594394792444 0.0
endloop
endfacet
facet normal 0.0 -1.0 0.0
outer loop
vertex 20.9504891233012 -7.73405605207556 1.0
vertex 8.95048912330115 -7.73405605207556 0.0
vertex 20.9504891233012 -7.73405605207556 0.0
endloop
endfacet
facet normal 0.0 -1.0 0.0
outer loop
vertex 8.95048912330115 -7.73405605207556 0.0
vertex 20.9504891233012 -7.73405605207556 1.0
vertex 8.95048912330115 -7.73405605207556 1.0
endloop
endfacet
facet normal 0.0 -1.0 0.0
outer loop
vertex 8.95048912330115 -7.73405605207556 1.0
vertex 20.9504891233012 -7.73405605207556 1.0
vertex 18.1504891233012 -7.73405605207556 3.8
endloop
endfacet
facet normal 0.0 -1.0 0.0
outer loop
vertex 8.95048912330115 -7.73405605207556 1.0
vertex 18.1504891233012 -7.73405605207556 3.8
vertex 11.7504891233011 -7.73405605207556 3.8
endloop
endfacet
facet normal -0.707106781186548 6.51597887324183e-18 0.707106781186547
outer loop
vertex 11.7504891233011 -2.43653519066874 3.79999999999997
vertex 8.95048912330115 -7.73405605207556 1.0
vertex 11.7504891233011 -7.73405605207556 3.8
endloop
endfacet
facet normal -0.707106781186548 6.51597887324183e-18 0.707106781186547
outer loop
vertex 8.95048912330115 -7.73405605207556 1.0
vertex 11.7504891233011 -2.43653519066874 3.79999999999997
vertex 11.4430862379742 -2.25905605207556 3.49259711467303
endloop
endfacet
facet normal -0.707106781186548 6.51597887324183e-18 0.707106781186547
outer loop
vertex 8.95048912330115 -7.73405605207556 1.0
vertex 11.4430862379742 -2.25905605207556 3.49259711467303
vertex 8.95048912330115 7.26594394792444 1.0
endloop
endfacet
facet normal -0.707106781186548 6.51597887324183e-18 0.707106781186547
outer loop
vertex 8.95048912330115 7.26594394792444 1.0
vertex 11.4430862379742 -2.25905605207556 3.49259711467303
vertex 11.4430862379742 -0.23405605207555 3.49259711467303
endloop
endfacet
facet normal -0.707106781186548 6.51597887324183e-18 0.707106781186547
outer loop
vertex 8.95048912330115 7.26594394792444 1.0
vertex 11.4430862379742 -0.23405605207555 3.49259711467303
vertex 11.4430862379742 1.79094394792445 3.49259711467302
endloop
endfacet
facet normal -0.707106781186548 6.51597887324183e-18 0.707106781186547
outer loop
vertex 8.95048912330115 7.26594394792444 1.0
vertex 11.4430862379742 1.79094394792445 3.49259711467302
vertex 11.7504891233011 1.96842308651764 3.8
endloop
endfacet
facet normal -0.707106781186548 6.51597887324183e-18 0.707106781186547
outer loop
vertex 8.95048912330115 7.26594394792444 1.0
vertex 11.7504891233011 1.96842308651764 3.8
vertex 11.7504891233011 7.26594394792444 3.8
endloop
endfacet
facet normal -2.69879604775092e-15 3.00814274094264e-15 1.0
outer loop
vertex 11.7504891233011 -7.73405605207556 3.8
vertex 14.9504891233012 -4.28405605207555 3.8
vertex 11.7504891233011 -2.43653519066874 3.79999999999997
endloop
endfacet
facet normal -2.69879604775092e-15 3.00814274094264e-15 1.0
outer loop
vertex 14.9504891233012 -4.28405605207555 3.8
vertex 11.7504891233011 -7.73405605207556 3.8
vertex 18.1504891233012 -7.73405605207556 3.8
endloop
endfacet
facet normal -2.69879604775092e-15 3.00814274094264e-15 1.0
outer loop
vertex 14.9504891233012 -4.28405605207555 3.8
vertex 18.1504891233012 -7.73405605207556 3.8
vertex 18.1504891233012 -2.43653519066875 3.8
endloop
endfacet
facet normal 0.0 1.0 0.0
outer loop
vertex 8.95048912330115 7.26594394792444 1.0
vertex 20.9504891233012 7.26594394792444 0.0
vertex 8.95048912330115 7.26594394792444 0.0
endloop
endfacet
facet normal 0.0 1.0 0.0
outer loop
vertex 20.9504891233012 7.26594394792444 0.0
vertex 8.95048912330115 7.26594394792444 1.0
vertex 20.9504891233012 7.26594394792444 1.0
endloop
endfacet
facet normal 0.0 1.0 0.0
outer loop
vertex 20.9504891233012 7.26594394792444 1.0
vertex 8.95048912330115 7.26594394792444 1.0
vertex 11.7504891233011 7.26594394792444 3.8
endloop
endfacet
facet normal 0.0 1.0 0.0
outer loop
vertex 20.9504891233012 7.26594394792444 1.0
vertex 11.7504891233011 7.26594394792444 3.8
vertex 18.1504891233012 7.26594394792444 3.8
endloop
endfacet
facet normal 1.0 0.0 0.0
outer loop
vertex 20.9504891233012 7.26594394792444 0.0
vertex 20.9504891233012 -7.73405605207556 1.0
vertex 20.9504891233012 -7.73405605207556 0.0
endloop
endfacet
facet normal 1.0 0.0 0.0
outer loop
vertex 20.9504891233012 -7.73405605207556 1.0
vertex 20.9504891233012 7.26594394792444 0.0
vertex 20.9504891233012 7.26594394792444 1.0
endloop
endfacet
facet normal -0.5 -0.866025403784438 -1.59366168374646e-14
outer loop
vertex 18.4578920086281 1.79094394792444 3.49259711467302
vertex 14.9504891233011 3.81594394792449 1.20000000000007
vertex 18.4578920086281 1.79094394792449 1.20000000000003
endloop
endfacet
facet normal -0.5 -0.866025403784438 -1.59366168374646e-14
outer loop
vertex 14.9504891233011 3.81594394792449 1.20000000000007
vertex 18.4578920086281 1.79094394792444 3.49259711467302
vertex 14.9504891233011 3.81594394792444 3.8
endloop
endfacet
facet normal -0.5 -0.866025403784438 -1.59366168374646e-14
outer loop
vertex 14.9504891233011 3.81594394792444 3.8
vertex 18.4578920086281 1.79094394792444 3.49259711467302
vertex 18.1504891233012 1.96842308651763 3.8
endloop
endfacet
facet normal 0.499999999999999 0.866025403784439 1.4485706053436e-14
outer loop
vertex 11.4430862379742 -2.25905605207551 1.19999999999997
vertex 14.9504891233012 -4.28405605207555 3.8
vertex 14.9504891233011 -4.28405605207551 1.19999999999994
endloop
endfacet
facet normal 0.499999999999999 0.866025403784439 1.4485706053436e-14
outer loop
vertex 14.9504891233012 -4.28405605207555 3.8
vertex 11.4430862379742 -2.25905605207551 1.19999999999997
vertex 11.4430862379742 -2.25905605207556 3.49259711467303
endloop
endfacet
facet normal 0.499999999999999 0.866025403784439 1.4485706053436e-14
outer loop
vertex 14.9504891233012 -4.28405605207555 3.8
vertex 11.4430862379742 -2.25905605207556 3.49259711467303
vertex 11.7504891233011 -2.43653519066874 3.79999999999997
endloop
endfacet
facet normal -0.5 0.866025403784438 1.44857060534359e-14
outer loop
vertex 14.9504891233012 -4.28405605207555 3.8
vertex 18.4578920086281 -2.25905605207551 1.19999999999997
vertex 14.9504891233011 -4.28405605207551 1.19999999999994
endloop
endfacet
facet normal -0.5 0.866025403784438 1.44857060534359e-14
outer loop
vertex 18.4578920086281 -2.25905605207551 1.19999999999997
vertex 14.9504891233012 -4.28405605207555 3.8
vertex 18.4578920086281 -2.25905605207555 3.49259711467303
endloop
endfacet
facet normal -0.5 0.866025403784438 1.44857060534359e-14
outer loop
vertex 18.4578920086281 -2.25905605207555 3.49259711467303
vertex 14.9504891233012 -4.28405605207555 3.8
vertex 18.1504891233012 -2.43653519066875 3.8
endloop
endfacet
facet normal -1.0 3.48144010191095e-16 4.10010473056898e-16
outer loop
vertex 18.4578920086281 -0.23405605207555 3.49259711467303
vertex 18.4578920086281 -2.25905605207551 1.19999999999997
vertex 18.4578920086281 -2.25905605207555 3.49259711467303
endloop
endfacet
facet normal -1.0 3.48144010191095e-16 4.10010473056898e-16
outer loop
vertex 18.4578920086281 -2.25905605207551 1.19999999999997
vertex 18.4578920086281 -0.23405605207555 3.49259711467303
vertex 18.4578920086281 -0.234056052075512 1.2
endloop
endfacet
facet normal -1.0 3.48144010191095e-16 4.10010473056898e-16
outer loop
vertex 18.4578920086281 -0.234056052075512 1.2
vertex 18.4578920086281 -0.23405605207555 3.49259711467303
vertex 18.4578920086281 1.79094394792444 3.49259711467302
endloop
endfacet
facet normal -1.0 3.48144010191095e-16 4.10010473056898e-16
outer loop
vertex 18.4578920086281 -0.234056052075512 1.2
vertex 18.4578920086281 1.79094394792444 3.49259711467302
vertex 18.4578920086281 1.79094394792449 1.20000000000003
endloop
endfacet
facet normal 1.0 1.39257604076439e-15 6.1501570958537e-16
outer loop
vertex 11.4430862379742 -2.25905605207551 1.19999999999997
vertex 11.4430862379742 -0.23405605207555 3.49259711467303
vertex 11.4430862379742 -2.25905605207556 3.49259711467303
endloop
endfacet
facet normal 1.0 1.39257604076439e-15 6.1501570958537e-16
outer loop
vertex 11.4430862379742 -0.23405605207555 3.49259711467303
vertex 11.4430862379742 -2.25905605207551 1.19999999999997
vertex 11.4430862379742 -0.234056052075512 1.2
endloop
endfacet
facet normal 1.0 1.39257604076439e-15 6.1501570958537e-16
outer loop
vertex 11.4430862379742 -0.23405605207555 3.49259711467303
vertex 11.4430862379742 -0.234056052075512 1.2
vertex 11.4430862379742 1.79094394792445 3.49259711467302
endloop
endfacet
facet normal 1.0 1.39257604076439e-15 6.1501570958537e-16
outer loop
vertex 11.4430862379742 1.79094394792445 3.49259711467302
vertex 11.4430862379742 -0.234056052075512 1.2
vertex 11.4430862379742 1.79094394792448 1.20000000000003
endloop
endfacet
facet normal 0.5 -0.866025403784438 -1.44974069468566e-14
outer loop
vertex 14.9504891233011 3.81594394792449 1.20000000000007
vertex 11.4430862379742 1.79094394792445 3.49259711467302
vertex 11.4430862379742 1.79094394792448 1.20000000000003
endloop
endfacet
facet normal 0.5 -0.866025403784438 -1.44974069468566e-14
outer loop
vertex 11.4430862379742 1.79094394792445 3.49259711467302
vertex 14.9504891233011 3.81594394792449 1.20000000000007
vertex 14.9504891233011 3.81594394792444 3.8
endloop
endfacet
facet normal 0.5 -0.866025403784438 -1.44974069468566e-14
outer loop
vertex 11.4430862379742 1.79094394792445 3.49259711467302
vertex 14.9504891233011 3.81594394792444 3.8
vertex 11.7504891233011 1.96842308651764 3.8
endloop
endfacet
facet normal 0.0 0.0 -1.0
outer loop
vertex 10.4151139070372 0.534300406671643 1.20000000000002
vertex 10.4438153168227 -1.15595149191743 1.20000000000002
vertex 10.3511521599346 -0.312155331264404 1.20000000000002
endloop
endfacet
facet normal 0.0 0.0 -1.0
outer loop
vertex 10.4438153168227 -1.15595149191743 1.20000000000002
vertex 10.4151139070372 0.534300406671643 1.20000000000002
vertex 10.6335224175467 1.35459068694705 1.20000000000002
endloop
endfacet
facet normal 0.0 0.0 -1.0
outer loop
vertex 10.4438153168227 -1.15595149191743 1.20000000000002
vertex 10.6335224175467 1.35459068694705 1.20000000000002
vertex 10.689947845031 -1.96835360905836 1.20000000000002
endloop
endfacet
facet normal 0.0 0.0 -1.0
outer loop
vertex 10.689947845031 -1.96835360905836 1.20000000000002
vertex 10.6335224175467 1.35459068694705 1.20000000000002
vertex 10.9989400515897 2.1207815078968 1.20000000000002
endloop
endfacet
facet normal 0.0 0.0 -1.0
outer loop
vertex 10.689947845031 -1.96835360905836 1.20000000000002
vertex 10.9989400515897 2.1207815078968 1.20000000000002
vertex 11.0811679965148 -2.72169630295689 1.20000000000002
endloop
endfacet
facet normal 0.0 0.0 -1.0
outer loop
vertex 11.0811679965148 -2.72169630295689 1.20000000000002
vertex 10.9989400515897 2.1207815078968 1.20000000000002
vertex 11.4989229499092 2.80678116005804 1.20000000000002
endloop
endfacet
facet normal 0.0 0.0 -1.0
outer loop
vertex 11.0811679965148 -2.72169630295689 1.20000000000002
vertex 11.4989229499092 2.80678116005804 1.20000000000002
vertex 11.4430862379742 1.79094394792448 1.20000000000003
endloop
endfacet
facet normal 0.0 0.0 -1.0
outer loop
vertex 11.4430862379742 1.79094394792448 1.20000000000003
vertex 11.4989229499092 2.80678116005804 1.20000000000002
vertex 14.9504891233011 3.81594394792449 1.20000000000007
endloop
endfacet
facet normal 0.0 0.0 -1.0
outer loop
vertex 14.9504891233011 3.81594394792449 1.20000000000007
vertex 11.4989229499092 2.80678116005804 1.20000000000002
vertex 12.1164447945662 3.38922874804231 1.20000000000002
endloop
endfacet
facet normal 0.0 0.0 -1.0
outer loop
vertex 14.9504891233011 3.81594394792449 1.20000000000007
vertex 12.1164447945662 3.38922874804231 1.20000000000002
vertex 12.8304766197767 3.84828971780971 1.20000000000002
endloop
endfacet
facet normal 0.0 0.0 -1.0
outer loop
vertex 14.9504891233011 3.81594394792449 1.20000000000007
vertex 12.8304766197767 3.84828971780971 1.20000000000002
vertex 13.6167029281201 4.16833129861774 1.20000000000002
endloop
endfacet
facet normal 0.0 0.0 -1.0
outer loop
vertex 14.9504891233011 3.81594394792449 1.20000000000007
vertex 13.6167029281201 4.16833129861774 1.20000000000002
vertex 14.44834972564 4.33845485827956 1.20000000000002
endloop
endfacet
facet normal 0.0 0.0 -1.0
outer loop
vertex 14.9504891233011 3.81594394792449 1.20000000000007
vertex 14.44834972564 4.33845485827956 1.20000000000002
vertex 15.2970962780976 4.3528670430116 1.20000000000002
endloop
endfacet
facet normal 0.0 0.0 -1.0
outer loop
vertex 14.9504891233011 3.81594394792449 1.20000000000007
vertex 15.2970962780976 4.3528670430116 1.20000000000002
vertex 18.4578920086281 1.79094394792449 1.20000000000003
endloop
endfacet
facet normal 0.0 0.0 -1.0
outer loop
vertex 18.4578920086281 1.79094394792449 1.20000000000003
vertex 15.2970962780976 4.3528670430116 1.20000000000002
vertex 16.134039539608 4.21107706314833 1.20000000000002
endloop
endfacet
facet normal 0.0 0.0 -1.0
outer loop
vertex 18.4578920086281 1.79094394792449 1.20000000000003
vertex 16.134039539608 4.21107706314833 1.20000000000002
vertex 16.9306784112033 3.91791340639565 1.20000000000002
endloop
endfacet
facet normal 0.0 0.0 -1.0
outer loop
vertex 18.4578920086281 1.79094394792449 1.20000000000003
vertex 16.9306784112033 3.91791340639565 1.20000000000002
vertex 17.6598843115744 3.48335940947321 1.20000000000002
endloop
endfacet
facet normal 0.0 0.0 -1.0
outer loop
vertex 18.4578920086281 1.79094394792449 1.20000000000003
vertex 17.6598843115744 3.48335940947321 1.20000000000002
vertex 18.2968250083702 2.92221328755616 1.20000000000002
endloop
endfacet
facet normal 0.0 0.0 -1.0
outer loop
vertex 18.4578920086281 1.79094394792449 1.20000000000003
vertex 18.2968250083702 2.92221328755616 1.20000000000002
vertex 18.8198102500875 2.25358419880577 1.20000000000002
endloop
endfacet
facet normal 0.0 0.0 -1.0
outer loop
vertex 18.4578920086281 1.79094394792449 1.20000000000003
vertex 18.8198102500875 2.25358419880577 1.20000000000002
vertex 18.4578920086281 -0.234056052075512 1.2
endloop
endfacet
facet normal 0.0 0.0 -1.0
outer loop
vertex 18.4578920086281 -0.234056052075512 1.2
vertex 18.8198102500875 2.25358419880577 1.20000000000002
vertex 18.4578920086281 -2.25905605207551 1.19999999999997
endloop
endfacet
facet normal 0.0 0.0 -1.0
outer loop
vertex 11.0811679965148 -2.72169630295689 1.20000000000002
vertex 11.4430862379742 -2.25905605207551 1.19999999999997
vertex 11.6041532382321 -3.39032539170728 1.20000000000002
endloop
endfacet
facet normal 0.0 0.0 -1.0
outer loop
vertex 11.4430862379742 -2.25905605207551 1.19999999999997
vertex 11.0811679965148 -2.72169630295689 1.20000000000002
vertex 11.4430862379742 1.79094394792448 1.20000000000003
endloop
endfacet
facet normal 0.0 0.0 -1.0
outer loop
vertex 11.4430862379742 -2.25905605207551 1.19999999999997
vertex 11.4430862379742 1.79094394792448 1.20000000000003
vertex 11.4430862379742 -0.234056052075512 1.2
endloop
endfacet
facet normal 0.0 0.0 -1.0
outer loop
vertex 11.6041532382321 -3.39032539170728 1.20000000000002
vertex 11.4430862379742 -2.25905605207551 1.19999999999997
vertex 14.9504891233011 -4.28405605207551 1.19999999999994
endloop
endfacet
facet normal 0.0 0.0 -1.0
outer loop
vertex 11.6041532382321 -3.39032539170728 1.20000000000002
vertex 14.9504891233011 -4.28405605207551 1.19999999999994
vertex 12.2410939350279 -3.95147151362433 1.20000000000002
endloop
endfacet
facet normal 0.0 0.0 -1.0
outer loop
vertex 12.2410939350279 -3.95147151362433 1.20000000000002
vertex 14.9504891233011 -4.28405605207551 1.19999999999994
vertex 12.970299835399 -4.38602551054676 1.20000000000002
endloop
endfacet
facet normal 0.0 0.0 -1.0
outer loop
vertex 12.970299835399 -4.38602551054676 1.20000000000002
vertex 14.9504891233011 -4.28405605207551 1.19999999999994
vertex 13.7669387069943 -4.67918916729944 1.20000000000002
endloop
endfacet
facet normal 0.0 0.0 -1.0
outer loop
vertex 13.7669387069943 -4.67918916729944 1.20000000000002
vertex 14.9504891233011 -4.28405605207551 1.19999999999994
vertex 14.6038819685047 -4.82097914716271 1.20000000000002
endloop
endfacet
facet normal 0.0 0.0 -1.0
outer loop
vertex 14.6038819685047 -4.82097914716271 1.20000000000002
vertex 14.9504891233011 -4.28405605207551 1.19999999999994
vertex 15.4526285209623 -4.80656696243067 1.20000000000002
endloop
endfacet
facet normal 0.0 0.0 -1.0
outer loop
vertex 15.4526285209623 -4.80656696243067 1.20000000000002
vertex 14.9504891233011 -4.28405605207551 1.19999999999994
vertex 18.4578920086281 -2.25905605207551 1.19999999999997
endloop
endfacet
facet normal 0.0 0.0 -1.0
outer loop
vertex 15.4526285209623 -4.80656696243067 1.20000000000002
vertex 18.4578920086281 -2.25905605207551 1.19999999999997
vertex 16.2842753184823 -4.63644340276885 1.20000000000002
endloop
endfacet
facet normal 0.0 0.0 -1.0
outer loop
vertex 16.2842753184823 -4.63644340276885 1.20000000000002
vertex 18.4578920086281 -2.25905605207551 1.19999999999997
vertex 17.0705016268256 -4.31640182196082 1.20000000000002
endloop
endfacet
facet normal 0.0 0.0 -1.0
outer loop
vertex 17.0705016268256 -4.31640182196082 1.20000000000002
vertex 18.4578920086281 -2.25905605207551 1.19999999999997
vertex 17.7845334520361 -3.85734085219343 1.20000000000002
endloop
endfacet
facet normal 0.0 0.0 -1.0
outer loop
vertex 17.7845334520361 -3.85734085219343 1.20000000000002
vertex 18.4578920086281 -2.25905605207551 1.19999999999997
vertex 18.4020552966931 -3.27489326420915 1.20000000000002
endloop
endfacet
facet normal 0.0 0.0 -1.0
outer loop
vertex 18.4020552966931 -3.27489326420915 1.20000000000002
vertex 18.4578920086281 -2.25905605207551 1.19999999999997
vertex 18.9020381950126 -2.58889361204791 1.20000000000002
endloop
endfacet
facet normal 0.0 0.0 -1.0
outer loop
vertex 18.9020381950126 -2.58889361204791 1.20000000000002
vertex 18.4578920086281 -2.25905605207551 1.19999999999997
vertex 18.8198102500875 2.25358419880577 1.20000000000002
endloop
endfacet
facet normal 0.0 0.0 -1.0
outer loop
vertex 18.9020381950126 -2.58889361204791 1.20000000000002
vertex 18.8198102500875 2.25358419880577 1.20000000000002
vertex 19.2110304015713 1.50024150490725 1.20000000000002
endloop
endfacet
facet normal 0.0 0.0 -1.0
outer loop
vertex 18.9020381950126 -2.58889361204791 1.20000000000002
vertex 19.2110304015713 1.50024150490725 1.20000000000002
vertex 19.2674558290556 -1.82270279109817 1.20000000000002
endloop
endfacet
facet normal 0.0 0.0 -1.0
outer loop
vertex 19.2674558290556 -1.82270279109817 1.20000000000002
vertex 19.2110304015713 1.50024150490725 1.20000000000002
vertex 19.4571629297796 0.68783938776632 1.20000000000002
endloop
endfacet
facet normal 0.0 0.0 -1.0
outer loop
vertex 19.2674558290556 -1.82270279109817 1.20000000000002
vertex 19.4571629297796 0.68783938776632 1.20000000000002
vertex 19.4858643395651 -1.00241251082276 1.20000000000002
endloop
endfacet
facet normal 0.0 0.0 -1.0
outer loop
vertex 19.4858643395651 -1.00241251082276 1.20000000000002
vertex 19.4571629297796 0.68783938776632 1.20000000000002
vertex 19.5498260866677 -0.155956772886711 1.20000000000002
endloop
endfacet
facet normal 0.938471022990108 -0.345357986744045 0.0
outer loop
vertex 10.6335224175467 1.35459068694705 0.0
vertex 10.4151139070372 0.534300406671643 1.20000000000002
vertex 10.4151139070372 0.534300406671643 0.0
endloop
endfacet
facet normal 0.985951133970429 -0.167034012771131 0.0
outer loop
vertex 10.4151139070372 0.534300406671643 1.20000000000002
vertex 10.6335224175467 1.35459068694705 0.0
vertex 10.6335224175467 1.35459068694705 1.20000000000002
endloop
endfacet
facet normal 0.859032406893789 -0.511921208689642 0.0
outer loop
vertex 10.9989400515897 2.1207815078968 0.0
vertex 10.6335224175467 1.35459068694705 1.20000000000002
vertex 10.6335224175467 1.35459068694705 0.0
endloop
endfacet
facet normal 0.938471022990108 -0.345357986744045 0.0
outer loop
vertex 10.6335224175467 1.35459068694705 1.20000000000002
vertex 10.9989400515897 2.1207815078968 0.0
vertex 10.9989400515897 2.1207815078968 1.20000000000002
endloop
endfacet
facet normal 0.750340472476512 -0.661051567855129 0.0
outer loop
vertex 11.4989229499092 2.80678116005804 0.0
vertex 10.9989400515897 2.1207815078968 1.20000000000002
vertex 10.9989400515897 2.1207815078968 0.0
endloop
endfacet
facet normal 0.859032406893789 -0.511921208689642 0.0
outer loop
vertex 10.9989400515897 2.1207815078968 1.20000000000002
vertex 11.4989229499092 2.80678116005804 0.0
vertex 11.4989229499092 2.80678116005804 1.20000000000002
endloop
endfacet
facet normal 0.616096593203253 -0.787670608721276 0.0
outer loop
vertex 12.1164447945662 3.38922874804231 1.20000000000002
vertex 11.4989229499092 2.80678116005804 0.0
vertex 12.1164447945662 3.38922874804231 0.0
endloop
endfacet
facet normal 0.750340472476512 -0.661051567855129 0.0
outer loop
vertex 11.4989229499092 2.80678116005804 0.0
vertex 12.1164447945662 3.38922874804231 1.20000000000002
vertex 11.4989229499092 2.80678116005804 1.20000000000002
endloop
endfacet
facet normal 0.460872283374875 -0.887466471714188 0.0
outer loop
vertex 12.8304766197767 3.84828971780971 1.20000000000002
vertex 12.1164447945662 3.38922874804231 0.0
vertex 12.8304766197767 3.84828971780971 0.0
endloop
endfacet
facet normal 0.616096593203253 -0.787670608721276 0.0
outer loop
vertex 12.1164447945662 3.38922874804231 0.0
vertex 12.8304766197767 3.84828971780971 1.20000000000002
vertex 12.1164447945662 3.38922874804231 1.20000000000002
endloop
endfacet
facet normal 0.289953520691543 -0.957040728411586 0.0
outer loop
vertex 13.6167029281201 4.16833129861774 1.20000000000002
vertex 12.8304766197767 3.84828971780971 0.0
vertex 13.6167029281201 4.16833129861774 0.0
endloop
endfacet
facet normal 0.460872283374875 -0.887466471714188 0.0
outer loop
vertex 12.8304766197767 3.84828971780971 0.0
vertex 13.6167029281201 4.16833129861774 1.20000000000002
vertex 12.8304766197767 3.84828971780971 1.20000000000002
endloop
endfacet
facet normal 0.109160738621979 -0.994024110946764 0.0
outer loop
vertex 14.44834972564 4.33845485827956 1.20000000000002
vertex 13.6167029281201 4.16833129861774 0.0
vertex 14.44834972564 4.33845485827956 0.0
endloop
endfacet
facet normal 0.289953520691543 -0.957040728411586 0.0
outer loop
vertex 13.6167029281201 4.16833129861774 0.0
vertex 14.44834972564 4.33845485827956 1.20000000000002
vertex 13.6167029281201 4.16833129861774 1.20000000000002
endloop
endfacet
facet normal -0.0753493814774822 -0.997157194584164 0.0
outer loop
vertex 15.2970962780976 4.3528670430116 1.20000000000002
vertex 14.44834972564 4.33845485827956 0.0
vertex 15.2970962780976 4.3528670430116 0.0
endloop
endfacet
facet normal 0.109160738621979 -0.994024110946764 0.0
outer loop
vertex 14.44834972564 4.33845485827956 0.0
vertex 15.2970962780976 4.3528670430116 1.20000000000002
vertex 14.44834972564 4.33845485827956 1.20000000000002
endloop
endfacet
facet normal -0.25729356876235 -0.966333285918235 0.0
outer loop
vertex 16.134039539608 4.21107706314833 1.20000000000002
vertex 15.2970962780976 4.3528670430116 0.0
vertex 16.134039539608 4.21107706314833 0.0
endloop
endfacet
facet normal -0.0753493814774822 -0.997157194584164 0.0
outer loop
vertex 15.2970962780976 4.3528670430116 0.0
vertex 16.134039539608 4.21107706314833 1.20000000000002
vertex 15.2970962780976 4.3528670430116 1.20000000000002
endloop
endfacet
facet normal -0.430475932152638 -0.902602056189391 0.0
outer loop
vertex 16.9306784112033 3.91791340639565 1.20000000000002
vertex 16.134039539608 4.21107706314833 0.0
vertex 16.9306784112033 3.91791340639565 0.0
endloop
endfacet
facet normal -0.25729356876235 -0.966333285918235 0.0
outer loop
vertex 16.134039539608 4.21107706314833 0.0
vertex 16.9306784112033 3.91791340639565 1.20000000000002
vertex 16.134039539608 4.21107706314833 1.20000000000002
endloop
endfacet
facet normal -0.588998953972441 -0.808133795988864 0.0
outer loop
vertex 17.6598843115744 3.48335940947321 1.20000000000002
vertex 16.9306784112033 3.91791340639565 0.0
vertex 17.6598843115744 3.48335940947321 0.0
endloop
endfacet
facet normal -0.430475932152638 -0.902602056189391 0.0
outer loop
vertex 16.9306784112033 3.91791340639565 0.0
vertex 17.6598843115744 3.48335940947321 1.20000000000002
vertex 16.9306784112033 3.91791340639565 1.20000000000002
endloop
endfacet
facet normal -0.727464322841095 -0.686145508615591 0.0
outer loop
vertex 18.2968250083702 2.92221328755616 1.20000000000002
vertex 17.6598843115744 3.48335940947321 0.0
vertex 18.2968250083702 2.92221328755616 0.0
endloop
endfacet
facet normal -0.588998953972441 -0.808133795988864 0.0
outer loop
vertex 17.6598843115744 3.48335940947321 0.0
vertex 18.2968250083702 2.92221328755616 1.20000000000002
vertex 17.6598843115744 3.48335940947321 1.20000000000002
endloop
endfacet
facet normal -0.727464322841095 -0.686145508615591 0.0
outer loop
vertex 18.2968250083702 2.92221328755616 1.20000000000002
vertex 18.8198102500875 2.25358419880577 0.0
vertex 18.8198102500875 2.25358419880577 1.20000000000002
endloop
endfacet
facet normal -0.841156766692681 -0.540791358887246 0.0
outer loop
vertex 18.8198102500875 2.25358419880577 0.0
vertex 18.2968250083702 2.92221328755616 1.20000000000002
vertex 18.2968250083702 2.92221328755616 0.0
endloop
endfacet
facet normal -0.841156766692681 -0.540791358887246 0.0
outer loop
vertex 18.8198102500875 2.25358419880577 1.20000000000002
vertex 19.2110304015713 1.50024150490725 0.0
vertex 19.2110304015713 1.50024150490725 1.20000000000002
endloop
endfacet
facet normal -0.926204625710893 -0.377021208039741 0.0
outer loop
vertex 19.2110304015713 1.50024150490725 0.0
vertex 18.8198102500875 2.25358419880577 1.20000000000002
vertex 18.8198102500875 2.25358419880577 0.0
endloop
endfacet
facet normal -0.926204625710893 -0.377021208039741 0.0
outer loop
vertex 19.2110304015713 1.50024150490725 1.20000000000002
vertex 19.4571629297796 0.68783938776632 0.0
vertex 19.4571629297796 0.68783938776632 1.20000000000002
endloop
endfacet
facet normal -0.979711697060528 -0.200412052139538 0.0
outer loop
vertex 19.4571629297796 0.68783938776632 0.0
vertex 19.2110304015713 1.50024150490725 1.20000000000002
vertex 19.2110304015713 1.50024150490725 0.0
endloop
endfacet
facet normal -0.979711697060528 -0.200412052139538 0.0
outer loop
vertex 19.4571629297796 0.68783938776632 1.20000000000002
vertex 19.5498260866677 -0.155956772886711 0.0
vertex 19.5498260866677 -0.155956772886711 1.20000000000002
endloop
endfacet
facet normal -0.999855861601432 -0.0169781041714876 0.0
outer loop
vertex 19.5498260866677 -0.155956772886711 0.0
vertex 19.4571629297796 0.68783938776632 1.20000000000002
vertex 19.4571629297796 0.68783938776632 0.0
endloop
endfacet
facet normal -0.999855861601432 -0.0169781041714876 0.0
outer loop
vertex 19.5498260866677 -0.155956772886711 1.20000000000002
vertex 19.4858643395651 -1.00241251082276 0.0
vertex 19.4858643395651 -1.00241251082276 1.20000000000002
endloop
endfacet
facet normal -0.985951133970429 0.167034012771131 0.0
outer loop
vertex 19.4858643395651 -1.00241251082276 0.0
vertex 19.5498260866677 -0.155956772886711 1.20000000000002
vertex 19.5498260866677 -0.155956772886711 0.0
endloop
endfacet
facet normal -0.985951133970429 0.167034012771131 0.0
outer loop
vertex 19.4858643395651 -1.00241251082276 1.20000000000002
vertex 19.2674558290556 -1.82270279109817 0.0
vertex 19.2674558290556 -1.82270279109817 1.20000000000002
endloop
endfacet
facet normal -0.938471022990108 0.345357986744045 0.0
outer loop
vertex 19.2674558290556 -1.82270279109817 0.0
vertex 19.4858643395651 -1.00241251082276 1.20000000000002
vertex 19.4858643395651 -1.00241251082276 0.0
endloop
endfacet
facet normal -0.938471022990108 0.345357986744045 0.0
outer loop
vertex 19.2674558290556 -1.82270279109817 1.20000000000002
vertex 18.9020381950126 -2.58889361204791 0.0
vertex 18.9020381950126 -2.58889361204791 1.20000000000002
endloop
endfacet
facet normal -0.859032406893788 0.511921208689643 0.0
outer loop
vertex 18.9020381950126 -2.58889361204791 0.0
vertex 19.2674558290556 -1.82270279109817 1.20000000000002
vertex 19.2674558290556 -1.82270279109817 0.0
endloop
endfacet
facet normal -0.859032406893788 0.511921208689643 0.0
outer loop
vertex 18.9020381950126 -2.58889361204791 1.20000000000002
vertex 18.4020552966931 -3.27489326420915 0.0
vertex 18.4020552966931 -3.27489326420915 1.20000000000002
endloop
endfacet
facet normal -0.750340472476513 0.661051567855129 0.0
outer loop
vertex 18.4020552966931 -3.27489326420915 0.0
vertex 18.9020381950126 -2.58889361204791 1.20000000000002
vertex 18.9020381950126 -2.58889361204791 0.0
endloop
endfacet
facet normal -0.616096593203253 0.787670608721276 0.0
outer loop
vertex 17.7845334520361 -3.85734085219343 1.20000000000002
vertex 18.4020552966931 -3.27489326420915 0.0
vertex 17.7845334520361 -3.85734085219343 0.0
endloop
endfacet
facet normal -0.750340472476513 0.661051567855129 0.0
outer loop
vertex 18.4020552966931 -3.27489326420915 0.0
vertex 17.7845334520361 -3.85734085219343 1.20000000000002
vertex 18.4020552966931 -3.27489326420915 1.20000000000002
endloop
endfacet
facet normal -0.460872283374875 0.887466471714188 0.0
outer loop
vertex 17.0705016268256 -4.31640182196082 1.20000000000002
vertex 17.7845334520361 -3.85734085219343 0.0
vertex 17.0705016268256 -4.31640182196082 0.0
endloop
endfacet
facet normal -0.616096593203253 0.787670608721276 0.0
outer loop
vertex 17.7845334520361 -3.85734085219343 0.0
vertex 17.0705016268256 -4.31640182196082 1.20000000000002
vertex 17.7845334520361 -3.85734085219343 1.20000000000002
endloop
endfacet
facet normal -0.289953520691543 0.957040728411586 0.0
outer loop
vertex 16.2842753184823 -4.63644340276885 1.20000000000002
vertex 17.0705016268256 -4.31640182196082 0.0
vertex 16.2842753184823 -4.63644340276885 0.0
endloop
endfacet
facet normal -0.460872283374875 0.887466471714188 0.0
outer loop
vertex 17.0705016268256 -4.31640182196082 0.0
vertex 16.2842753184823 -4.63644340276885 1.20000000000002
vertex 17.0705016268256 -4.31640182196082 1.20000000000002
endloop
endfacet
facet normal -0.109160738621979 0.994024110946764 0.0
outer loop
vertex 15.4526285209623 -4.80656696243067 1.20000000000002
vertex 16.2842753184823 -4.63644340276885 0.0
vertex 15.4526285209623 -4.80656696243067 0.0
endloop
endfacet
facet normal -0.289953520691543 0.957040728411586 0.0
outer loop
vertex 16.2842753184823 -4.63644340276885 0.0
vertex 15.4526285209623 -4.80656696243067 1.20000000000002
vertex 16.2842753184823 -4.63644340276885 1.20000000000002
endloop
endfacet
facet normal 0.0753493814774823 0.997157194584164 0.0
outer loop
vertex 14.6038819685047 -4.82097914716271 1.20000000000002
vertex 15.4526285209623 -4.80656696243067 0.0
vertex 14.6038819685047 -4.82097914716271 0.0
endloop
endfacet
facet normal -0.109160738621979 0.994024110946764 0.0
outer loop
vertex 15.4526285209623 -4.80656696243067 0.0
vertex 14.6038819685047 -4.82097914716271 1.20000000000002
vertex 15.4526285209623 -4.80656696243067 1.20000000000002
endloop
endfacet
facet normal 0.25729356876235 0.966333285918235 0.0
outer loop
vertex 13.7669387069943 -4.67918916729944 1.20000000000002
vertex 14.6038819685047 -4.82097914716271 0.0
vertex 13.7669387069943 -4.67918916729944 0.0
endloop
endfacet
facet normal 0.0753493814774823 0.997157194584164 0.0
outer loop
vertex 14.6038819685047 -4.82097914716271 0.0
vertex 13.7669387069943 -4.67918916729944 1.20000000000002
vertex 14.6038819685047 -4.82097914716271 1.20000000000002
endloop
endfacet
facet normal 0.430475932152638 0.902602056189391 0.0
outer loop
vertex 12.970299835399 -4.38602551054676 1.20000000000002
vertex 13.7669387069943 -4.67918916729944 0.0
vertex 12.970299835399 -4.38602551054676 0.0
endloop
endfacet
facet normal 0.25729356876235 0.966333285918235 0.0
outer loop
vertex 13.7669387069943 -4.67918916729944 0.0
vertex 12.970299835399 -4.38602551054676 1.20000000000002
vertex 13.7669387069943 -4.67918916729944 1.20000000000002
endloop
endfacet
facet normal 0.588998953972441 0.808133795988864 0.0
outer loop
vertex 12.2410939350279 -3.95147151362433 1.20000000000002
vertex 12.970299835399 -4.38602551054676 0.0
vertex 12.2410939350279 -3.95147151362433 0.0
endloop
endfacet
facet normal 0.430475932152638 0.902602056189391 0.0
outer loop
vertex 12.970299835399 -4.38602551054676 0.0
vertex 12.2410939350279 -3.95147151362433 1.20000000000002
vertex 12.970299835399 -4.38602551054676 1.20000000000002
endloop
endfacet
facet normal 0.727464322841095 0.686145508615591 0.0
outer loop
vertex 11.6041532382321 -3.39032539170728 1.20000000000002
vertex 12.2410939350279 -3.95147151362433 0.0
vertex 11.6041532382321 -3.39032539170728 0.0
endloop
endfacet
facet normal 0.588998953972441 0.808133795988864 0.0
outer loop
vertex 12.2410939350279 -3.95147151362433 0.0
vertex 11.6041532382321 -3.39032539170728 1.20000000000002
vertex 12.2410939350279 -3.95147151362433 1.20000000000002
endloop
endfacet
facet normal 0.841156766692682 0.540791358887246 0.0
outer loop
vertex 11.0811679965148 -2.72169630295689 0.0
vertex 11.6041532382321 -3.39032539170728 1.20000000000002
vertex 11.6041532382321 -3.39032539170728 0.0
endloop
endfacet
facet normal 0.727464322841095 0.686145508615591 0.0
outer loop
vertex 11.6041532382321 -3.39032539170728 1.20000000000002
vertex 11.0811679965148 -2.72169630295689 0.0
vertex 11.0811679965148 -2.72169630295689 1.20000000000002
endloop
endfacet
facet normal 0.926204625710893 0.37702120803974 0.0
outer loop
vertex 10.689947845031 -1.96835360905836 0.0
vertex 11.0811679965148 -2.72169630295689 1.20000000000002
vertex 11.0811679965148 -2.72169630295689 0.0
endloop
endfacet
facet normal 0.841156766692682 0.540791358887246 0.0
outer loop
vertex 11.0811679965148 -2.72169630295689 1.20000000000002
vertex 10.689947845031 -1.96835360905836 0.0
vertex 10.689947845031 -1.96835360905836 1.20000000000002
endloop
endfacet
facet normal 0.979711697060528 0.200412052139538 0.0
outer loop
vertex 10.4438153168227 -1.15595149191743 0.0
vertex 10.689947845031 -1.96835360905836 1.20000000000002
vertex 10.689947845031 -1.96835360905836 0.0
endloop
endfacet
facet normal 0.926204625710893 0.37702120803974 0.0
outer loop
vertex 10.689947845031 -1.96835360905836 1.20000000000002
vertex 10.4438153168227 -1.15595149191743 0.0
vertex 10.4438153168227 -1.15595149191743 1.20000000000002
endloop
endfacet
facet normal 0.999855861601432 0.0169781041714876 0.0
outer loop
vertex 10.3511521599346 -0.312155331264404 0.0
vertex 10.4438153168227 -1.15595149191743 1.20000000000002
vertex 10.4438153168227 -1.15595149191743 0.0
endloop
endfacet
facet normal 0.979711697060528 0.200412052139538 0.0
outer loop
vertex 10.4438153168227 -1.15595149191743 1.20000000000002
vertex 10.3511521599346 -0.312155331264404 0.0
vertex 10.3511521599346 -0.312155331264404 1.20000000000002
endloop
endfacet
facet normal 0.985951133970429 -0.167034012771131 0.0
outer loop
vertex 10.4151139070372 0.534300406671643 0.0
vertex 10.3511521599346 -0.312155331264404 1.20000000000002
vertex 10.3511521599346 -0.312155331264404 0.0
endloop
endfacet
facet normal 0.999855861601432 0.0169781041714876 0.0
outer loop
vertex 10.3511521599346 -0.312155331264404 1.20000000000002
vertex 10.4151139070372 0.534300406671643 0.0
vertex 10.4151139070372 0.534300406671643 1.20000000000002
endloop
endfacet
endsolid model
