solid OpenSCAD_Model
  facet normal -2.22045e-16 0 -1
    outer loop
      vertex -1 -3.7074 1.62339e-15
      vertex 1 -3.7074 1.1793e-15
      vertex -1 -4.4074 1.62339e-15
    endloop
  endfacet
  facet normal -2.22045e-16 0 -1
    outer loop
      vertex -1 -4.4074 1.62339e-15
      vertex 1 -3.7074 1.1793e-15
      vertex 1 -4.4074 1.1793e-15
    endloop
  endfacet
  facet normal 0 -1 0
    outer loop
      vertex 1 -4.4074 1.40472
      vertex -1 -4.4074 1.40472
      vertex -1 -4.4074 1.62339e-15
    endloop
  endfacet
  facet normal 0 -1 0
    outer loop
      vertex 1 -4.4074 1.1793e-15
      vertex 1 -4.4074 1.40472
      vertex -1 -4.4074 1.62339e-15
    endloop
  endfacet
  facet normal 1 0 -2.22045e-16
    outer loop
      vertex 1 -3.7074 1.1793e-15
      vertex 1 -3.7074 0.773344
      vertex 1 -4.4074 1.40472
    endloop
  endfacet
  facet normal 1 0 -2.22045e-16
    outer loop
      vertex 1 -4.4074 1.1793e-15
      vertex 1 -3.7074 1.1793e-15
      vertex 1 -4.4074 1.40472
    endloop
  endfacet
  facet normal -1 0 2.22045e-16
    outer loop
      vertex -1 -3.7074 0.773344
      vertex -1 -3.7074 1.62339e-15
      vertex -1 -4.4074 1.40472
    endloop
  endfacet
  facet normal -1 0 2.22045e-16
    outer loop
      vertex -1 -4.4074 1.40472
      vertex -1 -3.7074 1.62339e-15
      vertex -1 -4.4074 1.62339e-15
    endloop
  endfacet
  facet normal 0 1 0
    outer loop
      vertex -1 -3.7074 0.773344
      vertex 1 -3.7074 0.773344
      vertex -1 -3.7074 1.62339e-15
    endloop
  endfacet
  facet normal 0 1 0
    outer loop
      vertex -1 -3.7074 1.62339e-15
      vertex 1 -3.7074 0.773344
      vertex 1 -3.7074 1.1793e-15
    endloop
  endfacet
  facet normal -1.64884e-16 -0.669769 -0.74257
    outer loop
      vertex 6.23152 -2.85 1.76706e-17
      vertex 6.0929 -3.548 0.629569
      vertex 2.56195 -2.85 8.32479e-16
    endloop
  endfacet
  facet normal -1.64884e-16 -0.669769 -0.74257
    outer loop
      vertex 2.56195 -2.85 8.32479e-16
      vertex 6.0929 -3.548 0.629569
      vertex 5.4419 -4.521 1.50718
    endloop
  endfacet
  facet normal -1.64884e-16 -0.669769 -0.74257
    outer loop
      vertex 2.56195 -2.85 8.32479e-16
      vertex 5.4419 -4.521 1.50718
      vertex 4.4689 -5.172 2.09435
    endloop
  endfacet
  facet normal -1.64884e-16 -0.669769 -0.74257
    outer loop
      vertex 2.56195 -2.85 8.32479e-16
      vertex 4.4689 -5.172 2.09435
      vertex 3.3209 -5.4 2.3
    endloop
  endfacet
  facet normal -1.64884e-16 -0.669769 -0.74257
    outer loop
      vertex 1 -4.4074 1.40472
      vertex 3.3209 -5.4 2.3
      vertex -3.3211 -5.4 2.3
    endloop
  endfacet
  facet normal -1.64884e-16 -0.669769 -0.74257
    outer loop
      vertex -1 -3.7074 0.773344
      vertex -4.4691 -5.172 2.09435
      vertex -5.4421 -4.521 1.50718
    endloop
  endfacet
  facet normal -1.64884e-16 -0.669769 -0.74257
    outer loop
      vertex -2.1037 -3.64372 0.715903
      vertex -5.4421 -4.521 1.50718
      vertex -6.0931 -3.548 0.629569
    endloop
  endfacet
  facet normal -1.64884e-16 -0.669769 -0.74257
    outer loop
      vertex -2.56195 -2.85 1.97021e-15
      vertex -6.0931 -3.548 0.629569
      vertex -6.23173 -2.85 2.78507e-15
    endloop
  endfacet
  facet normal -1.64884e-16 -0.669769 -0.74257
    outer loop
      vertex 1 -4.4074 1.40472
      vertex -3.3211 -5.4 2.3
      vertex -1 -4.4074 1.40472
    endloop
  endfacet
  facet normal -1.64884e-16 -0.669769 -0.74257
    outer loop
      vertex -1 -4.4074 1.40472
      vertex -3.3211 -5.4 2.3
      vertex -4.4691 -5.172 2.09435
    endloop
  endfacet
  facet normal -1.64884e-16 -0.669769 -0.74257
    outer loop
      vertex 2.56195 -2.85 8.32479e-16
      vertex 3.3209 -5.4 2.3
      vertex 2.1037 -3.64372 0.715903
    endloop
  endfacet
  facet normal -1.64884e-16 -0.669769 -0.74257
    outer loop
      vertex -1 -4.4074 1.40472
      vertex -4.4691 -5.172 2.09435
      vertex -1 -3.7074 0.773344
    endloop
  endfacet
  facet normal -1.64884e-16 -0.669769 -0.74257
    outer loop
      vertex 1 -3.7074 0.773344
      vertex 2.1037 -3.64372 0.715903
      vertex 1 -4.4074 1.40472
    endloop
  endfacet
  facet normal -1.64884e-16 -0.669769 -0.74257
    outer loop
      vertex 2.1037 -3.64372 0.715903
      vertex 3.3209 -5.4 2.3
      vertex 1 -4.4074 1.40472
    endloop
  endfacet
  facet normal -1.64884e-16 -0.669769 -0.74257
    outer loop
      vertex -2.1037 -3.64372 0.715903
      vertex -6.0931 -3.548 0.629569
      vertex -2.56195 -2.85 1.97021e-15
    endloop
  endfacet
  facet normal -1.64884e-16 -0.669769 -0.74257
    outer loop
      vertex 2.1037 -3.64372 0.715903
      vertex 1 -3.7074 0.773344
      vertex -1 -3.7074 0.773344
    endloop
  endfacet
  facet normal -1.64884e-16 -0.669769 -0.74257
    outer loop
      vertex -1 -3.7074 0.773344
      vertex -5.4421 -4.521 1.50718
      vertex -2.1037 -3.64372 0.715903
    endloop
  endfacet
  facet normal -1.64884e-16 -0.669769 -0.74257
    outer loop
      vertex 2.1037 -3.64372 0.715903
      vertex -1 -3.7074 0.773344
      vertex -2.1037 -3.64372 0.715903
    endloop
  endfacet
  facet normal -2.22045e-16 0 -1
    outer loop
      vertex 6.23152 -2.85 1.76706e-17
      vertex 2.56195 -2.85 8.32479e-16
      vertex 6.3111 -2.4493 0
    endloop
  endfacet
  facet normal -2.22045e-16 0 -1
    outer loop
      vertex 6.3111 -2.4493 0
      vertex 2.56195 -2.85 8.32479e-16
      vertex 4.2074 0 4.67116e-16
    endloop
  endfacet
  facet normal -2.22045e-16 0 -1
    outer loop
      vertex 6.3111 -2.4493 0
      vertex 4.2074 0 4.67116e-16
      vertex 2.56195 2.85 8.32479e-16
    endloop
  endfacet
  facet normal -2.22045e-16 0 -1
    outer loop
      vertex 6.3111 -2.4493 0
      vertex 2.56195 2.85 8.32479e-16
      vertex 6.23152 2.85 1.76706e-17
    endloop
  endfacet
  facet normal -2.22045e-16 0 -1
    outer loop
      vertex 6.3111 -2.4493 0
      vertex 6.23152 2.85 1.76706e-17
      vertex 6.3111 2.4493 0
    endloop
  endfacet
  facet normal -0.866025 0.5 0
    outer loop
      vertex 2.1037 -3.64372 2.55
      vertex 4.2074 0 2.55
      vertex 2.1037 -3.64372 0.715903
    endloop
  endfacet
  facet normal -0.866025 0.5 0
    outer loop
      vertex 2.1037 -3.64372 0.715903
      vertex 4.2074 0 2.55
      vertex 4.2074 0 4.67116e-16
    endloop
  endfacet
  facet normal -0.866025 0.5 0
    outer loop
      vertex 2.1037 -3.64372 0.715903
      vertex 4.2074 0 4.67116e-16
      vertex 2.56195 -2.85 8.32479e-16
    endloop
  endfacet
  facet normal 0 1 0
    outer loop
      vertex -2.1037 -3.64372 2.55
      vertex 2.1037 -3.64372 2.55
      vertex -2.1037 -3.64372 0.715903
    endloop
  endfacet
  facet normal 0 1 0
    outer loop
      vertex -2.1037 -3.64372 0.715903
      vertex 2.1037 -3.64372 2.55
      vertex 2.1037 -3.64372 0.715903
    endloop
  endfacet
  facet normal 0.866025 0.5 0
    outer loop
      vertex -4.2074 0 2.33558e-15
      vertex -4.2074 0 2.55
      vertex -2.1037 -3.64372 2.55
    endloop
  endfacet
  facet normal 0.866025 0.5 0
    outer loop
      vertex -2.56195 -2.85 1.97021e-15
      vertex -4.2074 0 2.33558e-15
      vertex -2.1037 -3.64372 0.715903
    endloop
  endfacet
  facet normal 0.866025 0.5 0
    outer loop
      vertex -2.1037 -3.64372 0.715903
      vertex -4.2074 0 2.33558e-15
      vertex -2.1037 -3.64372 2.55
    endloop
  endfacet
  facet normal -2.22045e-16 0 -1
    outer loop
      vertex -2.56195 -2.85 1.97021e-15
      vertex -6.23173 -2.85 2.78507e-15
      vertex -4.2074 0 2.33558e-15
    endloop
  endfacet
  facet normal -2.22045e-16 0 -1
    outer loop
      vertex -4.2074 0 2.33558e-15
      vertex -6.23173 -2.85 2.78507e-15
      vertex -6.3111 -2.45035 2.80269e-15
    endloop
  endfacet
  facet normal -2.22045e-16 0 -1
    outer loop
      vertex -4.2074 0 2.33558e-15
      vertex -6.3111 -2.45035 2.80269e-15
      vertex -6.3111 2.45035 2.80269e-15
    endloop
  endfacet
  facet normal -2.22045e-16 0 -1
    outer loop
      vertex -4.2074 0 2.33558e-15
      vertex -6.3111 2.45035 2.80269e-15
      vertex -6.23173 2.85 2.78507e-15
    endloop
  endfacet
  facet normal -2.22045e-16 0 -1
    outer loop
      vertex -4.2074 0 2.33558e-15
      vertex -6.23173 2.85 2.78507e-15
      vertex -2.56195 2.85 1.97021e-15
    endloop
  endfacet
  facet normal -0.980843 -0.194802 0
    outer loop
      vertex -6.23173 -2.85 2.78507e-15
      vertex -6.0931 -3.548 0.629569
      vertex -6.3111 -2.45035 2.80269e-15
    endloop
  endfacet
  facet normal -0.980843 -0.194802 0
    outer loop
      vertex -6.3111 -2.45035 2.80269e-15
      vertex -6.0931 -3.548 0.629569
      vertex -6.0931 -3.548 3.55
    endloop
  endfacet
  facet normal -0.980843 -0.194802 0
    outer loop
      vertex -6.3111 -2.45035 2.80269e-15
      vertex -6.0931 -3.548 3.55
      vertex -6.3111 -2.45035 3.55
    endloop
  endfacet
  facet normal -0.831129 -0.556079 0
    outer loop
      vertex -6.0931 -3.548 0.629569
      vertex -5.4421 -4.521 1.50718
      vertex -6.0931 -3.548 3.55
    endloop
  endfacet
  facet normal -0.831129 -0.556079 0
    outer loop
      vertex -6.0931 -3.548 3.55
      vertex -5.4421 -4.521 1.50718
      vertex -5.4421 -4.521 3.55
    endloop
  endfacet
  facet normal -0.556079 -0.831129 0
    outer loop
      vertex -5.4421 -4.521 3.55
      vertex -5.4421 -4.521 1.50718
      vertex -4.4691 -5.172 2.09435
    endloop
  endfacet
  facet normal -0.556079 -0.831129 0
    outer loop
      vertex -4.4691 -5.172 3.55
      vertex -5.4421 -4.521 3.55
      vertex -4.4691 -5.172 2.09435
    endloop
  endfacet
  facet normal -0.194802 -0.980843 0
    outer loop
      vertex -4.4691 -5.172 3.55
      vertex -4.4691 -5.172 2.09435
      vertex -3.3211 -5.4 2.3
    endloop
  endfacet
  facet normal -0.194802 -0.980843 0
    outer loop
      vertex -3.3211 -5.4 3.55
      vertex -4.4691 -5.172 3.55
      vertex -3.3211 -5.4 2.3
    endloop
  endfacet
  facet normal 0 -1 0
    outer loop
      vertex -3.3211 -5.4 2.3
      vertex 3.3209 -5.4 2.3
      vertex 3.3209 -5.4 3.55
    endloop
  endfacet
  facet normal 0 -1 0
    outer loop
      vertex -3.3211 -5.4 3.55
      vertex -3.3211 -5.4 2.3
      vertex 3.3209 -5.4 3.55
    endloop
  endfacet
  facet normal 0.194802 -0.980843 0
    outer loop
      vertex 3.3209 -5.4 2.3
      vertex 4.4689 -5.172 2.09435
      vertex 4.4689 -5.172 3.55
    endloop
  endfacet
  facet normal 0.194802 -0.980843 0
    outer loop
      vertex 3.3209 -5.4 3.55
      vertex 3.3209 -5.4 2.3
      vertex 4.4689 -5.172 3.55
    endloop
  endfacet
  facet normal 0.556079 -0.831129 0
    outer loop
      vertex 4.4689 -5.172 2.09435
      vertex 5.4419 -4.521 1.50718
      vertex 5.4419 -4.521 3.55
    endloop
  endfacet
  facet normal 0.556079 -0.831129 0
    outer loop
      vertex 4.4689 -5.172 3.55
      vertex 4.4689 -5.172 2.09435
      vertex 5.4419 -4.521 3.55
    endloop
  endfacet
  facet normal 0.831129 -0.556079 0
    outer loop
      vertex 5.4419 -4.521 1.50718
      vertex 6.0929 -3.548 0.629569
      vertex 6.0929 -3.548 3.55
    endloop
  endfacet
  facet normal 0.831129 -0.556079 0
    outer loop
      vertex 5.4419 -4.521 3.55
      vertex 5.4419 -4.521 1.50718
      vertex 6.0929 -3.548 3.55
    endloop
  endfacet
  facet normal 0.980843 -0.194802 0
    outer loop
      vertex 6.0929 -3.548 0.629569
      vertex 6.23152 -2.85 1.76706e-17
      vertex 6.3111 -2.4493 0
    endloop
  endfacet
  facet normal 0.980843 -0.194802 0
    outer loop
      vertex 6.0929 -3.548 3.55
      vertex 6.0929 -3.548 0.629569
      vertex 6.3111 -2.4493 3.55
    endloop
  endfacet
  facet normal 0.980843 -0.194802 0
    outer loop
      vertex 6.3111 -2.4493 3.55
      vertex 6.0929 -3.548 0.629569
      vertex 6.3111 -2.4493 0
    endloop
  endfacet
  facet normal 1 0 -2.22045e-16
    outer loop
      vertex 6.3111 -2.4493 3.55
      vertex 6.3111 -2.4493 0
      vertex 6.3111 2.4493 0
    endloop
  endfacet
  facet normal 1 0 -2.22045e-16
    outer loop
      vertex 6.3111 2.4493 3.55
      vertex 6.3111 -2.4493 3.55
      vertex 6.3111 2.4493 0
    endloop
  endfacet
  facet normal 0.980843 0.194802 0
    outer loop
      vertex 6.3111 2.4493 3.55
      vertex 6.3111 2.4493 0
      vertex 6.23152 2.85 1.76706e-17
    endloop
  endfacet
  facet normal 0.980843 0.194802 0
    outer loop
      vertex 6.0929 3.548 3.55
      vertex 6.3111 2.4493 3.55
      vertex 6.0929 3.548 0.629569
    endloop
  endfacet
  facet normal 0.980843 0.194802 0
    outer loop
      vertex 6.0929 3.548 0.629569
      vertex 6.3111 2.4493 3.55
      vertex 6.23152 2.85 1.76706e-17
    endloop
  endfacet
  facet normal -1.64884e-16 0.669769 -0.74257
    outer loop
      vertex 6.23152 2.85 1.76706e-17
      vertex 2.56195 2.85 8.32479e-16
      vertex 6.0929 3.548 0.629569
    endloop
  endfacet
  facet normal -1.64884e-16 0.669769 -0.74257
    outer loop
      vertex 6.0929 3.548 0.629569
      vertex 2.56195 2.85 8.32479e-16
      vertex 2.1037 3.64372 0.715903
    endloop
  endfacet
  facet normal -1.64884e-16 0.669769 -0.74257
    outer loop
      vertex -1 4.4074 1.40472
      vertex -4.4691 5.172 2.09435
      vertex 1 4.4074 1.40472
    endloop
  endfacet
  facet normal -1.64884e-16 0.669769 -0.74257
    outer loop
      vertex -2.1037 3.64372 0.715903
      vertex -2.56195 2.85 1.97021e-15
      vertex -6.23173 2.85 2.78507e-15
    endloop
  endfacet
  facet normal -1.64884e-16 0.669769 -0.74257
    outer loop
      vertex -2.1037 3.64372 0.715903
      vertex -6.23173 2.85 2.78507e-15
      vertex -6.0931 3.548 0.629569
    endloop
  endfacet
  facet normal -1.64884e-16 0.669769 -0.74257
    outer loop
      vertex -2.1037 3.64372 0.715903
      vertex -6.0931 3.548 0.629569
      vertex -5.4421 4.521 1.50718
    endloop
  endfacet
  facet normal -1.64884e-16 0.669769 -0.74257
    outer loop
      vertex 1 4.4074 1.40472
      vertex 2.1037 3.64372 0.715903
      vertex 1 3.7074 0.773344
    endloop
  endfacet
  facet normal -1.64884e-16 0.669769 -0.74257
    outer loop
      vertex -1 4.4074 1.40472
      vertex -5.4421 4.521 1.50718
      vertex -4.4691 5.172 2.09435
    endloop
  endfacet
  facet normal -1.64884e-16 0.669769 -0.74257
    outer loop
      vertex 1 4.4074 1.40472
      vertex -4.4691 5.172 2.09435
      vertex -3.3211 5.4 2.3
    endloop
  endfacet
  facet normal -1.64884e-16 0.669769 -0.74257
    outer loop
      vertex 6.0929 3.548 0.629569
      vertex -3.3211 5.4 2.3
      vertex 3.3209 5.4 2.3
    endloop
  endfacet
  facet normal -1.64884e-16 0.669769 -0.74257
    outer loop
      vertex 6.0929 3.548 0.629569
      vertex 3.3209 5.4 2.3
      vertex 4.4689 5.172 2.09435
    endloop
  endfacet
  facet normal -1.64884e-16 0.669769 -0.74257
    outer loop
      vertex 6.0929 3.548 0.629569
      vertex 4.4689 5.172 2.09435
      vertex 5.4419 4.521 1.50718
    endloop
  endfacet
  facet normal -1.64884e-16 0.669769 -0.74257
    outer loop
      vertex -2.1037 3.64372 0.715903
      vertex -5.4421 4.521 1.50718
      vertex -1 3.7074 0.773344
    endloop
  endfacet
  facet normal -1.64884e-16 0.669769 -0.74257
    outer loop
      vertex -2.1037 3.64372 0.715903
      vertex -1 3.7074 0.773344
      vertex 2.1037 3.64372 0.715903
    endloop
  endfacet
  facet normal -1.64884e-16 0.669769 -0.74257
    outer loop
      vertex 1 4.4074 1.40472
      vertex 6.0929 3.548 0.629569
      vertex 2.1037 3.64372 0.715903
    endloop
  endfacet
  facet normal -1.64884e-16 0.669769 -0.74257
    outer loop
      vertex -1 3.7074 0.773344
      vertex 1 3.7074 0.773344
      vertex 2.1037 3.64372 0.715903
    endloop
  endfacet
  facet normal -1.64884e-16 0.669769 -0.74257
    outer loop
      vertex 6.0929 3.548 0.629569
      vertex 1 4.4074 1.40472
      vertex -3.3211 5.4 2.3
    endloop
  endfacet
  facet normal -1.64884e-16 0.669769 -0.74257
    outer loop
      vertex -1 3.7074 0.773344
      vertex -5.4421 4.521 1.50718
      vertex -1 4.4074 1.40472
    endloop
  endfacet
  facet normal -0.866025 -0.5 0
    outer loop
      vertex 2.1037 3.64372 2.55
      vertex 2.1037 3.64372 0.715903
      vertex 4.2074 0 2.55
    endloop
  endfacet
  facet normal -0.866025 -0.5 0
    outer loop
      vertex 4.2074 0 2.55
      vertex 2.1037 3.64372 0.715903
      vertex 2.56195 2.85 8.32479e-16
    endloop
  endfacet
  facet normal -0.866025 -0.5 0
    outer loop
      vertex 4.2074 0 2.55
      vertex 2.56195 2.85 8.32479e-16
      vertex 4.2074 0 4.67116e-16
    endloop
  endfacet
  facet normal 0 0 1
    outer loop
      vertex -4.34223 -1.79861 2.55
      vertex -3.3234 -3.3234 2.55
      vertex -1.79861 -4.34223 2.55
    endloop
  endfacet
  facet normal 0 0 1
    outer loop
      vertex -2.1037 -3.64372 2.55
      vertex -4.34223 -1.79861 2.55
      vertex -1.79861 -4.34223 2.55
    endloop
  endfacet
  facet normal 0 0 1
    outer loop
      vertex -2.1037 3.64372 2.55
      vertex 2.1037 3.64372 2.55
      vertex 1.79861 4.34223 2.55
    endloop
  endfacet
  facet normal 0 0 1
    outer loop
      vertex -4.7 0 2.55
      vertex -4.34223 -1.79861 2.55
      vertex -4.34223 1.79861 2.55
    endloop
  endfacet
  facet normal 0 0 1
    outer loop
      vertex -4.34223 1.79861 2.55
      vertex -4.2074 0 2.55
      vertex -3.3234 3.3234 2.55
    endloop
  endfacet
  facet normal 0 0 1
    outer loop
      vertex -4.34223 1.79861 2.55
      vertex -4.34223 -1.79861 2.55
      vertex -4.2074 0 2.55
    endloop
  endfacet
  facet normal 0 0 1
    outer loop
      vertex -3.3234 3.3234 2.55
      vertex -2.1037 3.64372 2.55
      vertex -1.79861 4.34223 2.55
    endloop
  endfacet
  facet normal 0 0 1
    outer loop
      vertex -2.1037 3.64372 2.55
      vertex 1.79861 4.34223 2.55
      vertex 5.66214e-16 4.7 2.55
    endloop
  endfacet
  facet normal 0 0 1
    outer loop
      vertex 1.79861 4.34223 2.55
      vertex 2.1037 3.64372 2.55
      vertex 3.3234 3.3234 2.55
    endloop
  endfacet
  facet normal 0 0 1
    outer loop
      vertex 4.34223 1.79861 2.55
      vertex 4.2074 0 2.55
      vertex 4.7 0 2.55
    endloop
  endfacet
  facet normal 0 0 1
    outer loop
      vertex 3.3234 -3.3234 2.55
      vertex 2.1037 -3.64372 2.55
      vertex 1.79861 -4.34223 2.55
    endloop
  endfacet
  facet normal 0 0 1
    outer loop
      vertex 5.66214e-16 -4.7 2.55
      vertex -2.1037 -3.64372 2.55
      vertex -1.79861 -4.34223 2.55
    endloop
  endfacet
  facet normal 0 0 1
    outer loop
      vertex -4.2074 0 2.55
      vertex -2.1037 3.64372 2.55
      vertex -3.3234 3.3234 2.55
    endloop
  endfacet
  facet normal 0 0 1
    outer loop
      vertex -2.1037 3.64372 2.55
      vertex 5.66214e-16 4.7 2.55
      vertex -1.79861 4.34223 2.55
    endloop
  endfacet
  facet normal 0 0 1
    outer loop
      vertex 2.1037 3.64372 2.55
      vertex 4.2074 0 2.55
      vertex 4.34223 1.79861 2.55
    endloop
  endfacet
  facet normal 0 0 1
    outer loop
      vertex 2.1037 3.64372 2.55
      vertex 4.34223 1.79861 2.55
      vertex 3.3234 3.3234 2.55
    endloop
  endfacet
  facet normal 0 0 1
    outer loop
      vertex 4.2074 0 2.55
      vertex 2.1037 -3.64372 2.55
      vertex 3.3234 -3.3234 2.55
    endloop
  endfacet
  facet normal 0 0 1
    outer loop
      vertex 4.2074 0 2.55
      vertex 3.3234 -3.3234 2.55
      vertex 4.34223 -1.79861 2.55
    endloop
  endfacet
  facet normal 0 0 1
    outer loop
      vertex 4.2074 0 2.55
      vertex 4.34223 -1.79861 2.55
      vertex 4.7 0 2.55
    endloop
  endfacet
  facet normal 0 0 1
    outer loop
      vertex 2.1037 -3.64372 2.55
      vertex -2.1037 -3.64372 2.55
      vertex 5.66214e-16 -4.7 2.55
    endloop
  endfacet
  facet normal 0 0 1
    outer loop
      vertex 2.1037 -3.64372 2.55
      vertex 5.66214e-16 -4.7 2.55
      vertex 1.79861 -4.34223 2.55
    endloop
  endfacet
  facet normal 0 0 1
    outer loop
      vertex -2.1037 -3.64372 2.55
      vertex -4.2074 0 2.55
      vertex -4.34223 -1.79861 2.55
    endloop
  endfacet
  facet normal 0.866025 -0.5 0
    outer loop
      vertex -2.56195 2.85 1.97021e-15
      vertex -2.1037 3.64372 0.715903
      vertex -2.1037 3.64372 2.55
    endloop
  endfacet
  facet normal 0.866025 -0.5 0
    outer loop
      vertex -4.2074 0 2.33558e-15
      vertex -2.56195 2.85 1.97021e-15
      vertex -4.2074 0 2.55
    endloop
  endfacet
  facet normal 0.866025 -0.5 0
    outer loop
      vertex -4.2074 0 2.55
      vertex -2.56195 2.85 1.97021e-15
      vertex -2.1037 3.64372 2.55
    endloop
  endfacet
  facet normal -0.980843 0.194802 0
    outer loop
      vertex -6.3111 2.45035 2.80269e-15
      vertex -6.3111 2.45035 3.55
      vertex -6.23173 2.85 2.78507e-15
    endloop
  endfacet
  facet normal -0.980843 0.194802 0
    outer loop
      vertex -6.23173 2.85 2.78507e-15
      vertex -6.3111 2.45035 3.55
      vertex -6.0931 3.548 3.55
    endloop
  endfacet
  facet normal -0.980843 0.194802 0
    outer loop
      vertex -6.23173 2.85 2.78507e-15
      vertex -6.0931 3.548 3.55
      vertex -6.0931 3.548 0.629569
    endloop
  endfacet
  facet normal -1 0 2.22045e-16
    outer loop
      vertex -6.3111 -2.45035 2.80269e-15
      vertex -6.3111 -2.45035 3.55
      vertex -6.3111 2.45035 2.80269e-15
    endloop
  endfacet
  facet normal -1 0 2.22045e-16
    outer loop
      vertex -6.3111 2.45035 2.80269e-15
      vertex -6.3111 -2.45035 3.55
      vertex -6.3111 2.45035 3.55
    endloop
  endfacet
  facet normal 2.22045e-16 0 1
    outer loop
      vertex -3.3211 -5.4 3.55
      vertex 3.3209 -5.4 3.55
      vertex 4.4689 -5.172 3.55
    endloop
  endfacet
  facet normal 2.22045e-16 0 1
    outer loop
      vertex 6.0929 -3.548 3.55
      vertex -3.3211 -5.4 3.55
      vertex 5.4419 -4.521 3.55
    endloop
  endfacet
  facet normal 2.22045e-16 0 1
    outer loop
      vertex 5.4419 -4.521 3.55
      vertex -3.3211 -5.4 3.55
      vertex 4.4689 -5.172 3.55
    endloop
  endfacet
  facet normal 2.22045e-16 0 1
    outer loop
      vertex 1.79861 -4.34223 3.55
      vertex -3.3211 -5.4 3.55
      vertex 6.0929 -3.548 3.55
    endloop
  endfacet
  facet normal 2.22045e-16 0 1
    outer loop
      vertex 1.79861 4.34223 3.55
      vertex 3.3234 3.3234 3.55
      vertex 4.4689 5.172 3.55
    endloop
  endfacet
  facet normal 2.22045e-16 0 1
    outer loop
      vertex -6.3111 2.45035 3.55
      vertex -3.3211 -5.4 3.55
      vertex -6.0931 3.548 3.55
    endloop
  endfacet
  facet normal 2.22045e-16 0 1
    outer loop
      vertex -6.3111 -2.45035 3.55
      vertex -3.3211 -5.4 3.55
      vertex -6.3111 2.45035 3.55
    endloop
  endfacet
  facet normal 2.22045e-16 0 1
    outer loop
      vertex -6.0931 -3.548 3.55
      vertex -3.3211 -5.4 3.55
      vertex -6.3111 -2.45035 3.55
    endloop
  endfacet
  facet normal 2.22045e-16 0 1
    outer loop
      vertex -5.4421 -4.521 3.55
      vertex -3.3211 -5.4 3.55
      vertex -6.0931 -3.548 3.55
    endloop
  endfacet
  facet normal 2.22045e-16 0 1
    outer loop
      vertex -4.4691 -5.172 3.55
      vertex -3.3211 -5.4 3.55
      vertex -5.4421 -4.521 3.55
    endloop
  endfacet
  facet normal 2.22045e-16 0 1
    outer loop
      vertex 6.3111 -2.4493 3.55
      vertex 1.79861 -4.34223 3.55
      vertex 6.0929 -3.548 3.55
    endloop
  endfacet
  facet normal 2.22045e-16 0 1
    outer loop
      vertex 5.66214e-16 -4.7 3.55
      vertex -3.3211 -5.4 3.55
      vertex 1.79861 -4.34223 3.55
    endloop
  endfacet
  facet normal 2.22045e-16 0 1
    outer loop
      vertex 5.66214e-16 -4.7 3.55
      vertex -1.79861 -4.34223 3.55
      vertex -3.3211 -5.4 3.55
    endloop
  endfacet
  facet normal 2.22045e-16 0 1
    outer loop
      vertex 1.79861 4.34223 3.55
      vertex 4.4689 5.172 3.55
      vertex 3.3209 5.4 3.55
    endloop
  endfacet
  facet normal 2.22045e-16 0 1
    outer loop
      vertex -4.34223 1.79861 3.55
      vertex -3.3234 3.3234 3.55
      vertex -4.4691 5.172 3.55
    endloop
  endfacet
  facet normal 2.22045e-16 0 1
    outer loop
      vertex -6.0931 3.548 3.55
      vertex -3.3211 -5.4 3.55
      vertex -4.34223 -1.79861 3.55
    endloop
  endfacet
  facet normal 2.22045e-16 0 1
    outer loop
      vertex -6.0931 3.548 3.55
      vertex -4.7 0 3.55
      vertex -5.4421 4.521 3.55
    endloop
  endfacet
  facet normal 2.22045e-16 0 1
    outer loop
      vertex -6.0931 3.548 3.55
      vertex -4.34223 -1.79861 3.55
      vertex -4.7 0 3.55
    endloop
  endfacet
  facet normal 2.22045e-16 0 1
    outer loop
      vertex -5.4421 4.521 3.55
      vertex -4.34223 1.79861 3.55
      vertex -4.4691 5.172 3.55
    endloop
  endfacet
  facet normal 2.22045e-16 0 1
    outer loop
      vertex -4.7 0 3.55
      vertex -4.34223 1.79861 3.55
      vertex -5.4421 4.521 3.55
    endloop
  endfacet
  facet normal 2.22045e-16 0 1
    outer loop
      vertex -4.4691 5.172 3.55
      vertex -3.3234 3.3234 3.55
      vertex -3.3211 5.4 3.55
    endloop
  endfacet
  facet normal 2.22045e-16 0 1
    outer loop
      vertex -3.3211 5.4 3.55
      vertex -1.79861 4.34223 3.55
      vertex 3.3209 5.4 3.55
    endloop
  endfacet
  facet normal 2.22045e-16 0 1
    outer loop
      vertex -3.3234 3.3234 3.55
      vertex -1.79861 4.34223 3.55
      vertex -3.3211 5.4 3.55
    endloop
  endfacet
  facet normal 2.22045e-16 0 1
    outer loop
      vertex -1.79861 4.34223 3.55
      vertex 5.66214e-16 4.7 3.55
      vertex 3.3209 5.4 3.55
    endloop
  endfacet
  facet normal 2.22045e-16 0 1
    outer loop
      vertex 5.66214e-16 4.7 3.55
      vertex 1.79861 4.34223 3.55
      vertex 3.3209 5.4 3.55
    endloop
  endfacet
  facet normal 2.22045e-16 0 1
    outer loop
      vertex -3.3234 -3.3234 3.55
      vertex -4.34223 -1.79861 3.55
      vertex -3.3211 -5.4 3.55
    endloop
  endfacet
  facet normal 2.22045e-16 0 1
    outer loop
      vertex 4.4689 5.172 3.55
      vertex 3.3234 3.3234 3.55
      vertex 5.4419 4.521 3.55
    endloop
  endfacet
  facet normal 2.22045e-16 0 1
    outer loop
      vertex 6.0929 3.548 3.55
      vertex 4.34223 1.79861 3.55
      vertex 6.3111 2.4493 3.55
    endloop
  endfacet
  facet normal 2.22045e-16 0 1
    outer loop
      vertex 6.3111 2.4493 3.55
      vertex 4.7 0 3.55
      vertex 6.3111 -2.4493 3.55
    endloop
  endfacet
  facet normal 2.22045e-16 0 1
    outer loop
      vertex 4.7 0 3.55
      vertex 4.34223 -1.79861 3.55
      vertex 6.3111 -2.4493 3.55
    endloop
  endfacet
  facet normal 2.22045e-16 0 1
    outer loop
      vertex 3.3234 -3.3234 3.55
      vertex 1.79861 -4.34223 3.55
      vertex 6.3111 -2.4493 3.55
    endloop
  endfacet
  facet normal 2.22045e-16 0 1
    outer loop
      vertex 3.3234 3.3234 3.55
      vertex 4.34223 1.79861 3.55
      vertex 6.0929 3.548 3.55
    endloop
  endfacet
  facet normal 2.22045e-16 0 1
    outer loop
      vertex 3.3234 3.3234 3.55
      vertex 6.0929 3.548 3.55
      vertex 5.4419 4.521 3.55
    endloop
  endfacet
  facet normal 2.22045e-16 0 1
    outer loop
      vertex 4.34223 1.79861 3.55
      vertex 4.7 0 3.55
      vertex 6.3111 2.4493 3.55
    endloop
  endfacet
  facet normal 2.22045e-16 0 1
    outer loop
      vertex 4.34223 -1.79861 3.55
      vertex 3.3234 -3.3234 3.55
      vertex 6.3111 -2.4493 3.55
    endloop
  endfacet
  facet normal 2.22045e-16 0 1
    outer loop
      vertex -1.79861 -4.34223 3.55
      vertex -3.3234 -3.3234 3.55
      vertex -3.3211 -5.4 3.55
    endloop
  endfacet
  facet normal 0.831129 0.556079 0
    outer loop
      vertex 6.0929 3.548 3.55
      vertex 6.0929 3.548 0.629569
      vertex 5.4419 4.521 1.50718
    endloop
  endfacet
  facet normal 0.831129 0.556079 0
    outer loop
      vertex 5.4419 4.521 3.55
      vertex 6.0929 3.548 3.55
      vertex 5.4419 4.521 1.50718
    endloop
  endfacet
  facet normal 0.556079 0.831129 0
    outer loop
      vertex 5.4419 4.521 1.50718
      vertex 4.4689 5.172 2.09435
      vertex 5.4419 4.521 3.55
    endloop
  endfacet
  facet normal 0.556079 0.831129 0
    outer loop
      vertex 5.4419 4.521 3.55
      vertex 4.4689 5.172 2.09435
      vertex 4.4689 5.172 3.55
    endloop
  endfacet
  facet normal 0.194802 0.980843 0
    outer loop
      vertex 4.4689 5.172 2.09435
      vertex 3.3209 5.4 2.3
      vertex 4.4689 5.172 3.55
    endloop
  endfacet
  facet normal 0.194802 0.980843 0
    outer loop
      vertex 4.4689 5.172 3.55
      vertex 3.3209 5.4 2.3
      vertex 3.3209 5.4 3.55
    endloop
  endfacet
  facet normal 0 1 0
    outer loop
      vertex 3.3209 5.4 2.3
      vertex -3.3211 5.4 2.3
      vertex 3.3209 5.4 3.55
    endloop
  endfacet
  facet normal 0 1 0
    outer loop
      vertex 3.3209 5.4 3.55
      vertex -3.3211 5.4 2.3
      vertex -3.3211 5.4 3.55
    endloop
  endfacet
  facet normal -0.194802 0.980843 0
    outer loop
      vertex -4.4691 5.172 2.09435
      vertex -4.4691 5.172 3.55
      vertex -3.3211 5.4 2.3
    endloop
  endfacet
  facet normal -0.194802 0.980843 0
    outer loop
      vertex -3.3211 5.4 2.3
      vertex -4.4691 5.172 3.55
      vertex -3.3211 5.4 3.55
    endloop
  endfacet
  facet normal -0.556079 0.831129 0
    outer loop
      vertex -5.4421 4.521 1.50718
      vertex -5.4421 4.521 3.55
      vertex -4.4691 5.172 2.09435
    endloop
  endfacet
  facet normal -0.556079 0.831129 0
    outer loop
      vertex -4.4691 5.172 2.09435
      vertex -5.4421 4.521 3.55
      vertex -4.4691 5.172 3.55
    endloop
  endfacet
  facet normal -0.831129 0.556079 0
    outer loop
      vertex -6.0931 3.548 0.629569
      vertex -6.0931 3.548 3.55
      vertex -5.4421 4.521 1.50718
    endloop
  endfacet
  facet normal -0.831129 0.556079 0
    outer loop
      vertex -5.4421 4.521 1.50718
      vertex -6.0931 3.548 3.55
      vertex -5.4421 4.521 3.55
    endloop
  endfacet
  facet normal 0 -1 0
    outer loop
      vertex 2.1037 3.64372 2.55
      vertex -2.1037 3.64372 2.55
      vertex -2.1037 3.64372 0.715903
    endloop
  endfacet
  facet normal 0 -1 0
    outer loop
      vertex 2.1037 3.64372 0.715903
      vertex 2.1037 3.64372 2.55
      vertex -2.1037 3.64372 0.715903
    endloop
  endfacet
  facet normal -1 0 2.22045e-16
    outer loop
      vertex -1 3.7074 1.62339e-15
      vertex -1 3.7074 0.773344
      vertex -1 4.4074 1.62339e-15
    endloop
  endfacet
  facet normal -1 0 2.22045e-16
    outer loop
      vertex -1 4.4074 1.62339e-15
      vertex -1 3.7074 0.773344
      vertex -1 4.4074 1.40472
    endloop
  endfacet
  facet normal 0 -1 0
    outer loop
      vertex -1 3.7074 1.62339e-15
      vertex 1 3.7074 1.1793e-15
      vertex 1 3.7074 0.773344
    endloop
  endfacet
  facet normal 0 -1 0
    outer loop
      vertex -1 3.7074 0.773344
      vertex -1 3.7074 1.62339e-15
      vertex 1 3.7074 0.773344
    endloop
  endfacet
  facet normal 0 1 0
    outer loop
      vertex 1 4.4074 1.1793e-15
      vertex -1 4.4074 1.62339e-15
      vertex 1 4.4074 1.40472
    endloop
  endfacet
  facet normal 0 1 0
    outer loop
      vertex 1 4.4074 1.40472
      vertex -1 4.4074 1.62339e-15
      vertex -1 4.4074 1.40472
    endloop
  endfacet
  facet normal 1 0 -2.22045e-16
    outer loop
      vertex 1 3.7074 0.773344
      vertex 1 3.7074 1.1793e-15
      vertex 1 4.4074 1.1793e-15
    endloop
  endfacet
  facet normal 1 0 -2.22045e-16
    outer loop
      vertex 1 4.4074 1.40472
      vertex 1 3.7074 0.773344
      vertex 1 4.4074 1.1793e-15
    endloop
  endfacet
  facet normal 0.83147 0.55557 0
    outer loop
      vertex -4.34223 -1.79861 3.55
      vertex -3.3234 -3.3234 3.55
      vertex -3.3234 -3.3234 2.55
    endloop
  endfacet
  facet normal 0.83147 0.55557 0
    outer loop
      vertex -4.34223 -1.79861 2.55
      vertex -4.34223 -1.79861 3.55
      vertex -3.3234 -3.3234 2.55
    endloop
  endfacet
  facet normal 0.980785 0.19509 0
    outer loop
      vertex -4.7 0 3.55
      vertex -4.34223 -1.79861 3.55
      vertex -4.34223 -1.79861 2.55
    endloop
  endfacet
  facet normal 0.980785 0.19509 0
    outer loop
      vertex -4.7 0 2.55
      vertex -4.7 0 3.55
      vertex -4.34223 -1.79861 2.55
    endloop
  endfacet
  facet normal 0.980785 -0.19509 0
    outer loop
      vertex -4.34223 1.79861 2.55
      vertex -4.34223 1.79861 3.55
      vertex -4.7 0 3.55
    endloop
  endfacet
  facet normal 0.980785 -0.19509 0
    outer loop
      vertex -4.7 0 2.55
      vertex -4.34223 1.79861 2.55
      vertex -4.7 0 3.55
    endloop
  endfacet
  facet normal 0.83147 -0.55557 0
    outer loop
      vertex -3.3234 3.3234 2.55
      vertex -3.3234 3.3234 3.55
      vertex -4.34223 1.79861 3.55
    endloop
  endfacet
  facet normal 0.83147 -0.55557 0
    outer loop
      vertex -4.34223 1.79861 2.55
      vertex -3.3234 3.3234 2.55
      vertex -4.34223 1.79861 3.55
    endloop
  endfacet
  facet normal 0.55557 -0.83147 0
    outer loop
      vertex -1.79861 4.34223 2.55
      vertex -1.79861 4.34223 3.55
      vertex -3.3234 3.3234 3.55
    endloop
  endfacet
  facet normal 0.55557 -0.83147 0
    outer loop
      vertex -3.3234 3.3234 2.55
      vertex -1.79861 4.34223 2.55
      vertex -3.3234 3.3234 3.55
    endloop
  endfacet
  facet normal 0.19509 -0.980785 0
    outer loop
      vertex 5.66214e-16 4.7 2.55
      vertex 5.66214e-16 4.7 3.55
      vertex -1.79861 4.34223 3.55
    endloop
  endfacet
  facet normal 0.19509 -0.980785 0
    outer loop
      vertex -1.79861 4.34223 2.55
      vertex 5.66214e-16 4.7 2.55
      vertex -1.79861 4.34223 3.55
    endloop
  endfacet
  facet normal -0.19509 -0.980785 0
    outer loop
      vertex 1.79861 4.34223 2.55
      vertex 1.79861 4.34223 3.55
      vertex 5.66214e-16 4.7 3.55
    endloop
  endfacet
  facet normal -0.19509 -0.980785 0
    outer loop
      vertex 5.66214e-16 4.7 2.55
      vertex 1.79861 4.34223 2.55
      vertex 5.66214e-16 4.7 3.55
    endloop
  endfacet
  facet normal -0.55557 -0.83147 0
    outer loop
      vertex 3.3234 3.3234 2.55
      vertex 3.3234 3.3234 3.55
      vertex 1.79861 4.34223 3.55
    endloop
  endfacet
  facet normal -0.55557 -0.83147 0
    outer loop
      vertex 1.79861 4.34223 2.55
      vertex 3.3234 3.3234 2.55
      vertex 1.79861 4.34223 3.55
    endloop
  endfacet
  facet normal -0.83147 -0.55557 0
    outer loop
      vertex 4.34223 1.79861 3.55
      vertex 3.3234 3.3234 3.55
      vertex 4.34223 1.79861 2.55
    endloop
  endfacet
  facet normal -0.83147 -0.55557 0
    outer loop
      vertex 4.34223 1.79861 2.55
      vertex 3.3234 3.3234 3.55
      vertex 3.3234 3.3234 2.55
    endloop
  endfacet
  facet normal -0.980785 -0.19509 0
    outer loop
      vertex 4.7 0 3.55
      vertex 4.34223 1.79861 3.55
      vertex 4.7 0 2.55
    endloop
  endfacet
  facet normal -0.980785 -0.19509 0
    outer loop
      vertex 4.7 0 2.55
      vertex 4.34223 1.79861 3.55
      vertex 4.34223 1.79861 2.55
    endloop
  endfacet
  facet normal -0.980785 0.19509 0
    outer loop
      vertex 4.7 0 3.55
      vertex 4.7 0 2.55
      vertex 4.34223 -1.79861 3.55
    endloop
  endfacet
  facet normal -0.980785 0.19509 0
    outer loop
      vertex 4.34223 -1.79861 3.55
      vertex 4.7 0 2.55
      vertex 4.34223 -1.79861 2.55
    endloop
  endfacet
  facet normal -0.83147 0.55557 0
    outer loop
      vertex 4.34223 -1.79861 3.55
      vertex 4.34223 -1.79861 2.55
      vertex 3.3234 -3.3234 3.55
    endloop
  endfacet
  facet normal -0.83147 0.55557 0
    outer loop
      vertex 3.3234 -3.3234 3.55
      vertex 4.34223 -1.79861 2.55
      vertex 3.3234 -3.3234 2.55
    endloop
  endfacet
  facet normal -0.55557 0.83147 0
    outer loop
      vertex 3.3234 -3.3234 3.55
      vertex 3.3234 -3.3234 2.55
      vertex 1.79861 -4.34223 3.55
    endloop
  endfacet
  facet normal -0.55557 0.83147 0
    outer loop
      vertex 1.79861 -4.34223 3.55
      vertex 3.3234 -3.3234 2.55
      vertex 1.79861 -4.34223 2.55
    endloop
  endfacet
  facet normal -0.19509 0.980785 0
    outer loop
      vertex 1.79861 -4.34223 3.55
      vertex 1.79861 -4.34223 2.55
      vertex 5.66214e-16 -4.7 3.55
    endloop
  endfacet
  facet normal -0.19509 0.980785 0
    outer loop
      vertex 5.66214e-16 -4.7 3.55
      vertex 1.79861 -4.34223 2.55
      vertex 5.66214e-16 -4.7 2.55
    endloop
  endfacet
  facet normal 0.19509 0.980785 0
    outer loop
      vertex 5.66214e-16 -4.7 3.55
      vertex 5.66214e-16 -4.7 2.55
      vertex -1.79861 -4.34223 3.55
    endloop
  endfacet
  facet normal 0.19509 0.980785 0
    outer loop
      vertex -1.79861 -4.34223 3.55
      vertex 5.66214e-16 -4.7 2.55
      vertex -1.79861 -4.34223 2.55
    endloop
  endfacet
  facet normal 0.55557 0.83147 0
    outer loop
      vertex -1.79861 -4.34223 3.55
      vertex -1.79861 -4.34223 2.55
      vertex -3.3234 -3.3234 3.55
    endloop
  endfacet
  facet normal 0.55557 0.83147 0
    outer loop
      vertex -3.3234 -3.3234 3.55
      vertex -1.79861 -4.34223 2.55
      vertex -3.3234 -3.3234 2.55
    endloop
  endfacet
  facet normal -2.22045e-16 0 -1
    outer loop
      vertex 1 3.7074 1.1793e-15
      vertex -1 3.7074 1.62339e-15
      vertex 1 4.4074 1.1793e-15
    endloop
  endfacet
  facet normal -2.22045e-16 0 -1
    outer loop
      vertex 1 4.4074 1.1793e-15
      vertex -1 3.7074 1.62339e-15
      vertex -1 4.4074 1.62339e-15
    endloop
  endfacet
endsolid OpenSCAD_Model
