solid OpenSCAD_Model
  facet normal -1 0 0
    outer loop
      vertex 0 0 0
      vertex 0 0 5
      vertex 0 30.5 0
    endloop
  endfacet
  facet normal -1 0 0
    outer loop
      vertex 0 30.5 0
      vertex 0 0 5
      vertex 0 10 5
    endloop
  endfacet
  facet normal -1 0 0
    outer loop
      vertex 0 30.5 0
      vertex 0 10 5
      vertex 0 11.9509 5.19215
    endloop
  endfacet
  facet normal -1 0 0
    outer loop
      vertex 0 11.9509 5.19215
      vertex 0 13.8268 5.76121
      vertex 0 30.5 0
    endloop
  endfacet
  facet normal -1 0 0
    outer loop
      vertex 0 13.8268 5.76121
      vertex 0 15.5557 6.6853
      vertex 0 30.5 0
    endloop
  endfacet
  facet normal -1 0 0
    outer loop
      vertex 0 15.5557 6.6853
      vertex 0 17.0711 7.92893
      vertex 0 30.5 0
    endloop
  endfacet
  facet normal -1 0 0
    outer loop
      vertex 0 17.0711 7.92893
      vertex 0 18.3147 9.4443
      vertex 0 30.5 0
    endloop
  endfacet
  facet normal -1 0 0
    outer loop
      vertex 0 18.3147 9.4443
      vertex 0 18.6117 10
      vertex 0 30.5 0
    endloop
  endfacet
  facet normal -1 0 0
    outer loop
      vertex 0 30.5 0
      vertex 0 18.6117 10
      vertex 0 30.5 10
    endloop
  endfacet
  facet normal 0 -1 0
    outer loop
      vertex 0 0 5
      vertex 0 0 0
      vertex 4 0 0
    endloop
  endfacet
  facet normal 0 -1 0
    outer loop
      vertex 4 0 5
      vertex 0 0 5
      vertex 4 0 0
    endloop
  endfacet
  facet normal 0 0 -1
    outer loop
      vertex 4 2 0
      vertex 4 0 0
      vertex 3 2 0
    endloop
  endfacet
  facet normal 0 0 -1
    outer loop
      vertex 4 27.5 0
      vertex 1.46447 34.0355 0
      vertex 5.96447 38.5355 0
    endloop
  endfacet
  facet normal 0 0 -1
    outer loop
      vertex 3 4.5 0
      vertex 0.842652 33.2779 0
      vertex 1.46447 34.0355 0
    endloop
  endfacet
  facet normal 0 0 -1
    outer loop
      vertex 3 4.5 0
      vertex 1.46447 34.0355 0
      vertex 4 4.5 0
    endloop
  endfacet
  facet normal 0 0 -1
    outer loop
      vertex 61 2 0
      vertex 64 30.5 0
      vertex 64 0 0
    endloop
  endfacet
  facet normal 0 0 -1
    outer loop
      vertex 4 27.5 0
      vertex 7.58658 39.6194 0
      vertex 8.52455 39.9039 0
    endloop
  endfacet
  facet normal 0 0 -1
    outer loop
      vertex 4 27.5 0
      vertex 5.96447 38.5355 0
      vertex 6.72215 39.1573 0
    endloop
  endfacet
  facet normal 0 0 -1
    outer loop
      vertex 61 4.5 0
      vertex 64 30.5 0
      vertex 61 2 0
    endloop
  endfacet
  facet normal 0 0 -1
    outer loop
      vertex 60 0 0
      vertex 61 2 0
      vertex 64 0 0
    endloop
  endfacet
  facet normal 0 0 -1
    outer loop
      vertex 60 4.5 0
      vertex 64 30.5 0
      vertex 61 4.5 0
    endloop
  endfacet
  facet normal 0 0 -1
    outer loop
      vertex 60 27.5 0
      vertex 64 30.5 0
      vertex 60 4.5 0
    endloop
  endfacet
  facet normal 0 0 -1
    outer loop
      vertex 3 4.5 0
      vertex 0 30.5 0
      vertex 0.096074 31.4755 0
    endloop
  endfacet
  facet normal 0 0 -1
    outer loop
      vertex 1.46447 34.0355 0
      vertex 4 27.5 0
      vertex 4 4.5 0
    endloop
  endfacet
  facet normal 0 0 -1
    outer loop
      vertex 3 4.5 0
      vertex 0.096074 31.4755 0
      vertex 0.380602 32.4134 0
    endloop
  endfacet
  facet normal 0 0 -1
    outer loop
      vertex 0 0 0
      vertex 0 30.5 0
      vertex 3 4.5 0
    endloop
  endfacet
  facet normal 0 0 -1
    outer loop
      vertex 0 0 0
      vertex 3 4.5 0
      vertex 3 2 0
    endloop
  endfacet
  facet normal 0 0 -1
    outer loop
      vertex 0 0 0
      vertex 3 2 0
      vertex 4 0 0
    endloop
  endfacet
  facet normal 0 0 -1
    outer loop
      vertex 3 4.5 0
      vertex 0.380602 32.4134 0
      vertex 0.842652 33.2779 0
    endloop
  endfacet
  facet normal 0 0 -1
    outer loop
      vertex 61 2 0
      vertex 60 0 0
      vertex 60 2 0
    endloop
  endfacet
  facet normal 0 0 -1
    outer loop
      vertex 4 27.5 0
      vertex 6.72215 39.1573 0
      vertex 7.58658 39.6194 0
    endloop
  endfacet
  facet normal 0 0 -1
    outer loop
      vertex 4 27.5 0
      vertex 8.52455 39.9039 0
      vertex 9.5 40 0
    endloop
  endfacet
  facet normal 0 0 -1
    outer loop
      vertex 4 27.5 0
      vertex 9.5 40 0
      vertex 54.5 40 0
    endloop
  endfacet
  facet normal 0 0 -1
    outer loop
      vertex 4 27.5 0
      vertex 54.5 40 0
      vertex 55.4755 39.9039 0
    endloop
  endfacet
  facet normal 0 0 -1
    outer loop
      vertex 4 27.5 0
      vertex 55.4755 39.9039 0
      vertex 56.4134 39.6194 0
    endloop
  endfacet
  facet normal 0 0 -1
    outer loop
      vertex 4 27.5 0
      vertex 56.4134 39.6194 0
      vertex 57.2779 39.1573 0
    endloop
  endfacet
  facet normal 0 0 -1
    outer loop
      vertex 4 27.5 0
      vertex 57.2779 39.1573 0
      vertex 58.0355 38.5355 0
    endloop
  endfacet
  facet normal 0 0 -1
    outer loop
      vertex 4 27.5 0
      vertex 58.0355 38.5355 0
      vertex 62.5355 34.0355 0
    endloop
  endfacet
  facet normal 0 0 -1
    outer loop
      vertex 4 27.5 0
      vertex 62.5355 34.0355 0
      vertex 63.1573 33.2779 0
    endloop
  endfacet
  facet normal 0 0 -1
    outer loop
      vertex 4 27.5 0
      vertex 63.1573 33.2779 0
      vertex 63.6194 32.4134 0
    endloop
  endfacet
  facet normal 0 0 -1
    outer loop
      vertex 4 27.5 0
      vertex 63.6194 32.4134 0
      vertex 63.9039 31.4755 0
    endloop
  endfacet
  facet normal 0 0 -1
    outer loop
      vertex 4 27.5 0
      vertex 63.9039 31.4755 0
      vertex 64 30.5 0
    endloop
  endfacet
  facet normal 0 0 -1
    outer loop
      vertex 4 27.5 0
      vertex 64 30.5 0
      vertex 60 27.5 0
    endloop
  endfacet
  facet normal -0.995185 0.0980175 0
    outer loop
      vertex 0 30.5 0
      vertex 0 30.5 10
      vertex 0.096074 31.4755 0
    endloop
  endfacet
  facet normal -0.995185 0.0980175 0
    outer loop
      vertex 0.096074 31.4755 0
      vertex 0 30.5 10
      vertex 0.096074 31.4755 10
    endloop
  endfacet
  facet normal 0 0 1
    outer loop
      vertex 0 30.5 10
      vertex 0 18.6117 10
      vertex 4 18.6117 10
    endloop
  endfacet
  facet normal 0 0 1
    outer loop
      vertex 4.04804 30.3877 10
      vertex 0 30.5 10
      vertex 4 29.9 10
    endloop
  endfacet
  facet normal 0 0 1
    outer loop
      vertex 4 29.9 10
      vertex 0 30.5 10
      vertex 4 18.6117 10
    endloop
  endfacet
  facet normal 0 0 1
    outer loop
      vertex 4.1903 30.8567 10
      vertex 0 30.5 10
      vertex 4.04804 30.3877 10
    endloop
  endfacet
  facet normal 0 0 1
    outer loop
      vertex 4.42133 31.2889 10
      vertex 0 30.5 10
      vertex 4.1903 30.8567 10
    endloop
  endfacet
  facet normal 0 0 1
    outer loop
      vertex 4.73223 31.6678 10
      vertex 0 30.5 10
      vertex 4.42133 31.2889 10
    endloop
  endfacet
  facet normal 0 0 1
    outer loop
      vertex 8.83223 35.7678 10
      vertex 0 30.5 10
      vertex 4.73223 31.6678 10
    endloop
  endfacet
  facet normal 0 0 1
    outer loop
      vertex 9.21107 36.0787 10
      vertex 0 30.5 10
      vertex 8.83223 35.7678 10
    endloop
  endfacet
  facet normal 0 0 1
    outer loop
      vertex 9.5 40 10
      vertex 0 30.5 10
      vertex 9.21107 36.0787 10
    endloop
  endfacet
  facet normal 0 0 1
    outer loop
      vertex 9.5 40 10
      vertex 9.21107 36.0787 10
      vertex 9.64329 36.3097 10
    endloop
  endfacet
  facet normal 0 0 1
    outer loop
      vertex 17.2488 40 10
      vertex 9.64329 36.3097 10
      vertex 10.1123 36.452 10
    endloop
  endfacet
  facet normal 0 0 1
    outer loop
      vertex 17.2488 40 10
      vertex 10.1123 36.452 10
      vertex 10.6 36.5 10
    endloop
  endfacet
  facet normal 0 0 1
    outer loop
      vertex 17.2488 40 10
      vertex 10.6 36.5 10
      vertex 17.2488 36.5 10
    endloop
  endfacet
  facet normal 0 0 1
    outer loop
      vertex 9.5 40 10
      vertex 9.64329 36.3097 10
      vertex 17.2488 40 10
    endloop
  endfacet
  facet normal 0 0 1
    outer loop
      vertex 8.52455 39.9039 10
      vertex 0 30.5 10
      vertex 9.5 40 10
    endloop
  endfacet
  facet normal 0 0 1
    outer loop
      vertex 7.58658 39.6194 10
      vertex 0 30.5 10
      vertex 8.52455 39.9039 10
    endloop
  endfacet
  facet normal 0 0 1
    outer loop
      vertex 6.72215 39.1573 10
      vertex 0 30.5 10
      vertex 7.58658 39.6194 10
    endloop
  endfacet
  facet normal 0 0 1
    outer loop
      vertex 5.96447 38.5355 10
      vertex 0 30.5 10
      vertex 6.72215 39.1573 10
    endloop
  endfacet
  facet normal 0 0 1
    outer loop
      vertex 1.46447 34.0355 10
      vertex 0 30.5 10
      vertex 5.96447 38.5355 10
    endloop
  endfacet
  facet normal 0 0 1
    outer loop
      vertex 0.842652 33.2779 10
      vertex 0 30.5 10
      vertex 1.46447 34.0355 10
    endloop
  endfacet
  facet normal 0 0 1
    outer loop
      vertex 0.380602 32.4134 10
      vertex 0 30.5 10
      vertex 0.842652 33.2779 10
    endloop
  endfacet
  facet normal 0 0 1
    outer loop
      vertex 0.096074 31.4755 10
      vertex 0 30.5 10
      vertex 0.380602 32.4134 10
    endloop
  endfacet
  facet normal -1.04671e-16 -0.881921 0.471397
    outer loop
      vertex 4 18.3147 9.4443
      vertex 4 18.6117 10
      vertex 0 18.6117 10
    endloop
  endfacet
  facet normal -1.04671e-16 -0.881921 0.471397
    outer loop
      vertex 0 18.3147 9.4443
      vertex 4 18.3147 9.4443
      vertex 0 18.6117 10
    endloop
  endfacet
  facet normal -1.40864e-16 -0.773011 0.634393
    outer loop
      vertex 4 17.0711 7.92893
      vertex 4 18.3147 9.4443
      vertex 0 18.3147 9.4443
    endloop
  endfacet
  facet normal -1.40864e-16 -0.773011 0.634393
    outer loop
      vertex 0 17.0711 7.92893
      vertex 4 17.0711 7.92893
      vertex 0 18.3147 9.4443
    endloop
  endfacet
  facet normal -1.71643e-16 -0.634393 0.773011
    outer loop
      vertex 4 15.5557 6.6853
      vertex 4 17.0711 7.92893
      vertex 0 17.0711 7.92893
    endloop
  endfacet
  facet normal -1.71643e-16 -0.634393 0.773011
    outer loop
      vertex 0 15.5557 6.6853
      vertex 4 15.5557 6.6853
      vertex 0 17.0711 7.92893
    endloop
  endfacet
  facet normal -1.95826e-16 -0.471397 0.881921
    outer loop
      vertex 4 13.8268 5.76121
      vertex 4 15.5557 6.6853
      vertex 0 15.5557 6.6853
    endloop
  endfacet
  facet normal -1.95826e-16 -0.471397 0.881921
    outer loop
      vertex 0 13.8268 5.76121
      vertex 4 13.8268 5.76121
      vertex 0 15.5557 6.6853
    endloop
  endfacet
  facet normal -2.12483e-16 -0.290285 0.95694
    outer loop
      vertex 4 11.9509 5.19215
      vertex 4 13.8268 5.76121
      vertex 0 13.8268 5.76121
    endloop
  endfacet
  facet normal -2.12483e-16 -0.290285 0.95694
    outer loop
      vertex 0 11.9509 5.19215
      vertex 4 11.9509 5.19215
      vertex 0 13.8268 5.76121
    endloop
  endfacet
  facet normal -2.20975e-16 -0.0980171 0.995185
    outer loop
      vertex 4 10 5
      vertex 4 11.9509 5.19215
      vertex 0 11.9509 5.19215
    endloop
  endfacet
  facet normal -2.20975e-16 -0.0980171 0.995185
    outer loop
      vertex 0 10 5
      vertex 4 10 5
      vertex 0 11.9509 5.19215
    endloop
  endfacet
  facet normal 0 0 1
    outer loop
      vertex 3 4.5 5
      vertex 0 10 5
      vertex 3 2 5
    endloop
  endfacet
  facet normal 0 0 1
    outer loop
      vertex 4 0 5
      vertex 4 2 5
      vertex 3 2 5
    endloop
  endfacet
  facet normal 0 0 1
    outer loop
      vertex 0 0 5
      vertex 4 0 5
      vertex 3 2 5
    endloop
  endfacet
  facet normal 0 0 1
    outer loop
      vertex 4 4.5 5
      vertex 4 10 5
      vertex 3 4.5 5
    endloop
  endfacet
  facet normal 0 0 1
    outer loop
      vertex 4 10 5
      vertex 0 10 5
      vertex 3 4.5 5
    endloop
  endfacet
  facet normal 0 0 1
    outer loop
      vertex 0 10 5
      vertex 0 0 5
      vertex 3 2 5
    endloop
  endfacet
  facet normal 1 0 0
    outer loop
      vertex 4 2 0
      vertex 4 2 5
      vertex 4 0 5
    endloop
  endfacet
  facet normal 1 0 0
    outer loop
      vertex 4 0 0
      vertex 4 2 0
      vertex 4 0 5
    endloop
  endfacet
  facet normal 0 1 0
    outer loop
      vertex 4 2 5
      vertex 4 2 0
      vertex 3 2 5
    endloop
  endfacet
  facet normal 0 1 0
    outer loop
      vertex 3 2 5
      vertex 4 2 0
      vertex 3 2 0
    endloop
  endfacet
  facet normal 1 0 0
    outer loop
      vertex 3 4.5 0
      vertex 3 4.5 5
      vertex 3 2 5
    endloop
  endfacet
  facet normal 1 0 0
    outer loop
      vertex 3 2 0
      vertex 3 4.5 0
      vertex 3 2 5
    endloop
  endfacet
  facet normal 0 -1 0
    outer loop
      vertex 4 4.5 0
      vertex 4 4.5 5
      vertex 3 4.5 5
    endloop
  endfacet
  facet normal 0 -1 0
    outer loop
      vertex 3 4.5 0
      vertex 4 4.5 0
      vertex 3 4.5 5
    endloop
  endfacet
  facet normal 1 0 0
    outer loop
      vertex 4 29.9 10
      vertex 4 27.5 1.5
      vertex 4 29.9 1.5
    endloop
  endfacet
  facet normal 1 0 0
    outer loop
      vertex 4 18.6117 10
      vertex 4 27.5 1.5
      vertex 4 29.9 10
    endloop
  endfacet
  facet normal 1 0 0
    outer loop
      vertex 4 27.5 0
      vertex 4 27.5 1.5
      vertex 4 18.6117 10
    endloop
  endfacet
  facet normal 1 0 0
    outer loop
      vertex 4 18.3147 9.4443
      vertex 4 27.5 0
      vertex 4 18.6117 10
    endloop
  endfacet
  facet normal 1 0 0
    outer loop
      vertex 4 17.0711 7.92893
      vertex 4 27.5 0
      vertex 4 18.3147 9.4443
    endloop
  endfacet
  facet normal 1 0 0
    outer loop
      vertex 4 15.5557 6.6853
      vertex 4 27.5 0
      vertex 4 17.0711 7.92893
    endloop
  endfacet
  facet normal 1 0 0
    outer loop
      vertex 4 13.8268 5.76121
      vertex 4 27.5 0
      vertex 4 15.5557 6.6853
    endloop
  endfacet
  facet normal 1 0 0
    outer loop
      vertex 4 11.9509 5.19215
      vertex 4 27.5 0
      vertex 4 13.8268 5.76121
    endloop
  endfacet
  facet normal 1 0 0
    outer loop
      vertex 4 10 5
      vertex 4 27.5 0
      vertex 4 11.9509 5.19215
    endloop
  endfacet
  facet normal 1 0 0
    outer loop
      vertex 4 4.5 5
      vertex 4 27.5 0
      vertex 4 10 5
    endloop
  endfacet
  facet normal 1 0 0
    outer loop
      vertex 4 4.5 0
      vertex 4 27.5 0
      vertex 4 4.5 5
    endloop
  endfacet
  facet normal 0 -1 0
    outer loop
      vertex 60 27.5 0
      vertex 60 27.5 1.5
      vertex 4 27.5 1.5
    endloop
  endfacet
  facet normal 0 -1 0
    outer loop
      vertex 4 27.5 0
      vertex 60 27.5 0
      vertex 4 27.5 1.5
    endloop
  endfacet
  facet normal -1 0 0
    outer loop
      vertex 60 10 5
      vertex 60 29.9 1.5
      vertex 60 4.5 5
    endloop
  endfacet
  facet normal -1 0 0
    outer loop
      vertex 60 13.8268 5.76121
      vertex 60 29.9 10
      vertex 60 11.9509 5.19215
    endloop
  endfacet
  facet normal -1 0 0
    outer loop
      vertex 60 15.5557 6.6853
      vertex 60 29.9 10
      vertex 60 13.8268 5.76121
    endloop
  endfacet
  facet normal -1 0 0
    outer loop
      vertex 60 17.0711 7.92893
      vertex 60 29.9 10
      vertex 60 15.5557 6.6853
    endloop
  endfacet
  facet normal -1 0 0
    outer loop
      vertex 60 18.3147 9.4443
      vertex 60 18.6117 10
      vertex 60 29.9 10
    endloop
  endfacet
  facet normal -1 0 0
    outer loop
      vertex 60 18.3147 9.4443
      vertex 60 29.9 10
      vertex 60 17.0711 7.92893
    endloop
  endfacet
  facet normal -1 0 0
    outer loop
      vertex 60 11.9509 5.19215
      vertex 60 29.9 10
      vertex 60 29.9 1.5
    endloop
  endfacet
  facet normal -1 0 0
    outer loop
      vertex 60 11.9509 5.19215
      vertex 60 29.9 1.5
      vertex 60 10 5
    endloop
  endfacet
  facet normal -1 0 0
    outer loop
      vertex 60 29.9 1.5
      vertex 60 27.5 1.5
      vertex 60 4.5 5
    endloop
  endfacet
  facet normal -1 0 0
    outer loop
      vertex 60 27.5 1.5
      vertex 60 27.5 0
      vertex 60 4.5 5
    endloop
  endfacet
  facet normal -1 0 0
    outer loop
      vertex 60 27.5 0
      vertex 60 4.5 0
      vertex 60 4.5 5
    endloop
  endfacet
  facet normal 0 -1 0
    outer loop
      vertex 61 4.5 0
      vertex 61 4.5 5
      vertex 60 4.5 5
    endloop
  endfacet
  facet normal 0 -1 0
    outer loop
      vertex 60 4.5 0
      vertex 61 4.5 0
      vertex 60 4.5 5
    endloop
  endfacet
  facet normal -1 0 0
    outer loop
      vertex 61 4.5 5
      vertex 61 4.5 0
      vertex 61 2 5
    endloop
  endfacet
  facet normal -1 0 0
    outer loop
      vertex 61 2 5
      vertex 61 4.5 0
      vertex 61 2 0
    endloop
  endfacet
  facet normal 0 1 0
    outer loop
      vertex 61 2 5
      vertex 61 2 0
      vertex 60 2 5
    endloop
  endfacet
  facet normal 0 1 0
    outer loop
      vertex 60 2 5
      vertex 61 2 0
      vertex 60 2 0
    endloop
  endfacet
  facet normal -1 0 0
    outer loop
      vertex 60 2 5
      vertex 60 2 0
      vertex 60 0 5
    endloop
  endfacet
  facet normal -1 0 0
    outer loop
      vertex 60 0 5
      vertex 60 2 0
      vertex 60 0 0
    endloop
  endfacet
  facet normal 0 -1 0
    outer loop
      vertex 60 0 5
      vertex 60 0 0
      vertex 64 0 0
    endloop
  endfacet
  facet normal 0 -1 0
    outer loop
      vertex 64 0 5
      vertex 60 0 5
      vertex 64 0 0
    endloop
  endfacet
  facet normal 1 0 0
    outer loop
      vertex 64 0 5
      vertex 64 0 0
      vertex 64 30.5 0
    endloop
  endfacet
  facet normal 1 0 0
    outer loop
      vertex 64 10 5
      vertex 64 0 5
      vertex 64 30.5 0
    endloop
  endfacet
  facet normal 1 0 0
    outer loop
      vertex 64 18.6117 10
      vertex 64 18.3147 9.4443
      vertex 64 30.5 10
    endloop
  endfacet
  facet normal 1 0 0
    outer loop
      vertex 64 18.3147 9.4443
      vertex 64 17.0711 7.92893
      vertex 64 30.5 10
    endloop
  endfacet
  facet normal 1 0 0
    outer loop
      vertex 64 30.5 10
      vertex 64 15.5557 6.6853
      vertex 64 30.5 0
    endloop
  endfacet
  facet normal 1 0 0
    outer loop
      vertex 64 15.5557 6.6853
      vertex 64 13.8268 5.76121
      vertex 64 30.5 0
    endloop
  endfacet
  facet normal 1 0 0
    outer loop
      vertex 64 13.8268 5.76121
      vertex 64 11.9509 5.19215
      vertex 64 30.5 0
    endloop
  endfacet
  facet normal 1 0 0
    outer loop
      vertex 64 11.9509 5.19215
      vertex 64 10 5
      vertex 64 30.5 0
    endloop
  endfacet
  facet normal 1 0 0
    outer loop
      vertex 64 17.0711 7.92893
      vertex 64 15.5557 6.6853
      vertex 64 30.5 10
    endloop
  endfacet
  facet normal 0.995185 0.0980175 0
    outer loop
      vertex 64 30.5 0
      vertex 63.9039 31.4755 0
      vertex 63.9039 31.4755 10
    endloop
  endfacet
  facet normal 0.995185 0.0980175 0
    outer loop
      vertex 64 30.5 10
      vertex 64 30.5 0
      vertex 63.9039 31.4755 10
    endloop
  endfacet
  facet normal 0.95694 0.290284 0
    outer loop
      vertex 63.9039 31.4755 0
      vertex 63.6194 32.4134 0
      vertex 63.6194 32.4134 10
    endloop
  endfacet
  facet normal 0.95694 0.290284 0
    outer loop
      vertex 63.9039 31.4755 10
      vertex 63.9039 31.4755 0
      vertex 63.6194 32.4134 10
    endloop
  endfacet
  facet normal 0.881921 0.471397 0
    outer loop
      vertex 63.6194 32.4134 0
      vertex 63.1573 33.2779 0
      vertex 63.1573 33.2779 10
    endloop
  endfacet
  facet normal 0.881921 0.471397 0
    outer loop
      vertex 63.6194 32.4134 10
      vertex 63.6194 32.4134 0
      vertex 63.1573 33.2779 10
    endloop
  endfacet
  facet normal 0.773011 0.634393 0
    outer loop
      vertex 63.1573 33.2779 0
      vertex 62.5355 34.0355 0
      vertex 62.5355 34.0355 10
    endloop
  endfacet
  facet normal 0.773011 0.634393 0
    outer loop
      vertex 63.1573 33.2779 10
      vertex 63.1573 33.2779 0
      vertex 62.5355 34.0355 10
    endloop
  endfacet
  facet normal 0.707107 0.707107 0
    outer loop
      vertex 58.0355 38.5355 0
      vertex 58.0355 38.5355 10
      vertex 62.5355 34.0355 0
    endloop
  endfacet
  facet normal 0.707107 0.707107 0
    outer loop
      vertex 62.5355 34.0355 0
      vertex 58.0355 38.5355 10
      vertex 62.5355 34.0355 10
    endloop
  endfacet
  facet normal 0.634393 0.773011 0
    outer loop
      vertex 57.2779 39.1573 0
      vertex 57.2779 39.1573 10
      vertex 58.0355 38.5355 0
    endloop
  endfacet
  facet normal 0.634393 0.773011 0
    outer loop
      vertex 58.0355 38.5355 0
      vertex 57.2779 39.1573 10
      vertex 58.0355 38.5355 10
    endloop
  endfacet
  facet normal 0.471397 0.881921 0
    outer loop
      vertex 56.4134 39.6194 0
      vertex 56.4134 39.6194 10
      vertex 57.2779 39.1573 0
    endloop
  endfacet
  facet normal 0.471397 0.881921 0
    outer loop
      vertex 57.2779 39.1573 0
      vertex 56.4134 39.6194 10
      vertex 57.2779 39.1573 10
    endloop
  endfacet
  facet normal 0.290284 0.95694 0
    outer loop
      vertex 55.4755 39.9039 0
      vertex 55.4755 39.9039 10
      vertex 56.4134 39.6194 0
    endloop
  endfacet
  facet normal 0.290284 0.95694 0
    outer loop
      vertex 56.4134 39.6194 0
      vertex 55.4755 39.9039 10
      vertex 56.4134 39.6194 10
    endloop
  endfacet
  facet normal 0.0980175 0.995185 0
    outer loop
      vertex 54.5 40 0
      vertex 54.5 40 10
      vertex 55.4755 39.9039 0
    endloop
  endfacet
  facet normal 0.0980175 0.995185 0
    outer loop
      vertex 55.4755 39.9039 0
      vertex 54.5 40 10
      vertex 55.4755 39.9039 10
    endloop
  endfacet
  facet normal 0 1 0
    outer loop
      vertex 17.8579 40 9.25786
      vertex 9.5 40 10
      vertex 17.2488 40 10
    endloop
  endfacet
  facet normal 0 1 0
    outer loop
      vertex 16.6123 40 6.47821
      vertex 9.5 40 10
      vertex 20.8886 40 6.77061
    endloop
  endfacet
  facet normal 0 1 0
    outer loop
      vertex 16.8889 40 3.66965
      vertex 20.8886 40 6.77061
      vertex 24.3463 40 4.92241
    endloop
  endfacet
  facet normal 0 1 0
    outer loop
      vertex 9.5 40 0
      vertex 24.3463 40 4.92241
      vertex 28.0982 40 3.78429
    endloop
  endfacet
  facet normal 0 1 0
    outer loop
      vertex 9.5 40 0
      vertex 28.0982 40 3.78429
      vertex 54.5 40 0
    endloop
  endfacet
  facet normal 0 1 0
    outer loop
      vertex 28.0982 40 3.78429
      vertex 32 40 3.4
      vertex 54.5 40 0
    endloop
  endfacet
  facet normal 0 1 0
    outer loop
      vertex 35.9018 40 3.78429
      vertex 54.5 40 0
      vertex 32 40 3.4
    endloop
  endfacet
  facet normal 0 1 0
    outer loop
      vertex 39.6537 40 4.92241
      vertex 54.5 40 0
      vertex 35.9018 40 3.78429
    endloop
  endfacet
  facet normal 0 1 0
    outer loop
      vertex 15.6879 40 3.43074
      vertex 9.5 40 0
      vertex 15.3877 40 3.52179
    endloop
  endfacet
  facet normal 0 1 0
    outer loop
      vertex 46.4307 40 4.68785
      vertex 39.6537 40 4.92241
      vertex 43.1114 40 6.77061
    endloop
  endfacet
  facet normal 0 1 0
    outer loop
      vertex 49.3304 40 5.88891
      vertex 46.7512 40 10
      vertex 54.5 40 0
    endloop
  endfacet
  facet normal 0 1 0
    outer loop
      vertex 54.5 40 0
      vertex 46.7512 40 10
      vertex 54.5 40 10
    endloop
  endfacet
  facet normal 0 1 0
    outer loop
      vertex 9.5 40 0
      vertex 9.5 40 10
      vertex 14.4 40 5
    endloop
  endfacet
  facet normal 0 1 0
    outer loop
      vertex 9.5 40 0
      vertex 14.4 40 5
      vertex 14.4307 40 4.68785
    endloop
  endfacet
  facet normal 0 1 0
    outer loop
      vertex 9.5 40 0
      vertex 14.4307 40 4.68785
      vertex 14.5218 40 4.38771
    endloop
  endfacet
  facet normal 0 1 0
    outer loop
      vertex 9.5 40 0
      vertex 14.5218 40 4.38771
      vertex 14.6696 40 4.11109
    endloop
  endfacet
  facet normal 0 1 0
    outer loop
      vertex 9.5 40 0
      vertex 14.6696 40 4.11109
      vertex 14.8686 40 3.86863
    endloop
  endfacet
  facet normal 0 1 0
    outer loop
      vertex 9.5 40 0
      vertex 14.8686 40 3.86863
      vertex 15.1111 40 3.66965
    endloop
  endfacet
  facet normal 0 1 0
    outer loop
      vertex 9.5 40 0
      vertex 15.1111 40 3.66965
      vertex 15.3877 40 3.52179
    endloop
  endfacet
  facet normal 0 1 0
    outer loop
      vertex 17.6 40 5
      vertex 20.8886 40 6.77061
      vertex 17.5693 40 4.68785
    endloop
  endfacet
  facet normal 0 1 0
    outer loop
      vertex 9.5 40 0
      vertex 15.6879 40 3.43074
      vertex 16 40 3.4
    endloop
  endfacet
  facet normal 0 1 0
    outer loop
      vertex 9.5 40 0
      vertex 16 40 3.4
      vertex 16.3121 40 3.43074
    endloop
  endfacet
  facet normal 0 1 0
    outer loop
      vertex 9.5 40 0
      vertex 16.3121 40 3.43074
      vertex 24.3463 40 4.92241
    endloop
  endfacet
  facet normal 0 1 0
    outer loop
      vertex 16.8889 40 3.66965
      vertex 24.3463 40 4.92241
      vertex 16.6123 40 3.52179
    endloop
  endfacet
  facet normal 0 1 0
    outer loop
      vertex 17.1314 40 3.86863
      vertex 20.8886 40 6.77061
      vertex 16.8889 40 3.66965
    endloop
  endfacet
  facet normal 0 1 0
    outer loop
      vertex 17.5693 40 4.68785
      vertex 20.8886 40 6.77061
      vertex 17.4782 40 4.38771
    endloop
  endfacet
  facet normal 0 1 0
    outer loop
      vertex 17.3304 40 4.11109
      vertex 20.8886 40 6.77061
      vertex 17.1314 40 3.86863
    endloop
  endfacet
  facet normal 0 1 0
    outer loop
      vertex 17.4782 40 4.38771
      vertex 20.8886 40 6.77061
      vertex 17.3304 40 4.11109
    endloop
  endfacet
  facet normal 0 1 0
    outer loop
      vertex 16.6123 40 3.52179
      vertex 24.3463 40 4.92241
      vertex 16.3121 40 3.43074
    endloop
  endfacet
  facet normal 0 1 0
    outer loop
      vertex 17.5693 40 5.31215
      vertex 20.8886 40 6.77061
      vertex 17.6 40 5
    endloop
  endfacet
  facet normal 0 1 0
    outer loop
      vertex 17.4782 40 5.61229
      vertex 20.8886 40 6.77061
      vertex 17.5693 40 5.31215
    endloop
  endfacet
  facet normal 0 1 0
    outer loop
      vertex 17.3304 40 5.88891
      vertex 20.8886 40 6.77061
      vertex 17.4782 40 5.61229
    endloop
  endfacet
  facet normal 0 1 0
    outer loop
      vertex 46.4307 40 4.68785
      vertex 43.1114 40 6.77061
      vertex 46.4 40 5
    endloop
  endfacet
  facet normal 0 1 0
    outer loop
      vertex 16.3121 40 6.56926
      vertex 9.5 40 10
      vertex 16.6123 40 6.47821
    endloop
  endfacet
  facet normal 0 1 0
    outer loop
      vertex 15.6879 40 6.56926
      vertex 9.5 40 10
      vertex 16 40 6.6
    endloop
  endfacet
  facet normal 0 1 0
    outer loop
      vertex 17.3304 40 5.88891
      vertex 17.1314 40 6.13137
      vertex 20.8886 40 6.77061
    endloop
  endfacet
  facet normal 0 1 0
    outer loop
      vertex 16 40 6.6
      vertex 9.5 40 10
      vertex 16.3121 40 6.56926
    endloop
  endfacet
  facet normal 0 1 0
    outer loop
      vertex 17.1314 40 6.13137
      vertex 16.8889 40 6.33035
      vertex 20.8886 40 6.77061
    endloop
  endfacet
  facet normal 0 1 0
    outer loop
      vertex 16.8889 40 6.33035
      vertex 16.6123 40 6.47821
      vertex 20.8886 40 6.77061
    endloop
  endfacet
  facet normal 0 1 0
    outer loop
      vertex 48.8889 40 3.66965
      vertex 54.5 40 0
      vertex 48.6123 40 3.52179
    endloop
  endfacet
  facet normal 0 1 0
    outer loop
      vertex 15.3877 40 6.47821
      vertex 9.5 40 10
      vertex 15.6879 40 6.56926
    endloop
  endfacet
  facet normal 0 1 0
    outer loop
      vertex 15.1111 40 6.33035
      vertex 9.5 40 10
      vertex 15.3877 40 6.47821
    endloop
  endfacet
  facet normal 0 1 0
    outer loop
      vertex 14.8686 40 6.13137
      vertex 9.5 40 10
      vertex 15.1111 40 6.33035
    endloop
  endfacet
  facet normal 0 1 0
    outer loop
      vertex 14.6696 40 5.88891
      vertex 9.5 40 10
      vertex 14.8686 40 6.13137
    endloop
  endfacet
  facet normal 0 1 0
    outer loop
      vertex 14.5218 40 5.61229
      vertex 9.5 40 10
      vertex 14.6696 40 5.88891
    endloop
  endfacet
  facet normal 0 1 0
    outer loop
      vertex 14.4307 40 5.31215
      vertex 9.5 40 10
      vertex 14.5218 40 5.61229
    endloop
  endfacet
  facet normal 0 1 0
    outer loop
      vertex 14.4 40 5
      vertex 9.5 40 10
      vertex 14.4307 40 5.31215
    endloop
  endfacet
  facet normal 0 1 0
    outer loop
      vertex 43.1114 40 6.77061
      vertex 46.1421 40 9.25786
      vertex 46.4 40 5
    endloop
  endfacet
  facet normal 0 1 0
    outer loop
      vertex 48.3121 40 6.56926
      vertex 46.1421 40 9.25786
      vertex 48.6123 40 6.47821
    endloop
  endfacet
  facet normal 0 1 0
    outer loop
      vertex 46.5218 40 4.38771
      vertex 39.6537 40 4.92241
      vertex 46.4307 40 4.68785
    endloop
  endfacet
  facet normal 0 1 0
    outer loop
      vertex 47.6879 40 3.43074
      vertex 54.5 40 0
      vertex 47.3877 40 3.52179
    endloop
  endfacet
  facet normal 0 1 0
    outer loop
      vertex 46.6696 40 4.11109
      vertex 39.6537 40 4.92241
      vertex 46.5218 40 4.38771
    endloop
  endfacet
  facet normal 0 1 0
    outer loop
      vertex 46.8686 40 3.86863
      vertex 39.6537 40 4.92241
      vertex 46.6696 40 4.11109
    endloop
  endfacet
  facet normal 0 1 0
    outer loop
      vertex 47.1111 40 3.66965
      vertex 39.6537 40 4.92241
      vertex 46.8686 40 3.86863
    endloop
  endfacet
  facet normal 0 1 0
    outer loop
      vertex 47.3877 40 3.52179
      vertex 39.6537 40 4.92241
      vertex 47.1111 40 3.66965
    endloop
  endfacet
  facet normal 0 1 0
    outer loop
      vertex 54.5 40 0
      vertex 39.6537 40 4.92241
      vertex 47.3877 40 3.52179
    endloop
  endfacet
  facet normal 0 1 0
    outer loop
      vertex 48 40 3.4
      vertex 54.5 40 0
      vertex 47.6879 40 3.43074
    endloop
  endfacet
  facet normal 0 1 0
    outer loop
      vertex 48.3121 40 3.43074
      vertex 54.5 40 0
      vertex 48 40 3.4
    endloop
  endfacet
  facet normal 0 1 0
    outer loop
      vertex 48.6123 40 3.52179
      vertex 54.5 40 0
      vertex 48.3121 40 3.43074
    endloop
  endfacet
  facet normal 0 1 0
    outer loop
      vertex 49.4782 40 5.61229
      vertex 54.5 40 0
      vertex 49.5693 40 5.31215
    endloop
  endfacet
  facet normal 0 1 0
    outer loop
      vertex 48.8889 40 3.66965
      vertex 49.1314 40 3.86863
      vertex 54.5 40 0
    endloop
  endfacet
  facet normal 0 1 0
    outer loop
      vertex 47.3877 40 6.47821
      vertex 46.1421 40 9.25786
      vertex 47.6879 40 6.56926
    endloop
  endfacet
  facet normal 0 1 0
    outer loop
      vertex 49.1314 40 3.86863
      vertex 49.3304 40 4.11109
      vertex 54.5 40 0
    endloop
  endfacet
  facet normal 0 1 0
    outer loop
      vertex 49.3304 40 4.11109
      vertex 49.4782 40 4.38771
      vertex 54.5 40 0
    endloop
  endfacet
  facet normal 0 1 0
    outer loop
      vertex 47.6879 40 6.56926
      vertex 46.1421 40 9.25786
      vertex 48 40 6.6
    endloop
  endfacet
  facet normal 0 1 0
    outer loop
      vertex 49.4782 40 4.38771
      vertex 49.5693 40 4.68785
      vertex 54.5 40 0
    endloop
  endfacet
  facet normal 0 1 0
    outer loop
      vertex 48 40 6.6
      vertex 46.1421 40 9.25786
      vertex 48.3121 40 6.56926
    endloop
  endfacet
  facet normal 0 1 0
    outer loop
      vertex 49.5693 40 4.68785
      vertex 49.6 40 5
      vertex 54.5 40 0
    endloop
  endfacet
  facet normal 0 1 0
    outer loop
      vertex 49.6 40 5
      vertex 49.5693 40 5.31215
      vertex 54.5 40 0
    endloop
  endfacet
  facet normal 0 1 0
    outer loop
      vertex 48.6123 40 6.47821
      vertex 46.1421 40 9.25786
      vertex 48.8889 40 6.33035
    endloop
  endfacet
  facet normal 0 1 0
    outer loop
      vertex 49.1314 40 6.13137
      vertex 46.7512 40 10
      vertex 49.3304 40 5.88891
    endloop
  endfacet
  facet normal 0 1 0
    outer loop
      vertex 49.4782 40 5.61229
      vertex 49.3304 40 5.88891
      vertex 54.5 40 0
    endloop
  endfacet
  facet normal 0 1 0
    outer loop
      vertex 46.1421 40 9.25786
      vertex 46.7512 40 10
      vertex 49.1314 40 6.13137
    endloop
  endfacet
  facet normal 0 1 0
    outer loop
      vertex 46.1421 40 9.25786
      vertex 49.1314 40 6.13137
      vertex 48.8889 40 6.33035
    endloop
  endfacet
  facet normal 0 1 0
    outer loop
      vertex 47.1111 40 6.33035
      vertex 46.1421 40 9.25786
      vertex 47.3877 40 6.47821
    endloop
  endfacet
  facet normal 0 1 0
    outer loop
      vertex 46.8686 40 6.13137
      vertex 46.1421 40 9.25786
      vertex 47.1111 40 6.33035
    endloop
  endfacet
  facet normal 0 1 0
    outer loop
      vertex 46.6696 40 5.88891
      vertex 46.1421 40 9.25786
      vertex 46.8686 40 6.13137
    endloop
  endfacet
  facet normal 0 1 0
    outer loop
      vertex 46.5218 40 5.61229
      vertex 46.1421 40 9.25786
      vertex 46.6696 40 5.88891
    endloop
  endfacet
  facet normal 0 1 0
    outer loop
      vertex 46.4307 40 5.31215
      vertex 46.1421 40 9.25786
      vertex 46.5218 40 5.61229
    endloop
  endfacet
  facet normal 0 1 0
    outer loop
      vertex 46.4 40 5
      vertex 46.1421 40 9.25786
      vertex 46.4307 40 5.31215
    endloop
  endfacet
  facet normal 0 1 0
    outer loop
      vertex 20.8886 40 6.77061
      vertex 9.5 40 10
      vertex 17.8579 40 9.25786
    endloop
  endfacet
  facet normal -0.0980175 0.995185 0
    outer loop
      vertex 8.52455 39.9039 0
      vertex 8.52455 39.9039 10
      vertex 9.5 40 0
    endloop
  endfacet
  facet normal -0.0980175 0.995185 0
    outer loop
      vertex 9.5 40 0
      vertex 8.52455 39.9039 10
      vertex 9.5 40 10
    endloop
  endfacet
  facet normal -0.290284 0.95694 0
    outer loop
      vertex 7.58658 39.6194 0
      vertex 7.58658 39.6194 10
      vertex 8.52455 39.9039 0
    endloop
  endfacet
  facet normal -0.290284 0.95694 0
    outer loop
      vertex 8.52455 39.9039 0
      vertex 7.58658 39.6194 10
      vertex 8.52455 39.9039 10
    endloop
  endfacet
  facet normal -0.471397 0.881921 0
    outer loop
      vertex 6.72215 39.1573 0
      vertex 6.72215 39.1573 10
      vertex 7.58658 39.6194 0
    endloop
  endfacet
  facet normal -0.471397 0.881921 0
    outer loop
      vertex 7.58658 39.6194 0
      vertex 6.72215 39.1573 10
      vertex 7.58658 39.6194 10
    endloop
  endfacet
  facet normal -0.634393 0.773011 0
    outer loop
      vertex 5.96447 38.5355 0
      vertex 5.96447 38.5355 10
      vertex 6.72215 39.1573 0
    endloop
  endfacet
  facet normal -0.634393 0.773011 0
    outer loop
      vertex 6.72215 39.1573 0
      vertex 5.96447 38.5355 10
      vertex 6.72215 39.1573 10
    endloop
  endfacet
  facet normal -0.707107 0.707107 0
    outer loop
      vertex 1.46447 34.0355 0
      vertex 1.46447 34.0355 10
      vertex 5.96447 38.5355 0
    endloop
  endfacet
  facet normal -0.707107 0.707107 0
    outer loop
      vertex 5.96447 38.5355 0
      vertex 1.46447 34.0355 10
      vertex 5.96447 38.5355 10
    endloop
  endfacet
  facet normal -0.773011 0.634393 0
    outer loop
      vertex 0.842652 33.2779 0
      vertex 0.842652 33.2779 10
      vertex 1.46447 34.0355 0
    endloop
  endfacet
  facet normal -0.773011 0.634393 0
    outer loop
      vertex 1.46447 34.0355 0
      vertex 0.842652 33.2779 10
      vertex 1.46447 34.0355 10
    endloop
  endfacet
  facet normal -0.881921 0.471397 0
    outer loop
      vertex 0.380602 32.4134 0
      vertex 0.380602 32.4134 10
      vertex 0.842652 33.2779 0
    endloop
  endfacet
  facet normal -0.881921 0.471397 0
    outer loop
      vertex 0.842652 33.2779 0
      vertex 0.380602 32.4134 10
      vertex 0.842652 33.2779 10
    endloop
  endfacet
  facet normal -0.95694 0.290284 0
    outer loop
      vertex 0.096074 31.4755 0
      vertex 0.096074 31.4755 10
      vertex 0.380602 32.4134 0
    endloop
  endfacet
  facet normal -0.95694 0.290284 0
    outer loop
      vertex 0.380602 32.4134 0
      vertex 0.096074 31.4755 10
      vertex 0.380602 32.4134 10
    endloop
  endfacet
  facet normal 0.773011 1.40864e-16 0.634393
    outer loop
      vertex 17.2488 36.5 10
      vertex 17.8579 36.5 9.25786
      vertex 17.8579 40 9.25786
    endloop
  endfacet
  facet normal 0.773011 1.40864e-16 0.634393
    outer loop
      vertex 17.2488 40 10
      vertex 17.2488 36.5 10
      vertex 17.8579 40 9.25786
    endloop
  endfacet
  facet normal 0 -1 0
    outer loop
      vertex 53.4 36.5 1.5
      vertex 53.4 36.5 10
      vertex 46.7512 36.5 10
    endloop
  endfacet
  facet normal 0 -1 0
    outer loop
      vertex 49.3304 36.5 5.88891
      vertex 49.4782 36.5 5.61229
      vertex 53.4 36.5 1.5
    endloop
  endfacet
  facet normal 0 -1 0
    outer loop
      vertex 49.1314 36.5 6.13137
      vertex 53.4 36.5 1.5
      vertex 46.7512 36.5 10
    endloop
  endfacet
  facet normal 0 -1 0
    outer loop
      vertex 35.9018 36.5 3.78429
      vertex 53.4 36.5 1.5
      vertex 39.6537 36.5 4.92241
    endloop
  endfacet
  facet normal 0 -1 0
    outer loop
      vertex 32 36.5 3.4
      vertex 53.4 36.5 1.5
      vertex 35.9018 36.5 3.78429
    endloop
  endfacet
  facet normal 0 -1 0
    outer loop
      vertex 10.6 36.5 1.5
      vertex 53.4 36.5 1.5
      vertex 32 36.5 3.4
    endloop
  endfacet
  facet normal 0 -1 0
    outer loop
      vertex 10.6 36.5 1.5
      vertex 32 36.5 3.4
      vertex 28.0982 36.5 3.78429
    endloop
  endfacet
  facet normal 0 -1 0
    outer loop
      vertex 10.6 36.5 1.5
      vertex 28.0982 36.5 3.78429
      vertex 24.3463 36.5 4.92241
    endloop
  endfacet
  facet normal 0 -1 0
    outer loop
      vertex 10.6 36.5 10
      vertex 24.3463 36.5 4.92241
      vertex 20.8886 36.5 6.77061
    endloop
  endfacet
  facet normal 0 -1 0
    outer loop
      vertex 10.6 36.5 10
      vertex 20.8886 36.5 6.77061
      vertex 17.8579 36.5 9.25786
    endloop
  endfacet
  facet normal 0 -1 0
    outer loop
      vertex 10.6 36.5 10
      vertex 17.8579 36.5 9.25786
      vertex 17.2488 36.5 10
    endloop
  endfacet
  facet normal 0 -1 0
    outer loop
      vertex 16.3121 36.5 6.56926
      vertex 24.3463 36.5 4.92241
      vertex 10.6 36.5 10
    endloop
  endfacet
  facet normal 0 -1 0
    outer loop
      vertex 10.6 36.5 1.5
      vertex 14.4 36.5 5
      vertex 10.6 36.5 10
    endloop
  endfacet
  facet normal 0 -1 0
    outer loop
      vertex 14.4 36.5 5
      vertex 14.4307 36.5 5.31215
      vertex 10.6 36.5 10
    endloop
  endfacet
  facet normal 0 -1 0
    outer loop
      vertex 14.4307 36.5 5.31215
      vertex 14.5218 36.5 5.61229
      vertex 10.6 36.5 10
    endloop
  endfacet
  facet normal 0 -1 0
    outer loop
      vertex 14.5218 36.5 5.61229
      vertex 14.6696 36.5 5.88891
      vertex 10.6 36.5 10
    endloop
  endfacet
  facet normal 0 -1 0
    outer loop
      vertex 17.5693 36.5 5.31215
      vertex 17.6 36.5 5
      vertex 24.3463 36.5 4.92241
    endloop
  endfacet
  facet normal 0 -1 0
    outer loop
      vertex 14.6696 36.5 5.88891
      vertex 14.8686 36.5 6.13137
      vertex 10.6 36.5 10
    endloop
  endfacet
  facet normal 0 -1 0
    outer loop
      vertex 14.8686 36.5 6.13137
      vertex 15.1111 36.5 6.33035
      vertex 10.6 36.5 10
    endloop
  endfacet
  facet normal 0 -1 0
    outer loop
      vertex 15.1111 36.5 6.33035
      vertex 15.3877 36.5 6.47821
      vertex 10.6 36.5 10
    endloop
  endfacet
  facet normal 0 -1 0
    outer loop
      vertex 15.3877 36.5 6.47821
      vertex 15.6879 36.5 6.56926
      vertex 10.6 36.5 10
    endloop
  endfacet
  facet normal 0 -1 0
    outer loop
      vertex 15.6879 36.5 6.56926
      vertex 16 36.5 6.6
      vertex 10.6 36.5 10
    endloop
  endfacet
  facet normal 0 -1 0
    outer loop
      vertex 16.8889 36.5 6.33035
      vertex 17.1314 36.5 6.13137
      vertex 24.3463 36.5 4.92241
    endloop
  endfacet
  facet normal 0 -1 0
    outer loop
      vertex 16 36.5 6.6
      vertex 16.3121 36.5 6.56926
      vertex 10.6 36.5 10
    endloop
  endfacet
  facet normal 0 -1 0
    outer loop
      vertex 16.6123 36.5 6.47821
      vertex 24.3463 36.5 4.92241
      vertex 16.3121 36.5 6.56926
    endloop
  endfacet
  facet normal 0 -1 0
    outer loop
      vertex 17.4782 36.5 5.61229
      vertex 17.5693 36.5 5.31215
      vertex 24.3463 36.5 4.92241
    endloop
  endfacet
  facet normal 0 -1 0
    outer loop
      vertex 17.1314 36.5 6.13137
      vertex 17.3304 36.5 5.88891
      vertex 24.3463 36.5 4.92241
    endloop
  endfacet
  facet normal 0 -1 0
    outer loop
      vertex 17.3304 36.5 5.88891
      vertex 17.4782 36.5 5.61229
      vertex 24.3463 36.5 4.92241
    endloop
  endfacet
  facet normal 0 -1 0
    outer loop
      vertex 15.6879 36.5 3.43074
      vertex 15.3877 36.5 3.52179
      vertex 10.6 36.5 1.5
    endloop
  endfacet
  facet normal 0 -1 0
    outer loop
      vertex 17.6 36.5 5
      vertex 17.5693 36.5 4.68786
      vertex 24.3463 36.5 4.92241
    endloop
  endfacet
  facet normal 0 -1 0
    outer loop
      vertex 16.3121 36.5 3.43074
      vertex 16 36.5 3.4
      vertex 10.6 36.5 1.5
    endloop
  endfacet
  facet normal 0 -1 0
    outer loop
      vertex 17.4782 36.5 4.38771
      vertex 24.3463 36.5 4.92241
      vertex 17.5693 36.5 4.68786
    endloop
  endfacet
  facet normal 0 -1 0
    outer loop
      vertex 17.3304 36.5 4.11109
      vertex 24.3463 36.5 4.92241
      vertex 17.4782 36.5 4.38771
    endloop
  endfacet
  facet normal 0 -1 0
    outer loop
      vertex 15.3877 36.5 3.52179
      vertex 15.1111 36.5 3.66965
      vertex 10.6 36.5 1.5
    endloop
  endfacet
  facet normal 0 -1 0
    outer loop
      vertex 17.1314 36.5 3.86863
      vertex 24.3463 36.5 4.92241
      vertex 17.3304 36.5 4.11109
    endloop
  endfacet
  facet normal 0 -1 0
    outer loop
      vertex 16.8889 36.5 3.66965
      vertex 24.3463 36.5 4.92241
      vertex 17.1314 36.5 3.86863
    endloop
  endfacet
  facet normal 0 -1 0
    outer loop
      vertex 16.6123 36.5 3.52179
      vertex 24.3463 36.5 4.92241
      vertex 16.8889 36.5 3.66965
    endloop
  endfacet
  facet normal 0 -1 0
    outer loop
      vertex 10.6 36.5 1.5
      vertex 24.3463 36.5 4.92241
      vertex 16.6123 36.5 3.52179
    endloop
  endfacet
  facet normal 0 -1 0
    outer loop
      vertex 16 36.5 3.4
      vertex 15.6879 36.5 3.43074
      vertex 10.6 36.5 1.5
    endloop
  endfacet
  facet normal 0 -1 0
    outer loop
      vertex 10.6 36.5 1.5
      vertex 16.6123 36.5 3.52179
      vertex 16.3121 36.5 3.43074
    endloop
  endfacet
  facet normal 0 -1 0
    outer loop
      vertex 48.6123 36.5 6.47821
      vertex 48.8889 36.5 6.33035
      vertex 46.1421 36.5 9.25786
    endloop
  endfacet
  facet normal 0 -1 0
    outer loop
      vertex 46.4 36.5 5
      vertex 46.4307 36.5 5.31215
      vertex 43.1114 36.5 6.77061
    endloop
  endfacet
  facet normal 0 -1 0
    outer loop
      vertex 47.6879 36.5 3.43074
      vertex 47.3877 36.5 3.52179
      vertex 39.6537 36.5 4.92241
    endloop
  endfacet
  facet normal 0 -1 0
    outer loop
      vertex 10.6 36.5 1.5
      vertex 15.1111 36.5 3.66965
      vertex 14.8686 36.5 3.86863
    endloop
  endfacet
  facet normal 0 -1 0
    outer loop
      vertex 10.6 36.5 1.5
      vertex 14.8686 36.5 3.86863
      vertex 14.6696 36.5 4.11109
    endloop
  endfacet
  facet normal 0 -1 0
    outer loop
      vertex 10.6 36.5 1.5
      vertex 14.6696 36.5 4.11109
      vertex 14.5218 36.5 4.38771
    endloop
  endfacet
  facet normal 0 -1 0
    outer loop
      vertex 10.6 36.5 1.5
      vertex 14.4307 36.5 4.68786
      vertex 14.4 36.5 5
    endloop
  endfacet
  facet normal 0 -1 0
    outer loop
      vertex 10.6 36.5 1.5
      vertex 14.5218 36.5 4.38771
      vertex 14.4307 36.5 4.68786
    endloop
  endfacet
  facet normal 0 -1 0
    outer loop
      vertex 39.6537 36.5 4.92241
      vertex 46.4 36.5 5
      vertex 43.1114 36.5 6.77061
    endloop
  endfacet
  facet normal 0 -1 0
    outer loop
      vertex 43.1114 36.5 6.77061
      vertex 46.4307 36.5 5.31215
      vertex 46.1421 36.5 9.25786
    endloop
  endfacet
  facet normal 0 -1 0
    outer loop
      vertex 46.4307 36.5 5.31215
      vertex 46.5218 36.5 5.61229
      vertex 46.1421 36.5 9.25786
    endloop
  endfacet
  facet normal 0 -1 0
    outer loop
      vertex 46.5218 36.5 5.61229
      vertex 46.6696 36.5 5.88891
      vertex 46.1421 36.5 9.25786
    endloop
  endfacet
  facet normal 0 -1 0
    outer loop
      vertex 46.6696 36.5 5.88891
      vertex 46.8686 36.5 6.13137
      vertex 46.1421 36.5 9.25786
    endloop
  endfacet
  facet normal 0 -1 0
    outer loop
      vertex 49.3304 36.5 4.11109
      vertex 49.1314 36.5 3.86863
      vertex 53.4 36.5 1.5
    endloop
  endfacet
  facet normal 0 -1 0
    outer loop
      vertex 46.8686 36.5 6.13137
      vertex 47.1111 36.5 6.33035
      vertex 46.1421 36.5 9.25786
    endloop
  endfacet
  facet normal 0 -1 0
    outer loop
      vertex 47.1111 36.5 6.33035
      vertex 47.3877 36.5 6.47821
      vertex 46.1421 36.5 9.25786
    endloop
  endfacet
  facet normal 0 -1 0
    outer loop
      vertex 47.3877 36.5 6.47821
      vertex 47.6879 36.5 6.56926
      vertex 46.1421 36.5 9.25786
    endloop
  endfacet
  facet normal 0 -1 0
    outer loop
      vertex 47.6879 36.5 6.56926
      vertex 48 36.5 6.6
      vertex 46.1421 36.5 9.25786
    endloop
  endfacet
  facet normal 0 -1 0
    outer loop
      vertex 48 36.5 6.6
      vertex 48.3121 36.5 6.56926
      vertex 46.1421 36.5 9.25786
    endloop
  endfacet
  facet normal 0 -1 0
    outer loop
      vertex 48.3121 36.5 6.56926
      vertex 48.6123 36.5 6.47821
      vertex 46.1421 36.5 9.25786
    endloop
  endfacet
  facet normal 0 -1 0
    outer loop
      vertex 49.5693 36.5 5.31215
      vertex 49.6 36.5 5
      vertex 53.4 36.5 1.5
    endloop
  endfacet
  facet normal 0 -1 0
    outer loop
      vertex 46.1421 36.5 9.25786
      vertex 48.8889 36.5 6.33035
      vertex 46.7512 36.5 10
    endloop
  endfacet
  facet normal 0 -1 0
    outer loop
      vertex 48.8889 36.5 6.33035
      vertex 49.1314 36.5 6.13137
      vertex 46.7512 36.5 10
    endloop
  endfacet
  facet normal 0 -1 0
    outer loop
      vertex 49.3304 36.5 5.88891
      vertex 53.4 36.5 1.5
      vertex 49.1314 36.5 6.13137
    endloop
  endfacet
  facet normal 0 -1 0
    outer loop
      vertex 49.4782 36.5 5.61229
      vertex 49.5693 36.5 5.31215
      vertex 53.4 36.5 1.5
    endloop
  endfacet
  facet normal 0 -1 0
    outer loop
      vertex 49.5693 36.5 4.68786
      vertex 49.4782 36.5 4.38771
      vertex 53.4 36.5 1.5
    endloop
  endfacet
  facet normal 0 -1 0
    outer loop
      vertex 49.6 36.5 5
      vertex 49.5693 36.5 4.68786
      vertex 53.4 36.5 1.5
    endloop
  endfacet
  facet normal 0 -1 0
    outer loop
      vertex 49.4782 36.5 4.38771
      vertex 49.3304 36.5 4.11109
      vertex 53.4 36.5 1.5
    endloop
  endfacet
  facet normal 0 -1 0
    outer loop
      vertex 49.1314 36.5 3.86863
      vertex 48.8889 36.5 3.66965
      vertex 53.4 36.5 1.5
    endloop
  endfacet
  facet normal 0 -1 0
    outer loop
      vertex 48.6123 36.5 3.52179
      vertex 53.4 36.5 1.5
      vertex 48.8889 36.5 3.66965
    endloop
  endfacet
  facet normal 0 -1 0
    outer loop
      vertex 48.3121 36.5 3.43074
      vertex 53.4 36.5 1.5
      vertex 48.6123 36.5 3.52179
    endloop
  endfacet
  facet normal 0 -1 0
    outer loop
      vertex 48 36.5 3.4
      vertex 53.4 36.5 1.5
      vertex 48.3121 36.5 3.43074
    endloop
  endfacet
  facet normal 0 -1 0
    outer loop
      vertex 47.6879 36.5 3.43074
      vertex 53.4 36.5 1.5
      vertex 48 36.5 3.4
    endloop
  endfacet
  facet normal 0 -1 0
    outer loop
      vertex 47.3877 36.5 3.52179
      vertex 47.1111 36.5 3.66965
      vertex 39.6537 36.5 4.92241
    endloop
  endfacet
  facet normal 0 -1 0
    outer loop
      vertex 39.6537 36.5 4.92241
      vertex 53.4 36.5 1.5
      vertex 47.6879 36.5 3.43074
    endloop
  endfacet
  facet normal 0 -1 0
    outer loop
      vertex 47.1111 36.5 3.66965
      vertex 46.8686 36.5 3.86863
      vertex 39.6537 36.5 4.92241
    endloop
  endfacet
  facet normal 0 -1 0
    outer loop
      vertex 46.8686 36.5 3.86863
      vertex 46.6696 36.5 4.11109
      vertex 39.6537 36.5 4.92241
    endloop
  endfacet
  facet normal 0 -1 0
    outer loop
      vertex 39.6537 36.5 4.92241
      vertex 46.6696 36.5 4.11109
      vertex 46.5218 36.5 4.38771
    endloop
  endfacet
  facet normal 0 -1 0
    outer loop
      vertex 39.6537 36.5 4.92241
      vertex 46.4307 36.5 4.68786
      vertex 46.4 36.5 5
    endloop
  endfacet
  facet normal 0 -1 0
    outer loop
      vertex 39.6537 36.5 4.92241
      vertex 46.5218 36.5 4.38771
      vertex 46.4307 36.5 4.68786
    endloop
  endfacet
  facet normal 0 -1 0
    outer loop
      vertex 16.6123 36.5 6.47821
      vertex 16.8889 36.5 6.33035
      vertex 24.3463 36.5 4.92241
    endloop
  endfacet
  facet normal 0.0980175 -0.995185 0
    outer loop
      vertex 10.6 36.5 1.5
      vertex 10.6 36.5 10
      vertex 10.1123 36.452 10
    endloop
  endfacet
  facet normal 0.0980175 -0.995185 0
    outer loop
      vertex 10.1123 36.452 1.5
      vertex 10.6 36.5 1.5
      vertex 10.1123 36.452 10
    endloop
  endfacet
  facet normal 0.290284 -0.956941 0
    outer loop
      vertex 10.1123 36.452 1.5
      vertex 10.1123 36.452 10
      vertex 9.64329 36.3097 10
    endloop
  endfacet
  facet normal 0.290284 -0.956941 0
    outer loop
      vertex 9.64329 36.3097 1.5
      vertex 10.1123 36.452 1.5
      vertex 9.64329 36.3097 10
    endloop
  endfacet
  facet normal 0.471397 -0.881921 0
    outer loop
      vertex 9.64329 36.3097 1.5
      vertex 9.64329 36.3097 10
      vertex 9.21107 36.0787 10
    endloop
  endfacet
  facet normal 0.471397 -0.881921 0
    outer loop
      vertex 9.21107 36.0787 1.5
      vertex 9.64329 36.3097 1.5
      vertex 9.21107 36.0787 10
    endloop
  endfacet
  facet normal 0.634394 -0.77301 0
    outer loop
      vertex 9.21107 36.0787 1.5
      vertex 9.21107 36.0787 10
      vertex 8.83223 35.7678 10
    endloop
  endfacet
  facet normal 0.634394 -0.77301 0
    outer loop
      vertex 8.83223 35.7678 1.5
      vertex 9.21107 36.0787 1.5
      vertex 8.83223 35.7678 10
    endloop
  endfacet
  facet normal 0.707107 -0.707107 0
    outer loop
      vertex 8.83223 35.7678 1.5
      vertex 8.83223 35.7678 10
      vertex 4.73223 31.6678 10
    endloop
  endfacet
  facet normal 0.707107 -0.707107 0
    outer loop
      vertex 4.73223 31.6678 1.5
      vertex 8.83223 35.7678 1.5
      vertex 4.73223 31.6678 10
    endloop
  endfacet
  facet normal 0.77301 -0.634394 0
    outer loop
      vertex 4.73223 31.6678 1.5
      vertex 4.73223 31.6678 10
      vertex 4.42133 31.2889 10
    endloop
  endfacet
  facet normal 0.77301 -0.634394 0
    outer loop
      vertex 4.42133 31.2889 1.5
      vertex 4.73223 31.6678 1.5
      vertex 4.42133 31.2889 10
    endloop
  endfacet
  facet normal 0.881921 -0.471397 0
    outer loop
      vertex 4.42133 31.2889 1.5
      vertex 4.42133 31.2889 10
      vertex 4.1903 30.8567 10
    endloop
  endfacet
  facet normal 0.881921 -0.471397 0
    outer loop
      vertex 4.1903 30.8567 1.5
      vertex 4.42133 31.2889 1.5
      vertex 4.1903 30.8567 10
    endloop
  endfacet
  facet normal 0.956941 -0.290284 0
    outer loop
      vertex 4.1903 30.8567 1.5
      vertex 4.1903 30.8567 10
      vertex 4.04804 30.3877 10
    endloop
  endfacet
  facet normal 0.956941 -0.290284 0
    outer loop
      vertex 4.04804 30.3877 1.5
      vertex 4.1903 30.8567 1.5
      vertex 4.04804 30.3877 10
    endloop
  endfacet
  facet normal 0.995185 -0.0980175 0
    outer loop
      vertex 4.04804 30.3877 1.5
      vertex 4.04804 30.3877 10
      vertex 4 29.9 10
    endloop
  endfacet
  facet normal 0.995185 -0.0980175 0
    outer loop
      vertex 4 29.9 1.5
      vertex 4.04804 30.3877 1.5
      vertex 4 29.9 10
    endloop
  endfacet
  facet normal 0 0 1
    outer loop
      vertex 60 27.5 1.5
      vertex 60 29.9 1.5
      vertex 59.952 30.3877 1.5
    endloop
  endfacet
  facet normal 0 0 1
    outer loop
      vertex 59.5787 31.2889 1.5
      vertex 60 27.5 1.5
      vertex 59.8097 30.8567 1.5
    endloop
  endfacet
  facet normal 0 0 1
    outer loop
      vertex 59.8097 30.8567 1.5
      vertex 60 27.5 1.5
      vertex 59.952 30.3877 1.5
    endloop
  endfacet
  facet normal 0 0 1
    outer loop
      vertex 59.2678 31.6678 1.5
      vertex 60 27.5 1.5
      vertex 59.5787 31.2889 1.5
    endloop
  endfacet
  facet normal 0 0 1
    outer loop
      vertex 55.1678 35.7678 1.5
      vertex 60 27.5 1.5
      vertex 59.2678 31.6678 1.5
    endloop
  endfacet
  facet normal 0 0 1
    outer loop
      vertex 54.7889 36.0787 1.5
      vertex 60 27.5 1.5
      vertex 55.1678 35.7678 1.5
    endloop
  endfacet
  facet normal 0 0 1
    outer loop
      vertex 54.3567 36.3097 1.5
      vertex 60 27.5 1.5
      vertex 54.7889 36.0787 1.5
    endloop
  endfacet
  facet normal 0 0 1
    outer loop
      vertex 53.8877 36.452 1.5
      vertex 60 27.5 1.5
      vertex 54.3567 36.3097 1.5
    endloop
  endfacet
  facet normal 0 0 1
    outer loop
      vertex 53.4 36.5 1.5
      vertex 60 27.5 1.5
      vertex 53.8877 36.452 1.5
    endloop
  endfacet
  facet normal 0 0 1
    outer loop
      vertex 10.6 36.5 1.5
      vertex 60 27.5 1.5
      vertex 53.4 36.5 1.5
    endloop
  endfacet
  facet normal 0 0 1
    outer loop
      vertex 10.1123 36.452 1.5
      vertex 60 27.5 1.5
      vertex 10.6 36.5 1.5
    endloop
  endfacet
  facet normal 0 0 1
    outer loop
      vertex 9.64329 36.3097 1.5
      vertex 60 27.5 1.5
      vertex 10.1123 36.452 1.5
    endloop
  endfacet
  facet normal 0 0 1
    outer loop
      vertex 9.21107 36.0787 1.5
      vertex 60 27.5 1.5
      vertex 9.64329 36.3097 1.5
    endloop
  endfacet
  facet normal 0 0 1
    outer loop
      vertex 8.83223 35.7678 1.5
      vertex 60 27.5 1.5
      vertex 9.21107 36.0787 1.5
    endloop
  endfacet
  facet normal 0 0 1
    outer loop
      vertex 4.73223 31.6678 1.5
      vertex 60 27.5 1.5
      vertex 8.83223 35.7678 1.5
    endloop
  endfacet
  facet normal 0 0 1
    outer loop
      vertex 4.42133 31.2889 1.5
      vertex 60 27.5 1.5
      vertex 4.73223 31.6678 1.5
    endloop
  endfacet
  facet normal 0 0 1
    outer loop
      vertex 4.1903 30.8567 1.5
      vertex 60 27.5 1.5
      vertex 4.42133 31.2889 1.5
    endloop
  endfacet
  facet normal 0 0 1
    outer loop
      vertex 4.04804 30.3877 1.5
      vertex 60 27.5 1.5
      vertex 4.1903 30.8567 1.5
    endloop
  endfacet
  facet normal 0 0 1
    outer loop
      vertex 4 29.9 1.5
      vertex 60 27.5 1.5
      vertex 4.04804 30.3877 1.5
    endloop
  endfacet
  facet normal 0 0 1
    outer loop
      vertex 4 27.5 1.5
      vertex 60 27.5 1.5
      vertex 4 29.9 1.5
    endloop
  endfacet
  facet normal 0 0 1
    outer loop
      vertex 64 0 5
      vertex 64 10 5
      vertex 60 10 5
    endloop
  endfacet
  facet normal 0 0 1
    outer loop
      vertex 61 4.5 5
      vertex 64 0 5
      vertex 60 10 5
    endloop
  endfacet
  facet normal 0 0 1
    outer loop
      vertex 60 4.5 5
      vertex 61 4.5 5
      vertex 60 10 5
    endloop
  endfacet
  facet normal 0 0 1
    outer loop
      vertex 60 2 5
      vertex 64 0 5
      vertex 61 2 5
    endloop
  endfacet
  facet normal 0 0 1
    outer loop
      vertex 60 0 5
      vertex 64 0 5
      vertex 60 2 5
    endloop
  endfacet
  facet normal 0 0 1
    outer loop
      vertex 61 4.5 5
      vertex 61 2 5
      vertex 64 0 5
    endloop
  endfacet
  facet normal -0.995185 -0.0980175 0
    outer loop
      vertex 60 29.9 10
      vertex 59.952 30.3877 10
      vertex 60 29.9 1.5
    endloop
  endfacet
  facet normal -0.995185 -0.0980175 0
    outer loop
      vertex 60 29.9 1.5
      vertex 59.952 30.3877 10
      vertex 59.952 30.3877 1.5
    endloop
  endfacet
  facet normal 0 0 1
    outer loop
      vertex 54.3567 36.3097 10
      vertex 63.6194 32.4134 10
      vertex 46.7512 40 10
    endloop
  endfacet
  facet normal 0 0 1
    outer loop
      vertex 46.7512 40 10
      vertex 46.7512 36.5 10
      vertex 53.4 36.5 10
    endloop
  endfacet
  facet normal 0 0 1
    outer loop
      vertex 54.7889 36.0787 10
      vertex 63.9039 31.4755 10
      vertex 54.3567 36.3097 10
    endloop
  endfacet
  facet normal 0 0 1
    outer loop
      vertex 53.8877 36.452 10
      vertex 46.7512 40 10
      vertex 53.4 36.5 10
    endloop
  endfacet
  facet normal 0 0 1
    outer loop
      vertex 53.8877 36.452 10
      vertex 54.3567 36.3097 10
      vertex 46.7512 40 10
    endloop
  endfacet
  facet normal 0 0 1
    outer loop
      vertex 55.1678 35.7678 10
      vertex 64 30.5 10
      vertex 54.7889 36.0787 10
    endloop
  endfacet
  facet normal 0 0 1
    outer loop
      vertex 59.2678 31.6678 10
      vertex 64 30.5 10
      vertex 55.1678 35.7678 10
    endloop
  endfacet
  facet normal 0 0 1
    outer loop
      vertex 59.5787 31.2889 10
      vertex 64 30.5 10
      vertex 59.2678 31.6678 10
    endloop
  endfacet
  facet normal 0 0 1
    outer loop
      vertex 59.8097 30.8567 10
      vertex 64 30.5 10
      vertex 59.5787 31.2889 10
    endloop
  endfacet
  facet normal 0 0 1
    outer loop
      vertex 59.952 30.3877 10
      vertex 64 18.6117 10
      vertex 59.8097 30.8567 10
    endloop
  endfacet
  facet normal 0 0 1
    outer loop
      vertex 60 29.9 10
      vertex 64 18.6117 10
      vertex 59.952 30.3877 10
    endloop
  endfacet
  facet normal 0 0 1
    outer loop
      vertex 60 18.6117 10
      vertex 64 18.6117 10
      vertex 60 29.9 10
    endloop
  endfacet
  facet normal 0 0 1
    outer loop
      vertex 64 18.6117 10
      vertex 64 30.5 10
      vertex 59.8097 30.8567 10
    endloop
  endfacet
  facet normal 0 0 1
    outer loop
      vertex 64 30.5 10
      vertex 63.9039 31.4755 10
      vertex 54.7889 36.0787 10
    endloop
  endfacet
  facet normal 0 0 1
    outer loop
      vertex 63.9039 31.4755 10
      vertex 63.6194 32.4134 10
      vertex 54.3567 36.3097 10
    endloop
  endfacet
  facet normal 0 0 1
    outer loop
      vertex 63.6194 32.4134 10
      vertex 63.1573 33.2779 10
      vertex 46.7512 40 10
    endloop
  endfacet
  facet normal 0 0 1
    outer loop
      vertex 63.1573 33.2779 10
      vertex 62.5355 34.0355 10
      vertex 46.7512 40 10
    endloop
  endfacet
  facet normal 0 0 1
    outer loop
      vertex 62.5355 34.0355 10
      vertex 58.0355 38.5355 10
      vertex 46.7512 40 10
    endloop
  endfacet
  facet normal 0 0 1
    outer loop
      vertex 58.0355 38.5355 10
      vertex 57.2779 39.1573 10
      vertex 46.7512 40 10
    endloop
  endfacet
  facet normal 0 0 1
    outer loop
      vertex 57.2779 39.1573 10
      vertex 56.4134 39.6194 10
      vertex 46.7512 40 10
    endloop
  endfacet
  facet normal 0 0 1
    outer loop
      vertex 56.4134 39.6194 10
      vertex 55.4755 39.9039 10
      vertex 46.7512 40 10
    endloop
  endfacet
  facet normal 0 0 1
    outer loop
      vertex 55.4755 39.9039 10
      vertex 54.5 40 10
      vertex 46.7512 40 10
    endloop
  endfacet
  facet normal -1.04671e-16 -0.881921 0.471397
    outer loop
      vertex 64 18.3147 9.4443
      vertex 64 18.6117 10
      vertex 60 18.6117 10
    endloop
  endfacet
  facet normal -1.04671e-16 -0.881921 0.471397
    outer loop
      vertex 60 18.3147 9.4443
      vertex 64 18.3147 9.4443
      vertex 60 18.6117 10
    endloop
  endfacet
  facet normal -1.40864e-16 -0.773011 0.634393
    outer loop
      vertex 64 17.0711 7.92893
      vertex 64 18.3147 9.4443
      vertex 60 18.3147 9.4443
    endloop
  endfacet
  facet normal -1.40864e-16 -0.773011 0.634393
    outer loop
      vertex 60 17.0711 7.92893
      vertex 64 17.0711 7.92893
      vertex 60 18.3147 9.4443
    endloop
  endfacet
  facet normal -1.71643e-16 -0.634393 0.773011
    outer loop
      vertex 64 15.5557 6.6853
      vertex 64 17.0711 7.92893
      vertex 60 17.0711 7.92893
    endloop
  endfacet
  facet normal -1.71643e-16 -0.634393 0.773011
    outer loop
      vertex 60 15.5557 6.6853
      vertex 64 15.5557 6.6853
      vertex 60 17.0711 7.92893
    endloop
  endfacet
  facet normal -1.95826e-16 -0.471397 0.881921
    outer loop
      vertex 64 13.8268 5.76121
      vertex 64 15.5557 6.6853
      vertex 60 15.5557 6.6853
    endloop
  endfacet
  facet normal -1.95826e-16 -0.471397 0.881921
    outer loop
      vertex 60 13.8268 5.76121
      vertex 64 13.8268 5.76121
      vertex 60 15.5557 6.6853
    endloop
  endfacet
  facet normal -2.12483e-16 -0.290285 0.95694
    outer loop
      vertex 64 11.9509 5.19215
      vertex 64 13.8268 5.76121
      vertex 60 13.8268 5.76121
    endloop
  endfacet
  facet normal -2.12483e-16 -0.290285 0.95694
    outer loop
      vertex 60 11.9509 5.19215
      vertex 64 11.9509 5.19215
      vertex 60 13.8268 5.76121
    endloop
  endfacet
  facet normal -2.20975e-16 -0.0980171 0.995185
    outer loop
      vertex 64 10 5
      vertex 64 11.9509 5.19215
      vertex 60 11.9509 5.19215
    endloop
  endfacet
  facet normal -2.20975e-16 -0.0980171 0.995185
    outer loop
      vertex 60 10 5
      vertex 64 10 5
      vertex 60 11.9509 5.19215
    endloop
  endfacet
  facet normal -0.773011 1.40864e-16 0.634393
    outer loop
      vertex 46.7512 40 10
      vertex 46.1421 40 9.25786
      vertex 46.7512 36.5 10
    endloop
  endfacet
  facet normal -0.773011 1.40864e-16 0.634393
    outer loop
      vertex 46.7512 36.5 10
      vertex 46.1421 40 9.25786
      vertex 46.1421 36.5 9.25786
    endloop
  endfacet
  facet normal -0.634393 1.71643e-16 0.773011
    outer loop
      vertex 46.1421 36.5 9.25786
      vertex 46.1421 40 9.25786
      vertex 43.1114 40 6.77061
    endloop
  endfacet
  facet normal -0.634393 1.71643e-16 0.773011
    outer loop
      vertex 43.1114 36.5 6.77061
      vertex 46.1421 36.5 9.25786
      vertex 43.1114 40 6.77061
    endloop
  endfacet
  facet normal -0.471397 1.95826e-16 0.881921
    outer loop
      vertex 43.1114 36.5 6.77061
      vertex 43.1114 40 6.77061
      vertex 39.6537 40 4.92241
    endloop
  endfacet
  facet normal -0.471397 1.95826e-16 0.881921
    outer loop
      vertex 39.6537 36.5 4.92241
      vertex 43.1114 36.5 6.77061
      vertex 39.6537 40 4.92241
    endloop
  endfacet
  facet normal -0.290285 2.12483e-16 0.95694
    outer loop
      vertex 39.6537 36.5 4.92241
      vertex 39.6537 40 4.92241
      vertex 35.9018 40 3.78429
    endloop
  endfacet
  facet normal -0.290285 2.12483e-16 0.95694
    outer loop
      vertex 35.9018 36.5 3.78429
      vertex 39.6537 36.5 4.92241
      vertex 35.9018 40 3.78429
    endloop
  endfacet
  facet normal -0.0980171 2.20975e-16 0.995185
    outer loop
      vertex 35.9018 36.5 3.78429
      vertex 35.9018 40 3.78429
      vertex 32 40 3.4
    endloop
  endfacet
  facet normal -0.0980171 2.20975e-16 0.995185
    outer loop
      vertex 32 36.5 3.4
      vertex 35.9018 36.5 3.78429
      vertex 32 40 3.4
    endloop
  endfacet
  facet normal 0.0980171 2.20975e-16 0.995185
    outer loop
      vertex 32 36.5 3.4
      vertex 32 40 3.4
      vertex 28.0982 40 3.78429
    endloop
  endfacet
  facet normal 0.0980171 2.20975e-16 0.995185
    outer loop
      vertex 28.0982 36.5 3.78429
      vertex 32 36.5 3.4
      vertex 28.0982 40 3.78429
    endloop
  endfacet
  facet normal 0.290285 2.12483e-16 0.95694
    outer loop
      vertex 28.0982 36.5 3.78429
      vertex 28.0982 40 3.78429
      vertex 24.3463 40 4.92241
    endloop
  endfacet
  facet normal 0.290285 2.12483e-16 0.95694
    outer loop
      vertex 24.3463 36.5 4.92241
      vertex 28.0982 36.5 3.78429
      vertex 24.3463 40 4.92241
    endloop
  endfacet
  facet normal 0.471397 1.95826e-16 0.881921
    outer loop
      vertex 24.3463 36.5 4.92241
      vertex 24.3463 40 4.92241
      vertex 20.8886 40 6.77061
    endloop
  endfacet
  facet normal 0.471397 1.95826e-16 0.881921
    outer loop
      vertex 20.8886 36.5 6.77061
      vertex 24.3463 36.5 4.92241
      vertex 20.8886 40 6.77061
    endloop
  endfacet
  facet normal 0.634393 1.71643e-16 0.773011
    outer loop
      vertex 20.8886 36.5 6.77061
      vertex 20.8886 40 6.77061
      vertex 17.8579 40 9.25786
    endloop
  endfacet
  facet normal 0.634393 1.71643e-16 0.773011
    outer loop
      vertex 17.8579 36.5 9.25786
      vertex 20.8886 36.5 6.77061
      vertex 17.8579 40 9.25786
    endloop
  endfacet
  facet normal 0.995185 -2.17645e-17 -0.0980184
    outer loop
      vertex 14.4 40 5
      vertex 14.4307 40 5.31215
      vertex 14.4307 36.5 5.31215
    endloop
  endfacet
  facet normal 0.995185 -2.17645e-17 -0.0980184
    outer loop
      vertex 14.4 36.5 5
      vertex 14.4 40 5
      vertex 14.4307 36.5 5.31215
    endloop
  endfacet
  facet normal 0.995185 2.17645e-17 0.0980184
    outer loop
      vertex 14.4307 36.5 4.68786
      vertex 14.4307 40 4.68785
      vertex 14.4 40 5
    endloop
  endfacet
  facet normal 0.995185 2.17645e-17 0.0980184
    outer loop
      vertex 14.4 36.5 5
      vertex 14.4307 36.5 4.68786
      vertex 14.4 40 5
    endloop
  endfacet
  facet normal 0.95694 -6.44562e-17 -0.290285
    outer loop
      vertex 14.4307 40 5.31215
      vertex 14.5218 40 5.61229
      vertex 14.5218 36.5 5.61229
    endloop
  endfacet
  facet normal 0.95694 -6.44562e-17 -0.290285
    outer loop
      vertex 14.4307 36.5 5.31215
      vertex 14.4307 40 5.31215
      vertex 14.5218 36.5 5.61229
    endloop
  endfacet
  facet normal 0.881921 -1.04671e-16 -0.471397
    outer loop
      vertex 14.5218 40 5.61229
      vertex 14.6696 40 5.88891
      vertex 14.6696 36.5 5.88891
    endloop
  endfacet
  facet normal 0.881921 -1.04671e-16 -0.471397
    outer loop
      vertex 14.5218 36.5 5.61229
      vertex 14.5218 40 5.61229
      vertex 14.6696 36.5 5.88891
    endloop
  endfacet
  facet normal 0.773012 -1.40863e-16 -0.634391
    outer loop
      vertex 14.6696 40 5.88891
      vertex 14.8686 40 6.13137
      vertex 14.8686 36.5 6.13137
    endloop
  endfacet
  facet normal 0.773012 -1.40863e-16 -0.634391
    outer loop
      vertex 14.6696 36.5 5.88891
      vertex 14.6696 40 5.88891
      vertex 14.8686 36.5 6.13137
    endloop
  endfacet
  facet normal 0.634391 -1.71643e-16 -0.773012
    outer loop
      vertex 15.1111 40 6.33035
      vertex 15.1111 36.5 6.33035
      vertex 14.8686 40 6.13137
    endloop
  endfacet
  facet normal 0.634391 -1.71643e-16 -0.773012
    outer loop
      vertex 14.8686 40 6.13137
      vertex 15.1111 36.5 6.33035
      vertex 14.8686 36.5 6.13137
    endloop
  endfacet
  facet normal 0.471397 -1.95826e-16 -0.881921
    outer loop
      vertex 15.3877 40 6.47821
      vertex 15.3877 36.5 6.47821
      vertex 15.1111 40 6.33035
    endloop
  endfacet
  facet normal 0.471397 -1.95826e-16 -0.881921
    outer loop
      vertex 15.1111 40 6.33035
      vertex 15.3877 36.5 6.47821
      vertex 15.1111 36.5 6.33035
    endloop
  endfacet
  facet normal 0.290285 -2.12483e-16 -0.95694
    outer loop
      vertex 15.6879 40 6.56926
      vertex 15.6879 36.5 6.56926
      vertex 15.3877 40 6.47821
    endloop
  endfacet
  facet normal 0.290285 -2.12483e-16 -0.95694
    outer loop
      vertex 15.3877 40 6.47821
      vertex 15.6879 36.5 6.56926
      vertex 15.3877 36.5 6.47821
    endloop
  endfacet
  facet normal 0.0980184 -2.20975e-16 -0.995185
    outer loop
      vertex 16 40 6.6
      vertex 16 36.5 6.6
      vertex 15.6879 40 6.56926
    endloop
  endfacet
  facet normal 0.0980184 -2.20975e-16 -0.995185
    outer loop
      vertex 15.6879 40 6.56926
      vertex 16 36.5 6.6
      vertex 15.6879 36.5 6.56926
    endloop
  endfacet
  facet normal -0.0980184 -2.20975e-16 -0.995185
    outer loop
      vertex 16.3121 40 6.56926
      vertex 16.3121 36.5 6.56926
      vertex 16 40 6.6
    endloop
  endfacet
  facet normal -0.0980184 -2.20975e-16 -0.995185
    outer loop
      vertex 16 40 6.6
      vertex 16.3121 36.5 6.56926
      vertex 16 36.5 6.6
    endloop
  endfacet
  facet normal -0.290285 -2.12483e-16 -0.95694
    outer loop
      vertex 16.6123 40 6.47821
      vertex 16.6123 36.5 6.47821
      vertex 16.3121 40 6.56926
    endloop
  endfacet
  facet normal -0.290285 -2.12483e-16 -0.95694
    outer loop
      vertex 16.3121 40 6.56926
      vertex 16.6123 36.5 6.47821
      vertex 16.3121 36.5 6.56926
    endloop
  endfacet
  facet normal -0.471397 -1.95826e-16 -0.881921
    outer loop
      vertex 16.8889 40 6.33035
      vertex 16.8889 36.5 6.33035
      vertex 16.6123 40 6.47821
    endloop
  endfacet
  facet normal -0.471397 -1.95826e-16 -0.881921
    outer loop
      vertex 16.6123 40 6.47821
      vertex 16.8889 36.5 6.33035
      vertex 16.6123 36.5 6.47821
    endloop
  endfacet
  facet normal -0.634391 -1.71643e-16 -0.773012
    outer loop
      vertex 17.1314 40 6.13137
      vertex 17.1314 36.5 6.13137
      vertex 16.8889 40 6.33035
    endloop
  endfacet
  facet normal -0.634391 -1.71643e-16 -0.773012
    outer loop
      vertex 16.8889 40 6.33035
      vertex 17.1314 36.5 6.13137
      vertex 16.8889 36.5 6.33035
    endloop
  endfacet
  facet normal -0.773012 -1.40863e-16 -0.634391
    outer loop
      vertex 17.3304 40 5.88891
      vertex 17.3304 36.5 5.88891
      vertex 17.1314 40 6.13137
    endloop
  endfacet
  facet normal -0.773012 -1.40863e-16 -0.634391
    outer loop
      vertex 17.1314 40 6.13137
      vertex 17.3304 36.5 5.88891
      vertex 17.1314 36.5 6.13137
    endloop
  endfacet
  facet normal -0.881921 -1.04671e-16 -0.471397
    outer loop
      vertex 17.4782 40 5.61229
      vertex 17.4782 36.5 5.61229
      vertex 17.3304 40 5.88891
    endloop
  endfacet
  facet normal -0.881921 -1.04671e-16 -0.471397
    outer loop
      vertex 17.3304 40 5.88891
      vertex 17.4782 36.5 5.61229
      vertex 17.3304 36.5 5.88891
    endloop
  endfacet
  facet normal -0.95694 -6.44562e-17 -0.290285
    outer loop
      vertex 17.5693 40 5.31215
      vertex 17.5693 36.5 5.31215
      vertex 17.4782 40 5.61229
    endloop
  endfacet
  facet normal -0.95694 -6.44562e-17 -0.290285
    outer loop
      vertex 17.4782 40 5.61229
      vertex 17.5693 36.5 5.31215
      vertex 17.4782 36.5 5.61229
    endloop
  endfacet
  facet normal -0.995185 -2.17645e-17 -0.0980184
    outer loop
      vertex 17.6 40 5
      vertex 17.6 36.5 5
      vertex 17.5693 40 5.31215
    endloop
  endfacet
  facet normal -0.995185 -2.17645e-17 -0.0980184
    outer loop
      vertex 17.5693 40 5.31215
      vertex 17.6 36.5 5
      vertex 17.5693 36.5 5.31215
    endloop
  endfacet
  facet normal -0.995185 2.17645e-17 0.0980184
    outer loop
      vertex 17.6 40 5
      vertex 17.5693 40 4.68785
      vertex 17.6 36.5 5
    endloop
  endfacet
  facet normal -0.995185 2.17645e-17 0.0980184
    outer loop
      vertex 17.6 36.5 5
      vertex 17.5693 40 4.68785
      vertex 17.5693 36.5 4.68786
    endloop
  endfacet
  facet normal -0.95694 6.44562e-17 0.290285
    outer loop
      vertex 17.5693 40 4.68785
      vertex 17.4782 40 4.38771
      vertex 17.5693 36.5 4.68786
    endloop
  endfacet
  facet normal -0.95694 6.44562e-17 0.290285
    outer loop
      vertex 17.5693 36.5 4.68786
      vertex 17.4782 40 4.38771
      vertex 17.4782 36.5 4.38771
    endloop
  endfacet
  facet normal -0.881921 1.04671e-16 0.471397
    outer loop
      vertex 17.4782 40 4.38771
      vertex 17.3304 40 4.11109
      vertex 17.4782 36.5 4.38771
    endloop
  endfacet
  facet normal -0.881921 1.04671e-16 0.471397
    outer loop
      vertex 17.4782 36.5 4.38771
      vertex 17.3304 40 4.11109
      vertex 17.3304 36.5 4.11109
    endloop
  endfacet
  facet normal -0.773012 1.40863e-16 0.634391
    outer loop
      vertex 17.3304 40 4.11109
      vertex 17.1314 40 3.86863
      vertex 17.3304 36.5 4.11109
    endloop
  endfacet
  facet normal -0.773012 1.40863e-16 0.634391
    outer loop
      vertex 17.3304 36.5 4.11109
      vertex 17.1314 40 3.86863
      vertex 17.1314 36.5 3.86863
    endloop
  endfacet
  facet normal -0.634391 1.71643e-16 0.773012
    outer loop
      vertex 17.1314 36.5 3.86863
      vertex 17.1314 40 3.86863
      vertex 16.8889 40 3.66965
    endloop
  endfacet
  facet normal -0.634391 1.71643e-16 0.773012
    outer loop
      vertex 16.8889 36.5 3.66965
      vertex 17.1314 36.5 3.86863
      vertex 16.8889 40 3.66965
    endloop
  endfacet
  facet normal -0.471397 1.95826e-16 0.881921
    outer loop
      vertex 16.8889 36.5 3.66965
      vertex 16.8889 40 3.66965
      vertex 16.6123 40 3.52179
    endloop
  endfacet
  facet normal -0.471397 1.95826e-16 0.881921
    outer loop
      vertex 16.6123 36.5 3.52179
      vertex 16.8889 36.5 3.66965
      vertex 16.6123 40 3.52179
    endloop
  endfacet
  facet normal -0.290285 2.12483e-16 0.95694
    outer loop
      vertex 16.6123 36.5 3.52179
      vertex 16.6123 40 3.52179
      vertex 16.3121 40 3.43074
    endloop
  endfacet
  facet normal -0.290285 2.12483e-16 0.95694
    outer loop
      vertex 16.3121 36.5 3.43074
      vertex 16.6123 36.5 3.52179
      vertex 16.3121 40 3.43074
    endloop
  endfacet
  facet normal -0.0980184 2.20975e-16 0.995185
    outer loop
      vertex 16.3121 36.5 3.43074
      vertex 16.3121 40 3.43074
      vertex 16 40 3.4
    endloop
  endfacet
  facet normal -0.0980184 2.20975e-16 0.995185
    outer loop
      vertex 16 36.5 3.4
      vertex 16.3121 36.5 3.43074
      vertex 16 40 3.4
    endloop
  endfacet
  facet normal 0.0980184 2.20975e-16 0.995185
    outer loop
      vertex 16 36.5 3.4
      vertex 16 40 3.4
      vertex 15.6879 40 3.43074
    endloop
  endfacet
  facet normal 0.0980184 2.20975e-16 0.995185
    outer loop
      vertex 15.6879 36.5 3.43074
      vertex 16 36.5 3.4
      vertex 15.6879 40 3.43074
    endloop
  endfacet
  facet normal 0.290285 2.12483e-16 0.95694
    outer loop
      vertex 15.6879 36.5 3.43074
      vertex 15.6879 40 3.43074
      vertex 15.3877 40 3.52179
    endloop
  endfacet
  facet normal 0.290285 2.12483e-16 0.95694
    outer loop
      vertex 15.3877 36.5 3.52179
      vertex 15.6879 36.5 3.43074
      vertex 15.3877 40 3.52179
    endloop
  endfacet
  facet normal 0.471397 1.95826e-16 0.881921
    outer loop
      vertex 15.3877 36.5 3.52179
      vertex 15.3877 40 3.52179
      vertex 15.1111 40 3.66965
    endloop
  endfacet
  facet normal 0.471397 1.95826e-16 0.881921
    outer loop
      vertex 15.1111 36.5 3.66965
      vertex 15.3877 36.5 3.52179
      vertex 15.1111 40 3.66965
    endloop
  endfacet
  facet normal 0.634391 1.71643e-16 0.773012
    outer loop
      vertex 15.1111 36.5 3.66965
      vertex 15.1111 40 3.66965
      vertex 14.8686 40 3.86863
    endloop
  endfacet
  facet normal 0.634391 1.71643e-16 0.773012
    outer loop
      vertex 14.8686 36.5 3.86863
      vertex 15.1111 36.5 3.66965
      vertex 14.8686 40 3.86863
    endloop
  endfacet
  facet normal 0.773012 1.40863e-16 0.634391
    outer loop
      vertex 14.8686 36.5 3.86863
      vertex 14.8686 40 3.86863
      vertex 14.6696 40 4.11109
    endloop
  endfacet
  facet normal 0.773012 1.40863e-16 0.634391
    outer loop
      vertex 14.6696 36.5 4.11109
      vertex 14.8686 36.5 3.86863
      vertex 14.6696 40 4.11109
    endloop
  endfacet
  facet normal 0.881921 1.04671e-16 0.471397
    outer loop
      vertex 14.6696 36.5 4.11109
      vertex 14.6696 40 4.11109
      vertex 14.5218 40 4.38771
    endloop
  endfacet
  facet normal 0.881921 1.04671e-16 0.471397
    outer loop
      vertex 14.5218 36.5 4.38771
      vertex 14.6696 36.5 4.11109
      vertex 14.5218 40 4.38771
    endloop
  endfacet
  facet normal 0.95694 6.44562e-17 0.290285
    outer loop
      vertex 14.5218 36.5 4.38771
      vertex 14.5218 40 4.38771
      vertex 14.4307 40 4.68785
    endloop
  endfacet
  facet normal 0.95694 6.44562e-17 0.290285
    outer loop
      vertex 14.4307 36.5 4.68786
      vertex 14.5218 36.5 4.38771
      vertex 14.4307 40 4.68785
    endloop
  endfacet
  facet normal 0.995185 -2.17645e-17 -0.0980184
    outer loop
      vertex 46.4 40 5
      vertex 46.4307 40 5.31215
      vertex 46.4307 36.5 5.31215
    endloop
  endfacet
  facet normal 0.995185 -2.17645e-17 -0.0980184
    outer loop
      vertex 46.4 36.5 5
      vertex 46.4 40 5
      vertex 46.4307 36.5 5.31215
    endloop
  endfacet
  facet normal 0.995185 2.17645e-17 0.0980184
    outer loop
      vertex 46.4307 36.5 4.68786
      vertex 46.4307 40 4.68785
      vertex 46.4 40 5
    endloop
  endfacet
  facet normal 0.995185 2.17645e-17 0.0980184
    outer loop
      vertex 46.4 36.5 5
      vertex 46.4307 36.5 4.68786
      vertex 46.4 40 5
    endloop
  endfacet
  facet normal 0.95694 -6.44562e-17 -0.290285
    outer loop
      vertex 46.4307 40 5.31215
      vertex 46.5218 40 5.61229
      vertex 46.5218 36.5 5.61229
    endloop
  endfacet
  facet normal 0.95694 -6.44562e-17 -0.290285
    outer loop
      vertex 46.4307 36.5 5.31215
      vertex 46.4307 40 5.31215
      vertex 46.5218 36.5 5.61229
    endloop
  endfacet
  facet normal 0.881921 -1.04671e-16 -0.471397
    outer loop
      vertex 46.5218 40 5.61229
      vertex 46.6696 40 5.88891
      vertex 46.6696 36.5 5.88891
    endloop
  endfacet
  facet normal 0.881921 -1.04671e-16 -0.471397
    outer loop
      vertex 46.5218 36.5 5.61229
      vertex 46.5218 40 5.61229
      vertex 46.6696 36.5 5.88891
    endloop
  endfacet
  facet normal 0.773012 -1.40863e-16 -0.634391
    outer loop
      vertex 46.6696 40 5.88891
      vertex 46.8686 40 6.13137
      vertex 46.8686 36.5 6.13137
    endloop
  endfacet
  facet normal 0.773012 -1.40863e-16 -0.634391
    outer loop
      vertex 46.6696 36.5 5.88891
      vertex 46.6696 40 5.88891
      vertex 46.8686 36.5 6.13137
    endloop
  endfacet
  facet normal 0.634391 -1.71643e-16 -0.773012
    outer loop
      vertex 47.1111 40 6.33035
      vertex 47.1111 36.5 6.33035
      vertex 46.8686 40 6.13137
    endloop
  endfacet
  facet normal 0.634391 -1.71643e-16 -0.773012
    outer loop
      vertex 46.8686 40 6.13137
      vertex 47.1111 36.5 6.33035
      vertex 46.8686 36.5 6.13137
    endloop
  endfacet
  facet normal 0.471397 -1.95826e-16 -0.881921
    outer loop
      vertex 47.3877 40 6.47821
      vertex 47.3877 36.5 6.47821
      vertex 47.1111 40 6.33035
    endloop
  endfacet
  facet normal 0.471397 -1.95826e-16 -0.881921
    outer loop
      vertex 47.1111 40 6.33035
      vertex 47.3877 36.5 6.47821
      vertex 47.1111 36.5 6.33035
    endloop
  endfacet
  facet normal 0.290285 -2.12483e-16 -0.95694
    outer loop
      vertex 47.6879 40 6.56926
      vertex 47.6879 36.5 6.56926
      vertex 47.3877 40 6.47821
    endloop
  endfacet
  facet normal 0.290285 -2.12483e-16 -0.95694
    outer loop
      vertex 47.3877 40 6.47821
      vertex 47.6879 36.5 6.56926
      vertex 47.3877 36.5 6.47821
    endloop
  endfacet
  facet normal 0.0980184 -2.20975e-16 -0.995185
    outer loop
      vertex 48 40 6.6
      vertex 48 36.5 6.6
      vertex 47.6879 40 6.56926
    endloop
  endfacet
  facet normal 0.0980184 -2.20975e-16 -0.995185
    outer loop
      vertex 47.6879 40 6.56926
      vertex 48 36.5 6.6
      vertex 47.6879 36.5 6.56926
    endloop
  endfacet
  facet normal -0.0980184 -2.20975e-16 -0.995185
    outer loop
      vertex 48.3121 40 6.56926
      vertex 48.3121 36.5 6.56926
      vertex 48 40 6.6
    endloop
  endfacet
  facet normal -0.0980184 -2.20975e-16 -0.995185
    outer loop
      vertex 48 40 6.6
      vertex 48.3121 36.5 6.56926
      vertex 48 36.5 6.6
    endloop
  endfacet
  facet normal -0.290285 -2.12483e-16 -0.95694
    outer loop
      vertex 48.6123 40 6.47821
      vertex 48.6123 36.5 6.47821
      vertex 48.3121 40 6.56926
    endloop
  endfacet
  facet normal -0.290285 -2.12483e-16 -0.95694
    outer loop
      vertex 48.3121 40 6.56926
      vertex 48.6123 36.5 6.47821
      vertex 48.3121 36.5 6.56926
    endloop
  endfacet
  facet normal -0.471397 -1.95826e-16 -0.881921
    outer loop
      vertex 48.8889 40 6.33035
      vertex 48.8889 36.5 6.33035
      vertex 48.6123 40 6.47821
    endloop
  endfacet
  facet normal -0.471397 -1.95826e-16 -0.881921
    outer loop
      vertex 48.6123 40 6.47821
      vertex 48.8889 36.5 6.33035
      vertex 48.6123 36.5 6.47821
    endloop
  endfacet
  facet normal -0.634391 -1.71643e-16 -0.773012
    outer loop
      vertex 49.1314 40 6.13137
      vertex 49.1314 36.5 6.13137
      vertex 48.8889 40 6.33035
    endloop
  endfacet
  facet normal -0.634391 -1.71643e-16 -0.773012
    outer loop
      vertex 48.8889 40 6.33035
      vertex 49.1314 36.5 6.13137
      vertex 48.8889 36.5 6.33035
    endloop
  endfacet
  facet normal -0.773012 -1.40863e-16 -0.634391
    outer loop
      vertex 49.3304 40 5.88891
      vertex 49.3304 36.5 5.88891
      vertex 49.1314 40 6.13137
    endloop
  endfacet
  facet normal -0.773012 -1.40863e-16 -0.634391
    outer loop
      vertex 49.1314 40 6.13137
      vertex 49.3304 36.5 5.88891
      vertex 49.1314 36.5 6.13137
    endloop
  endfacet
  facet normal -0.881921 -1.04671e-16 -0.471397
    outer loop
      vertex 49.4782 40 5.61229
      vertex 49.4782 36.5 5.61229
      vertex 49.3304 40 5.88891
    endloop
  endfacet
  facet normal -0.881921 -1.04671e-16 -0.471397
    outer loop
      vertex 49.3304 40 5.88891
      vertex 49.4782 36.5 5.61229
      vertex 49.3304 36.5 5.88891
    endloop
  endfacet
  facet normal -0.95694 -6.44562e-17 -0.290285
    outer loop
      vertex 49.5693 40 5.31215
      vertex 49.5693 36.5 5.31215
      vertex 49.4782 40 5.61229
    endloop
  endfacet
  facet normal -0.95694 -6.44562e-17 -0.290285
    outer loop
      vertex 49.4782 40 5.61229
      vertex 49.5693 36.5 5.31215
      vertex 49.4782 36.5 5.61229
    endloop
  endfacet
  facet normal -0.995185 -2.17645e-17 -0.0980184
    outer loop
      vertex 49.6 40 5
      vertex 49.6 36.5 5
      vertex 49.5693 40 5.31215
    endloop
  endfacet
  facet normal -0.995185 -2.17645e-17 -0.0980184
    outer loop
      vertex 49.5693 40 5.31215
      vertex 49.6 36.5 5
      vertex 49.5693 36.5 5.31215
    endloop
  endfacet
  facet normal -0.995185 2.17645e-17 0.0980184
    outer loop
      vertex 49.6 40 5
      vertex 49.5693 40 4.68785
      vertex 49.6 36.5 5
    endloop
  endfacet
  facet normal -0.995185 2.17645e-17 0.0980184
    outer loop
      vertex 49.6 36.5 5
      vertex 49.5693 40 4.68785
      vertex 49.5693 36.5 4.68786
    endloop
  endfacet
  facet normal -0.95694 6.44562e-17 0.290285
    outer loop
      vertex 49.5693 40 4.68785
      vertex 49.4782 40 4.38771
      vertex 49.5693 36.5 4.68786
    endloop
  endfacet
  facet normal -0.95694 6.44562e-17 0.290285
    outer loop
      vertex 49.5693 36.5 4.68786
      vertex 49.4782 40 4.38771
      vertex 49.4782 36.5 4.38771
    endloop
  endfacet
  facet normal -0.881921 1.04671e-16 0.471397
    outer loop
      vertex 49.4782 40 4.38771
      vertex 49.3304 40 4.11109
      vertex 49.4782 36.5 4.38771
    endloop
  endfacet
  facet normal -0.881921 1.04671e-16 0.471397
    outer loop
      vertex 49.4782 36.5 4.38771
      vertex 49.3304 40 4.11109
      vertex 49.3304 36.5 4.11109
    endloop
  endfacet
  facet normal -0.773012 1.40863e-16 0.634391
    outer loop
      vertex 49.3304 40 4.11109
      vertex 49.1314 40 3.86863
      vertex 49.3304 36.5 4.11109
    endloop
  endfacet
  facet normal -0.773012 1.40863e-16 0.634391
    outer loop
      vertex 49.3304 36.5 4.11109
      vertex 49.1314 40 3.86863
      vertex 49.1314 36.5 3.86863
    endloop
  endfacet
  facet normal -0.634391 1.71643e-16 0.773012
    outer loop
      vertex 49.1314 36.5 3.86863
      vertex 49.1314 40 3.86863
      vertex 48.8889 40 3.66965
    endloop
  endfacet
  facet normal -0.634391 1.71643e-16 0.773012
    outer loop
      vertex 48.8889 36.5 3.66965
      vertex 49.1314 36.5 3.86863
      vertex 48.8889 40 3.66965
    endloop
  endfacet
  facet normal -0.471397 1.95826e-16 0.881921
    outer loop
      vertex 48.8889 36.5 3.66965
      vertex 48.8889 40 3.66965
      vertex 48.6123 40 3.52179
    endloop
  endfacet
  facet normal -0.471397 1.95826e-16 0.881921
    outer loop
      vertex 48.6123 36.5 3.52179
      vertex 48.8889 36.5 3.66965
      vertex 48.6123 40 3.52179
    endloop
  endfacet
  facet normal -0.290285 2.12483e-16 0.95694
    outer loop
      vertex 48.6123 36.5 3.52179
      vertex 48.6123 40 3.52179
      vertex 48.3121 40 3.43074
    endloop
  endfacet
  facet normal -0.290285 2.12483e-16 0.95694
    outer loop
      vertex 48.3121 36.5 3.43074
      vertex 48.6123 36.5 3.52179
      vertex 48.3121 40 3.43074
    endloop
  endfacet
  facet normal -0.0980184 2.20975e-16 0.995185
    outer loop
      vertex 48.3121 36.5 3.43074
      vertex 48.3121 40 3.43074
      vertex 48 40 3.4
    endloop
  endfacet
  facet normal -0.0980184 2.20975e-16 0.995185
    outer loop
      vertex 48 36.5 3.4
      vertex 48.3121 36.5 3.43074
      vertex 48 40 3.4
    endloop
  endfacet
  facet normal 0.0980184 2.20975e-16 0.995185
    outer loop
      vertex 48 36.5 3.4
      vertex 48 40 3.4
      vertex 47.6879 40 3.43074
    endloop
  endfacet
  facet normal 0.0980184 2.20975e-16 0.995185
    outer loop
      vertex 47.6879 36.5 3.43074
      vertex 48 36.5 3.4
      vertex 47.6879 40 3.43074
    endloop
  endfacet
  facet normal 0.290285 2.12483e-16 0.95694
    outer loop
      vertex 47.6879 36.5 3.43074
      vertex 47.6879 40 3.43074
      vertex 47.3877 40 3.52179
    endloop
  endfacet
  facet normal 0.290285 2.12483e-16 0.95694
    outer loop
      vertex 47.3877 36.5 3.52179
      vertex 47.6879 36.5 3.43074
      vertex 47.3877 40 3.52179
    endloop
  endfacet
  facet normal 0.471397 1.95826e-16 0.881921
    outer loop
      vertex 47.3877 36.5 3.52179
      vertex 47.3877 40 3.52179
      vertex 47.1111 40 3.66965
    endloop
  endfacet
  facet normal 0.471397 1.95826e-16 0.881921
    outer loop
      vertex 47.1111 36.5 3.66965
      vertex 47.3877 36.5 3.52179
      vertex 47.1111 40 3.66965
    endloop
  endfacet
  facet normal 0.634391 1.71643e-16 0.773012
    outer loop
      vertex 47.1111 36.5 3.66965
      vertex 47.1111 40 3.66965
      vertex 46.8686 40 3.86863
    endloop
  endfacet
  facet normal 0.634391 1.71643e-16 0.773012
    outer loop
      vertex 46.8686 36.5 3.86863
      vertex 47.1111 36.5 3.66965
      vertex 46.8686 40 3.86863
    endloop
  endfacet
  facet normal 0.773012 1.40863e-16 0.634391
    outer loop
      vertex 46.8686 36.5 3.86863
      vertex 46.8686 40 3.86863
      vertex 46.6696 40 4.11109
    endloop
  endfacet
  facet normal 0.773012 1.40863e-16 0.634391
    outer loop
      vertex 46.6696 36.5 4.11109
      vertex 46.8686 36.5 3.86863
      vertex 46.6696 40 4.11109
    endloop
  endfacet
  facet normal 0.881921 1.04671e-16 0.471397
    outer loop
      vertex 46.6696 36.5 4.11109
      vertex 46.6696 40 4.11109
      vertex 46.5218 40 4.38771
    endloop
  endfacet
  facet normal 0.881921 1.04671e-16 0.471397
    outer loop
      vertex 46.5218 36.5 4.38771
      vertex 46.6696 36.5 4.11109
      vertex 46.5218 40 4.38771
    endloop
  endfacet
  facet normal 0.95694 6.44562e-17 0.290285
    outer loop
      vertex 46.5218 36.5 4.38771
      vertex 46.5218 40 4.38771
      vertex 46.4307 40 4.68785
    endloop
  endfacet
  facet normal 0.95694 6.44562e-17 0.290285
    outer loop
      vertex 46.4307 36.5 4.68786
      vertex 46.5218 36.5 4.38771
      vertex 46.4307 40 4.68785
    endloop
  endfacet
  facet normal -0.0980175 -0.995185 0
    outer loop
      vertex 53.8877 36.452 1.5
      vertex 53.8877 36.452 10
      vertex 53.4 36.5 10
    endloop
  endfacet
  facet normal -0.0980175 -0.995185 0
    outer loop
      vertex 53.4 36.5 1.5
      vertex 53.8877 36.452 1.5
      vertex 53.4 36.5 10
    endloop
  endfacet
  facet normal -0.290284 -0.956941 0
    outer loop
      vertex 54.3567 36.3097 1.5
      vertex 54.3567 36.3097 10
      vertex 53.8877 36.452 10
    endloop
  endfacet
  facet normal -0.290284 -0.956941 0
    outer loop
      vertex 53.8877 36.452 1.5
      vertex 54.3567 36.3097 1.5
      vertex 53.8877 36.452 10
    endloop
  endfacet
  facet normal -0.471397 -0.881921 0
    outer loop
      vertex 54.7889 36.0787 1.5
      vertex 54.7889 36.0787 10
      vertex 54.3567 36.3097 10
    endloop
  endfacet
  facet normal -0.471397 -0.881921 0
    outer loop
      vertex 54.3567 36.3097 1.5
      vertex 54.7889 36.0787 1.5
      vertex 54.3567 36.3097 10
    endloop
  endfacet
  facet normal -0.634394 -0.77301 0
    outer loop
      vertex 55.1678 35.7678 1.5
      vertex 55.1678 35.7678 10
      vertex 54.7889 36.0787 10
    endloop
  endfacet
  facet normal -0.634394 -0.77301 0
    outer loop
      vertex 54.7889 36.0787 1.5
      vertex 55.1678 35.7678 1.5
      vertex 54.7889 36.0787 10
    endloop
  endfacet
  facet normal -0.707107 -0.707107 0
    outer loop
      vertex 59.2678 31.6678 1.5
      vertex 59.2678 31.6678 10
      vertex 55.1678 35.7678 10
    endloop
  endfacet
  facet normal -0.707107 -0.707107 0
    outer loop
      vertex 55.1678 35.7678 1.5
      vertex 59.2678 31.6678 1.5
      vertex 55.1678 35.7678 10
    endloop
  endfacet
  facet normal -0.77301 -0.634394 0
    outer loop
      vertex 59.5787 31.2889 10
      vertex 59.2678 31.6678 10
      vertex 59.5787 31.2889 1.5
    endloop
  endfacet
  facet normal -0.77301 -0.634394 0
    outer loop
      vertex 59.5787 31.2889 1.5
      vertex 59.2678 31.6678 10
      vertex 59.2678 31.6678 1.5
    endloop
  endfacet
  facet normal -0.881921 -0.471397 0
    outer loop
      vertex 59.8097 30.8567 10
      vertex 59.5787 31.2889 10
      vertex 59.8097 30.8567 1.5
    endloop
  endfacet
  facet normal -0.881921 -0.471397 0
    outer loop
      vertex 59.8097 30.8567 1.5
      vertex 59.5787 31.2889 10
      vertex 59.5787 31.2889 1.5
    endloop
  endfacet
  facet normal -0.956941 -0.290284 0
    outer loop
      vertex 59.952 30.3877 10
      vertex 59.8097 30.8567 10
      vertex 59.952 30.3877 1.5
    endloop
  endfacet
  facet normal -0.956941 -0.290284 0
    outer loop
      vertex 59.952 30.3877 1.5
      vertex 59.8097 30.8567 10
      vertex 59.8097 30.8567 1.5
    endloop
  endfacet
endsolid OpenSCAD_Model
